<svg xmlns="http://www.w3.org/2000/svg" width="960" height="1673.321" viewBox="0 0 960 1673.321">
  <g id="Group_175" data-name="Group 175" transform="translate(2 -2033.584)">
    <rect id="Rectangle_93" data-name="Rectangle 93" width="960" height="1480.489" transform="translate(-2 2130.087)" fill="#342d22"/>
    <g id="Layer_1-2" transform="translate(33.769 2033.584)">
      <path id="Path_1" data-name="Path 1" d="M45.442,38.317s1.369-14.235-3.161-16.695-5.836.533-5.836.533S32,12.364,43.587,12.794c0,0-1.592-9.713,8.439-12.794,0,0,10.907,3.192,8.495,12.746,0,0,10.907-1.592,7.285,9.116,0,0-7.507-4.02-8.718,6.194a56.909,56.909,0,0,0-.175,5.852c.056,3.5,0,4.411,0,4.411Z" transform="translate(-7.26 0)" fill="#342d22"/>
      <path id="Path_2" data-name="Path 2" d="M45.442,104.46s1.369,14.235-3.161,16.695-5.836-.533-5.836-.533-4.442,9.792,7.141,9.362c0,0-1.592,9.713,8.439,12.794,0,0,10.907-3.192,8.495-12.746,0,0,10.907,1.592,7.285-9.116,0,0-7.507,4.02-8.718-6.194a56.909,56.909,0,0,1-.175-5.852c.056-3.5,0-4.411,0-4.411H45.442Z" transform="translate(-7.26 -21.297)" fill="#342d22"/>
      <path id="Path_3" data-name="Path 3" d="M63.55,44.552s14.235,1.369,16.695-3.161-.533-5.836-.533-5.836S89.5,31.113,89.074,42.7c0,0,9.713-1.592,12.794,8.439,0,0-3.192,10.907-12.746,8.495,0,0,1.592,10.907-9.116,7.285,0,0,4.02-7.507-6.194-8.718a56.909,56.909,0,0,0-5.852-.175c-3.5.056-4.411,0-4.411,0V44.552Z" transform="translate(-12.956 -7.078)" fill="#342d22"/>
      <path id="Path_4" data-name="Path 4" d="M38.317,44.552s-14.235,1.369-16.695-3.161.533-5.836.533-5.836-9.792-4.442-9.362,7.141c0,0-9.713-1.592-12.794,8.439,0,0,3.192,10.907,12.746,8.495,0,0-1.592,10.907,9.116,7.285,0,0-4.02-7.507,6.194-8.718a56.909,56.909,0,0,1,5.852-.175c3.5.056,4.411,0,4.411,0Z" transform="translate(0 -7.078)" fill="#342d22"/>
      <rect id="Rectangle_5" data-name="Rectangle 5" width="13.447" height="45.339" transform="translate(38.222 38.317)" fill="#342d22"/>
    </g>
    <g id="Layer_1-2-2" data-name="Layer_1-2" transform="translate(36.242 3585.424)">
      <path id="Path_1-2" data-name="Path 1" d="M45.442,0s1.369,14.235-3.161,16.695-5.836-.533-5.836-.533S32,25.954,43.587,25.524c0,0-1.592,9.713,8.439,12.794,0,0,10.907-3.192,8.495-12.746,0,0,10.907,1.592,7.285-9.116,0,0-7.507,4.02-8.718-6.194a56.909,56.909,0,0,1-.175-5.852c.056-3.5,0-4.411,0-4.411Z" transform="translate(-7.26 83.163)" fill="#342d22"/>
      <path id="Path_2-2" data-name="Path 2" d="M45.442,142.777s1.369-14.235-3.161-16.695-5.836.533-5.836.533-4.442-9.792,7.141-9.362c0,0-1.592-9.713,8.439-12.794,0,0,10.907,3.192,8.495,12.746,0,0,10.907-1.592,7.285,9.116,0,0-7.507-4.02-8.718,6.194a56.909,56.909,0,0,0-.175,5.852c.056,3.5,0,4.411,0,4.411Z" transform="translate(-7.26 -104.46)" fill="#342d22"/>
      <path id="Path_3-2" data-name="Path 3" d="M63.55,57.819s14.235-1.369,16.695,3.161-.533,5.836-.533,5.836,9.792,4.442,9.362-7.141c0,0,9.713,1.592,12.794-8.439,0,0-3.192-10.907-12.746-8.495,0,0,1.592-10.907-9.116-7.285,0,0,4.02,7.507-6.194,8.718a56.909,56.909,0,0,1-5.852.175c-3.5-.056-4.411,0-4.411,0v13.47Z" transform="translate(-12.956 26.188)" fill="#342d22"/>
      <path id="Path_4-2" data-name="Path 4" d="M38.317,57.819s-14.235-1.369-16.695,3.161.533,5.836.533,5.836-9.792,4.442-9.362-7.141c0,0-9.713,1.592-12.794-8.439,0,0,3.192-10.907,12.746-8.495,0,0-1.592-10.907,9.116-7.285,0,0-4.02,7.507,6.194,8.718a56.909,56.909,0,0,0,5.852.175c3.5-.056,4.411,0,4.411,0Z" transform="translate(0 26.188)" fill="#342d22"/>
      <rect id="Rectangle_5-2" data-name="Rectangle 5" width="13.447" height="45.339" transform="translate(38.222 37.824)" fill="#342d22"/>
    </g>
    <g id="Layer_1-2-3" data-name="Layer_1-2" transform="translate(148.769 2033.584)">
      <path id="Path_1-3" data-name="Path 1" d="M45.442,38.317s1.369-14.235-3.161-16.695-5.836.533-5.836.533S32,12.364,43.587,12.794c0,0-1.592-9.713,8.439-12.794,0,0,10.907,3.192,8.495,12.746,0,0,10.907-1.592,7.285,9.116,0,0-7.507-4.02-8.718,6.194a56.909,56.909,0,0,0-.175,5.852c.056,3.5,0,4.411,0,4.411Z" transform="translate(-7.26 0)" fill="#342d22"/>
      <path id="Path_2-3" data-name="Path 2" d="M45.442,104.46s1.369,14.235-3.161,16.695-5.836-.533-5.836-.533-4.442,9.792,7.141,9.362c0,0-1.592,9.713,8.439,12.794,0,0,10.907-3.192,8.495-12.746,0,0,10.907,1.592,7.285-9.116,0,0-7.507,4.02-8.718-6.194a56.909,56.909,0,0,1-.175-5.852c.056-3.5,0-4.411,0-4.411H45.442Z" transform="translate(-7.26 -21.297)" fill="#342d22"/>
      <path id="Path_3-3" data-name="Path 3" d="M63.55,44.552s14.235,1.369,16.695-3.161-.533-5.836-.533-5.836S89.5,31.113,89.074,42.7c0,0,9.713-1.592,12.794,8.439,0,0-3.192,10.907-12.746,8.495,0,0,1.592,10.907-9.116,7.285,0,0,4.02-7.507-6.194-8.718a56.909,56.909,0,0,0-5.852-.175c-3.5.056-4.411,0-4.411,0V44.552Z" transform="translate(-12.956 -7.078)" fill="#342d22"/>
      <path id="Path_4-3" data-name="Path 4" d="M38.317,44.552s-14.235,1.369-16.695-3.161.533-5.836.533-5.836-9.792-4.442-9.362,7.141c0,0-9.713-1.592-12.794,8.439,0,0,3.192,10.907,12.746,8.495,0,0-1.592,10.907,9.116,7.285,0,0-4.02-7.507,6.194-8.718a56.909,56.909,0,0,1,5.852-.175c3.5.056,4.411,0,4.411,0Z" transform="translate(0 -7.078)" fill="#342d22"/>
      <rect id="Rectangle_5-3" data-name="Rectangle 5" width="13.447" height="45.339" transform="translate(38.222 38.317)" fill="#342d22"/>
    </g>
    <g id="Layer_1-2-4" data-name="Layer_1-2" transform="translate(151.242 3585.424)">
      <path id="Path_1-4" data-name="Path 1" d="M45.442,0s1.369,14.235-3.161,16.695-5.836-.533-5.836-.533S32,25.954,43.587,25.524c0,0-1.592,9.713,8.439,12.794,0,0,10.907-3.192,8.495-12.746,0,0,10.907,1.592,7.285-9.116,0,0-7.507,4.02-8.718-6.194a56.909,56.909,0,0,1-.175-5.852c.056-3.5,0-4.411,0-4.411Z" transform="translate(-7.26 83.163)" fill="#342d22"/>
      <path id="Path_2-4" data-name="Path 2" d="M45.442,142.777s1.369-14.235-3.161-16.695-5.836.533-5.836.533-4.442-9.792,7.141-9.362c0,0-1.592-9.713,8.439-12.794,0,0,10.907,3.192,8.495,12.746,0,0,10.907-1.592,7.285,9.116,0,0-7.507-4.02-8.718,6.194a56.909,56.909,0,0,0-.175,5.852c.056,3.5,0,4.411,0,4.411Z" transform="translate(-7.26 -104.46)" fill="#342d22"/>
      <path id="Path_3-4" data-name="Path 3" d="M63.55,57.819s14.235-1.369,16.695,3.161-.533,5.836-.533,5.836,9.792,4.442,9.362-7.141c0,0,9.713,1.592,12.794-8.439,0,0-3.192-10.907-12.746-8.495,0,0,1.592-10.907-9.116-7.285,0,0,4.02,7.507-6.194,8.718a56.909,56.909,0,0,1-5.852.175c-3.5-.056-4.411,0-4.411,0v13.47Z" transform="translate(-12.956 26.188)" fill="#342d22"/>
      <path id="Path_4-4" data-name="Path 4" d="M38.317,57.819s-14.235-1.369-16.695,3.161.533,5.836.533,5.836-9.792,4.442-9.362-7.141c0,0-9.713,1.592-12.794-8.439,0,0,3.192-10.907,12.746-8.495,0,0-1.592-10.907,9.116-7.285,0,0-4.02,7.507,6.194,8.718a56.909,56.909,0,0,0,5.852.175c3.5-.056,4.411,0,4.411,0Z" transform="translate(0 26.188)" fill="#342d22"/>
      <rect id="Rectangle_5-4" data-name="Rectangle 5" width="13.447" height="45.339" transform="translate(38.222 37.824)" fill="#342d22"/>
    </g>
    <g id="Layer_1-2-5" data-name="Layer_1-2" transform="translate(263.769 2033.584)">
      <path id="Path_1-5" data-name="Path 1" d="M45.442,38.317s1.369-14.235-3.161-16.695-5.836.533-5.836.533S32,12.364,43.587,12.794c0,0-1.592-9.713,8.439-12.794,0,0,10.907,3.192,8.495,12.746,0,0,10.907-1.592,7.285,9.116,0,0-7.507-4.02-8.718,6.194a56.909,56.909,0,0,0-.175,5.852c.056,3.5,0,4.411,0,4.411Z" transform="translate(-7.26 0)" fill="#342d22"/>
      <path id="Path_2-5" data-name="Path 2" d="M45.442,104.46s1.369,14.235-3.161,16.695-5.836-.533-5.836-.533-4.442,9.792,7.141,9.362c0,0-1.592,9.713,8.439,12.794,0,0,10.907-3.192,8.495-12.746,0,0,10.907,1.592,7.285-9.116,0,0-7.507,4.02-8.718-6.194a56.909,56.909,0,0,1-.175-5.852c.056-3.5,0-4.411,0-4.411H45.442Z" transform="translate(-7.26 -21.297)" fill="#342d22"/>
      <path id="Path_3-5" data-name="Path 3" d="M63.55,44.552s14.235,1.369,16.695-3.161-.533-5.836-.533-5.836S89.5,31.113,89.074,42.7c0,0,9.713-1.592,12.794,8.439,0,0-3.192,10.907-12.746,8.495,0,0,1.592,10.907-9.116,7.285,0,0,4.02-7.507-6.194-8.718a56.909,56.909,0,0,0-5.852-.175c-3.5.056-4.411,0-4.411,0V44.552Z" transform="translate(-12.956 -7.078)" fill="#342d22"/>
      <path id="Path_4-5" data-name="Path 4" d="M38.317,44.552s-14.235,1.369-16.695-3.161.533-5.836.533-5.836-9.792-4.442-9.362,7.141c0,0-9.713-1.592-12.794,8.439,0,0,3.192,10.907,12.746,8.495,0,0-1.592,10.907,9.116,7.285,0,0-4.02-7.507,6.194-8.718a56.909,56.909,0,0,1,5.852-.175c3.5.056,4.411,0,4.411,0Z" transform="translate(0 -7.078)" fill="#342d22"/>
      <rect id="Rectangle_5-5" data-name="Rectangle 5" width="13.447" height="45.339" transform="translate(38.222 38.317)" fill="#342d22"/>
    </g>
    <g id="Layer_1-2-6" data-name="Layer_1-2" transform="translate(266.242 3585.424)">
      <path id="Path_1-6" data-name="Path 1" d="M45.442,0s1.369,14.235-3.161,16.695-5.836-.533-5.836-.533S32,25.954,43.587,25.524c0,0-1.592,9.713,8.439,12.794,0,0,10.907-3.192,8.495-12.746,0,0,10.907,1.592,7.285-9.116,0,0-7.507,4.02-8.718-6.194a56.909,56.909,0,0,1-.175-5.852c.056-3.5,0-4.411,0-4.411Z" transform="translate(-7.26 83.163)" fill="#342d22"/>
      <path id="Path_2-6" data-name="Path 2" d="M45.442,142.777s1.369-14.235-3.161-16.695-5.836.533-5.836.533-4.442-9.792,7.141-9.362c0,0-1.592-9.713,8.439-12.794,0,0,10.907,3.192,8.495,12.746,0,0,10.907-1.592,7.285,9.116,0,0-7.507-4.02-8.718,6.194a56.909,56.909,0,0,0-.175,5.852c.056,3.5,0,4.411,0,4.411Z" transform="translate(-7.26 -104.46)" fill="#342d22"/>
      <path id="Path_3-6" data-name="Path 3" d="M63.55,57.819s14.235-1.369,16.695,3.161-.533,5.836-.533,5.836,9.792,4.442,9.362-7.141c0,0,9.713,1.592,12.794-8.439,0,0-3.192-10.907-12.746-8.495,0,0,1.592-10.907-9.116-7.285,0,0,4.02,7.507-6.194,8.718a56.909,56.909,0,0,1-5.852.175c-3.5-.056-4.411,0-4.411,0v13.47Z" transform="translate(-12.956 26.188)" fill="#342d22"/>
      <path id="Path_4-6" data-name="Path 4" d="M38.317,57.819s-14.235-1.369-16.695,3.161.533,5.836.533,5.836-9.792,4.442-9.362-7.141c0,0-9.713,1.592-12.794-8.439,0,0,3.192-10.907,12.746-8.495,0,0-1.592-10.907,9.116-7.285,0,0-4.02,7.507,6.194,8.718a56.909,56.909,0,0,0,5.852.175c3.5-.056,4.411,0,4.411,0Z" transform="translate(0 26.188)" fill="#342d22"/>
      <rect id="Rectangle_5-6" data-name="Rectangle 5" width="13.447" height="45.339" transform="translate(38.222 37.824)" fill="#342d22"/>
    </g>
    <g id="Layer_1-2-7" data-name="Layer_1-2" transform="translate(378.769 2033.584)">
      <path id="Path_1-7" data-name="Path 1" d="M45.442,38.317s1.369-14.235-3.161-16.695-5.836.533-5.836.533S32,12.364,43.587,12.794c0,0-1.592-9.713,8.439-12.794,0,0,10.907,3.192,8.495,12.746,0,0,10.907-1.592,7.285,9.116,0,0-7.507-4.02-8.718,6.194a56.909,56.909,0,0,0-.175,5.852c.056,3.5,0,4.411,0,4.411Z" transform="translate(-7.26 0)" fill="#342d22"/>
      <path id="Path_2-7" data-name="Path 2" d="M45.442,104.46s1.369,14.235-3.161,16.695-5.836-.533-5.836-.533-4.442,9.792,7.141,9.362c0,0-1.592,9.713,8.439,12.794,0,0,10.907-3.192,8.495-12.746,0,0,10.907,1.592,7.285-9.116,0,0-7.507,4.02-8.718-6.194a56.909,56.909,0,0,1-.175-5.852c.056-3.5,0-4.411,0-4.411H45.442Z" transform="translate(-7.26 -21.297)" fill="#342d22"/>
      <path id="Path_3-7" data-name="Path 3" d="M63.55,44.552s14.235,1.369,16.695-3.161-.533-5.836-.533-5.836S89.5,31.113,89.074,42.7c0,0,9.713-1.592,12.794,8.439,0,0-3.192,10.907-12.746,8.495,0,0,1.592,10.907-9.116,7.285,0,0,4.02-7.507-6.194-8.718a56.909,56.909,0,0,0-5.852-.175c-3.5.056-4.411,0-4.411,0V44.552Z" transform="translate(-12.956 -7.078)" fill="#342d22"/>
      <path id="Path_4-7" data-name="Path 4" d="M38.317,44.552s-14.235,1.369-16.695-3.161.533-5.836.533-5.836-9.792-4.442-9.362,7.141c0,0-9.713-1.592-12.794,8.439,0,0,3.192,10.907,12.746,8.495,0,0-1.592,10.907,9.116,7.285,0,0-4.02-7.507,6.194-8.718a56.909,56.909,0,0,1,5.852-.175c3.5.056,4.411,0,4.411,0Z" transform="translate(0 -7.078)" fill="#342d22"/>
      <rect id="Rectangle_5-7" data-name="Rectangle 5" width="13.447" height="45.339" transform="translate(38.222 38.317)" fill="#342d22"/>
    </g>
    <g id="Layer_1-2-8" data-name="Layer_1-2" transform="translate(381.242 3585.424)">
      <path id="Path_1-8" data-name="Path 1" d="M45.442,0s1.369,14.235-3.161,16.695-5.836-.533-5.836-.533S32,25.954,43.587,25.524c0,0-1.592,9.713,8.439,12.794,0,0,10.907-3.192,8.495-12.746,0,0,10.907,1.592,7.285-9.116,0,0-7.507,4.02-8.718-6.194a56.909,56.909,0,0,1-.175-5.852c.056-3.5,0-4.411,0-4.411Z" transform="translate(-7.26 83.163)" fill="#342d22"/>
      <path id="Path_2-8" data-name="Path 2" d="M45.442,142.777s1.369-14.235-3.161-16.695-5.836.533-5.836.533-4.442-9.792,7.141-9.362c0,0-1.592-9.713,8.439-12.794,0,0,10.907,3.192,8.495,12.746,0,0,10.907-1.592,7.285,9.116,0,0-7.507-4.02-8.718,6.194a56.909,56.909,0,0,0-.175,5.852c.056,3.5,0,4.411,0,4.411Z" transform="translate(-7.26 -104.46)" fill="#342d22"/>
      <path id="Path_3-8" data-name="Path 3" d="M63.55,57.819s14.235-1.369,16.695,3.161-.533,5.836-.533,5.836,9.792,4.442,9.362-7.141c0,0,9.713,1.592,12.794-8.439,0,0-3.192-10.907-12.746-8.495,0,0,1.592-10.907-9.116-7.285,0,0,4.02,7.507-6.194,8.718a56.909,56.909,0,0,1-5.852.175c-3.5-.056-4.411,0-4.411,0v13.47Z" transform="translate(-12.956 26.188)" fill="#342d22"/>
      <path id="Path_4-8" data-name="Path 4" d="M38.317,57.819s-14.235-1.369-16.695,3.161.533,5.836.533,5.836-9.792,4.442-9.362-7.141c0,0-9.713,1.592-12.794-8.439,0,0,3.192-10.907,12.746-8.495,0,0-1.592-10.907,9.116-7.285,0,0-4.02,7.507,6.194,8.718a56.909,56.909,0,0,0,5.852.175c3.5-.056,4.411,0,4.411,0Z" transform="translate(0 26.188)" fill="#342d22"/>
      <rect id="Rectangle_5-8" data-name="Rectangle 5" width="13.447" height="45.339" transform="translate(38.222 37.824)" fill="#342d22"/>
    </g>
    <g id="Layer_1-2-9" data-name="Layer_1-2" transform="translate(493.769 2033.584)">
      <path id="Path_1-9" data-name="Path 1" d="M45.442,38.317s1.369-14.235-3.161-16.695-5.836.533-5.836.533S32,12.364,43.587,12.794c0,0-1.592-9.713,8.439-12.794,0,0,10.907,3.192,8.495,12.746,0,0,10.907-1.592,7.285,9.116,0,0-7.507-4.02-8.718,6.194a56.909,56.909,0,0,0-.175,5.852c.056,3.5,0,4.411,0,4.411Z" transform="translate(-7.26 0)" fill="#342d22"/>
      <path id="Path_2-9" data-name="Path 2" d="M45.442,104.46s1.369,14.235-3.161,16.695-5.836-.533-5.836-.533-4.442,9.792,7.141,9.362c0,0-1.592,9.713,8.439,12.794,0,0,10.907-3.192,8.495-12.746,0,0,10.907,1.592,7.285-9.116,0,0-7.507,4.02-8.718-6.194a56.909,56.909,0,0,1-.175-5.852c.056-3.5,0-4.411,0-4.411H45.442Z" transform="translate(-7.26 -21.297)" fill="#342d22"/>
      <path id="Path_3-9" data-name="Path 3" d="M63.55,44.552s14.235,1.369,16.695-3.161-.533-5.836-.533-5.836S89.5,31.113,89.074,42.7c0,0,9.713-1.592,12.794,8.439,0,0-3.192,10.907-12.746,8.495,0,0,1.592,10.907-9.116,7.285,0,0,4.02-7.507-6.194-8.718a56.909,56.909,0,0,0-5.852-.175c-3.5.056-4.411,0-4.411,0V44.552Z" transform="translate(-12.956 -7.078)" fill="#342d22"/>
      <path id="Path_4-9" data-name="Path 4" d="M38.317,44.552s-14.235,1.369-16.695-3.161.533-5.836.533-5.836-9.792-4.442-9.362,7.141c0,0-9.713-1.592-12.794,8.439,0,0,3.192,10.907,12.746,8.495,0,0-1.592,10.907,9.116,7.285,0,0-4.02-7.507,6.194-8.718a56.909,56.909,0,0,1,5.852-.175c3.5.056,4.411,0,4.411,0Z" transform="translate(0 -7.078)" fill="#342d22"/>
      <rect id="Rectangle_5-9" data-name="Rectangle 5" width="13.447" height="45.339" transform="translate(38.222 38.317)" fill="#342d22"/>
    </g>
    <g id="Layer_1-2-10" data-name="Layer_1-2" transform="translate(496.242 3585.424)">
      <path id="Path_1-10" data-name="Path 1" d="M45.442,0s1.369,14.235-3.161,16.695-5.836-.533-5.836-.533S32,25.954,43.587,25.524c0,0-1.592,9.713,8.439,12.794,0,0,10.907-3.192,8.495-12.746,0,0,10.907,1.592,7.285-9.116,0,0-7.507,4.02-8.718-6.194a56.909,56.909,0,0,1-.175-5.852c.056-3.5,0-4.411,0-4.411Z" transform="translate(-7.26 83.163)" fill="#342d22"/>
      <path id="Path_2-10" data-name="Path 2" d="M45.442,142.777s1.369-14.235-3.161-16.695-5.836.533-5.836.533-4.442-9.792,7.141-9.362c0,0-1.592-9.713,8.439-12.794,0,0,10.907,3.192,8.495,12.746,0,0,10.907-1.592,7.285,9.116,0,0-7.507-4.02-8.718,6.194a56.909,56.909,0,0,0-.175,5.852c.056,3.5,0,4.411,0,4.411Z" transform="translate(-7.26 -104.46)" fill="#342d22"/>
      <path id="Path_3-10" data-name="Path 3" d="M63.55,57.819s14.235-1.369,16.695,3.161-.533,5.836-.533,5.836,9.792,4.442,9.362-7.141c0,0,9.713,1.592,12.794-8.439,0,0-3.192-10.907-12.746-8.495,0,0,1.592-10.907-9.116-7.285,0,0,4.02,7.507-6.194,8.718a56.909,56.909,0,0,1-5.852.175c-3.5-.056-4.411,0-4.411,0v13.47Z" transform="translate(-12.956 26.188)" fill="#342d22"/>
      <path id="Path_4-10" data-name="Path 4" d="M38.317,57.819s-14.235-1.369-16.695,3.161.533,5.836.533,5.836-9.792,4.442-9.362-7.141c0,0-9.713,1.592-12.794-8.439,0,0,3.192-10.907,12.746-8.495,0,0-1.592-10.907,9.116-7.285,0,0-4.02,7.507,6.194,8.718a56.909,56.909,0,0,0,5.852.175c3.5-.056,4.411,0,4.411,0Z" transform="translate(0 26.188)" fill="#342d22"/>
      <rect id="Rectangle_5-10" data-name="Rectangle 5" width="13.447" height="45.339" transform="translate(38.222 37.824)" fill="#342d22"/>
    </g>
    <g id="Layer_1-2-11" data-name="Layer_1-2" transform="translate(608.769 2033.584)">
      <path id="Path_1-11" data-name="Path 1" d="M45.442,38.317s1.369-14.235-3.161-16.695-5.836.533-5.836.533S32,12.364,43.587,12.794c0,0-1.592-9.713,8.439-12.794,0,0,10.907,3.192,8.495,12.746,0,0,10.907-1.592,7.285,9.116,0,0-7.507-4.02-8.718,6.194a56.909,56.909,0,0,0-.175,5.852c.056,3.5,0,4.411,0,4.411Z" transform="translate(-7.26 0)" fill="#342d22"/>
      <path id="Path_2-11" data-name="Path 2" d="M45.442,104.46s1.369,14.235-3.161,16.695-5.836-.533-5.836-.533-4.442,9.792,7.141,9.362c0,0-1.592,9.713,8.439,12.794,0,0,10.907-3.192,8.495-12.746,0,0,10.907,1.592,7.285-9.116,0,0-7.507,4.02-8.718-6.194a56.909,56.909,0,0,1-.175-5.852c.056-3.5,0-4.411,0-4.411H45.442Z" transform="translate(-7.26 -21.297)" fill="#342d22"/>
      <path id="Path_3-11" data-name="Path 3" d="M63.55,44.552s14.235,1.369,16.695-3.161-.533-5.836-.533-5.836S89.5,31.113,89.074,42.7c0,0,9.713-1.592,12.794,8.439,0,0-3.192,10.907-12.746,8.495,0,0,1.592,10.907-9.116,7.285,0,0,4.02-7.507-6.194-8.718a56.909,56.909,0,0,0-5.852-.175c-3.5.056-4.411,0-4.411,0V44.552Z" transform="translate(-12.956 -7.078)" fill="#342d22"/>
      <path id="Path_4-11" data-name="Path 4" d="M38.317,44.552s-14.235,1.369-16.695-3.161.533-5.836.533-5.836-9.792-4.442-9.362,7.141c0,0-9.713-1.592-12.794,8.439,0,0,3.192,10.907,12.746,8.495,0,0-1.592,10.907,9.116,7.285,0,0-4.02-7.507,6.194-8.718a56.909,56.909,0,0,1,5.852-.175c3.5.056,4.411,0,4.411,0Z" transform="translate(0 -7.078)" fill="#342d22"/>
      <rect id="Rectangle_5-11" data-name="Rectangle 5" width="13.447" height="45.339" transform="translate(38.222 38.317)" fill="#342d22"/>
    </g>
    <g id="Layer_1-2-12" data-name="Layer_1-2" transform="translate(611.242 3585.424)">
      <path id="Path_1-12" data-name="Path 1" d="M45.442,0s1.369,14.235-3.161,16.695-5.836-.533-5.836-.533S32,25.954,43.587,25.524c0,0-1.592,9.713,8.439,12.794,0,0,10.907-3.192,8.495-12.746,0,0,10.907,1.592,7.285-9.116,0,0-7.507,4.02-8.718-6.194a56.909,56.909,0,0,1-.175-5.852c.056-3.5,0-4.411,0-4.411Z" transform="translate(-7.26 83.163)" fill="#342d22"/>
      <path id="Path_2-12" data-name="Path 2" d="M45.442,142.777s1.369-14.235-3.161-16.695-5.836.533-5.836.533-4.442-9.792,7.141-9.362c0,0-1.592-9.713,8.439-12.794,0,0,10.907,3.192,8.495,12.746,0,0,10.907-1.592,7.285,9.116,0,0-7.507-4.02-8.718,6.194a56.909,56.909,0,0,0-.175,5.852c.056,3.5,0,4.411,0,4.411Z" transform="translate(-7.26 -104.46)" fill="#342d22"/>
      <path id="Path_3-12" data-name="Path 3" d="M63.55,57.819s14.235-1.369,16.695,3.161-.533,5.836-.533,5.836,9.792,4.442,9.362-7.141c0,0,9.713,1.592,12.794-8.439,0,0-3.192-10.907-12.746-8.495,0,0,1.592-10.907-9.116-7.285,0,0,4.02,7.507-6.194,8.718a56.909,56.909,0,0,1-5.852.175c-3.5-.056-4.411,0-4.411,0v13.47Z" transform="translate(-12.956 26.188)" fill="#342d22"/>
      <path id="Path_4-12" data-name="Path 4" d="M38.317,57.819s-14.235-1.369-16.695,3.161.533,5.836.533,5.836-9.792,4.442-9.362-7.141c0,0-9.713,1.592-12.794-8.439,0,0,3.192-10.907,12.746-8.495,0,0-1.592-10.907,9.116-7.285,0,0-4.02,7.507,6.194,8.718a56.909,56.909,0,0,0,5.852.175c3.5-.056,4.411,0,4.411,0Z" transform="translate(0 26.188)" fill="#342d22"/>
      <rect id="Rectangle_5-12" data-name="Rectangle 5" width="13.447" height="45.339" transform="translate(38.222 37.824)" fill="#342d22"/>
    </g>
    <g id="Layer_1-2-13" data-name="Layer_1-2" transform="translate(723.769 2033.584)">
      <path id="Path_1-13" data-name="Path 1" d="M45.442,38.317s1.369-14.235-3.161-16.695-5.836.533-5.836.533S32,12.364,43.587,12.794c0,0-1.592-9.713,8.439-12.794,0,0,10.907,3.192,8.495,12.746,0,0,10.907-1.592,7.285,9.116,0,0-7.507-4.02-8.718,6.194a56.909,56.909,0,0,0-.175,5.852c.056,3.5,0,4.411,0,4.411Z" transform="translate(-7.26 0)" fill="#342d22"/>
      <path id="Path_2-13" data-name="Path 2" d="M45.442,104.46s1.369,14.235-3.161,16.695-5.836-.533-5.836-.533-4.442,9.792,7.141,9.362c0,0-1.592,9.713,8.439,12.794,0,0,10.907-3.192,8.495-12.746,0,0,10.907,1.592,7.285-9.116,0,0-7.507,4.02-8.718-6.194a56.909,56.909,0,0,1-.175-5.852c.056-3.5,0-4.411,0-4.411H45.442Z" transform="translate(-7.26 -21.297)" fill="#342d22"/>
      <path id="Path_3-13" data-name="Path 3" d="M63.55,44.552s14.235,1.369,16.695-3.161-.533-5.836-.533-5.836S89.5,31.113,89.074,42.7c0,0,9.713-1.592,12.794,8.439,0,0-3.192,10.907-12.746,8.495,0,0,1.592,10.907-9.116,7.285,0,0,4.02-7.507-6.194-8.718a56.909,56.909,0,0,0-5.852-.175c-3.5.056-4.411,0-4.411,0V44.552Z" transform="translate(-12.956 -7.078)" fill="#342d22"/>
      <path id="Path_4-13" data-name="Path 4" d="M38.317,44.552s-14.235,1.369-16.695-3.161.533-5.836.533-5.836-9.792-4.442-9.362,7.141c0,0-9.713-1.592-12.794,8.439,0,0,3.192,10.907,12.746,8.495,0,0-1.592,10.907,9.116,7.285,0,0-4.02-7.507,6.194-8.718a56.909,56.909,0,0,1,5.852-.175c3.5.056,4.411,0,4.411,0Z" transform="translate(0 -7.078)" fill="#342d22"/>
      <rect id="Rectangle_5-13" data-name="Rectangle 5" width="13.447" height="45.339" transform="translate(38.222 38.317)" fill="#342d22"/>
    </g>
    <g id="Layer_1-2-14" data-name="Layer_1-2" transform="translate(726.242 3585.424)">
      <path id="Path_1-14" data-name="Path 1" d="M45.442,0s1.369,14.235-3.161,16.695-5.836-.533-5.836-.533S32,25.954,43.587,25.524c0,0-1.592,9.713,8.439,12.794,0,0,10.907-3.192,8.495-12.746,0,0,10.907,1.592,7.285-9.116,0,0-7.507,4.02-8.718-6.194a56.909,56.909,0,0,1-.175-5.852c.056-3.5,0-4.411,0-4.411Z" transform="translate(-7.26 83.163)" fill="#342d22"/>
      <path id="Path_2-14" data-name="Path 2" d="M45.442,142.777s1.369-14.235-3.161-16.695-5.836.533-5.836.533-4.442-9.792,7.141-9.362c0,0-1.592-9.713,8.439-12.794,0,0,10.907,3.192,8.495,12.746,0,0,10.907-1.592,7.285,9.116,0,0-7.507-4.02-8.718,6.194a56.909,56.909,0,0,0-.175,5.852c.056,3.5,0,4.411,0,4.411Z" transform="translate(-7.26 -104.46)" fill="#342d22"/>
      <path id="Path_3-14" data-name="Path 3" d="M63.55,57.819s14.235-1.369,16.695,3.161-.533,5.836-.533,5.836,9.792,4.442,9.362-7.141c0,0,9.713,1.592,12.794-8.439,0,0-3.192-10.907-12.746-8.495,0,0,1.592-10.907-9.116-7.285,0,0,4.02,7.507-6.194,8.718a56.909,56.909,0,0,1-5.852.175c-3.5-.056-4.411,0-4.411,0v13.47Z" transform="translate(-12.956 26.188)" fill="#342d22"/>
      <path id="Path_4-14" data-name="Path 4" d="M38.317,57.819s-14.235-1.369-16.695,3.161.533,5.836.533,5.836-9.792,4.442-9.362-7.141c0,0-9.713,1.592-12.794-8.439,0,0,3.192-10.907,12.746-8.495,0,0-1.592-10.907,9.116-7.285,0,0-4.02,7.507,6.194,8.718a56.909,56.909,0,0,0,5.852.175c3.5-.056,4.411,0,4.411,0Z" transform="translate(0 26.188)" fill="#342d22"/>
      <rect id="Rectangle_5-14" data-name="Rectangle 5" width="13.447" height="45.339" transform="translate(38.222 37.824)" fill="#342d22"/>
    </g>
    <g id="Layer_1-2-15" data-name="Layer_1-2" transform="translate(838.769 2033.584)">
      <path id="Path_1-15" data-name="Path 1" d="M45.442,38.317s1.369-14.235-3.161-16.695-5.836.533-5.836.533S32,12.364,43.587,12.794c0,0-1.592-9.713,8.439-12.794,0,0,10.907,3.192,8.495,12.746,0,0,10.907-1.592,7.285,9.116,0,0-7.507-4.02-8.718,6.194a56.909,56.909,0,0,0-.175,5.852c.056,3.5,0,4.411,0,4.411Z" transform="translate(-7.26 0)" fill="#342d22"/>
      <path id="Path_2-15" data-name="Path 2" d="M45.442,104.46s1.369,14.235-3.161,16.695-5.836-.533-5.836-.533-4.442,9.792,7.141,9.362c0,0-1.592,9.713,8.439,12.794,0,0,10.907-3.192,8.495-12.746,0,0,10.907,1.592,7.285-9.116,0,0-7.507,4.02-8.718-6.194a56.909,56.909,0,0,1-.175-5.852c.056-3.5,0-4.411,0-4.411H45.442Z" transform="translate(-7.26 -21.297)" fill="#342d22"/>
      <path id="Path_3-15" data-name="Path 3" d="M63.55,44.552s14.235,1.369,16.695-3.161-.533-5.836-.533-5.836S89.5,31.113,89.074,42.7c0,0,9.713-1.592,12.794,8.439,0,0-3.192,10.907-12.746,8.495,0,0,1.592,10.907-9.116,7.285,0,0,4.02-7.507-6.194-8.718a56.909,56.909,0,0,0-5.852-.175c-3.5.056-4.411,0-4.411,0V44.552Z" transform="translate(-12.956 -7.078)" fill="#342d22"/>
      <path id="Path_4-15" data-name="Path 4" d="M38.317,44.552s-14.235,1.369-16.695-3.161.533-5.836.533-5.836-9.792-4.442-9.362,7.141c0,0-9.713-1.592-12.794,8.439,0,0,3.192,10.907,12.746,8.495,0,0-1.592,10.907,9.116,7.285,0,0-4.02-7.507,6.194-8.718a56.909,56.909,0,0,1,5.852-.175c3.5.056,4.411,0,4.411,0Z" transform="translate(0 -7.078)" fill="#342d22"/>
      <rect id="Rectangle_5-15" data-name="Rectangle 5" width="13.447" height="45.339" transform="translate(38.222 38.317)" fill="#342d22"/>
    </g>
    <g id="Layer_1-2-16" data-name="Layer_1-2" transform="translate(841.242 3585.424)">
      <path id="Path_1-16" data-name="Path 1" d="M45.442,0s1.369,14.235-3.161,16.695-5.836-.533-5.836-.533S32,25.954,43.587,25.524c0,0-1.592,9.713,8.439,12.794,0,0,10.907-3.192,8.495-12.746,0,0,10.907,1.592,7.285-9.116,0,0-7.507,4.02-8.718-6.194a56.909,56.909,0,0,1-.175-5.852c.056-3.5,0-4.411,0-4.411Z" transform="translate(-7.26 83.163)" fill="#342d22"/>
      <path id="Path_2-16" data-name="Path 2" d="M45.442,142.777s1.369-14.235-3.161-16.695-5.836.533-5.836.533-4.442-9.792,7.141-9.362c0,0-1.592-9.713,8.439-12.794,0,0,10.907,3.192,8.495,12.746,0,0,10.907-1.592,7.285,9.116,0,0-7.507-4.02-8.718,6.194a56.909,56.909,0,0,0-.175,5.852c.056,3.5,0,4.411,0,4.411Z" transform="translate(-7.26 -104.46)" fill="#342d22"/>
      <path id="Path_3-16" data-name="Path 3" d="M63.55,57.819s14.235-1.369,16.695,3.161-.533,5.836-.533,5.836,9.792,4.442,9.362-7.141c0,0,9.713,1.592,12.794-8.439,0,0-3.192-10.907-12.746-8.495,0,0,1.592-10.907-9.116-7.285,0,0,4.02,7.507-6.194,8.718a56.909,56.909,0,0,1-5.852.175c-3.5-.056-4.411,0-4.411,0v13.47Z" transform="translate(-12.956 26.188)" fill="#342d22"/>
      <path id="Path_4-16" data-name="Path 4" d="M38.317,57.819s-14.235-1.369-16.695,3.161.533,5.836.533,5.836-9.792,4.442-9.362-7.141c0,0-9.713,1.592-12.794-8.439,0,0,3.192-10.907,12.746-8.495,0,0-1.592-10.907,9.116-7.285,0,0-4.02,7.507,6.194,8.718a56.909,56.909,0,0,0,5.852.175c3.5-.056,4.411,0,4.411,0Z" transform="translate(0 26.188)" fill="#342d22"/>
      <rect id="Rectangle_5-16" data-name="Rectangle 5" width="13.447" height="45.339" transform="translate(38.222 37.824)" fill="#342d22"/>
    </g>
    <path id="Path_262" data-name="Path 262" d="M24.231,1703.673s5.446,33.268,47.785,35.421S19.4,1740.22,19.4,1740.22v-36.547Z" transform="translate(61 390.652)" fill="#342d22"/>
    <path id="Path_286" data-name="Path 286" d="M24.231,1740.464s5.446-33.268,47.785-35.421-52.615-1.126-52.615-1.126v36.547Z" transform="translate(63.473 1905.7)" fill="#342d22"/>
    <path id="Path_263" data-name="Path 263" d="M78.06,1703.673s-5.446,33.268-47.785,35.421,52.615,1.126,52.615,1.126v-36.547Z" transform="translate(-5.632 390.652)" fill="#342d22"/>
    <path id="Path_287" data-name="Path 287" d="M78.06,1740.464s-5.446-33.268-47.785-35.421,52.615-1.126,52.615-1.126v36.547Z" transform="translate(-3.159 1905.7)" fill="#342d22"/>
    <path id="Path_264" data-name="Path 264" d="M24.231,1703.673s5.446,33.268,47.785,35.421S19.4,1740.22,19.4,1740.22v-36.547Z" transform="translate(175.395 390.652)" fill="#342d22"/>
    <path id="Path_288" data-name="Path 288" d="M24.231,1740.464s5.446-33.268,47.785-35.421-52.615-1.126-52.615-1.126v36.547Z" transform="translate(177.868 1905.7)" fill="#342d22"/>
    <path id="Path_265" data-name="Path 265" d="M78.06,1703.673s-5.446,33.268-47.785,35.421,52.615,1.126,52.615,1.126v-36.547Z" transform="translate(108.763 390.652)" fill="#342d22"/>
    <path id="Path_289" data-name="Path 289" d="M78.06,1740.464s-5.446-33.268-47.785-35.421,52.615-1.126,52.615-1.126v36.547Z" transform="translate(111.236 1905.7)" fill="#342d22"/>
    <path id="Path_266" data-name="Path 266" d="M24.231,1703.673s5.446,33.268,47.785,35.421S19.4,1740.22,19.4,1740.22v-36.547Z" transform="translate(290.395 390.652)" fill="#342d22"/>
    <path id="Path_290" data-name="Path 290" d="M24.231,1740.464s5.446-33.268,47.785-35.421-52.615-1.126-52.615-1.126v36.547Z" transform="translate(292.868 1905.7)" fill="#342d22"/>
    <path id="Path_267" data-name="Path 267" d="M78.06,1703.673s-5.446,33.268-47.785,35.421,52.615,1.126,52.615,1.126v-36.547Z" transform="translate(223.763 390.652)" fill="#342d22"/>
    <path id="Path_291" data-name="Path 291" d="M78.06,1740.464s-5.446-33.268-47.785-35.421,52.615-1.126,52.615-1.126v36.547Z" transform="translate(226.236 1905.7)" fill="#342d22"/>
    <path id="Path_268" data-name="Path 268" d="M24.231,1703.673s5.446,33.268,47.785,35.421S19.4,1740.22,19.4,1740.22v-36.547Z" transform="translate(405.395 389.652)" fill="#342d22"/>
    <path id="Path_278" data-name="Path 278" d="M24.231,1740.464s5.446-33.268,47.785-35.421-52.615-1.126-52.615-1.126v36.547Z" transform="translate(407.868 1906.7)" fill="#342d22"/>
    <path id="Path_269" data-name="Path 269" d="M78.06,1703.673s-5.446,33.268-47.785,35.421,52.615,1.126,52.615,1.126v-36.547Z" transform="translate(338.763 389.652)" fill="#342d22"/>
    <path id="Path_279" data-name="Path 279" d="M78.06,1740.464s-5.446-33.268-47.785-35.421,52.615-1.126,52.615-1.126v36.547Z" transform="translate(341.236 1906.7)" fill="#342d22"/>
    <path id="Path_271" data-name="Path 271" d="M24.231,1703.673s5.446,33.268,47.785,35.421S19.4,1740.22,19.4,1740.22v-36.547Z" transform="translate(520.395 389.652)" fill="#342d22"/>
    <path id="Path_280" data-name="Path 280" d="M24.231,1740.464s5.446-33.268,47.785-35.421-52.615-1.126-52.615-1.126v36.547Z" transform="translate(522.868 1906.7)" fill="#342d22"/>
    <path id="Path_270" data-name="Path 270" d="M78.06,1703.673s-5.446,33.268-47.785,35.421,52.615,1.126,52.615,1.126v-36.547Z" transform="translate(453.763 389.652)" fill="#342d22"/>
    <path id="Path_281" data-name="Path 281" d="M78.06,1740.464s-5.446-33.268-47.785-35.421,52.615-1.126,52.615-1.126v36.547Z" transform="translate(456.236 1906.7)" fill="#342d22"/>
    <path id="Path_273" data-name="Path 273" d="M24.231,1703.673s5.446,33.268,47.785,35.421S19.4,1740.22,19.4,1740.22v-36.547Z" transform="translate(635.395 389.652)" fill="#342d22"/>
    <path id="Path_282" data-name="Path 282" d="M24.231,1740.464s5.446-33.268,47.785-35.421-52.615-1.126-52.615-1.126v36.547Z" transform="translate(637.868 1906.7)" fill="#342d22"/>
    <path id="Path_272" data-name="Path 272" d="M78.06,1703.673s-5.446,33.268-47.785,35.421,52.615,1.126,52.615,1.126v-36.547Z" transform="translate(568.763 389.652)" fill="#342d22"/>
    <path id="Path_283" data-name="Path 283" d="M78.06,1740.464s-5.446-33.268-47.785-35.421,52.615-1.126,52.615-1.126v36.547Z" transform="translate(571.236 1906.7)" fill="#342d22"/>
    <path id="Path_275" data-name="Path 275" d="M24.231,1703.673s5.446,33.268,47.785,35.421S19.4,1740.22,19.4,1740.22v-36.547Z" transform="translate(750.395 389.652)" fill="#342d22"/>
    <path id="Path_284" data-name="Path 284" d="M24.231,1740.464s5.446-33.268,47.785-35.421-52.615-1.126-52.615-1.126v36.547Z" transform="translate(752.868 1906.7)" fill="#342d22"/>
    <path id="Path_274" data-name="Path 274" d="M78.06,1703.673s-5.446,33.268-47.785,35.421,52.615,1.126,52.615,1.126v-36.547Z" transform="translate(683.763 389.652)" fill="#342d22"/>
    <path id="Path_285" data-name="Path 285" d="M78.06,1740.464s-5.446-33.268-47.785-35.421,52.615-1.126,52.615-1.126v36.547Z" transform="translate(686.236 1906.7)" fill="#342d22"/>
    <path id="Path_277" data-name="Path 277" d="M24.231,1703.673s5.446,33.268,47.785,35.421S19.4,1740.22,19.4,1740.22v-36.547Z" transform="translate(866.395 390.652)" fill="#342d22"/>
    <path id="Path_292" data-name="Path 292" d="M24.231,1740.464s5.446-33.268,47.785-35.421-52.615-1.126-52.615-1.126v36.547Z" transform="translate(868.868 1905.7)" fill="#342d22"/>
    <path id="Path_276" data-name="Path 276" d="M78.06,1703.673s-5.446,33.268-47.785,35.421,52.615,1.126,52.615,1.126v-36.547Z" transform="translate(799.763 390.652)" fill="#342d22"/>
    <path id="Path_293" data-name="Path 293" d="M78.06,1740.464s-5.446-33.268-47.785-35.421,52.615-1.126,52.615-1.126v36.547Z" transform="translate(802.236 1905.7)" fill="#342d22"/>
    <g id="Group_174" data-name="Group 174">
      <path id="Path_294" data-name="Path 294" d="M18.086,6.314a2,2,0,0,1,3.828,0L26.18,20.387a2,2,0,0,0,.386.71l9.572,11.331a2,2,0,0,1-1.973,3.24l-13.72-3.131a2,2,0,0,0-.89,0l-174.743,88.57c-1.872.427-2.335-.594-1.1-2.061L13.434,21.1a2,2,0,0,0,.386-.71Z" transform="matrix(0.883, 0.469, -0.469, 0.883, 325.899, 2236.899)" fill="#fff"/>
      <path id="Path_295" data-name="Path 295" d="M175.062,114.893a2,2,0,0,0,3.828,0l4.266-14.073a2,2,0,0,1,.386-.71l9.572-11.331a2,2,0,0,0-1.973-3.24l-13.72,3.131a2,2,0,0,1-.89,0L1.787.1C-.085-.329-.548.692.691,2.159l169.718,97.95a2,2,0,0,1,.386.71Z" transform="matrix(-0.883, 0.469, -0.469, -0.883, 838.769, 2270.222)" fill="#fff"/>
    </g>
  </g>
</svg>
