<svg xmlns="http://www.w3.org/2000/svg" width="960" height="628.221" viewBox="0 0 960 628.221">
  <g id="Group_162" data-name="Group 162" transform="translate(0 -1180.109)">
    <g id="Rectangle_54" data-name="Rectangle 54" transform="translate(0 1272)" fill="#864f4f" stroke="#707070" stroke-width="1">
      <rect width="960" height="441" stroke="none"/>
      <rect x="0.5" y="0.5" width="959" height="440" fill="none"/>
    </g>
    <g id="Layer_1-2" transform="translate(925.516 1808.33) rotate(180)">
      <path id="Path_1" data-name="Path 1" d="M45.442,38.317s1.369-14.235-3.161-16.695-5.836.533-5.836.533S32,12.364,43.587,12.794c0,0-1.592-9.713,8.439-12.794,0,0,10.907,3.192,8.495,12.746,0,0,10.907-1.592,7.285,9.116,0,0-7.507-4.02-8.718,6.194a56.909,56.909,0,0,0-.175,5.852c.056,3.5,0,4.411,0,4.411Z" transform="translate(-7.26)" fill="#874e4f"/>
      <path id="Path_2" data-name="Path 2" d="M45.442,104.46s1.369,14.235-3.161,16.695-5.836-.533-5.836-.533-4.442,9.792,7.141,9.362c0,0-1.592,9.713,8.439,12.794,0,0,10.907-3.192,8.495-12.746,0,0,10.907,1.592,7.285-9.116,0,0-7.507,4.02-8.718-6.194a56.909,56.909,0,0,1-.175-5.852c.056-3.5,0-4.411,0-4.411H45.442Z" transform="translate(-7.26 -21.297)" fill="#874e4f"/>
      <path id="Path_3" data-name="Path 3" d="M63.55,44.552s14.235,1.369,16.695-3.161-.533-5.836-.533-5.836S89.5,31.113,89.074,42.7c0,0,9.713-1.592,12.794,8.439,0,0-3.192,10.907-12.746,8.495,0,0,1.592,10.907-9.116,7.285,0,0,4.02-7.507-6.194-8.718a56.909,56.909,0,0,0-5.852-.175c-3.5.056-4.411,0-4.411,0V44.552Z" transform="translate(-12.956 -7.078)" fill="#874e4f"/>
      <path id="Path_4" data-name="Path 4" d="M38.317,44.552s-14.235,1.369-16.695-3.161.533-5.836.533-5.836-9.792-4.442-9.362,7.141c0,0-9.713-1.592-12.794,8.439,0,0,3.192,10.907,12.746,8.495,0,0-1.592,10.907,9.116,7.285,0,0-4.02-7.507,6.194-8.718a56.909,56.909,0,0,1,5.852-.175c3.5.056,4.411,0,4.411,0Z" transform="translate(0 -7.078)" fill="#874e4f"/>
      <rect id="Rectangle_5" data-name="Rectangle 5" width="13.447" height="45.339" transform="translate(38.222 38.317)" fill="#874e4f"/>
    </g>
    <g id="Layer_1-2-2" data-name="Layer_1-2" transform="translate(810.516 1808.33) rotate(180)">
      <path id="Path_1-2" data-name="Path 1" d="M45.442,38.317s1.369-14.235-3.161-16.695-5.836.533-5.836.533S32,12.364,43.587,12.794c0,0-1.592-9.713,8.439-12.794,0,0,10.907,3.192,8.495,12.746,0,0,10.907-1.592,7.285,9.116,0,0-7.507-4.02-8.718,6.194a56.909,56.909,0,0,0-.175,5.852c.056,3.5,0,4.411,0,4.411Z" transform="translate(-7.26)" fill="#874e4f"/>
      <path id="Path_2-2" data-name="Path 2" d="M45.442,104.46s1.369,14.235-3.161,16.695-5.836-.533-5.836-.533-4.442,9.792,7.141,9.362c0,0-1.592,9.713,8.439,12.794,0,0,10.907-3.192,8.495-12.746,0,0,10.907,1.592,7.285-9.116,0,0-7.507,4.02-8.718-6.194a56.909,56.909,0,0,1-.175-5.852c.056-3.5,0-4.411,0-4.411H45.442Z" transform="translate(-7.26 -21.297)" fill="#874e4f"/>
      <path id="Path_3-2" data-name="Path 3" d="M63.55,44.552s14.235,1.369,16.695-3.161-.533-5.836-.533-5.836S89.5,31.113,89.074,42.7c0,0,9.713-1.592,12.794,8.439,0,0-3.192,10.907-12.746,8.495,0,0,1.592,10.907-9.116,7.285,0,0,4.02-7.507-6.194-8.718a56.909,56.909,0,0,0-5.852-.175c-3.5.056-4.411,0-4.411,0V44.552Z" transform="translate(-12.956 -7.078)" fill="#874e4f"/>
      <path id="Path_4-2" data-name="Path 4" d="M38.317,44.552s-14.235,1.369-16.695-3.161.533-5.836.533-5.836-9.792-4.442-9.362,7.141c0,0-9.713-1.592-12.794,8.439,0,0,3.192,10.907,12.746,8.495,0,0-1.592,10.907,9.116,7.285,0,0-4.02-7.507,6.194-8.718a56.909,56.909,0,0,1,5.852-.175c3.5.056,4.411,0,4.411,0Z" transform="translate(0 -7.078)" fill="#874e4f"/>
      <rect id="Rectangle_5-2" data-name="Rectangle 5" width="13.447" height="45.339" transform="translate(38.222 38.317)" fill="#874e4f"/>
    </g>
    <g id="Layer_1-2-3" data-name="Layer_1-2" transform="translate(695.516 1808.33) rotate(180)">
      <path id="Path_1-3" data-name="Path 1" d="M45.442,38.317s1.369-14.235-3.161-16.695-5.836.533-5.836.533S32,12.364,43.587,12.794c0,0-1.592-9.713,8.439-12.794,0,0,10.907,3.192,8.495,12.746,0,0,10.907-1.592,7.285,9.116,0,0-7.507-4.02-8.718,6.194a56.909,56.909,0,0,0-.175,5.852c.056,3.5,0,4.411,0,4.411Z" transform="translate(-7.26)" fill="#874e4f"/>
      <path id="Path_2-3" data-name="Path 2" d="M45.442,104.46s1.369,14.235-3.161,16.695-5.836-.533-5.836-.533-4.442,9.792,7.141,9.362c0,0-1.592,9.713,8.439,12.794,0,0,10.907-3.192,8.495-12.746,0,0,10.907,1.592,7.285-9.116,0,0-7.507,4.02-8.718-6.194a56.909,56.909,0,0,1-.175-5.852c.056-3.5,0-4.411,0-4.411H45.442Z" transform="translate(-7.26 -21.297)" fill="#874e4f"/>
      <path id="Path_3-3" data-name="Path 3" d="M63.55,44.552s14.235,1.369,16.695-3.161-.533-5.836-.533-5.836S89.5,31.113,89.074,42.7c0,0,9.713-1.592,12.794,8.439,0,0-3.192,10.907-12.746,8.495,0,0,1.592,10.907-9.116,7.285,0,0,4.02-7.507-6.194-8.718a56.909,56.909,0,0,0-5.852-.175c-3.5.056-4.411,0-4.411,0V44.552Z" transform="translate(-12.956 -7.078)" fill="#874e4f"/>
      <path id="Path_4-3" data-name="Path 4" d="M38.317,44.552s-14.235,1.369-16.695-3.161.533-5.836.533-5.836-9.792-4.442-9.362,7.141c0,0-9.713-1.592-12.794,8.439,0,0,3.192,10.907,12.746,8.495,0,0-1.592,10.907,9.116,7.285,0,0-4.02-7.507,6.194-8.718a56.909,56.909,0,0,1,5.852-.175c3.5.056,4.411,0,4.411,0Z" transform="translate(0 -7.078)" fill="#874e4f"/>
      <rect id="Rectangle_5-3" data-name="Rectangle 5" width="13.447" height="45.339" transform="translate(38.222 38.317)" fill="#874e4f"/>
    </g>
    <g id="Layer_1-2-4" data-name="Layer_1-2" transform="translate(580.516 1808.33) rotate(180)">
      <path id="Path_1-4" data-name="Path 1" d="M45.442,38.317s1.369-14.235-3.161-16.695-5.836.533-5.836.533S32,12.364,43.587,12.794c0,0-1.592-9.713,8.439-12.794,0,0,10.907,3.192,8.495,12.746,0,0,10.907-1.592,7.285,9.116,0,0-7.507-4.02-8.718,6.194a56.909,56.909,0,0,0-.175,5.852c.056,3.5,0,4.411,0,4.411Z" transform="translate(-7.26)" fill="#874e4f"/>
      <path id="Path_2-4" data-name="Path 2" d="M45.442,104.46s1.369,14.235-3.161,16.695-5.836-.533-5.836-.533-4.442,9.792,7.141,9.362c0,0-1.592,9.713,8.439,12.794,0,0,10.907-3.192,8.495-12.746,0,0,10.907,1.592,7.285-9.116,0,0-7.507,4.02-8.718-6.194a56.909,56.909,0,0,1-.175-5.852c.056-3.5,0-4.411,0-4.411H45.442Z" transform="translate(-7.26 -21.297)" fill="#874e4f"/>
      <path id="Path_3-4" data-name="Path 3" d="M63.55,44.552s14.235,1.369,16.695-3.161-.533-5.836-.533-5.836S89.5,31.113,89.074,42.7c0,0,9.713-1.592,12.794,8.439,0,0-3.192,10.907-12.746,8.495,0,0,1.592,10.907-9.116,7.285,0,0,4.02-7.507-6.194-8.718a56.909,56.909,0,0,0-5.852-.175c-3.5.056-4.411,0-4.411,0V44.552Z" transform="translate(-12.956 -7.078)" fill="#874e4f"/>
      <path id="Path_4-4" data-name="Path 4" d="M38.317,44.552s-14.235,1.369-16.695-3.161.533-5.836.533-5.836-9.792-4.442-9.362,7.141c0,0-9.713-1.592-12.794,8.439,0,0,3.192,10.907,12.746,8.495,0,0-1.592,10.907,9.116,7.285,0,0-4.02-7.507,6.194-8.718a56.909,56.909,0,0,1,5.852-.175c3.5.056,4.411,0,4.411,0Z" transform="translate(0 -7.078)" fill="#874e4f"/>
      <rect id="Rectangle_5-4" data-name="Rectangle 5" width="13.447" height="45.339" transform="translate(38.222 38.317)" fill="#874e4f"/>
    </g>
    <g id="Layer_1-2-5" data-name="Layer_1-2" transform="translate(465.516 1808.33) rotate(180)">
      <path id="Path_1-5" data-name="Path 1" d="M45.442,38.317s1.369-14.235-3.161-16.695-5.836.533-5.836.533S32,12.364,43.587,12.794c0,0-1.592-9.713,8.439-12.794,0,0,10.907,3.192,8.495,12.746,0,0,10.907-1.592,7.285,9.116,0,0-7.507-4.02-8.718,6.194a56.909,56.909,0,0,0-.175,5.852c.056,3.5,0,4.411,0,4.411Z" transform="translate(-7.26)" fill="#874e4f"/>
      <path id="Path_2-5" data-name="Path 2" d="M45.442,104.46s1.369,14.235-3.161,16.695-5.836-.533-5.836-.533-4.442,9.792,7.141,9.362c0,0-1.592,9.713,8.439,12.794,0,0,10.907-3.192,8.495-12.746,0,0,10.907,1.592,7.285-9.116,0,0-7.507,4.02-8.718-6.194a56.909,56.909,0,0,1-.175-5.852c.056-3.5,0-4.411,0-4.411H45.442Z" transform="translate(-7.26 -21.297)" fill="#874e4f"/>
      <path id="Path_3-5" data-name="Path 3" d="M63.55,44.552s14.235,1.369,16.695-3.161-.533-5.836-.533-5.836S89.5,31.113,89.074,42.7c0,0,9.713-1.592,12.794,8.439,0,0-3.192,10.907-12.746,8.495,0,0,1.592,10.907-9.116,7.285,0,0,4.02-7.507-6.194-8.718a56.909,56.909,0,0,0-5.852-.175c-3.5.056-4.411,0-4.411,0V44.552Z" transform="translate(-12.956 -7.078)" fill="#874e4f"/>
      <path id="Path_4-5" data-name="Path 4" d="M38.317,44.552s-14.235,1.369-16.695-3.161.533-5.836.533-5.836-9.792-4.442-9.362,7.141c0,0-9.713-1.592-12.794,8.439,0,0,3.192,10.907,12.746,8.495,0,0-1.592,10.907,9.116,7.285,0,0-4.02-7.507,6.194-8.718a56.909,56.909,0,0,1,5.852-.175c3.5.056,4.411,0,4.411,0Z" transform="translate(0 -7.078)" fill="#874e4f"/>
      <rect id="Rectangle_5-5" data-name="Rectangle 5" width="13.447" height="45.339" transform="translate(38.222 38.317)" fill="#874e4f"/>
    </g>
    <g id="Layer_1-2-6" data-name="Layer_1-2" transform="translate(350.516 1808.33) rotate(180)">
      <path id="Path_1-6" data-name="Path 1" d="M45.442,38.317s1.369-14.235-3.161-16.695-5.836.533-5.836.533S32,12.364,43.587,12.794c0,0-1.592-9.713,8.439-12.794,0,0,10.907,3.192,8.495,12.746,0,0,10.907-1.592,7.285,9.116,0,0-7.507-4.02-8.718,6.194a56.909,56.909,0,0,0-.175,5.852c.056,3.5,0,4.411,0,4.411Z" transform="translate(-7.26)" fill="#874e4f"/>
      <path id="Path_2-6" data-name="Path 2" d="M45.442,104.46s1.369,14.235-3.161,16.695-5.836-.533-5.836-.533-4.442,9.792,7.141,9.362c0,0-1.592,9.713,8.439,12.794,0,0,10.907-3.192,8.495-12.746,0,0,10.907,1.592,7.285-9.116,0,0-7.507,4.02-8.718-6.194a56.909,56.909,0,0,1-.175-5.852c.056-3.5,0-4.411,0-4.411H45.442Z" transform="translate(-7.26 -21.297)" fill="#874e4f"/>
      <path id="Path_3-6" data-name="Path 3" d="M63.55,44.552s14.235,1.369,16.695-3.161-.533-5.836-.533-5.836S89.5,31.113,89.074,42.7c0,0,9.713-1.592,12.794,8.439,0,0-3.192,10.907-12.746,8.495,0,0,1.592,10.907-9.116,7.285,0,0,4.02-7.507-6.194-8.718a56.909,56.909,0,0,0-5.852-.175c-3.5.056-4.411,0-4.411,0V44.552Z" transform="translate(-12.956 -7.078)" fill="#874e4f"/>
      <path id="Path_4-6" data-name="Path 4" d="M38.317,44.552s-14.235,1.369-16.695-3.161.533-5.836.533-5.836-9.792-4.442-9.362,7.141c0,0-9.713-1.592-12.794,8.439,0,0,3.192,10.907,12.746,8.495,0,0-1.592,10.907,9.116,7.285,0,0-4.02-7.507,6.194-8.718a56.909,56.909,0,0,1,5.852-.175c3.5.056,4.411,0,4.411,0Z" transform="translate(0 -7.078)" fill="#874e4f"/>
      <rect id="Rectangle_5-6" data-name="Rectangle 5" width="13.447" height="45.339" transform="translate(38.222 38.317)" fill="#874e4f"/>
    </g>
    <g id="Layer_1-2-7" data-name="Layer_1-2" transform="translate(235.516 1808.33) rotate(180)">
      <path id="Path_1-7" data-name="Path 1" d="M45.442,38.317s1.369-14.235-3.161-16.695-5.836.533-5.836.533S32,12.364,43.587,12.794c0,0-1.592-9.713,8.439-12.794,0,0,10.907,3.192,8.495,12.746,0,0,10.907-1.592,7.285,9.116,0,0-7.507-4.02-8.718,6.194a56.909,56.909,0,0,0-.175,5.852c.056,3.5,0,4.411,0,4.411Z" transform="translate(-7.26)" fill="#874e4f"/>
      <path id="Path_2-7" data-name="Path 2" d="M45.442,104.46s1.369,14.235-3.161,16.695-5.836-.533-5.836-.533-4.442,9.792,7.141,9.362c0,0-1.592,9.713,8.439,12.794,0,0,10.907-3.192,8.495-12.746,0,0,10.907,1.592,7.285-9.116,0,0-7.507,4.02-8.718-6.194a56.909,56.909,0,0,1-.175-5.852c.056-3.5,0-4.411,0-4.411H45.442Z" transform="translate(-7.26 -21.297)" fill="#874e4f"/>
      <path id="Path_3-7" data-name="Path 3" d="M63.55,44.552s14.235,1.369,16.695-3.161-.533-5.836-.533-5.836S89.5,31.113,89.074,42.7c0,0,9.713-1.592,12.794,8.439,0,0-3.192,10.907-12.746,8.495,0,0,1.592,10.907-9.116,7.285,0,0,4.02-7.507-6.194-8.718a56.909,56.909,0,0,0-5.852-.175c-3.5.056-4.411,0-4.411,0V44.552Z" transform="translate(-12.956 -7.078)" fill="#874e4f"/>
      <path id="Path_4-7" data-name="Path 4" d="M38.317,44.552s-14.235,1.369-16.695-3.161.533-5.836.533-5.836-9.792-4.442-9.362,7.141c0,0-9.713-1.592-12.794,8.439,0,0,3.192,10.907,12.746,8.495,0,0-1.592,10.907,9.116,7.285,0,0-4.02-7.507,6.194-8.718a56.909,56.909,0,0,1,5.852-.175c3.5.056,4.411,0,4.411,0Z" transform="translate(0 -7.078)" fill="#874e4f"/>
      <rect id="Rectangle_5-7" data-name="Rectangle 5" width="13.447" height="45.339" transform="translate(38.222 38.317)" fill="#874e4f"/>
    </g>
    <g id="Layer_1-2-8" data-name="Layer_1-2" transform="translate(120.516 1808.33) rotate(180)">
      <path id="Path_1-8" data-name="Path 1" d="M45.442,38.317s1.369-14.235-3.161-16.695-5.836.533-5.836.533S32,12.364,43.587,12.794c0,0-1.592-9.713,8.439-12.794,0,0,10.907,3.192,8.495,12.746,0,0,10.907-1.592,7.285,9.116,0,0-7.507-4.02-8.718,6.194a56.909,56.909,0,0,0-.175,5.852c.056,3.5,0,4.411,0,4.411Z" transform="translate(-7.26)" fill="#874e4f"/>
      <path id="Path_2-8" data-name="Path 2" d="M45.442,104.46s1.369,14.235-3.161,16.695-5.836-.533-5.836-.533-4.442,9.792,7.141,9.362c0,0-1.592,9.713,8.439,12.794,0,0,10.907-3.192,8.495-12.746,0,0,10.907,1.592,7.285-9.116,0,0-7.507,4.02-8.718-6.194a56.909,56.909,0,0,1-.175-5.852c.056-3.5,0-4.411,0-4.411H45.442Z" transform="translate(-7.26 -21.297)" fill="#874e4f"/>
      <path id="Path_3-8" data-name="Path 3" d="M63.55,44.552s14.235,1.369,16.695-3.161-.533-5.836-.533-5.836S89.5,31.113,89.074,42.7c0,0,9.713-1.592,12.794,8.439,0,0-3.192,10.907-12.746,8.495,0,0,1.592,10.907-9.116,7.285,0,0,4.02-7.507-6.194-8.718a56.909,56.909,0,0,0-5.852-.175c-3.5.056-4.411,0-4.411,0V44.552Z" transform="translate(-12.956 -7.078)" fill="#874e4f"/>
      <path id="Path_4-8" data-name="Path 4" d="M38.317,44.552s-14.235,1.369-16.695-3.161.533-5.836.533-5.836-9.792-4.442-9.362,7.141c0,0-9.713-1.592-12.794,8.439,0,0,3.192,10.907,12.746,8.495,0,0-1.592,10.907,9.116,7.285,0,0-4.02-7.507,6.194-8.718a56.909,56.909,0,0,1,5.852-.175c3.5.056,4.411,0,4.411,0Z" transform="translate(0 -7.078)" fill="#874e4f"/>
      <rect id="Rectangle_5-8" data-name="Rectangle 5" width="13.447" height="45.339" transform="translate(38.222 38.317)" fill="#874e4f"/>
    </g>
    <path id="Path_64" data-name="Path 64" d="M24.231,1703.673s5.446,33.268,47.785,35.421S19.4,1740.22,19.4,1740.22v-36.547Z" transform="translate(898.285 3451.262) rotate(180)" fill="#874e4f"/>
    <path id="Path_65" data-name="Path 65" d="M78.06,1703.673s-5.446,33.268-47.785,35.421,52.615,1.126,52.615,1.126v-36.547Z" transform="translate(964.917 3451.262) rotate(180)" fill="#874e4f"/>
    <path id="Path_66" data-name="Path 66" d="M24.231,1703.673s5.446,33.268,47.785,35.421S19.4,1740.22,19.4,1740.22v-36.547Z" transform="translate(783.89 3451.262) rotate(180)" fill="#874e4f"/>
    <path id="Path_67" data-name="Path 67" d="M78.06,1703.673s-5.446,33.268-47.785,35.421,52.615,1.126,52.615,1.126v-36.547Z" transform="translate(850.522 3451.262) rotate(180)" fill="#874e4f"/>
    <path id="Path_68" data-name="Path 68" d="M24.231,1703.673s5.446,33.268,47.785,35.421S19.4,1740.22,19.4,1740.22v-36.547Z" transform="translate(668.89 3451.262) rotate(180)" fill="#874e4f"/>
    <path id="Path_69" data-name="Path 69" d="M78.06,1703.673s-5.446,33.268-47.785,35.421,52.615,1.126,52.615,1.126v-36.547Z" transform="translate(735.522 3451.262) rotate(180)" fill="#874e4f"/>
    <path id="Path_70" data-name="Path 70" d="M24.231,1703.673s5.446,33.268,47.785,35.421S19.4,1740.22,19.4,1740.22v-36.547Z" transform="translate(553.89 3452.262) rotate(180)" fill="#874e4f"/>
    <path id="Path_71" data-name="Path 71" d="M78.06,1703.673s-5.446,33.268-47.785,35.421,52.615,1.126,52.615,1.126v-36.547Z" transform="translate(620.522 3452.262) rotate(180)" fill="#874e4f"/>
    <path id="Path_72" data-name="Path 72" d="M24.231,1703.673s5.446,33.268,47.785,35.421S19.4,1740.22,19.4,1740.22v-36.547Z" transform="translate(438.89 3452.262) rotate(180)" fill="#874e4f"/>
    <path id="Path_73" data-name="Path 73" d="M78.06,1703.673s-5.446,33.268-47.785,35.421,52.615,1.126,52.615,1.126v-36.547Z" transform="translate(505.522 3452.262) rotate(180)" fill="#874e4f"/>
    <path id="Path_74" data-name="Path 74" d="M24.231,1703.673s5.446,33.268,47.785,35.421S19.4,1740.22,19.4,1740.22v-36.547Z" transform="translate(323.89 3452.262) rotate(180)" fill="#874e4f"/>
    <path id="Path_75" data-name="Path 75" d="M78.06,1703.673s-5.446,33.268-47.785,35.421,52.615,1.126,52.615,1.126v-36.547Z" transform="translate(390.522 3452.262) rotate(180)" fill="#874e4f"/>
    <path id="Path_76" data-name="Path 76" d="M24.231,1703.673s5.446,33.268,47.785,35.421S19.4,1740.22,19.4,1740.22v-36.547Z" transform="translate(208.89 3452.262) rotate(180)" fill="#874e4f"/>
    <path id="Path_77" data-name="Path 77" d="M78.06,1703.673s-5.446,33.268-47.785,35.421,52.615,1.126,52.615,1.126v-36.547Z" transform="translate(275.522 3452.262) rotate(180)" fill="#874e4f"/>
    <path id="Path_78" data-name="Path 78" d="M24.231,1703.673s5.446,33.268,47.785,35.421S19.4,1740.22,19.4,1740.22v-36.547Z" transform="translate(92.89 3451.262) rotate(180)" fill="#874e4f"/>
    <path id="Path_79" data-name="Path 79" d="M78.06,1703.673s-5.446,33.268-47.785,35.421,52.615,1.126,52.615,1.126v-36.547Z" transform="translate(159.522 3451.262) rotate(180)" fill="#874e4f"/>
    <g id="Layer_1-2-9" data-name="Layer_1-2" transform="translate(32.242 1180.109)">
      <path id="Path_1-9" data-name="Path 1" d="M45.442,38.317s1.369-14.235-3.161-16.695-5.836.533-5.836.533S32,12.364,43.587,12.794c0,0-1.592-9.713,8.439-12.794,0,0,10.907,3.192,8.495,12.746,0,0,10.907-1.592,7.285,9.116,0,0-7.507-4.02-8.718,6.194a56.909,56.909,0,0,0-.175,5.852c.056,3.5,0,4.411,0,4.411Z" transform="translate(-7.26)" fill="#874e4f"/>
      <path id="Path_2-9" data-name="Path 2" d="M45.442,104.46s1.369,14.235-3.161,16.695-5.836-.533-5.836-.533-4.442,9.792,7.141,9.362c0,0-1.592,9.713,8.439,12.794,0,0,10.907-3.192,8.495-12.746,0,0,10.907,1.592,7.285-9.116,0,0-7.507,4.02-8.718-6.194a56.909,56.909,0,0,1-.175-5.852c.056-3.5,0-4.411,0-4.411H45.442Z" transform="translate(-7.26 -21.297)" fill="#874e4f"/>
      <path id="Path_3-9" data-name="Path 3" d="M63.55,44.552s14.235,1.369,16.695-3.161-.533-5.836-.533-5.836S89.5,31.113,89.074,42.7c0,0,9.713-1.592,12.794,8.439,0,0-3.192,10.907-12.746,8.495,0,0,1.592,10.907-9.116,7.285,0,0,4.02-7.507-6.194-8.718a56.909,56.909,0,0,0-5.852-.175c-3.5.056-4.411,0-4.411,0V44.552Z" transform="translate(-12.956 -7.078)" fill="#874e4f"/>
      <path id="Path_4-9" data-name="Path 4" d="M38.317,44.552s-14.235,1.369-16.695-3.161.533-5.836.533-5.836-9.792-4.442-9.362,7.141c0,0-9.713-1.592-12.794,8.439,0,0,3.192,10.907,12.746,8.495,0,0-1.592,10.907,9.116,7.285,0,0-4.02-7.507,6.194-8.718a56.909,56.909,0,0,1,5.852-.175c3.5.056,4.411,0,4.411,0Z" transform="translate(0 -7.078)" fill="#874e4f"/>
      <rect id="Rectangle_5-9" data-name="Rectangle 5" width="13.447" height="45.339" transform="translate(38.222 38.317)" fill="#874e4f"/>
    </g>
    <g id="Layer_1-2-10" data-name="Layer_1-2" transform="translate(147.242 1180.109)">
      <path id="Path_1-10" data-name="Path 1" d="M45.442,38.317s1.369-14.235-3.161-16.695-5.836.533-5.836.533S32,12.364,43.587,12.794c0,0-1.592-9.713,8.439-12.794,0,0,10.907,3.192,8.495,12.746,0,0,10.907-1.592,7.285,9.116,0,0-7.507-4.02-8.718,6.194a56.909,56.909,0,0,0-.175,5.852c.056,3.5,0,4.411,0,4.411Z" transform="translate(-7.26)" fill="#874e4f"/>
      <path id="Path_2-10" data-name="Path 2" d="M45.442,104.46s1.369,14.235-3.161,16.695-5.836-.533-5.836-.533-4.442,9.792,7.141,9.362c0,0-1.592,9.713,8.439,12.794,0,0,10.907-3.192,8.495-12.746,0,0,10.907,1.592,7.285-9.116,0,0-7.507,4.02-8.718-6.194a56.909,56.909,0,0,1-.175-5.852c.056-3.5,0-4.411,0-4.411H45.442Z" transform="translate(-7.26 -21.297)" fill="#874e4f"/>
      <path id="Path_3-10" data-name="Path 3" d="M63.55,44.552s14.235,1.369,16.695-3.161-.533-5.836-.533-5.836S89.5,31.113,89.074,42.7c0,0,9.713-1.592,12.794,8.439,0,0-3.192,10.907-12.746,8.495,0,0,1.592,10.907-9.116,7.285,0,0,4.02-7.507-6.194-8.718a56.909,56.909,0,0,0-5.852-.175c-3.5.056-4.411,0-4.411,0V44.552Z" transform="translate(-12.956 -7.078)" fill="#874e4f"/>
      <path id="Path_4-10" data-name="Path 4" d="M38.317,44.552s-14.235,1.369-16.695-3.161.533-5.836.533-5.836-9.792-4.442-9.362,7.141c0,0-9.713-1.592-12.794,8.439,0,0,3.192,10.907,12.746,8.495,0,0-1.592,10.907,9.116,7.285,0,0-4.02-7.507,6.194-8.718a56.909,56.909,0,0,1,5.852-.175c3.5.056,4.411,0,4.411,0Z" transform="translate(0 -7.078)" fill="#874e4f"/>
      <rect id="Rectangle_5-10" data-name="Rectangle 5" width="13.447" height="45.339" transform="translate(38.222 38.317)" fill="#874e4f"/>
    </g>
    <g id="Layer_1-2-11" data-name="Layer_1-2" transform="translate(262.242 1180.109)">
      <path id="Path_1-11" data-name="Path 1" d="M45.442,38.317s1.369-14.235-3.161-16.695-5.836.533-5.836.533S32,12.364,43.587,12.794c0,0-1.592-9.713,8.439-12.794,0,0,10.907,3.192,8.495,12.746,0,0,10.907-1.592,7.285,9.116,0,0-7.507-4.02-8.718,6.194a56.909,56.909,0,0,0-.175,5.852c.056,3.5,0,4.411,0,4.411Z" transform="translate(-7.26)" fill="#874e4f"/>
      <path id="Path_2-11" data-name="Path 2" d="M45.442,104.46s1.369,14.235-3.161,16.695-5.836-.533-5.836-.533-4.442,9.792,7.141,9.362c0,0-1.592,9.713,8.439,12.794,0,0,10.907-3.192,8.495-12.746,0,0,10.907,1.592,7.285-9.116,0,0-7.507,4.02-8.718-6.194a56.909,56.909,0,0,1-.175-5.852c.056-3.5,0-4.411,0-4.411H45.442Z" transform="translate(-7.26 -21.297)" fill="#874e4f"/>
      <path id="Path_3-11" data-name="Path 3" d="M63.55,44.552s14.235,1.369,16.695-3.161-.533-5.836-.533-5.836S89.5,31.113,89.074,42.7c0,0,9.713-1.592,12.794,8.439,0,0-3.192,10.907-12.746,8.495,0,0,1.592,10.907-9.116,7.285,0,0,4.02-7.507-6.194-8.718a56.909,56.909,0,0,0-5.852-.175c-3.5.056-4.411,0-4.411,0V44.552Z" transform="translate(-12.956 -7.078)" fill="#874e4f"/>
      <path id="Path_4-11" data-name="Path 4" d="M38.317,44.552s-14.235,1.369-16.695-3.161.533-5.836.533-5.836-9.792-4.442-9.362,7.141c0,0-9.713-1.592-12.794,8.439,0,0,3.192,10.907,12.746,8.495,0,0-1.592,10.907,9.116,7.285,0,0-4.02-7.507,6.194-8.718a56.909,56.909,0,0,1,5.852-.175c3.5.056,4.411,0,4.411,0Z" transform="translate(0 -7.078)" fill="#874e4f"/>
      <rect id="Rectangle_5-11" data-name="Rectangle 5" width="13.447" height="45.339" transform="translate(38.222 38.317)" fill="#874e4f"/>
    </g>
    <g id="Layer_1-2-12" data-name="Layer_1-2" transform="translate(377.242 1180.109)">
      <path id="Path_1-12" data-name="Path 1" d="M45.442,38.317s1.369-14.235-3.161-16.695-5.836.533-5.836.533S32,12.364,43.587,12.794c0,0-1.592-9.713,8.439-12.794,0,0,10.907,3.192,8.495,12.746,0,0,10.907-1.592,7.285,9.116,0,0-7.507-4.02-8.718,6.194a56.909,56.909,0,0,0-.175,5.852c.056,3.5,0,4.411,0,4.411Z" transform="translate(-7.26)" fill="#874e4f"/>
      <path id="Path_2-12" data-name="Path 2" d="M45.442,104.46s1.369,14.235-3.161,16.695-5.836-.533-5.836-.533-4.442,9.792,7.141,9.362c0,0-1.592,9.713,8.439,12.794,0,0,10.907-3.192,8.495-12.746,0,0,10.907,1.592,7.285-9.116,0,0-7.507,4.02-8.718-6.194a56.909,56.909,0,0,1-.175-5.852c.056-3.5,0-4.411,0-4.411H45.442Z" transform="translate(-7.26 -21.297)" fill="#874e4f"/>
      <path id="Path_3-12" data-name="Path 3" d="M63.55,44.552s14.235,1.369,16.695-3.161-.533-5.836-.533-5.836S89.5,31.113,89.074,42.7c0,0,9.713-1.592,12.794,8.439,0,0-3.192,10.907-12.746,8.495,0,0,1.592,10.907-9.116,7.285,0,0,4.02-7.507-6.194-8.718a56.909,56.909,0,0,0-5.852-.175c-3.5.056-4.411,0-4.411,0V44.552Z" transform="translate(-12.956 -7.078)" fill="#874e4f"/>
      <path id="Path_4-12" data-name="Path 4" d="M38.317,44.552s-14.235,1.369-16.695-3.161.533-5.836.533-5.836-9.792-4.442-9.362,7.141c0,0-9.713-1.592-12.794,8.439,0,0,3.192,10.907,12.746,8.495,0,0-1.592,10.907,9.116,7.285,0,0-4.02-7.507,6.194-8.718a56.909,56.909,0,0,1,5.852-.175c3.5.056,4.411,0,4.411,0Z" transform="translate(0 -7.078)" fill="#874e4f"/>
      <rect id="Rectangle_5-12" data-name="Rectangle 5" width="13.447" height="45.339" transform="translate(38.222 38.317)" fill="#874e4f"/>
    </g>
    <g id="Layer_1-2-13" data-name="Layer_1-2" transform="translate(492.242 1180.109)">
      <path id="Path_1-13" data-name="Path 1" d="M45.442,38.317s1.369-14.235-3.161-16.695-5.836.533-5.836.533S32,12.364,43.587,12.794c0,0-1.592-9.713,8.439-12.794,0,0,10.907,3.192,8.495,12.746,0,0,10.907-1.592,7.285,9.116,0,0-7.507-4.02-8.718,6.194a56.909,56.909,0,0,0-.175,5.852c.056,3.5,0,4.411,0,4.411Z" transform="translate(-7.26)" fill="#874e4f"/>
      <path id="Path_2-13" data-name="Path 2" d="M45.442,104.46s1.369,14.235-3.161,16.695-5.836-.533-5.836-.533-4.442,9.792,7.141,9.362c0,0-1.592,9.713,8.439,12.794,0,0,10.907-3.192,8.495-12.746,0,0,10.907,1.592,7.285-9.116,0,0-7.507,4.02-8.718-6.194a56.909,56.909,0,0,1-.175-5.852c.056-3.5,0-4.411,0-4.411H45.442Z" transform="translate(-7.26 -21.297)" fill="#874e4f"/>
      <path id="Path_3-13" data-name="Path 3" d="M63.55,44.552s14.235,1.369,16.695-3.161-.533-5.836-.533-5.836S89.5,31.113,89.074,42.7c0,0,9.713-1.592,12.794,8.439,0,0-3.192,10.907-12.746,8.495,0,0,1.592,10.907-9.116,7.285,0,0,4.02-7.507-6.194-8.718a56.909,56.909,0,0,0-5.852-.175c-3.5.056-4.411,0-4.411,0V44.552Z" transform="translate(-12.956 -7.078)" fill="#874e4f"/>
      <path id="Path_4-13" data-name="Path 4" d="M38.317,44.552s-14.235,1.369-16.695-3.161.533-5.836.533-5.836-9.792-4.442-9.362,7.141c0,0-9.713-1.592-12.794,8.439,0,0,3.192,10.907,12.746,8.495,0,0-1.592,10.907,9.116,7.285,0,0-4.02-7.507,6.194-8.718a56.909,56.909,0,0,1,5.852-.175c3.5.056,4.411,0,4.411,0Z" transform="translate(0 -7.078)" fill="#874e4f"/>
      <rect id="Rectangle_5-13" data-name="Rectangle 5" width="13.447" height="45.339" transform="translate(38.222 38.317)" fill="#874e4f"/>
    </g>
    <g id="Layer_1-2-14" data-name="Layer_1-2" transform="translate(607.242 1180.109)">
      <path id="Path_1-14" data-name="Path 1" d="M45.442,38.317s1.369-14.235-3.161-16.695-5.836.533-5.836.533S32,12.364,43.587,12.794c0,0-1.592-9.713,8.439-12.794,0,0,10.907,3.192,8.495,12.746,0,0,10.907-1.592,7.285,9.116,0,0-7.507-4.02-8.718,6.194a56.909,56.909,0,0,0-.175,5.852c.056,3.5,0,4.411,0,4.411Z" transform="translate(-7.26)" fill="#874e4f"/>
      <path id="Path_2-14" data-name="Path 2" d="M45.442,104.46s1.369,14.235-3.161,16.695-5.836-.533-5.836-.533-4.442,9.792,7.141,9.362c0,0-1.592,9.713,8.439,12.794,0,0,10.907-3.192,8.495-12.746,0,0,10.907,1.592,7.285-9.116,0,0-7.507,4.02-8.718-6.194a56.909,56.909,0,0,1-.175-5.852c.056-3.5,0-4.411,0-4.411H45.442Z" transform="translate(-7.26 -21.297)" fill="#874e4f"/>
      <path id="Path_3-14" data-name="Path 3" d="M63.55,44.552s14.235,1.369,16.695-3.161-.533-5.836-.533-5.836S89.5,31.113,89.074,42.7c0,0,9.713-1.592,12.794,8.439,0,0-3.192,10.907-12.746,8.495,0,0,1.592,10.907-9.116,7.285,0,0,4.02-7.507-6.194-8.718a56.909,56.909,0,0,0-5.852-.175c-3.5.056-4.411,0-4.411,0V44.552Z" transform="translate(-12.956 -7.078)" fill="#874e4f"/>
      <path id="Path_4-14" data-name="Path 4" d="M38.317,44.552s-14.235,1.369-16.695-3.161.533-5.836.533-5.836-9.792-4.442-9.362,7.141c0,0-9.713-1.592-12.794,8.439,0,0,3.192,10.907,12.746,8.495,0,0-1.592,10.907,9.116,7.285,0,0-4.02-7.507,6.194-8.718a56.909,56.909,0,0,1,5.852-.175c3.5.056,4.411,0,4.411,0Z" transform="translate(0 -7.078)" fill="#874e4f"/>
      <rect id="Rectangle_5-14" data-name="Rectangle 5" width="13.447" height="45.339" transform="translate(38.222 38.317)" fill="#874e4f"/>
    </g>
    <g id="Layer_1-2-15" data-name="Layer_1-2" transform="translate(722.242 1180.109)">
      <path id="Path_1-15" data-name="Path 1" d="M45.442,38.317s1.369-14.235-3.161-16.695-5.836.533-5.836.533S32,12.364,43.587,12.794c0,0-1.592-9.713,8.439-12.794,0,0,10.907,3.192,8.495,12.746,0,0,10.907-1.592,7.285,9.116,0,0-7.507-4.02-8.718,6.194a56.909,56.909,0,0,0-.175,5.852c.056,3.5,0,4.411,0,4.411Z" transform="translate(-7.26)" fill="#874e4f"/>
      <path id="Path_2-15" data-name="Path 2" d="M45.442,104.46s1.369,14.235-3.161,16.695-5.836-.533-5.836-.533-4.442,9.792,7.141,9.362c0,0-1.592,9.713,8.439,12.794,0,0,10.907-3.192,8.495-12.746,0,0,10.907,1.592,7.285-9.116,0,0-7.507,4.02-8.718-6.194a56.909,56.909,0,0,1-.175-5.852c.056-3.5,0-4.411,0-4.411H45.442Z" transform="translate(-7.26 -21.297)" fill="#874e4f"/>
      <path id="Path_3-15" data-name="Path 3" d="M63.55,44.552s14.235,1.369,16.695-3.161-.533-5.836-.533-5.836S89.5,31.113,89.074,42.7c0,0,9.713-1.592,12.794,8.439,0,0-3.192,10.907-12.746,8.495,0,0,1.592,10.907-9.116,7.285,0,0,4.02-7.507-6.194-8.718a56.909,56.909,0,0,0-5.852-.175c-3.5.056-4.411,0-4.411,0V44.552Z" transform="translate(-12.956 -7.078)" fill="#874e4f"/>
      <path id="Path_4-15" data-name="Path 4" d="M38.317,44.552s-14.235,1.369-16.695-3.161.533-5.836.533-5.836-9.792-4.442-9.362,7.141c0,0-9.713-1.592-12.794,8.439,0,0,3.192,10.907,12.746,8.495,0,0-1.592,10.907,9.116,7.285,0,0-4.02-7.507,6.194-8.718a56.909,56.909,0,0,1,5.852-.175c3.5.056,4.411,0,4.411,0Z" transform="translate(0 -7.078)" fill="#874e4f"/>
      <rect id="Rectangle_5-15" data-name="Rectangle 5" width="13.447" height="45.339" transform="translate(38.222 38.317)" fill="#874e4f"/>
    </g>
    <g id="Layer_1-2-16" data-name="Layer_1-2" transform="translate(837.242 1180.109)">
      <path id="Path_1-16" data-name="Path 1" d="M45.442,38.317s1.369-14.235-3.161-16.695-5.836.533-5.836.533S32,12.364,43.587,12.794c0,0-1.592-9.713,8.439-12.794,0,0,10.907,3.192,8.495,12.746,0,0,10.907-1.592,7.285,9.116,0,0-7.507-4.02-8.718,6.194a56.909,56.909,0,0,0-.175,5.852c.056,3.5,0,4.411,0,4.411Z" transform="translate(-7.26)" fill="#874e4f"/>
      <path id="Path_2-16" data-name="Path 2" d="M45.442,104.46s1.369,14.235-3.161,16.695-5.836-.533-5.836-.533-4.442,9.792,7.141,9.362c0,0-1.592,9.713,8.439,12.794,0,0,10.907-3.192,8.495-12.746,0,0,10.907,1.592,7.285-9.116,0,0-7.507,4.02-8.718-6.194a56.909,56.909,0,0,1-.175-5.852c.056-3.5,0-4.411,0-4.411H45.442Z" transform="translate(-7.26 -21.297)" fill="#874e4f"/>
      <path id="Path_3-16" data-name="Path 3" d="M63.55,44.552s14.235,1.369,16.695-3.161-.533-5.836-.533-5.836S89.5,31.113,89.074,42.7c0,0,9.713-1.592,12.794,8.439,0,0-3.192,10.907-12.746,8.495,0,0,1.592,10.907-9.116,7.285,0,0,4.02-7.507-6.194-8.718a56.909,56.909,0,0,0-5.852-.175c-3.5.056-4.411,0-4.411,0V44.552Z" transform="translate(-12.956 -7.078)" fill="#874e4f"/>
      <path id="Path_4-16" data-name="Path 4" d="M38.317,44.552s-14.235,1.369-16.695-3.161.533-5.836.533-5.836-9.792-4.442-9.362,7.141c0,0-9.713-1.592-12.794,8.439,0,0,3.192,10.907,12.746,8.495,0,0-1.592,10.907,9.116,7.285,0,0-4.02-7.507,6.194-8.718a56.909,56.909,0,0,1,5.852-.175c3.5.056,4.411,0,4.411,0Z" transform="translate(0 -7.078)" fill="#874e4f"/>
      <rect id="Rectangle_5-16" data-name="Rectangle 5" width="13.447" height="45.339" transform="translate(38.222 38.317)" fill="#874e4f"/>
    </g>
    <path id="Path_80" data-name="Path 80" d="M24.231,1703.673s5.446,33.268,47.785,35.421S19.4,1740.22,19.4,1740.22v-36.547Z" transform="translate(59.473 -462.823)" fill="#874e4f"/>
    <path id="Path_81" data-name="Path 81" d="M78.06,1703.673s-5.446,33.268-47.785,35.421,52.615,1.126,52.615,1.126v-36.547Z" transform="translate(-7.159 -462.823)" fill="#874e4f"/>
    <path id="Path_82" data-name="Path 82" d="M24.231,1703.673s5.446,33.268,47.785,35.421S19.4,1740.22,19.4,1740.22v-36.547Z" transform="translate(173.868 -462.823)" fill="#874e4f"/>
    <path id="Path_83" data-name="Path 83" d="M78.06,1703.673s-5.446,33.268-47.785,35.421,52.615,1.126,52.615,1.126v-36.547Z" transform="translate(107.236 -462.823)" fill="#874e4f"/>
    <path id="Path_84" data-name="Path 84" d="M24.231,1703.673s5.446,33.268,47.785,35.421S19.4,1740.22,19.4,1740.22v-36.547Z" transform="translate(288.868 -462.823)" fill="#874e4f"/>
    <path id="Path_85" data-name="Path 85" d="M78.06,1703.673s-5.446,33.268-47.785,35.421,52.615,1.126,52.615,1.126v-36.547Z" transform="translate(222.236 -462.823)" fill="#874e4f"/>
    <path id="Path_86" data-name="Path 86" d="M24.231,1703.673s5.446,33.268,47.785,35.421S19.4,1740.22,19.4,1740.22v-36.547Z" transform="translate(403.868 -463.823)" fill="#874e4f"/>
    <path id="Path_87" data-name="Path 87" d="M78.06,1703.673s-5.446,33.268-47.785,35.421,52.615,1.126,52.615,1.126v-36.547Z" transform="translate(337.236 -463.823)" fill="#874e4f"/>
    <path id="Path_88" data-name="Path 88" d="M24.231,1703.673s5.446,33.268,47.785,35.421S19.4,1740.22,19.4,1740.22v-36.547Z" transform="translate(518.868 -463.823)" fill="#874e4f"/>
    <path id="Path_89" data-name="Path 89" d="M78.06,1703.673s-5.446,33.268-47.785,35.421,52.615,1.126,52.615,1.126v-36.547Z" transform="translate(452.236 -463.823)" fill="#874e4f"/>
    <path id="Path_90" data-name="Path 90" d="M24.231,1703.673s5.446,33.268,47.785,35.421S19.4,1740.22,19.4,1740.22v-36.547Z" transform="translate(633.868 -463.823)" fill="#874e4f"/>
    <path id="Path_91" data-name="Path 91" d="M78.06,1703.673s-5.446,33.268-47.785,35.421,52.615,1.126,52.615,1.126v-36.547Z" transform="translate(567.236 -463.823)" fill="#874e4f"/>
    <path id="Path_92" data-name="Path 92" d="M24.231,1703.673s5.446,33.268,47.785,35.421S19.4,1740.22,19.4,1740.22v-36.547Z" transform="translate(748.868 -463.823)" fill="#874e4f"/>
    <path id="Path_93" data-name="Path 93" d="M78.06,1703.673s-5.446,33.268-47.785,35.421,52.615,1.126,52.615,1.126v-36.547Z" transform="translate(682.236 -463.823)" fill="#874e4f"/>
    <path id="Path_94" data-name="Path 94" d="M24.231,1703.673s5.446,33.268,47.785,35.421S19.4,1740.22,19.4,1740.22v-36.547Z" transform="translate(864.868 -462.823)" fill="#874e4f"/>
    <path id="Path_95" data-name="Path 95" d="M78.06,1703.673s-5.446,33.268-47.785,35.421,52.615,1.126,52.615,1.126v-36.547Z" transform="translate(798.236 -462.823)" fill="#874e4f"/>
  </g>
</svg>
