<svg xmlns="http://www.w3.org/2000/svg" width="960" height="749.287" viewBox="0 0 960 749.287">
  <g id="Group_163" data-name="Group 163" transform="translate(0 -1931.281)">
    <rect id="Banner" width="960" height="559" transform="translate(0 2026.087)" fill="#342d22"/>
    <g id="Layer_1-2" transform="translate(32.242 1931.281)">
      <path id="Path_1" data-name="Path 1" d="M45.442,38.317s1.369-14.235-3.161-16.695-5.836.533-5.836.533S32,12.364,43.587,12.794c0,0-1.592-9.713,8.439-12.794,0,0,10.907,3.192,8.495,12.746,0,0,10.907-1.592,7.285,9.116,0,0-7.507-4.02-8.718,6.194a56.909,56.909,0,0,0-.175,5.852c.056,3.5,0,4.411,0,4.411Z" transform="translate(-7.26)" fill="#342d22"/>
      <path id="Path_2" data-name="Path 2" d="M45.442,104.46s1.369,14.235-3.161,16.695-5.836-.533-5.836-.533-4.442,9.792,7.141,9.362c0,0-1.592,9.713,8.439,12.794,0,0,10.907-3.192,8.495-12.746,0,0,10.907,1.592,7.285-9.116,0,0-7.507,4.02-8.718-6.194a56.909,56.909,0,0,1-.175-5.852c.056-3.5,0-4.411,0-4.411H45.442Z" transform="translate(-7.26 -21.297)" fill="#342d22"/>
      <path id="Path_3" data-name="Path 3" d="M63.55,44.552s14.235,1.369,16.695-3.161-.533-5.836-.533-5.836S89.5,31.113,89.074,42.7c0,0,9.713-1.592,12.794,8.439,0,0-3.192,10.907-12.746,8.495,0,0,1.592,10.907-9.116,7.285,0,0,4.02-7.507-6.194-8.718a56.909,56.909,0,0,0-5.852-.175c-3.5.056-4.411,0-4.411,0V44.552Z" transform="translate(-12.956 -7.078)" fill="#342d22"/>
      <path id="Path_4" data-name="Path 4" d="M38.317,44.552s-14.235,1.369-16.695-3.161.533-5.836.533-5.836-9.792-4.442-9.362,7.141c0,0-9.713-1.592-12.794,8.439,0,0,3.192,10.907,12.746,8.495,0,0-1.592,10.907,9.116,7.285,0,0-4.02-7.507,6.194-8.718a56.909,56.909,0,0,1,5.852-.175c3.5.056,4.411,0,4.411,0Z" transform="translate(0 -7.078)" fill="#342d22"/>
      <rect id="Rectangle_5" data-name="Rectangle 5" width="13.447" height="45.339" transform="translate(38.222 38.317)" fill="#342d22"/>
    </g>
    <g id="Layer_1-2-2" data-name="Layer_1-2" transform="translate(147.242 1931.281)">
      <path id="Path_1-2" data-name="Path 1" d="M45.442,38.317s1.369-14.235-3.161-16.695-5.836.533-5.836.533S32,12.364,43.587,12.794c0,0-1.592-9.713,8.439-12.794,0,0,10.907,3.192,8.495,12.746,0,0,10.907-1.592,7.285,9.116,0,0-7.507-4.02-8.718,6.194a56.909,56.909,0,0,0-.175,5.852c.056,3.5,0,4.411,0,4.411Z" transform="translate(-7.26)" fill="#342d22"/>
      <path id="Path_2-2" data-name="Path 2" d="M45.442,104.46s1.369,14.235-3.161,16.695-5.836-.533-5.836-.533-4.442,9.792,7.141,9.362c0,0-1.592,9.713,8.439,12.794,0,0,10.907-3.192,8.495-12.746,0,0,10.907,1.592,7.285-9.116,0,0-7.507,4.02-8.718-6.194a56.909,56.909,0,0,1-.175-5.852c.056-3.5,0-4.411,0-4.411H45.442Z" transform="translate(-7.26 -21.297)" fill="#342d22"/>
      <path id="Path_3-2" data-name="Path 3" d="M63.55,44.552s14.235,1.369,16.695-3.161-.533-5.836-.533-5.836S89.5,31.113,89.074,42.7c0,0,9.713-1.592,12.794,8.439,0,0-3.192,10.907-12.746,8.495,0,0,1.592,10.907-9.116,7.285,0,0,4.02-7.507-6.194-8.718a56.909,56.909,0,0,0-5.852-.175c-3.5.056-4.411,0-4.411,0V44.552Z" transform="translate(-12.956 -7.078)" fill="#342d22"/>
      <path id="Path_4-2" data-name="Path 4" d="M38.317,44.552s-14.235,1.369-16.695-3.161.533-5.836.533-5.836-9.792-4.442-9.362,7.141c0,0-9.713-1.592-12.794,8.439,0,0,3.192,10.907,12.746,8.495,0,0-1.592,10.907,9.116,7.285,0,0-4.02-7.507,6.194-8.718a56.909,56.909,0,0,1,5.852-.175c3.5.056,4.411,0,4.411,0Z" transform="translate(0 -7.078)" fill="#342d22"/>
      <rect id="Rectangle_5-2" data-name="Rectangle 5" width="13.447" height="45.339" transform="translate(38.222 38.317)" fill="#342d22"/>
    </g>
    <g id="Layer_1-2-3" data-name="Layer_1-2" transform="translate(262.242 1931.281)">
      <path id="Path_1-3" data-name="Path 1" d="M45.442,38.317s1.369-14.235-3.161-16.695-5.836.533-5.836.533S32,12.364,43.587,12.794c0,0-1.592-9.713,8.439-12.794,0,0,10.907,3.192,8.495,12.746,0,0,10.907-1.592,7.285,9.116,0,0-7.507-4.02-8.718,6.194a56.909,56.909,0,0,0-.175,5.852c.056,3.5,0,4.411,0,4.411Z" transform="translate(-7.26)" fill="#342d22"/>
      <path id="Path_2-3" data-name="Path 2" d="M45.442,104.46s1.369,14.235-3.161,16.695-5.836-.533-5.836-.533-4.442,9.792,7.141,9.362c0,0-1.592,9.713,8.439,12.794,0,0,10.907-3.192,8.495-12.746,0,0,10.907,1.592,7.285-9.116,0,0-7.507,4.02-8.718-6.194a56.909,56.909,0,0,1-.175-5.852c.056-3.5,0-4.411,0-4.411H45.442Z" transform="translate(-7.26 -21.297)" fill="#342d22"/>
      <path id="Path_3-3" data-name="Path 3" d="M63.55,44.552s14.235,1.369,16.695-3.161-.533-5.836-.533-5.836S89.5,31.113,89.074,42.7c0,0,9.713-1.592,12.794,8.439,0,0-3.192,10.907-12.746,8.495,0,0,1.592,10.907-9.116,7.285,0,0,4.02-7.507-6.194-8.718a56.909,56.909,0,0,0-5.852-.175c-3.5.056-4.411,0-4.411,0V44.552Z" transform="translate(-12.956 -7.078)" fill="#342d22"/>
      <path id="Path_4-3" data-name="Path 4" d="M38.317,44.552s-14.235,1.369-16.695-3.161.533-5.836.533-5.836-9.792-4.442-9.362,7.141c0,0-9.713-1.592-12.794,8.439,0,0,3.192,10.907,12.746,8.495,0,0-1.592,10.907,9.116,7.285,0,0-4.02-7.507,6.194-8.718a56.909,56.909,0,0,1,5.852-.175c3.5.056,4.411,0,4.411,0Z" transform="translate(0 -7.078)" fill="#342d22"/>
      <rect id="Rectangle_5-3" data-name="Rectangle 5" width="13.447" height="45.339" transform="translate(38.222 38.317)" fill="#342d22"/>
    </g>
    <g id="Layer_1-2-4" data-name="Layer_1-2" transform="translate(377.242 1931.281)">
      <path id="Path_1-4" data-name="Path 1" d="M45.442,38.317s1.369-14.235-3.161-16.695-5.836.533-5.836.533S32,12.364,43.587,12.794c0,0-1.592-9.713,8.439-12.794,0,0,10.907,3.192,8.495,12.746,0,0,10.907-1.592,7.285,9.116,0,0-7.507-4.02-8.718,6.194a56.909,56.909,0,0,0-.175,5.852c.056,3.5,0,4.411,0,4.411Z" transform="translate(-7.26)" fill="#342d22"/>
      <path id="Path_2-4" data-name="Path 2" d="M45.442,104.46s1.369,14.235-3.161,16.695-5.836-.533-5.836-.533-4.442,9.792,7.141,9.362c0,0-1.592,9.713,8.439,12.794,0,0,10.907-3.192,8.495-12.746,0,0,10.907,1.592,7.285-9.116,0,0-7.507,4.02-8.718-6.194a56.909,56.909,0,0,1-.175-5.852c.056-3.5,0-4.411,0-4.411H45.442Z" transform="translate(-7.26 -21.297)" fill="#342d22"/>
      <path id="Path_3-4" data-name="Path 3" d="M63.55,44.552s14.235,1.369,16.695-3.161-.533-5.836-.533-5.836S89.5,31.113,89.074,42.7c0,0,9.713-1.592,12.794,8.439,0,0-3.192,10.907-12.746,8.495,0,0,1.592,10.907-9.116,7.285,0,0,4.02-7.507-6.194-8.718a56.909,56.909,0,0,0-5.852-.175c-3.5.056-4.411,0-4.411,0V44.552Z" transform="translate(-12.956 -7.078)" fill="#342d22"/>
      <path id="Path_4-4" data-name="Path 4" d="M38.317,44.552s-14.235,1.369-16.695-3.161.533-5.836.533-5.836-9.792-4.442-9.362,7.141c0,0-9.713-1.592-12.794,8.439,0,0,3.192,10.907,12.746,8.495,0,0-1.592,10.907,9.116,7.285,0,0-4.02-7.507,6.194-8.718a56.909,56.909,0,0,1,5.852-.175c3.5.056,4.411,0,4.411,0Z" transform="translate(0 -7.078)" fill="#342d22"/>
      <rect id="Rectangle_5-4" data-name="Rectangle 5" width="13.447" height="45.339" transform="translate(38.222 38.317)" fill="#342d22"/>
    </g>
    <g id="Layer_1-2-5" data-name="Layer_1-2" transform="translate(492.242 1931.281)">
      <path id="Path_1-5" data-name="Path 1" d="M45.442,38.317s1.369-14.235-3.161-16.695-5.836.533-5.836.533S32,12.364,43.587,12.794c0,0-1.592-9.713,8.439-12.794,0,0,10.907,3.192,8.495,12.746,0,0,10.907-1.592,7.285,9.116,0,0-7.507-4.02-8.718,6.194a56.909,56.909,0,0,0-.175,5.852c.056,3.5,0,4.411,0,4.411Z" transform="translate(-7.26)" fill="#342d22"/>
      <path id="Path_2-5" data-name="Path 2" d="M45.442,104.46s1.369,14.235-3.161,16.695-5.836-.533-5.836-.533-4.442,9.792,7.141,9.362c0,0-1.592,9.713,8.439,12.794,0,0,10.907-3.192,8.495-12.746,0,0,10.907,1.592,7.285-9.116,0,0-7.507,4.02-8.718-6.194a56.909,56.909,0,0,1-.175-5.852c.056-3.5,0-4.411,0-4.411H45.442Z" transform="translate(-7.26 -21.297)" fill="#342d22"/>
      <path id="Path_3-5" data-name="Path 3" d="M63.55,44.552s14.235,1.369,16.695-3.161-.533-5.836-.533-5.836S89.5,31.113,89.074,42.7c0,0,9.713-1.592,12.794,8.439,0,0-3.192,10.907-12.746,8.495,0,0,1.592,10.907-9.116,7.285,0,0,4.02-7.507-6.194-8.718a56.909,56.909,0,0,0-5.852-.175c-3.5.056-4.411,0-4.411,0V44.552Z" transform="translate(-12.956 -7.078)" fill="#342d22"/>
      <path id="Path_4-5" data-name="Path 4" d="M38.317,44.552s-14.235,1.369-16.695-3.161.533-5.836.533-5.836-9.792-4.442-9.362,7.141c0,0-9.713-1.592-12.794,8.439,0,0,3.192,10.907,12.746,8.495,0,0-1.592,10.907,9.116,7.285,0,0-4.02-7.507,6.194-8.718a56.909,56.909,0,0,1,5.852-.175c3.5.056,4.411,0,4.411,0Z" transform="translate(0 -7.078)" fill="#342d22"/>
      <rect id="Rectangle_5-5" data-name="Rectangle 5" width="13.447" height="45.339" transform="translate(38.222 38.317)" fill="#342d22"/>
    </g>
    <g id="Layer_1-2-6" data-name="Layer_1-2" transform="translate(607.242 1931.281)">
      <path id="Path_1-6" data-name="Path 1" d="M45.442,38.317s1.369-14.235-3.161-16.695-5.836.533-5.836.533S32,12.364,43.587,12.794c0,0-1.592-9.713,8.439-12.794,0,0,10.907,3.192,8.495,12.746,0,0,10.907-1.592,7.285,9.116,0,0-7.507-4.02-8.718,6.194a56.909,56.909,0,0,0-.175,5.852c.056,3.5,0,4.411,0,4.411Z" transform="translate(-7.26)" fill="#342d22"/>
      <path id="Path_2-6" data-name="Path 2" d="M45.442,104.46s1.369,14.235-3.161,16.695-5.836-.533-5.836-.533-4.442,9.792,7.141,9.362c0,0-1.592,9.713,8.439,12.794,0,0,10.907-3.192,8.495-12.746,0,0,10.907,1.592,7.285-9.116,0,0-7.507,4.02-8.718-6.194a56.909,56.909,0,0,1-.175-5.852c.056-3.5,0-4.411,0-4.411H45.442Z" transform="translate(-7.26 -21.297)" fill="#342d22"/>
      <path id="Path_3-6" data-name="Path 3" d="M63.55,44.552s14.235,1.369,16.695-3.161-.533-5.836-.533-5.836S89.5,31.113,89.074,42.7c0,0,9.713-1.592,12.794,8.439,0,0-3.192,10.907-12.746,8.495,0,0,1.592,10.907-9.116,7.285,0,0,4.02-7.507-6.194-8.718a56.909,56.909,0,0,0-5.852-.175c-3.5.056-4.411,0-4.411,0V44.552Z" transform="translate(-12.956 -7.078)" fill="#342d22"/>
      <path id="Path_4-6" data-name="Path 4" d="M38.317,44.552s-14.235,1.369-16.695-3.161.533-5.836.533-5.836-9.792-4.442-9.362,7.141c0,0-9.713-1.592-12.794,8.439,0,0,3.192,10.907,12.746,8.495,0,0-1.592,10.907,9.116,7.285,0,0-4.02-7.507,6.194-8.718a56.909,56.909,0,0,1,5.852-.175c3.5.056,4.411,0,4.411,0Z" transform="translate(0 -7.078)" fill="#342d22"/>
      <rect id="Rectangle_5-6" data-name="Rectangle 5" width="13.447" height="45.339" transform="translate(38.222 38.317)" fill="#342d22"/>
    </g>
    <g id="Layer_1-2-7" data-name="Layer_1-2" transform="translate(722.242 1931.281)">
      <path id="Path_1-7" data-name="Path 1" d="M45.442,38.317s1.369-14.235-3.161-16.695-5.836.533-5.836.533S32,12.364,43.587,12.794c0,0-1.592-9.713,8.439-12.794,0,0,10.907,3.192,8.495,12.746,0,0,10.907-1.592,7.285,9.116,0,0-7.507-4.02-8.718,6.194a56.909,56.909,0,0,0-.175,5.852c.056,3.5,0,4.411,0,4.411Z" transform="translate(-7.26)" fill="#342d22"/>
      <path id="Path_2-7" data-name="Path 2" d="M45.442,104.46s1.369,14.235-3.161,16.695-5.836-.533-5.836-.533-4.442,9.792,7.141,9.362c0,0-1.592,9.713,8.439,12.794,0,0,10.907-3.192,8.495-12.746,0,0,10.907,1.592,7.285-9.116,0,0-7.507,4.02-8.718-6.194a56.909,56.909,0,0,1-.175-5.852c.056-3.5,0-4.411,0-4.411H45.442Z" transform="translate(-7.26 -21.297)" fill="#342d22"/>
      <path id="Path_3-7" data-name="Path 3" d="M63.55,44.552s14.235,1.369,16.695-3.161-.533-5.836-.533-5.836S89.5,31.113,89.074,42.7c0,0,9.713-1.592,12.794,8.439,0,0-3.192,10.907-12.746,8.495,0,0,1.592,10.907-9.116,7.285,0,0,4.02-7.507-6.194-8.718a56.909,56.909,0,0,0-5.852-.175c-3.5.056-4.411,0-4.411,0V44.552Z" transform="translate(-12.956 -7.078)" fill="#342d22"/>
      <path id="Path_4-7" data-name="Path 4" d="M38.317,44.552s-14.235,1.369-16.695-3.161.533-5.836.533-5.836-9.792-4.442-9.362,7.141c0,0-9.713-1.592-12.794,8.439,0,0,3.192,10.907,12.746,8.495,0,0-1.592,10.907,9.116,7.285,0,0-4.02-7.507,6.194-8.718a56.909,56.909,0,0,1,5.852-.175c3.5.056,4.411,0,4.411,0Z" transform="translate(0 -7.078)" fill="#342d22"/>
      <rect id="Rectangle_5-7" data-name="Rectangle 5" width="13.447" height="45.339" transform="translate(38.222 38.317)" fill="#342d22"/>
    </g>
    <g id="Layer_1-2-8" data-name="Layer_1-2" transform="translate(837.242 1931.281)">
      <path id="Path_1-8" data-name="Path 1" d="M45.442,38.317s1.369-14.235-3.161-16.695-5.836.533-5.836.533S32,12.364,43.587,12.794c0,0-1.592-9.713,8.439-12.794,0,0,10.907,3.192,8.495,12.746,0,0,10.907-1.592,7.285,9.116,0,0-7.507-4.02-8.718,6.194a56.909,56.909,0,0,0-.175,5.852c.056,3.5,0,4.411,0,4.411Z" transform="translate(-7.26)" fill="#342d22"/>
      <path id="Path_2-8" data-name="Path 2" d="M45.442,104.46s1.369,14.235-3.161,16.695-5.836-.533-5.836-.533-4.442,9.792,7.141,9.362c0,0-1.592,9.713,8.439,12.794,0,0,10.907-3.192,8.495-12.746,0,0,10.907,1.592,7.285-9.116,0,0-7.507,4.02-8.718-6.194a56.909,56.909,0,0,1-.175-5.852c.056-3.5,0-4.411,0-4.411H45.442Z" transform="translate(-7.26 -21.297)" fill="#342d22"/>
      <path id="Path_3-8" data-name="Path 3" d="M63.55,44.552s14.235,1.369,16.695-3.161-.533-5.836-.533-5.836S89.5,31.113,89.074,42.7c0,0,9.713-1.592,12.794,8.439,0,0-3.192,10.907-12.746,8.495,0,0,1.592,10.907-9.116,7.285,0,0,4.02-7.507-6.194-8.718a56.909,56.909,0,0,0-5.852-.175c-3.5.056-4.411,0-4.411,0V44.552Z" transform="translate(-12.956 -7.078)" fill="#342d22"/>
      <path id="Path_4-8" data-name="Path 4" d="M38.317,44.552s-14.235,1.369-16.695-3.161.533-5.836.533-5.836-9.792-4.442-9.362,7.141c0,0-9.713-1.592-12.794,8.439,0,0,3.192,10.907,12.746,8.495,0,0-1.592,10.907,9.116,7.285,0,0-4.02-7.507,6.194-8.718a56.909,56.909,0,0,1,5.852-.175c3.5.056,4.411,0,4.411,0Z" transform="translate(0 -7.078)" fill="#342d22"/>
      <rect id="Rectangle_5-8" data-name="Rectangle 5" width="13.447" height="45.339" transform="translate(38.222 38.317)" fill="#342d22"/>
    </g>
    <path id="Path_5" data-name="Path 5" d="M24.231,1703.673s5.446,33.268,47.785,35.421S19.4,1740.22,19.4,1740.22v-36.547Z" transform="translate(59.473 288.349)" fill="#342d22"/>
    <path id="Path_6" data-name="Path 6" d="M78.06,1703.673s-5.446,33.268-47.785,35.421,52.615,1.126,52.615,1.126v-36.547Z" transform="translate(-7.159 288.349)" fill="#342d22"/>
    <path id="Path_7" data-name="Path 7" d="M24.231,1703.673s5.446,33.268,47.785,35.421S19.4,1740.22,19.4,1740.22v-36.547Z" transform="translate(173.868 288.349)" fill="#342d22"/>
    <path id="Path_8" data-name="Path 8" d="M78.06,1703.673s-5.446,33.268-47.785,35.421,52.615,1.126,52.615,1.126v-36.547Z" transform="translate(107.236 288.349)" fill="#342d22"/>
    <path id="Path_9" data-name="Path 9" d="M24.231,1703.673s5.446,33.268,47.785,35.421S19.4,1740.22,19.4,1740.22v-36.547Z" transform="translate(288.868 288.349)" fill="#342d22"/>
    <path id="Path_10" data-name="Path 10" d="M78.06,1703.673s-5.446,33.268-47.785,35.421,52.615,1.126,52.615,1.126v-36.547Z" transform="translate(222.236 288.349)" fill="#342d22"/>
    <path id="Path_11" data-name="Path 11" d="M24.231,1703.673s5.446,33.268,47.785,35.421S19.4,1740.22,19.4,1740.22v-36.547Z" transform="translate(403.868 287.349)" fill="#342d22"/>
    <path id="Path_12" data-name="Path 12" d="M78.06,1703.673s-5.446,33.268-47.785,35.421,52.615,1.126,52.615,1.126v-36.547Z" transform="translate(337.236 287.349)" fill="#342d22"/>
    <path id="Path_13" data-name="Path 13" d="M24.231,1703.673s5.446,33.268,47.785,35.421S19.4,1740.22,19.4,1740.22v-36.547Z" transform="translate(518.868 287.349)" fill="#342d22"/>
    <path id="Path_14" data-name="Path 14" d="M78.06,1703.673s-5.446,33.268-47.785,35.421,52.615,1.126,52.615,1.126v-36.547Z" transform="translate(452.236 287.349)" fill="#342d22"/>
    <path id="Path_15" data-name="Path 15" d="M24.231,1703.673s5.446,33.268,47.785,35.421S19.4,1740.22,19.4,1740.22v-36.547Z" transform="translate(633.868 287.349)" fill="#342d22"/>
    <path id="Path_16" data-name="Path 16" d="M78.06,1703.673s-5.446,33.268-47.785,35.421,52.615,1.126,52.615,1.126v-36.547Z" transform="translate(567.236 287.349)" fill="#342d22"/>
    <path id="Path_17" data-name="Path 17" d="M24.231,1703.673s5.446,33.268,47.785,35.421S19.4,1740.22,19.4,1740.22v-36.547Z" transform="translate(748.868 287.349)" fill="#342d22"/>
    <path id="Path_18" data-name="Path 18" d="M78.06,1703.673s-5.446,33.268-47.785,35.421,52.615,1.126,52.615,1.126v-36.547Z" transform="translate(682.236 287.349)" fill="#342d22"/>
    <path id="Path_19" data-name="Path 19" d="M24.231,1703.673s5.446,33.268,47.785,35.421S19.4,1740.22,19.4,1740.22v-36.547Z" transform="translate(864.868 288.349)" fill="#342d22"/>
    <path id="Path_20" data-name="Path 20" d="M78.06,1703.673s-5.446,33.268-47.785,35.421,52.615,1.126,52.615,1.126v-36.547Z" transform="translate(798.236 288.349)" fill="#342d22"/>
    <g id="Layer_1-2-9" data-name="Layer_1-2" transform="translate(31.242 2559.087)">
      <path id="Path_1-9" data-name="Path 1" d="M45.442,0s1.369,14.235-3.161,16.695-5.836-.533-5.836-.533S32,25.954,43.587,25.524c0,0-1.592,9.713,8.439,12.794,0,0,10.907-3.192,8.495-12.746,0,0,10.907,1.592,7.285-9.116,0,0-7.507,4.02-8.718-6.194a56.909,56.909,0,0,1-.175-5.852c.056-3.5,0-4.411,0-4.411Z" transform="translate(-7.26 83.163)" fill="#342d22"/>
      <path id="Path_2-9" data-name="Path 2" d="M45.442,142.777s1.369-14.235-3.161-16.695-5.836.533-5.836.533-4.442-9.792,7.141-9.362c0,0-1.592-9.713,8.439-12.794,0,0,10.907,3.192,8.495,12.746,0,0,10.907-1.592,7.285,9.116,0,0-7.507-4.02-8.718,6.194a56.909,56.909,0,0,0-.175,5.852c.056,3.5,0,4.411,0,4.411Z" transform="translate(-7.26 -104.46)" fill="#342d22"/>
      <path id="Path_3-9" data-name="Path 3" d="M63.55,57.819s14.235-1.369,16.695,3.161-.533,5.836-.533,5.836,9.792,4.442,9.362-7.141c0,0,9.713,1.592,12.794-8.439,0,0-3.192-10.907-12.746-8.495,0,0,1.592-10.907-9.116-7.285,0,0,4.02,7.507-6.194,8.718a56.909,56.909,0,0,1-5.852.175c-3.5-.056-4.411,0-4.411,0v13.47Z" transform="translate(-12.956 26.188)" fill="#342d22"/>
      <path id="Path_4-9" data-name="Path 4" d="M38.317,57.819s-14.235-1.369-16.695,3.161.533,5.836.533,5.836-9.792,4.442-9.362-7.141c0,0-9.713,1.592-12.794-8.439,0,0,3.192-10.907,12.746-8.495,0,0-1.592-10.907,9.116-7.285,0,0-4.02,7.507,6.194,8.718a56.909,56.909,0,0,0,5.852.175c3.5-.056,4.411,0,4.411,0Z" transform="translate(0 26.188)" fill="#342d22"/>
      <rect id="Rectangle_5-9" data-name="Rectangle 5" width="13.447" height="45.339" transform="translate(38.222 37.824)" fill="#342d22"/>
    </g>
    <g id="Layer_1-2-10" data-name="Layer_1-2" transform="translate(146.242 2559.087)">
      <path id="Path_1-10" data-name="Path 1" d="M45.442,0s1.369,14.235-3.161,16.695-5.836-.533-5.836-.533S32,25.954,43.587,25.524c0,0-1.592,9.713,8.439,12.794,0,0,10.907-3.192,8.495-12.746,0,0,10.907,1.592,7.285-9.116,0,0-7.507,4.02-8.718-6.194a56.909,56.909,0,0,1-.175-5.852c.056-3.5,0-4.411,0-4.411Z" transform="translate(-7.26 83.163)" fill="#342d22"/>
      <path id="Path_2-10" data-name="Path 2" d="M45.442,142.777s1.369-14.235-3.161-16.695-5.836.533-5.836.533-4.442-9.792,7.141-9.362c0,0-1.592-9.713,8.439-12.794,0,0,10.907,3.192,8.495,12.746,0,0,10.907-1.592,7.285,9.116,0,0-7.507-4.02-8.718,6.194a56.909,56.909,0,0,0-.175,5.852c.056,3.5,0,4.411,0,4.411Z" transform="translate(-7.26 -104.46)" fill="#342d22"/>
      <path id="Path_3-10" data-name="Path 3" d="M63.55,57.819s14.235-1.369,16.695,3.161-.533,5.836-.533,5.836,9.792,4.442,9.362-7.141c0,0,9.713,1.592,12.794-8.439,0,0-3.192-10.907-12.746-8.495,0,0,1.592-10.907-9.116-7.285,0,0,4.02,7.507-6.194,8.718a56.909,56.909,0,0,1-5.852.175c-3.5-.056-4.411,0-4.411,0v13.47Z" transform="translate(-12.956 26.188)" fill="#342d22"/>
      <path id="Path_4-10" data-name="Path 4" d="M38.317,57.819s-14.235-1.369-16.695,3.161.533,5.836.533,5.836-9.792,4.442-9.362-7.141c0,0-9.713,1.592-12.794-8.439,0,0,3.192-10.907,12.746-8.495,0,0-1.592-10.907,9.116-7.285,0,0-4.02,7.507,6.194,8.718a56.909,56.909,0,0,0,5.852.175c3.5-.056,4.411,0,4.411,0Z" transform="translate(0 26.188)" fill="#342d22"/>
      <rect id="Rectangle_5-10" data-name="Rectangle 5" width="13.447" height="45.339" transform="translate(38.222 37.824)" fill="#342d22"/>
    </g>
    <g id="Layer_1-2-11" data-name="Layer_1-2" transform="translate(261.242 2559.087)">
      <path id="Path_1-11" data-name="Path 1" d="M45.442,0s1.369,14.235-3.161,16.695-5.836-.533-5.836-.533S32,25.954,43.587,25.524c0,0-1.592,9.713,8.439,12.794,0,0,10.907-3.192,8.495-12.746,0,0,10.907,1.592,7.285-9.116,0,0-7.507,4.02-8.718-6.194a56.909,56.909,0,0,1-.175-5.852c.056-3.5,0-4.411,0-4.411Z" transform="translate(-7.26 83.163)" fill="#342d22"/>
      <path id="Path_2-11" data-name="Path 2" d="M45.442,142.777s1.369-14.235-3.161-16.695-5.836.533-5.836.533-4.442-9.792,7.141-9.362c0,0-1.592-9.713,8.439-12.794,0,0,10.907,3.192,8.495,12.746,0,0,10.907-1.592,7.285,9.116,0,0-7.507-4.02-8.718,6.194a56.909,56.909,0,0,0-.175,5.852c.056,3.5,0,4.411,0,4.411Z" transform="translate(-7.26 -104.46)" fill="#342d22"/>
      <path id="Path_3-11" data-name="Path 3" d="M63.55,57.819s14.235-1.369,16.695,3.161-.533,5.836-.533,5.836,9.792,4.442,9.362-7.141c0,0,9.713,1.592,12.794-8.439,0,0-3.192-10.907-12.746-8.495,0,0,1.592-10.907-9.116-7.285,0,0,4.02,7.507-6.194,8.718a56.909,56.909,0,0,1-5.852.175c-3.5-.056-4.411,0-4.411,0v13.47Z" transform="translate(-12.956 26.188)" fill="#342d22"/>
      <path id="Path_4-11" data-name="Path 4" d="M38.317,57.819s-14.235-1.369-16.695,3.161.533,5.836.533,5.836-9.792,4.442-9.362-7.141c0,0-9.713,1.592-12.794-8.439,0,0,3.192-10.907,12.746-8.495,0,0-1.592-10.907,9.116-7.285,0,0-4.02,7.507,6.194,8.718a56.909,56.909,0,0,0,5.852.175c3.5-.056,4.411,0,4.411,0Z" transform="translate(0 26.188)" fill="#342d22"/>
      <rect id="Rectangle_5-11" data-name="Rectangle 5" width="13.447" height="45.339" transform="translate(38.222 37.824)" fill="#342d22"/>
    </g>
    <g id="Layer_1-2-12" data-name="Layer_1-2" transform="translate(376.242 2559.087)">
      <path id="Path_1-12" data-name="Path 1" d="M45.442,0s1.369,14.235-3.161,16.695-5.836-.533-5.836-.533S32,25.954,43.587,25.524c0,0-1.592,9.713,8.439,12.794,0,0,10.907-3.192,8.495-12.746,0,0,10.907,1.592,7.285-9.116,0,0-7.507,4.02-8.718-6.194a56.909,56.909,0,0,1-.175-5.852c.056-3.5,0-4.411,0-4.411Z" transform="translate(-7.26 83.163)" fill="#342d22"/>
      <path id="Path_2-12" data-name="Path 2" d="M45.442,142.777s1.369-14.235-3.161-16.695-5.836.533-5.836.533-4.442-9.792,7.141-9.362c0,0-1.592-9.713,8.439-12.794,0,0,10.907,3.192,8.495,12.746,0,0,10.907-1.592,7.285,9.116,0,0-7.507-4.02-8.718,6.194a56.909,56.909,0,0,0-.175,5.852c.056,3.5,0,4.411,0,4.411Z" transform="translate(-7.26 -104.46)" fill="#342d22"/>
      <path id="Path_3-12" data-name="Path 3" d="M63.55,57.819s14.235-1.369,16.695,3.161-.533,5.836-.533,5.836,9.792,4.442,9.362-7.141c0,0,9.713,1.592,12.794-8.439,0,0-3.192-10.907-12.746-8.495,0,0,1.592-10.907-9.116-7.285,0,0,4.02,7.507-6.194,8.718a56.909,56.909,0,0,1-5.852.175c-3.5-.056-4.411,0-4.411,0v13.47Z" transform="translate(-12.956 26.188)" fill="#342d22"/>
      <path id="Path_4-12" data-name="Path 4" d="M38.317,57.819s-14.235-1.369-16.695,3.161.533,5.836.533,5.836-9.792,4.442-9.362-7.141c0,0-9.713,1.592-12.794-8.439,0,0,3.192-10.907,12.746-8.495,0,0-1.592-10.907,9.116-7.285,0,0-4.02,7.507,6.194,8.718a56.909,56.909,0,0,0,5.852.175c3.5-.056,4.411,0,4.411,0Z" transform="translate(0 26.188)" fill="#342d22"/>
      <rect id="Rectangle_5-12" data-name="Rectangle 5" width="13.447" height="45.339" transform="translate(38.222 37.824)" fill="#342d22"/>
    </g>
    <g id="Layer_1-2-13" data-name="Layer_1-2" transform="translate(491.242 2559.087)">
      <path id="Path_1-13" data-name="Path 1" d="M45.442,0s1.369,14.235-3.161,16.695-5.836-.533-5.836-.533S32,25.954,43.587,25.524c0,0-1.592,9.713,8.439,12.794,0,0,10.907-3.192,8.495-12.746,0,0,10.907,1.592,7.285-9.116,0,0-7.507,4.02-8.718-6.194a56.909,56.909,0,0,1-.175-5.852c.056-3.5,0-4.411,0-4.411Z" transform="translate(-7.26 83.163)" fill="#342d22"/>
      <path id="Path_2-13" data-name="Path 2" d="M45.442,142.777s1.369-14.235-3.161-16.695-5.836.533-5.836.533-4.442-9.792,7.141-9.362c0,0-1.592-9.713,8.439-12.794,0,0,10.907,3.192,8.495,12.746,0,0,10.907-1.592,7.285,9.116,0,0-7.507-4.02-8.718,6.194a56.909,56.909,0,0,0-.175,5.852c.056,3.5,0,4.411,0,4.411Z" transform="translate(-7.26 -104.46)" fill="#342d22"/>
      <path id="Path_3-13" data-name="Path 3" d="M63.55,57.819s14.235-1.369,16.695,3.161-.533,5.836-.533,5.836,9.792,4.442,9.362-7.141c0,0,9.713,1.592,12.794-8.439,0,0-3.192-10.907-12.746-8.495,0,0,1.592-10.907-9.116-7.285,0,0,4.02,7.507-6.194,8.718a56.909,56.909,0,0,1-5.852.175c-3.5-.056-4.411,0-4.411,0v13.47Z" transform="translate(-12.956 26.188)" fill="#342d22"/>
      <path id="Path_4-13" data-name="Path 4" d="M38.317,57.819s-14.235-1.369-16.695,3.161.533,5.836.533,5.836-9.792,4.442-9.362-7.141c0,0-9.713,1.592-12.794-8.439,0,0,3.192-10.907,12.746-8.495,0,0-1.592-10.907,9.116-7.285,0,0-4.02,7.507,6.194,8.718a56.909,56.909,0,0,0,5.852.175c3.5-.056,4.411,0,4.411,0Z" transform="translate(0 26.188)" fill="#342d22"/>
      <rect id="Rectangle_5-13" data-name="Rectangle 5" width="13.447" height="45.339" transform="translate(38.222 37.824)" fill="#342d22"/>
    </g>
    <g id="Layer_1-2-14" data-name="Layer_1-2" transform="translate(606.242 2559.087)">
      <path id="Path_1-14" data-name="Path 1" d="M45.442,0s1.369,14.235-3.161,16.695-5.836-.533-5.836-.533S32,25.954,43.587,25.524c0,0-1.592,9.713,8.439,12.794,0,0,10.907-3.192,8.495-12.746,0,0,10.907,1.592,7.285-9.116,0,0-7.507,4.02-8.718-6.194a56.909,56.909,0,0,1-.175-5.852c.056-3.5,0-4.411,0-4.411Z" transform="translate(-7.26 83.163)" fill="#342d22"/>
      <path id="Path_2-14" data-name="Path 2" d="M45.442,142.777s1.369-14.235-3.161-16.695-5.836.533-5.836.533-4.442-9.792,7.141-9.362c0,0-1.592-9.713,8.439-12.794,0,0,10.907,3.192,8.495,12.746,0,0,10.907-1.592,7.285,9.116,0,0-7.507-4.02-8.718,6.194a56.909,56.909,0,0,0-.175,5.852c.056,3.5,0,4.411,0,4.411Z" transform="translate(-7.26 -104.46)" fill="#342d22"/>
      <path id="Path_3-14" data-name="Path 3" d="M63.55,57.819s14.235-1.369,16.695,3.161-.533,5.836-.533,5.836,9.792,4.442,9.362-7.141c0,0,9.713,1.592,12.794-8.439,0,0-3.192-10.907-12.746-8.495,0,0,1.592-10.907-9.116-7.285,0,0,4.02,7.507-6.194,8.718a56.909,56.909,0,0,1-5.852.175c-3.5-.056-4.411,0-4.411,0v13.47Z" transform="translate(-12.956 26.188)" fill="#342d22"/>
      <path id="Path_4-14" data-name="Path 4" d="M38.317,57.819s-14.235-1.369-16.695,3.161.533,5.836.533,5.836-9.792,4.442-9.362-7.141c0,0-9.713,1.592-12.794-8.439,0,0,3.192-10.907,12.746-8.495,0,0-1.592-10.907,9.116-7.285,0,0-4.02,7.507,6.194,8.718a56.909,56.909,0,0,0,5.852.175c3.5-.056,4.411,0,4.411,0Z" transform="translate(0 26.188)" fill="#342d22"/>
      <rect id="Rectangle_5-14" data-name="Rectangle 5" width="13.447" height="45.339" transform="translate(38.222 37.824)" fill="#342d22"/>
    </g>
    <g id="Layer_1-2-15" data-name="Layer_1-2" transform="translate(721.242 2559.087)">
      <path id="Path_1-15" data-name="Path 1" d="M45.442,0s1.369,14.235-3.161,16.695-5.836-.533-5.836-.533S32,25.954,43.587,25.524c0,0-1.592,9.713,8.439,12.794,0,0,10.907-3.192,8.495-12.746,0,0,10.907,1.592,7.285-9.116,0,0-7.507,4.02-8.718-6.194a56.909,56.909,0,0,1-.175-5.852c.056-3.5,0-4.411,0-4.411Z" transform="translate(-7.26 83.163)" fill="#342d22"/>
      <path id="Path_2-15" data-name="Path 2" d="M45.442,142.777s1.369-14.235-3.161-16.695-5.836.533-5.836.533-4.442-9.792,7.141-9.362c0,0-1.592-9.713,8.439-12.794,0,0,10.907,3.192,8.495,12.746,0,0,10.907-1.592,7.285,9.116,0,0-7.507-4.02-8.718,6.194a56.909,56.909,0,0,0-.175,5.852c.056,3.5,0,4.411,0,4.411Z" transform="translate(-7.26 -104.46)" fill="#342d22"/>
      <path id="Path_3-15" data-name="Path 3" d="M63.55,57.819s14.235-1.369,16.695,3.161-.533,5.836-.533,5.836,9.792,4.442,9.362-7.141c0,0,9.713,1.592,12.794-8.439,0,0-3.192-10.907-12.746-8.495,0,0,1.592-10.907-9.116-7.285,0,0,4.02,7.507-6.194,8.718a56.909,56.909,0,0,1-5.852.175c-3.5-.056-4.411,0-4.411,0v13.47Z" transform="translate(-12.956 26.188)" fill="#342d22"/>
      <path id="Path_4-15" data-name="Path 4" d="M38.317,57.819s-14.235-1.369-16.695,3.161.533,5.836.533,5.836-9.792,4.442-9.362-7.141c0,0-9.713,1.592-12.794-8.439,0,0,3.192-10.907,12.746-8.495,0,0-1.592-10.907,9.116-7.285,0,0-4.02,7.507,6.194,8.718a56.909,56.909,0,0,0,5.852.175c3.5-.056,4.411,0,4.411,0Z" transform="translate(0 26.188)" fill="#342d22"/>
      <rect id="Rectangle_5-15" data-name="Rectangle 5" width="13.447" height="45.339" transform="translate(38.222 37.824)" fill="#342d22"/>
    </g>
    <g id="Layer_1-2-16" data-name="Layer_1-2" transform="translate(836.242 2559.087)">
      <path id="Path_1-16" data-name="Path 1" d="M45.442,0s1.369,14.235-3.161,16.695-5.836-.533-5.836-.533S32,25.954,43.587,25.524c0,0-1.592,9.713,8.439,12.794,0,0,10.907-3.192,8.495-12.746,0,0,10.907,1.592,7.285-9.116,0,0-7.507,4.02-8.718-6.194a56.909,56.909,0,0,1-.175-5.852c.056-3.5,0-4.411,0-4.411Z" transform="translate(-7.26 83.163)" fill="#342d22"/>
      <path id="Path_2-16" data-name="Path 2" d="M45.442,142.777s1.369-14.235-3.161-16.695-5.836.533-5.836.533-4.442-9.792,7.141-9.362c0,0-1.592-9.713,8.439-12.794,0,0,10.907,3.192,8.495,12.746,0,0,10.907-1.592,7.285,9.116,0,0-7.507-4.02-8.718,6.194a56.909,56.909,0,0,0-.175,5.852c.056,3.5,0,4.411,0,4.411Z" transform="translate(-7.26 -104.46)" fill="#342d22"/>
      <path id="Path_3-16" data-name="Path 3" d="M63.55,57.819s14.235-1.369,16.695,3.161-.533,5.836-.533,5.836,9.792,4.442,9.362-7.141c0,0,9.713,1.592,12.794-8.439,0,0-3.192-10.907-12.746-8.495,0,0,1.592-10.907-9.116-7.285,0,0,4.02,7.507-6.194,8.718a56.909,56.909,0,0,1-5.852.175c-3.5-.056-4.411,0-4.411,0v13.47Z" transform="translate(-12.956 26.188)" fill="#342d22"/>
      <path id="Path_4-16" data-name="Path 4" d="M38.317,57.819s-14.235-1.369-16.695,3.161.533,5.836.533,5.836-9.792,4.442-9.362-7.141c0,0-9.713,1.592-12.794-8.439,0,0,3.192-10.907,12.746-8.495,0,0-1.592-10.907,9.116-7.285,0,0-4.02,7.507,6.194,8.718a56.909,56.909,0,0,0,5.852.175c3.5-.056,4.411,0,4.411,0Z" transform="translate(0 26.188)" fill="#342d22"/>
      <rect id="Rectangle_5-16" data-name="Rectangle 5" width="13.447" height="45.339" transform="translate(38.222 37.824)" fill="#342d22"/>
    </g>
    <path id="Path_149" data-name="Path 149" d="M24.231,1740.464s5.446-33.268,47.785-35.421-52.615-1.126-52.615-1.126v36.547Z" transform="translate(58.473 879.363)" fill="#342d22"/>
    <path id="Path_156" data-name="Path 156" d="M78.06,1740.464s-5.446-33.268-47.785-35.421,52.615-1.126,52.615-1.126v36.547Z" transform="translate(-8.159 879.363)" fill="#342d22"/>
    <path id="Path_150" data-name="Path 150" d="M24.231,1740.464s5.446-33.268,47.785-35.421-52.615-1.126-52.615-1.126v36.547Z" transform="translate(172.868 879.363)" fill="#342d22"/>
    <path id="Path_151" data-name="Path 151" d="M78.06,1740.464s-5.446-33.268-47.785-35.421,52.615-1.126,52.615-1.126v36.547Z" transform="translate(106.236 879.363)" fill="#342d22"/>
    <path id="Path_152" data-name="Path 152" d="M24.231,1740.464s5.446-33.268,47.785-35.421-52.615-1.126-52.615-1.126v36.547Z" transform="translate(287.868 879.363)" fill="#342d22"/>
    <path id="Path_153" data-name="Path 153" d="M78.06,1740.464s-5.446-33.268-47.785-35.421,52.615-1.126,52.615-1.126v36.547Z" transform="translate(221.236 879.363)" fill="#342d22"/>
    <path id="Path_141" data-name="Path 141" d="M24.231,1740.464s5.446-33.268,47.785-35.421-52.615-1.126-52.615-1.126v36.547Z" transform="translate(402.868 880.363)" fill="#342d22"/>
    <path id="Path_142" data-name="Path 142" d="M78.06,1740.464s-5.446-33.268-47.785-35.421,52.615-1.126,52.615-1.126v36.547Z" transform="translate(336.236 880.363)" fill="#342d22"/>
    <path id="Path_143" data-name="Path 143" d="M24.231,1740.464s5.446-33.268,47.785-35.421-52.615-1.126-52.615-1.126v36.547Z" transform="translate(517.868 880.363)" fill="#342d22"/>
    <path id="Path_144" data-name="Path 144" d="M78.06,1740.464s-5.446-33.268-47.785-35.421,52.615-1.126,52.615-1.126v36.547Z" transform="translate(451.236 880.363)" fill="#342d22"/>
    <path id="Path_145" data-name="Path 145" d="M24.231,1740.464s5.446-33.268,47.785-35.421-52.615-1.126-52.615-1.126v36.547Z" transform="translate(632.868 880.363)" fill="#342d22"/>
    <path id="Path_146" data-name="Path 146" d="M78.06,1740.464s-5.446-33.268-47.785-35.421,52.615-1.126,52.615-1.126v36.547Z" transform="translate(566.236 880.363)" fill="#342d22"/>
    <path id="Path_147" data-name="Path 147" d="M24.231,1740.464s5.446-33.268,47.785-35.421-52.615-1.126-52.615-1.126v36.547Z" transform="translate(747.868 880.363)" fill="#342d22"/>
    <path id="Path_148" data-name="Path 148" d="M78.06,1740.464s-5.446-33.268-47.785-35.421,52.615-1.126,52.615-1.126v36.547Z" transform="translate(681.236 880.363)" fill="#342d22"/>
    <path id="Path_154" data-name="Path 154" d="M24.231,1740.464s5.446-33.268,47.785-35.421-52.615-1.126-52.615-1.126v36.547Z" transform="translate(863.868 879.363)" fill="#342d22"/>
    <path id="Path_155" data-name="Path 155" d="M78.06,1740.464s-5.446-33.268-47.785-35.421,52.615-1.126,52.615-1.126v36.547Z" transform="translate(797.236 879.363)" fill="#342d22"/>
  </g>
</svg>
