<svg xmlns="http://www.w3.org/2000/svg" width="960" height="568.642" viewBox="0 0 960 568.642">
  <g id="Group_161" data-name="Group 161" transform="translate(0 -522)">
    <rect id="Banner" width="960" height="468" transform="translate(0 522)" fill="#342d22"/>
    <line id="Line_38" data-name="Line 38" x2="175.201" transform="translate(94.959 997.418)" fill="none" stroke="#fff" stroke-width="1"/>
    <g id="Layer_1-2" transform="translate(924.516 1090.642) rotate(180)">
      <path id="Path_1" data-name="Path 1" d="M45.442,38.317s1.369-14.235-3.161-16.695-5.836.533-5.836.533S32,12.364,43.587,12.794c0,0-1.592-9.713,8.439-12.794,0,0,10.907,3.192,8.495,12.746,0,0,10.907-1.592,7.285,9.116,0,0-7.507-4.02-8.718,6.194a56.909,56.909,0,0,0-.175,5.852c.056,3.5,0,4.411,0,4.411Z" transform="translate(-7.26)" fill="#342d22"/>
      <path id="Path_2" data-name="Path 2" d="M45.442,104.46s1.369,14.235-3.161,16.695-5.836-.533-5.836-.533-4.442,9.792,7.141,9.362c0,0-1.592,9.713,8.439,12.794,0,0,10.907-3.192,8.495-12.746,0,0,10.907,1.592,7.285-9.116,0,0-7.507,4.02-8.718-6.194a56.909,56.909,0,0,1-.175-5.852c.056-3.5,0-4.411,0-4.411H45.442Z" transform="translate(-7.26 -21.297)" fill="#342d22"/>
      <path id="Path_3" data-name="Path 3" d="M63.55,44.552s14.235,1.369,16.695-3.161-.533-5.836-.533-5.836S89.5,31.113,89.074,42.7c0,0,9.713-1.592,12.794,8.439,0,0-3.192,10.907-12.746,8.495,0,0,1.592,10.907-9.116,7.285,0,0,4.02-7.507-6.194-8.718a56.909,56.909,0,0,0-5.852-.175c-3.5.056-4.411,0-4.411,0V44.552Z" transform="translate(-12.956 -7.078)" fill="#342d22"/>
      <path id="Path_4" data-name="Path 4" d="M38.317,44.552s-14.235,1.369-16.695-3.161.533-5.836.533-5.836-9.792-4.442-9.362,7.141c0,0-9.713-1.592-12.794,8.439,0,0,3.192,10.907,12.746,8.495,0,0-1.592,10.907,9.116,7.285,0,0-4.02-7.507,6.194-8.718a56.909,56.909,0,0,1,5.852-.175c3.5.056,4.411,0,4.411,0Z" transform="translate(0 -7.078)" fill="#342d22"/>
      <rect id="Rectangle_5" data-name="Rectangle 5" width="13.447" height="45.339" transform="translate(38.222 38.317)" fill="#342d22"/>
    </g>
    <g id="Layer_1-2-2" data-name="Layer_1-2" transform="translate(809.516 1090.642) rotate(180)">
      <path id="Path_1-2" data-name="Path 1" d="M45.442,38.317s1.369-14.235-3.161-16.695-5.836.533-5.836.533S32,12.364,43.587,12.794c0,0-1.592-9.713,8.439-12.794,0,0,10.907,3.192,8.495,12.746,0,0,10.907-1.592,7.285,9.116,0,0-7.507-4.02-8.718,6.194a56.909,56.909,0,0,0-.175,5.852c.056,3.5,0,4.411,0,4.411Z" transform="translate(-7.26)" fill="#342d22"/>
      <path id="Path_2-2" data-name="Path 2" d="M45.442,104.46s1.369,14.235-3.161,16.695-5.836-.533-5.836-.533-4.442,9.792,7.141,9.362c0,0-1.592,9.713,8.439,12.794,0,0,10.907-3.192,8.495-12.746,0,0,10.907,1.592,7.285-9.116,0,0-7.507,4.02-8.718-6.194a56.909,56.909,0,0,1-.175-5.852c.056-3.5,0-4.411,0-4.411H45.442Z" transform="translate(-7.26 -21.297)" fill="#342d22"/>
      <path id="Path_3-2" data-name="Path 3" d="M63.55,44.552s14.235,1.369,16.695-3.161-.533-5.836-.533-5.836S89.5,31.113,89.074,42.7c0,0,9.713-1.592,12.794,8.439,0,0-3.192,10.907-12.746,8.495,0,0,1.592,10.907-9.116,7.285,0,0,4.02-7.507-6.194-8.718a56.909,56.909,0,0,0-5.852-.175c-3.5.056-4.411,0-4.411,0V44.552Z" transform="translate(-12.956 -7.078)" fill="#342d22"/>
      <path id="Path_4-2" data-name="Path 4" d="M38.317,44.552s-14.235,1.369-16.695-3.161.533-5.836.533-5.836-9.792-4.442-9.362,7.141c0,0-9.713-1.592-12.794,8.439,0,0,3.192,10.907,12.746,8.495,0,0-1.592,10.907,9.116,7.285,0,0-4.02-7.507,6.194-8.718a56.909,56.909,0,0,1,5.852-.175c3.5.056,4.411,0,4.411,0Z" transform="translate(0 -7.078)" fill="#342d22"/>
      <rect id="Rectangle_5-2" data-name="Rectangle 5" width="13.447" height="45.339" transform="translate(38.222 38.317)" fill="#342d22"/>
    </g>
    <g id="Layer_1-2-3" data-name="Layer_1-2" transform="translate(694.516 1090.642) rotate(180)">
      <path id="Path_1-3" data-name="Path 1" d="M45.442,38.317s1.369-14.235-3.161-16.695-5.836.533-5.836.533S32,12.364,43.587,12.794c0,0-1.592-9.713,8.439-12.794,0,0,10.907,3.192,8.495,12.746,0,0,10.907-1.592,7.285,9.116,0,0-7.507-4.02-8.718,6.194a56.909,56.909,0,0,0-.175,5.852c.056,3.5,0,4.411,0,4.411Z" transform="translate(-7.26)" fill="#342d22"/>
      <path id="Path_2-3" data-name="Path 2" d="M45.442,104.46s1.369,14.235-3.161,16.695-5.836-.533-5.836-.533-4.442,9.792,7.141,9.362c0,0-1.592,9.713,8.439,12.794,0,0,10.907-3.192,8.495-12.746,0,0,10.907,1.592,7.285-9.116,0,0-7.507,4.02-8.718-6.194a56.909,56.909,0,0,1-.175-5.852c.056-3.5,0-4.411,0-4.411H45.442Z" transform="translate(-7.26 -21.297)" fill="#342d22"/>
      <path id="Path_3-3" data-name="Path 3" d="M63.55,44.552s14.235,1.369,16.695-3.161-.533-5.836-.533-5.836S89.5,31.113,89.074,42.7c0,0,9.713-1.592,12.794,8.439,0,0-3.192,10.907-12.746,8.495,0,0,1.592,10.907-9.116,7.285,0,0,4.02-7.507-6.194-8.718a56.909,56.909,0,0,0-5.852-.175c-3.5.056-4.411,0-4.411,0V44.552Z" transform="translate(-12.956 -7.078)" fill="#342d22"/>
      <path id="Path_4-3" data-name="Path 4" d="M38.317,44.552s-14.235,1.369-16.695-3.161.533-5.836.533-5.836-9.792-4.442-9.362,7.141c0,0-9.713-1.592-12.794,8.439,0,0,3.192,10.907,12.746,8.495,0,0-1.592,10.907,9.116,7.285,0,0-4.02-7.507,6.194-8.718a56.909,56.909,0,0,1,5.852-.175c3.5.056,4.411,0,4.411,0Z" transform="translate(0 -7.078)" fill="#342d22"/>
      <rect id="Rectangle_5-3" data-name="Rectangle 5" width="13.447" height="45.339" transform="translate(38.222 38.317)" fill="#342d22"/>
    </g>
    <g id="Layer_1-2-4" data-name="Layer_1-2" transform="translate(579.516 1090.642) rotate(180)">
      <path id="Path_1-4" data-name="Path 1" d="M45.442,38.317s1.369-14.235-3.161-16.695-5.836.533-5.836.533S32,12.364,43.587,12.794c0,0-1.592-9.713,8.439-12.794,0,0,10.907,3.192,8.495,12.746,0,0,10.907-1.592,7.285,9.116,0,0-7.507-4.02-8.718,6.194a56.909,56.909,0,0,0-.175,5.852c.056,3.5,0,4.411,0,4.411Z" transform="translate(-7.26)" fill="#342d22"/>
      <path id="Path_2-4" data-name="Path 2" d="M45.442,104.46s1.369,14.235-3.161,16.695-5.836-.533-5.836-.533-4.442,9.792,7.141,9.362c0,0-1.592,9.713,8.439,12.794,0,0,10.907-3.192,8.495-12.746,0,0,10.907,1.592,7.285-9.116,0,0-7.507,4.02-8.718-6.194a56.909,56.909,0,0,1-.175-5.852c.056-3.5,0-4.411,0-4.411H45.442Z" transform="translate(-7.26 -21.297)" fill="#342d22"/>
      <path id="Path_3-4" data-name="Path 3" d="M63.55,44.552s14.235,1.369,16.695-3.161-.533-5.836-.533-5.836S89.5,31.113,89.074,42.7c0,0,9.713-1.592,12.794,8.439,0,0-3.192,10.907-12.746,8.495,0,0,1.592,10.907-9.116,7.285,0,0,4.02-7.507-6.194-8.718a56.909,56.909,0,0,0-5.852-.175c-3.5.056-4.411,0-4.411,0V44.552Z" transform="translate(-12.956 -7.078)" fill="#342d22"/>
      <path id="Path_4-4" data-name="Path 4" d="M38.317,44.552s-14.235,1.369-16.695-3.161.533-5.836.533-5.836-9.792-4.442-9.362,7.141c0,0-9.713-1.592-12.794,8.439,0,0,3.192,10.907,12.746,8.495,0,0-1.592,10.907,9.116,7.285,0,0-4.02-7.507,6.194-8.718a56.909,56.909,0,0,1,5.852-.175c3.5.056,4.411,0,4.411,0Z" transform="translate(0 -7.078)" fill="#342d22"/>
      <rect id="Rectangle_5-4" data-name="Rectangle 5" width="13.447" height="45.339" transform="translate(38.222 38.317)" fill="#342d22"/>
    </g>
    <g id="Layer_1-2-5" data-name="Layer_1-2" transform="translate(464.516 1090.642) rotate(180)">
      <path id="Path_1-5" data-name="Path 1" d="M45.442,38.317s1.369-14.235-3.161-16.695-5.836.533-5.836.533S32,12.364,43.587,12.794c0,0-1.592-9.713,8.439-12.794,0,0,10.907,3.192,8.495,12.746,0,0,10.907-1.592,7.285,9.116,0,0-7.507-4.02-8.718,6.194a56.909,56.909,0,0,0-.175,5.852c.056,3.5,0,4.411,0,4.411Z" transform="translate(-7.26)" fill="#342d22"/>
      <path id="Path_2-5" data-name="Path 2" d="M45.442,104.46s1.369,14.235-3.161,16.695-5.836-.533-5.836-.533-4.442,9.792,7.141,9.362c0,0-1.592,9.713,8.439,12.794,0,0,10.907-3.192,8.495-12.746,0,0,10.907,1.592,7.285-9.116,0,0-7.507,4.02-8.718-6.194a56.909,56.909,0,0,1-.175-5.852c.056-3.5,0-4.411,0-4.411H45.442Z" transform="translate(-7.26 -21.297)" fill="#342d22"/>
      <path id="Path_3-5" data-name="Path 3" d="M63.55,44.552s14.235,1.369,16.695-3.161-.533-5.836-.533-5.836S89.5,31.113,89.074,42.7c0,0,9.713-1.592,12.794,8.439,0,0-3.192,10.907-12.746,8.495,0,0,1.592,10.907-9.116,7.285,0,0,4.02-7.507-6.194-8.718a56.909,56.909,0,0,0-5.852-.175c-3.5.056-4.411,0-4.411,0V44.552Z" transform="translate(-12.956 -7.078)" fill="#342d22"/>
      <path id="Path_4-5" data-name="Path 4" d="M38.317,44.552s-14.235,1.369-16.695-3.161.533-5.836.533-5.836-9.792-4.442-9.362,7.141c0,0-9.713-1.592-12.794,8.439,0,0,3.192,10.907,12.746,8.495,0,0-1.592,10.907,9.116,7.285,0,0-4.02-7.507,6.194-8.718a56.909,56.909,0,0,1,5.852-.175c3.5.056,4.411,0,4.411,0Z" transform="translate(0 -7.078)" fill="#342d22"/>
      <rect id="Rectangle_5-5" data-name="Rectangle 5" width="13.447" height="45.339" transform="translate(38.222 38.317)" fill="#342d22"/>
    </g>
    <g id="Layer_1-2-6" data-name="Layer_1-2" transform="translate(349.516 1090.642) rotate(180)">
      <path id="Path_1-6" data-name="Path 1" d="M45.442,38.317s1.369-14.235-3.161-16.695-5.836.533-5.836.533S32,12.364,43.587,12.794c0,0-1.592-9.713,8.439-12.794,0,0,10.907,3.192,8.495,12.746,0,0,10.907-1.592,7.285,9.116,0,0-7.507-4.02-8.718,6.194a56.909,56.909,0,0,0-.175,5.852c.056,3.5,0,4.411,0,4.411Z" transform="translate(-7.26)" fill="#342d22"/>
      <path id="Path_2-6" data-name="Path 2" d="M45.442,104.46s1.369,14.235-3.161,16.695-5.836-.533-5.836-.533-4.442,9.792,7.141,9.362c0,0-1.592,9.713,8.439,12.794,0,0,10.907-3.192,8.495-12.746,0,0,10.907,1.592,7.285-9.116,0,0-7.507,4.02-8.718-6.194a56.909,56.909,0,0,1-.175-5.852c.056-3.5,0-4.411,0-4.411H45.442Z" transform="translate(-7.26 -21.297)" fill="#342d22"/>
      <path id="Path_3-6" data-name="Path 3" d="M63.55,44.552s14.235,1.369,16.695-3.161-.533-5.836-.533-5.836S89.5,31.113,89.074,42.7c0,0,9.713-1.592,12.794,8.439,0,0-3.192,10.907-12.746,8.495,0,0,1.592,10.907-9.116,7.285,0,0,4.02-7.507-6.194-8.718a56.909,56.909,0,0,0-5.852-.175c-3.5.056-4.411,0-4.411,0V44.552Z" transform="translate(-12.956 -7.078)" fill="#342d22"/>
      <path id="Path_4-6" data-name="Path 4" d="M38.317,44.552s-14.235,1.369-16.695-3.161.533-5.836.533-5.836-9.792-4.442-9.362,7.141c0,0-9.713-1.592-12.794,8.439,0,0,3.192,10.907,12.746,8.495,0,0-1.592,10.907,9.116,7.285,0,0-4.02-7.507,6.194-8.718a56.909,56.909,0,0,1,5.852-.175c3.5.056,4.411,0,4.411,0Z" transform="translate(0 -7.078)" fill="#342d22"/>
      <rect id="Rectangle_5-6" data-name="Rectangle 5" width="13.447" height="45.339" transform="translate(38.222 38.317)" fill="#342d22"/>
    </g>
    <g id="Layer_1-2-7" data-name="Layer_1-2" transform="translate(234.516 1090.642) rotate(180)">
      <path id="Path_1-7" data-name="Path 1" d="M45.442,38.317s1.369-14.235-3.161-16.695-5.836.533-5.836.533S32,12.364,43.587,12.794c0,0-1.592-9.713,8.439-12.794,0,0,10.907,3.192,8.495,12.746,0,0,10.907-1.592,7.285,9.116,0,0-7.507-4.02-8.718,6.194a56.909,56.909,0,0,0-.175,5.852c.056,3.5,0,4.411,0,4.411Z" transform="translate(-7.26)" fill="#342d22"/>
      <path id="Path_2-7" data-name="Path 2" d="M45.442,104.46s1.369,14.235-3.161,16.695-5.836-.533-5.836-.533-4.442,9.792,7.141,9.362c0,0-1.592,9.713,8.439,12.794,0,0,10.907-3.192,8.495-12.746,0,0,10.907,1.592,7.285-9.116,0,0-7.507,4.02-8.718-6.194a56.909,56.909,0,0,1-.175-5.852c.056-3.5,0-4.411,0-4.411H45.442Z" transform="translate(-7.26 -21.297)" fill="#342d22"/>
      <path id="Path_3-7" data-name="Path 3" d="M63.55,44.552s14.235,1.369,16.695-3.161-.533-5.836-.533-5.836S89.5,31.113,89.074,42.7c0,0,9.713-1.592,12.794,8.439,0,0-3.192,10.907-12.746,8.495,0,0,1.592,10.907-9.116,7.285,0,0,4.02-7.507-6.194-8.718a56.909,56.909,0,0,0-5.852-.175c-3.5.056-4.411,0-4.411,0V44.552Z" transform="translate(-12.956 -7.078)" fill="#342d22"/>
      <path id="Path_4-7" data-name="Path 4" d="M38.317,44.552s-14.235,1.369-16.695-3.161.533-5.836.533-5.836-9.792-4.442-9.362,7.141c0,0-9.713-1.592-12.794,8.439,0,0,3.192,10.907,12.746,8.495,0,0-1.592,10.907,9.116,7.285,0,0-4.02-7.507,6.194-8.718a56.909,56.909,0,0,1,5.852-.175c3.5.056,4.411,0,4.411,0Z" transform="translate(0 -7.078)" fill="#342d22"/>
      <rect id="Rectangle_5-7" data-name="Rectangle 5" width="13.447" height="45.339" transform="translate(38.222 38.317)" fill="#342d22"/>
    </g>
    <g id="Layer_1-2-8" data-name="Layer_1-2" transform="translate(119.516 1090.642) rotate(180)">
      <path id="Path_1-8" data-name="Path 1" d="M45.442,38.317s1.369-14.235-3.161-16.695-5.836.533-5.836.533S32,12.364,43.587,12.794c0,0-1.592-9.713,8.439-12.794,0,0,10.907,3.192,8.495,12.746,0,0,10.907-1.592,7.285,9.116,0,0-7.507-4.02-8.718,6.194a56.909,56.909,0,0,0-.175,5.852c.056,3.5,0,4.411,0,4.411Z" transform="translate(-7.26)" fill="#342d22"/>
      <path id="Path_2-8" data-name="Path 2" d="M45.442,104.46s1.369,14.235-3.161,16.695-5.836-.533-5.836-.533-4.442,9.792,7.141,9.362c0,0-1.592,9.713,8.439,12.794,0,0,10.907-3.192,8.495-12.746,0,0,10.907,1.592,7.285-9.116,0,0-7.507,4.02-8.718-6.194a56.909,56.909,0,0,1-.175-5.852c.056-3.5,0-4.411,0-4.411H45.442Z" transform="translate(-7.26 -21.297)" fill="#342d22"/>
      <path id="Path_3-8" data-name="Path 3" d="M63.55,44.552s14.235,1.369,16.695-3.161-.533-5.836-.533-5.836S89.5,31.113,89.074,42.7c0,0,9.713-1.592,12.794,8.439,0,0-3.192,10.907-12.746,8.495,0,0,1.592,10.907-9.116,7.285,0,0,4.02-7.507-6.194-8.718a56.909,56.909,0,0,0-5.852-.175c-3.5.056-4.411,0-4.411,0V44.552Z" transform="translate(-12.956 -7.078)" fill="#342d22"/>
      <path id="Path_4-8" data-name="Path 4" d="M38.317,44.552s-14.235,1.369-16.695-3.161.533-5.836.533-5.836-9.792-4.442-9.362,7.141c0,0-9.713-1.592-12.794,8.439,0,0,3.192,10.907,12.746,8.495,0,0-1.592,10.907,9.116,7.285,0,0-4.02-7.507,6.194-8.718a56.909,56.909,0,0,1,5.852-.175c3.5.056,4.411,0,4.411,0Z" transform="translate(0 -7.078)" fill="#342d22"/>
      <rect id="Rectangle_5-8" data-name="Rectangle 5" width="13.447" height="45.339" transform="translate(38.222 38.317)" fill="#342d22"/>
    </g>
    <path id="Path_106" data-name="Path 106" d="M24.231,1703.673s5.446,33.268,47.785,35.421S19.4,1740.22,19.4,1740.22v-36.547Z" transform="translate(897.285 2728.574) rotate(180)" fill="#342d22"/>
    <path id="Path_107" data-name="Path 107" d="M78.06,1703.673s-5.446,33.268-47.785,35.421,52.615,1.126,52.615,1.126v-36.547Z" transform="translate(963.917 2728.574) rotate(180)" fill="#342d22"/>
    <path id="Path_108" data-name="Path 108" d="M24.231,1703.673s5.446,33.268,47.785,35.421S19.4,1740.22,19.4,1740.22v-36.547Z" transform="translate(782.89 2728.574) rotate(180)" fill="#342d22"/>
    <path id="Path_109" data-name="Path 109" d="M78.06,1703.673s-5.446,33.268-47.785,35.421,52.615,1.126,52.615,1.126v-36.547Z" transform="translate(849.522 2728.574) rotate(180)" fill="#342d22"/>
    <path id="Path_110" data-name="Path 110" d="M24.231,1703.673s5.446,33.268,47.785,35.421S19.4,1740.22,19.4,1740.22v-36.547Z" transform="translate(667.89 2728.574) rotate(180)" fill="#342d22"/>
    <path id="Path_111" data-name="Path 111" d="M78.06,1703.673s-5.446,33.268-47.785,35.421,52.615,1.126,52.615,1.126v-36.547Z" transform="translate(734.522 2728.574) rotate(180)" fill="#342d22"/>
    <path id="Path_98" data-name="Path 98" d="M24.231,1703.673s5.446,33.268,47.785,35.421S19.4,1740.22,19.4,1740.22v-36.547Z" transform="translate(552.89 2729.574) rotate(180)" fill="#342d22"/>
    <path id="Path_99" data-name="Path 99" d="M78.06,1703.673s-5.446,33.268-47.785,35.421,52.615,1.126,52.615,1.126v-36.547Z" transform="translate(619.522 2729.574) rotate(180)" fill="#342d22"/>
    <path id="Path_100" data-name="Path 100" d="M24.231,1703.673s5.446,33.268,47.785,35.421S19.4,1740.22,19.4,1740.22v-36.547Z" transform="translate(437.89 2729.574) rotate(180)" fill="#342d22"/>
    <path id="Path_101" data-name="Path 101" d="M78.06,1703.673s-5.446,33.268-47.785,35.421,52.615,1.126,52.615,1.126v-36.547Z" transform="translate(504.522 2729.574) rotate(180)" fill="#342d22"/>
    <path id="Path_102" data-name="Path 102" d="M24.231,1703.673s5.446,33.268,47.785,35.421S19.4,1740.22,19.4,1740.22v-36.547Z" transform="translate(322.89 2729.574) rotate(180)" fill="#342d22"/>
    <path id="Path_103" data-name="Path 103" d="M78.06,1703.673s-5.446,33.268-47.785,35.421,52.615,1.126,52.615,1.126v-36.547Z" transform="translate(389.522 2729.574) rotate(180)" fill="#342d22"/>
    <path id="Path_104" data-name="Path 104" d="M24.231,1703.673s5.446,33.268,47.785,35.421S19.4,1740.22,19.4,1740.22v-36.547Z" transform="translate(207.89 2729.574) rotate(180)" fill="#342d22"/>
    <path id="Path_105" data-name="Path 105" d="M78.06,1703.673s-5.446,33.268-47.785,35.421,52.615,1.126,52.615,1.126v-36.547Z" transform="translate(274.521 2729.574) rotate(180)" fill="#342d22"/>
    <path id="Path_112" data-name="Path 112" d="M24.231,1703.673s5.446,33.268,47.785,35.421S19.4,1740.22,19.4,1740.22v-36.547Z" transform="translate(91.89 2728.574) rotate(180)" fill="#342d22"/>
    <path id="Path_113" data-name="Path 113" d="M78.06,1703.673s-5.446,33.268-47.785,35.421,52.615,1.126,52.615,1.126v-36.547Z" transform="translate(158.521 2728.574) rotate(180)" fill="#342d22"/>
  </g>
</svg>
