<svg xmlns="http://www.w3.org/2000/svg" width="960" height="1179.832" viewBox="0 0 960 1179.832">
  <g id="Group_171" data-name="Group 171" transform="translate(0 -2033.497)">
    <rect id="Rectangle_63" data-name="Rectangle 63" width="960" height="987" transform="translate(0 2130)" fill="#cdd1c7"/>
    <g id="Layer_1-2" transform="translate(35.769 2033.497)">
      <path id="Path_1" data-name="Path 1" d="M45.442,38.317s1.369-14.235-3.161-16.695-5.836.533-5.836.533S32,12.364,43.587,12.794c0,0-1.592-9.713,8.439-12.794,0,0,10.907,3.192,8.495,12.746,0,0,10.907-1.592,7.285,9.116,0,0-7.507-4.02-8.718,6.194a56.909,56.909,0,0,0-.175,5.852c.056,3.5,0,4.411,0,4.411Z" transform="translate(-7.26 0)" fill="#cdd1c7"/>
      <path id="Path_2" data-name="Path 2" d="M45.442,104.46s1.369,14.235-3.161,16.695-5.836-.533-5.836-.533-4.442,9.792,7.141,9.362c0,0-1.592,9.713,8.439,12.794,0,0,10.907-3.192,8.495-12.746,0,0,10.907,1.592,7.285-9.116,0,0-7.507,4.02-8.718-6.194a56.909,56.909,0,0,1-.175-5.852c.056-3.5,0-4.411,0-4.411H45.442Z" transform="translate(-7.26 -21.297)" fill="#cdd1c7"/>
      <path id="Path_3" data-name="Path 3" d="M63.55,44.552s14.235,1.369,16.695-3.161-.533-5.836-.533-5.836S89.5,31.113,89.074,42.7c0,0,9.713-1.592,12.794,8.439,0,0-3.192,10.907-12.746,8.495,0,0,1.592,10.907-9.116,7.285,0,0,4.02-7.507-6.194-8.718a56.909,56.909,0,0,0-5.852-.175c-3.5.056-4.411,0-4.411,0V44.552Z" transform="translate(-12.956 -7.078)" fill="#cdd1c7"/>
      <path id="Path_4" data-name="Path 4" d="M38.317,44.552s-14.235,1.369-16.695-3.161.533-5.836.533-5.836-9.792-4.442-9.362,7.141c0,0-9.713-1.592-12.794,8.439,0,0,3.192,10.907,12.746,8.495,0,0-1.592,10.907,9.116,7.285,0,0-4.02-7.507,6.194-8.718a56.909,56.909,0,0,1,5.852-.175c3.5.056,4.411,0,4.411,0Z" transform="translate(0 -7.078)" fill="#cdd1c7"/>
      <rect id="Rectangle_5" data-name="Rectangle 5" width="13.447" height="45.339" transform="translate(38.222 38.317)" fill="#cdd1c7"/>
    </g>
    <g id="Layer_1-2-2" data-name="Layer_1-2" transform="translate(38.242 3091.849)">
      <path id="Path_1-2" data-name="Path 1" d="M45.442,0s1.369,14.235-3.161,16.695-5.836-.533-5.836-.533S32,25.954,43.587,25.524c0,0-1.592,9.713,8.439,12.794,0,0,10.907-3.192,8.495-12.746,0,0,10.907,1.592,7.285-9.116,0,0-7.507,4.02-8.718-6.194a56.909,56.909,0,0,1-.175-5.852c.056-3.5,0-4.411,0-4.411Z" transform="translate(-7.26 83.163)" fill="#cdd1c7"/>
      <path id="Path_2-2" data-name="Path 2" d="M45.442,142.777s1.369-14.235-3.161-16.695-5.836.533-5.836.533-4.442-9.792,7.141-9.362c0,0-1.592-9.713,8.439-12.794,0,0,10.907,3.192,8.495,12.746,0,0,10.907-1.592,7.285,9.116,0,0-7.507-4.02-8.718,6.194a56.909,56.909,0,0,0-.175,5.852c.056,3.5,0,4.411,0,4.411Z" transform="translate(-7.26 -104.46)" fill="#cdd1c7"/>
      <path id="Path_3-2" data-name="Path 3" d="M63.55,57.819s14.235-1.369,16.695,3.161-.533,5.836-.533,5.836,9.792,4.442,9.362-7.141c0,0,9.713,1.592,12.794-8.439,0,0-3.192-10.907-12.746-8.495,0,0,1.592-10.907-9.116-7.285,0,0,4.02,7.507-6.194,8.718a56.909,56.909,0,0,1-5.852.175c-3.5-.056-4.411,0-4.411,0v13.47Z" transform="translate(-12.956 26.188)" fill="#cdd1c7"/>
      <path id="Path_4-2" data-name="Path 4" d="M38.317,57.819s-14.235-1.369-16.695,3.161.533,5.836.533,5.836-9.792,4.442-9.362-7.141c0,0-9.713,1.592-12.794-8.439,0,0,3.192-10.907,12.746-8.495,0,0-1.592-10.907,9.116-7.285,0,0-4.02,7.507,6.194,8.718a56.909,56.909,0,0,0,5.852.175c3.5-.056,4.411,0,4.411,0Z" transform="translate(0 26.188)" fill="#cdd1c7"/>
      <rect id="Rectangle_5-2" data-name="Rectangle 5" width="13.447" height="45.339" transform="translate(38.222 37.824)" fill="#cdd1c7"/>
    </g>
    <g id="Layer_1-2-3" data-name="Layer_1-2" transform="translate(150.769 2033.497)">
      <path id="Path_1-3" data-name="Path 1" d="M45.442,38.317s1.369-14.235-3.161-16.695-5.836.533-5.836.533S32,12.364,43.587,12.794c0,0-1.592-9.713,8.439-12.794,0,0,10.907,3.192,8.495,12.746,0,0,10.907-1.592,7.285,9.116,0,0-7.507-4.02-8.718,6.194a56.909,56.909,0,0,0-.175,5.852c.056,3.5,0,4.411,0,4.411Z" transform="translate(-7.26 0)" fill="#cdd1c7"/>
      <path id="Path_2-3" data-name="Path 2" d="M45.442,104.46s1.369,14.235-3.161,16.695-5.836-.533-5.836-.533-4.442,9.792,7.141,9.362c0,0-1.592,9.713,8.439,12.794,0,0,10.907-3.192,8.495-12.746,0,0,10.907,1.592,7.285-9.116,0,0-7.507,4.02-8.718-6.194a56.909,56.909,0,0,1-.175-5.852c.056-3.5,0-4.411,0-4.411H45.442Z" transform="translate(-7.26 -21.297)" fill="#cdd1c7"/>
      <path id="Path_3-3" data-name="Path 3" d="M63.55,44.552s14.235,1.369,16.695-3.161-.533-5.836-.533-5.836S89.5,31.113,89.074,42.7c0,0,9.713-1.592,12.794,8.439,0,0-3.192,10.907-12.746,8.495,0,0,1.592,10.907-9.116,7.285,0,0,4.02-7.507-6.194-8.718a56.909,56.909,0,0,0-5.852-.175c-3.5.056-4.411,0-4.411,0V44.552Z" transform="translate(-12.956 -7.078)" fill="#cdd1c7"/>
      <path id="Path_4-3" data-name="Path 4" d="M38.317,44.552s-14.235,1.369-16.695-3.161.533-5.836.533-5.836-9.792-4.442-9.362,7.141c0,0-9.713-1.592-12.794,8.439,0,0,3.192,10.907,12.746,8.495,0,0-1.592,10.907,9.116,7.285,0,0-4.02-7.507,6.194-8.718a56.909,56.909,0,0,1,5.852-.175c3.5.056,4.411,0,4.411,0Z" transform="translate(0 -7.078)" fill="#cdd1c7"/>
      <rect id="Rectangle_5-3" data-name="Rectangle 5" width="13.447" height="45.339" transform="translate(38.222 38.317)" fill="#cdd1c7"/>
    </g>
    <g id="Layer_1-2-4" data-name="Layer_1-2" transform="translate(153.242 3091.849)">
      <path id="Path_1-4" data-name="Path 1" d="M45.442,0s1.369,14.235-3.161,16.695-5.836-.533-5.836-.533S32,25.954,43.587,25.524c0,0-1.592,9.713,8.439,12.794,0,0,10.907-3.192,8.495-12.746,0,0,10.907,1.592,7.285-9.116,0,0-7.507,4.02-8.718-6.194a56.909,56.909,0,0,1-.175-5.852c.056-3.5,0-4.411,0-4.411Z" transform="translate(-7.26 83.163)" fill="#cdd1c7"/>
      <path id="Path_2-4" data-name="Path 2" d="M45.442,142.777s1.369-14.235-3.161-16.695-5.836.533-5.836.533-4.442-9.792,7.141-9.362c0,0-1.592-9.713,8.439-12.794,0,0,10.907,3.192,8.495,12.746,0,0,10.907-1.592,7.285,9.116,0,0-7.507-4.02-8.718,6.194a56.909,56.909,0,0,0-.175,5.852c.056,3.5,0,4.411,0,4.411Z" transform="translate(-7.26 -104.46)" fill="#cdd1c7"/>
      <path id="Path_3-4" data-name="Path 3" d="M63.55,57.819s14.235-1.369,16.695,3.161-.533,5.836-.533,5.836,9.792,4.442,9.362-7.141c0,0,9.713,1.592,12.794-8.439,0,0-3.192-10.907-12.746-8.495,0,0,1.592-10.907-9.116-7.285,0,0,4.02,7.507-6.194,8.718a56.909,56.909,0,0,1-5.852.175c-3.5-.056-4.411,0-4.411,0v13.47Z" transform="translate(-12.956 26.188)" fill="#cdd1c7"/>
      <path id="Path_4-4" data-name="Path 4" d="M38.317,57.819s-14.235-1.369-16.695,3.161.533,5.836.533,5.836-9.792,4.442-9.362-7.141c0,0-9.713,1.592-12.794-8.439,0,0,3.192-10.907,12.746-8.495,0,0-1.592-10.907,9.116-7.285,0,0-4.02,7.507,6.194,8.718a56.909,56.909,0,0,0,5.852.175c3.5-.056,4.411,0,4.411,0Z" transform="translate(0 26.188)" fill="#cdd1c7"/>
      <rect id="Rectangle_5-4" data-name="Rectangle 5" width="13.447" height="45.339" transform="translate(38.222 37.824)" fill="#cdd1c7"/>
    </g>
    <g id="Layer_1-2-5" data-name="Layer_1-2" transform="translate(265.769 2033.497)">
      <path id="Path_1-5" data-name="Path 1" d="M45.442,38.317s1.369-14.235-3.161-16.695-5.836.533-5.836.533S32,12.364,43.587,12.794c0,0-1.592-9.713,8.439-12.794,0,0,10.907,3.192,8.495,12.746,0,0,10.907-1.592,7.285,9.116,0,0-7.507-4.02-8.718,6.194a56.909,56.909,0,0,0-.175,5.852c.056,3.5,0,4.411,0,4.411Z" transform="translate(-7.26 0)" fill="#cdd1c7"/>
      <path id="Path_2-5" data-name="Path 2" d="M45.442,104.46s1.369,14.235-3.161,16.695-5.836-.533-5.836-.533-4.442,9.792,7.141,9.362c0,0-1.592,9.713,8.439,12.794,0,0,10.907-3.192,8.495-12.746,0,0,10.907,1.592,7.285-9.116,0,0-7.507,4.02-8.718-6.194a56.909,56.909,0,0,1-.175-5.852c.056-3.5,0-4.411,0-4.411H45.442Z" transform="translate(-7.26 -21.297)" fill="#cdd1c7"/>
      <path id="Path_3-5" data-name="Path 3" d="M63.55,44.552s14.235,1.369,16.695-3.161-.533-5.836-.533-5.836S89.5,31.113,89.074,42.7c0,0,9.713-1.592,12.794,8.439,0,0-3.192,10.907-12.746,8.495,0,0,1.592,10.907-9.116,7.285,0,0,4.02-7.507-6.194-8.718a56.909,56.909,0,0,0-5.852-.175c-3.5.056-4.411,0-4.411,0V44.552Z" transform="translate(-12.956 -7.078)" fill="#cdd1c7"/>
      <path id="Path_4-5" data-name="Path 4" d="M38.317,44.552s-14.235,1.369-16.695-3.161.533-5.836.533-5.836-9.792-4.442-9.362,7.141c0,0-9.713-1.592-12.794,8.439,0,0,3.192,10.907,12.746,8.495,0,0-1.592,10.907,9.116,7.285,0,0-4.02-7.507,6.194-8.718a56.909,56.909,0,0,1,5.852-.175c3.5.056,4.411,0,4.411,0Z" transform="translate(0 -7.078)" fill="#cdd1c7"/>
      <rect id="Rectangle_5-5" data-name="Rectangle 5" width="13.447" height="45.339" transform="translate(38.222 38.317)" fill="#cdd1c7"/>
    </g>
    <g id="Layer_1-2-6" data-name="Layer_1-2" transform="translate(268.242 3091.849)">
      <path id="Path_1-6" data-name="Path 1" d="M45.442,0s1.369,14.235-3.161,16.695-5.836-.533-5.836-.533S32,25.954,43.587,25.524c0,0-1.592,9.713,8.439,12.794,0,0,10.907-3.192,8.495-12.746,0,0,10.907,1.592,7.285-9.116,0,0-7.507,4.02-8.718-6.194a56.909,56.909,0,0,1-.175-5.852c.056-3.5,0-4.411,0-4.411Z" transform="translate(-7.26 83.163)" fill="#cdd1c7"/>
      <path id="Path_2-6" data-name="Path 2" d="M45.442,142.777s1.369-14.235-3.161-16.695-5.836.533-5.836.533-4.442-9.792,7.141-9.362c0,0-1.592-9.713,8.439-12.794,0,0,10.907,3.192,8.495,12.746,0,0,10.907-1.592,7.285,9.116,0,0-7.507-4.02-8.718,6.194a56.909,56.909,0,0,0-.175,5.852c.056,3.5,0,4.411,0,4.411Z" transform="translate(-7.26 -104.46)" fill="#cdd1c7"/>
      <path id="Path_3-6" data-name="Path 3" d="M63.55,57.819s14.235-1.369,16.695,3.161-.533,5.836-.533,5.836,9.792,4.442,9.362-7.141c0,0,9.713,1.592,12.794-8.439,0,0-3.192-10.907-12.746-8.495,0,0,1.592-10.907-9.116-7.285,0,0,4.02,7.507-6.194,8.718a56.909,56.909,0,0,1-5.852.175c-3.5-.056-4.411,0-4.411,0v13.47Z" transform="translate(-12.956 26.188)" fill="#cdd1c7"/>
      <path id="Path_4-6" data-name="Path 4" d="M38.317,57.819s-14.235-1.369-16.695,3.161.533,5.836.533,5.836-9.792,4.442-9.362-7.141c0,0-9.713,1.592-12.794-8.439,0,0,3.192-10.907,12.746-8.495,0,0-1.592-10.907,9.116-7.285,0,0-4.02,7.507,6.194,8.718a56.909,56.909,0,0,0,5.852.175c3.5-.056,4.411,0,4.411,0Z" transform="translate(0 26.188)" fill="#cdd1c7"/>
      <rect id="Rectangle_5-6" data-name="Rectangle 5" width="13.447" height="45.339" transform="translate(38.222 37.824)" fill="#cdd1c7"/>
    </g>
    <g id="Layer_1-2-7" data-name="Layer_1-2" transform="translate(380.769 2033.497)">
      <path id="Path_1-7" data-name="Path 1" d="M45.442,38.317s1.369-14.235-3.161-16.695-5.836.533-5.836.533S32,12.364,43.587,12.794c0,0-1.592-9.713,8.439-12.794,0,0,10.907,3.192,8.495,12.746,0,0,10.907-1.592,7.285,9.116,0,0-7.507-4.02-8.718,6.194a56.909,56.909,0,0,0-.175,5.852c.056,3.5,0,4.411,0,4.411Z" transform="translate(-7.26 0)" fill="#cdd1c7"/>
      <path id="Path_2-7" data-name="Path 2" d="M45.442,104.46s1.369,14.235-3.161,16.695-5.836-.533-5.836-.533-4.442,9.792,7.141,9.362c0,0-1.592,9.713,8.439,12.794,0,0,10.907-3.192,8.495-12.746,0,0,10.907,1.592,7.285-9.116,0,0-7.507,4.02-8.718-6.194a56.909,56.909,0,0,1-.175-5.852c.056-3.5,0-4.411,0-4.411H45.442Z" transform="translate(-7.26 -21.297)" fill="#cdd1c7"/>
      <path id="Path_3-7" data-name="Path 3" d="M63.55,44.552s14.235,1.369,16.695-3.161-.533-5.836-.533-5.836S89.5,31.113,89.074,42.7c0,0,9.713-1.592,12.794,8.439,0,0-3.192,10.907-12.746,8.495,0,0,1.592,10.907-9.116,7.285,0,0,4.02-7.507-6.194-8.718a56.909,56.909,0,0,0-5.852-.175c-3.5.056-4.411,0-4.411,0V44.552Z" transform="translate(-12.956 -7.078)" fill="#cdd1c7"/>
      <path id="Path_4-7" data-name="Path 4" d="M38.317,44.552s-14.235,1.369-16.695-3.161.533-5.836.533-5.836-9.792-4.442-9.362,7.141c0,0-9.713-1.592-12.794,8.439,0,0,3.192,10.907,12.746,8.495,0,0-1.592,10.907,9.116,7.285,0,0-4.02-7.507,6.194-8.718a56.909,56.909,0,0,1,5.852-.175c3.5.056,4.411,0,4.411,0Z" transform="translate(0 -7.078)" fill="#cdd1c7"/>
      <rect id="Rectangle_5-7" data-name="Rectangle 5" width="13.447" height="45.339" transform="translate(38.222 38.317)" fill="#cdd1c7"/>
    </g>
    <g id="Layer_1-2-8" data-name="Layer_1-2" transform="translate(383.242 3091.849)">
      <path id="Path_1-8" data-name="Path 1" d="M45.442,0s1.369,14.235-3.161,16.695-5.836-.533-5.836-.533S32,25.954,43.587,25.524c0,0-1.592,9.713,8.439,12.794,0,0,10.907-3.192,8.495-12.746,0,0,10.907,1.592,7.285-9.116,0,0-7.507,4.02-8.718-6.194a56.909,56.909,0,0,1-.175-5.852c.056-3.5,0-4.411,0-4.411Z" transform="translate(-7.26 83.163)" fill="#cdd1c7"/>
      <path id="Path_2-8" data-name="Path 2" d="M45.442,142.777s1.369-14.235-3.161-16.695-5.836.533-5.836.533-4.442-9.792,7.141-9.362c0,0-1.592-9.713,8.439-12.794,0,0,10.907,3.192,8.495,12.746,0,0,10.907-1.592,7.285,9.116,0,0-7.507-4.02-8.718,6.194a56.909,56.909,0,0,0-.175,5.852c.056,3.5,0,4.411,0,4.411Z" transform="translate(-7.26 -104.46)" fill="#cdd1c7"/>
      <path id="Path_3-8" data-name="Path 3" d="M63.55,57.819s14.235-1.369,16.695,3.161-.533,5.836-.533,5.836,9.792,4.442,9.362-7.141c0,0,9.713,1.592,12.794-8.439,0,0-3.192-10.907-12.746-8.495,0,0,1.592-10.907-9.116-7.285,0,0,4.02,7.507-6.194,8.718a56.909,56.909,0,0,1-5.852.175c-3.5-.056-4.411,0-4.411,0v13.47Z" transform="translate(-12.956 26.188)" fill="#cdd1c7"/>
      <path id="Path_4-8" data-name="Path 4" d="M38.317,57.819s-14.235-1.369-16.695,3.161.533,5.836.533,5.836-9.792,4.442-9.362-7.141c0,0-9.713,1.592-12.794-8.439,0,0,3.192-10.907,12.746-8.495,0,0-1.592-10.907,9.116-7.285,0,0-4.02,7.507,6.194,8.718a56.909,56.909,0,0,0,5.852.175c3.5-.056,4.411,0,4.411,0Z" transform="translate(0 26.188)" fill="#cdd1c7"/>
      <rect id="Rectangle_5-8" data-name="Rectangle 5" width="13.447" height="45.339" transform="translate(38.222 37.824)" fill="#cdd1c7"/>
    </g>
    <g id="Layer_1-2-9" data-name="Layer_1-2" transform="translate(495.769 2033.497)">
      <path id="Path_1-9" data-name="Path 1" d="M45.442,38.317s1.369-14.235-3.161-16.695-5.836.533-5.836.533S32,12.364,43.587,12.794c0,0-1.592-9.713,8.439-12.794,0,0,10.907,3.192,8.495,12.746,0,0,10.907-1.592,7.285,9.116,0,0-7.507-4.02-8.718,6.194a56.909,56.909,0,0,0-.175,5.852c.056,3.5,0,4.411,0,4.411Z" transform="translate(-7.26 0)" fill="#cdd1c7"/>
      <path id="Path_2-9" data-name="Path 2" d="M45.442,104.46s1.369,14.235-3.161,16.695-5.836-.533-5.836-.533-4.442,9.792,7.141,9.362c0,0-1.592,9.713,8.439,12.794,0,0,10.907-3.192,8.495-12.746,0,0,10.907,1.592,7.285-9.116,0,0-7.507,4.02-8.718-6.194a56.909,56.909,0,0,1-.175-5.852c.056-3.5,0-4.411,0-4.411H45.442Z" transform="translate(-7.26 -21.297)" fill="#cdd1c7"/>
      <path id="Path_3-9" data-name="Path 3" d="M63.55,44.552s14.235,1.369,16.695-3.161-.533-5.836-.533-5.836S89.5,31.113,89.074,42.7c0,0,9.713-1.592,12.794,8.439,0,0-3.192,10.907-12.746,8.495,0,0,1.592,10.907-9.116,7.285,0,0,4.02-7.507-6.194-8.718a56.909,56.909,0,0,0-5.852-.175c-3.5.056-4.411,0-4.411,0V44.552Z" transform="translate(-12.956 -7.078)" fill="#cdd1c7"/>
      <path id="Path_4-9" data-name="Path 4" d="M38.317,44.552s-14.235,1.369-16.695-3.161.533-5.836.533-5.836-9.792-4.442-9.362,7.141c0,0-9.713-1.592-12.794,8.439,0,0,3.192,10.907,12.746,8.495,0,0-1.592,10.907,9.116,7.285,0,0-4.02-7.507,6.194-8.718a56.909,56.909,0,0,1,5.852-.175c3.5.056,4.411,0,4.411,0Z" transform="translate(0 -7.078)" fill="#cdd1c7"/>
      <rect id="Rectangle_5-9" data-name="Rectangle 5" width="13.447" height="45.339" transform="translate(38.222 38.317)" fill="#cdd1c7"/>
    </g>
    <g id="Layer_1-2-10" data-name="Layer_1-2" transform="translate(498.242 3091.849)">
      <path id="Path_1-10" data-name="Path 1" d="M45.442,0s1.369,14.235-3.161,16.695-5.836-.533-5.836-.533S32,25.954,43.587,25.524c0,0-1.592,9.713,8.439,12.794,0,0,10.907-3.192,8.495-12.746,0,0,10.907,1.592,7.285-9.116,0,0-7.507,4.02-8.718-6.194a56.909,56.909,0,0,1-.175-5.852c.056-3.5,0-4.411,0-4.411Z" transform="translate(-7.26 83.163)" fill="#cdd1c7"/>
      <path id="Path_2-10" data-name="Path 2" d="M45.442,142.777s1.369-14.235-3.161-16.695-5.836.533-5.836.533-4.442-9.792,7.141-9.362c0,0-1.592-9.713,8.439-12.794,0,0,10.907,3.192,8.495,12.746,0,0,10.907-1.592,7.285,9.116,0,0-7.507-4.02-8.718,6.194a56.909,56.909,0,0,0-.175,5.852c.056,3.5,0,4.411,0,4.411Z" transform="translate(-7.26 -104.46)" fill="#cdd1c7"/>
      <path id="Path_3-10" data-name="Path 3" d="M63.55,57.819s14.235-1.369,16.695,3.161-.533,5.836-.533,5.836,9.792,4.442,9.362-7.141c0,0,9.713,1.592,12.794-8.439,0,0-3.192-10.907-12.746-8.495,0,0,1.592-10.907-9.116-7.285,0,0,4.02,7.507-6.194,8.718a56.909,56.909,0,0,1-5.852.175c-3.5-.056-4.411,0-4.411,0v13.47Z" transform="translate(-12.956 26.188)" fill="#cdd1c7"/>
      <path id="Path_4-10" data-name="Path 4" d="M38.317,57.819s-14.235-1.369-16.695,3.161.533,5.836.533,5.836-9.792,4.442-9.362-7.141c0,0-9.713,1.592-12.794-8.439,0,0,3.192-10.907,12.746-8.495,0,0-1.592-10.907,9.116-7.285,0,0-4.02,7.507,6.194,8.718a56.909,56.909,0,0,0,5.852.175c3.5-.056,4.411,0,4.411,0Z" transform="translate(0 26.188)" fill="#cdd1c7"/>
      <rect id="Rectangle_5-10" data-name="Rectangle 5" width="13.447" height="45.339" transform="translate(38.222 37.824)" fill="#cdd1c7"/>
    </g>
    <g id="Layer_1-2-11" data-name="Layer_1-2" transform="translate(610.769 2033.497)">
      <path id="Path_1-11" data-name="Path 1" d="M45.442,38.317s1.369-14.235-3.161-16.695-5.836.533-5.836.533S32,12.364,43.587,12.794c0,0-1.592-9.713,8.439-12.794,0,0,10.907,3.192,8.495,12.746,0,0,10.907-1.592,7.285,9.116,0,0-7.507-4.02-8.718,6.194a56.909,56.909,0,0,0-.175,5.852c.056,3.5,0,4.411,0,4.411Z" transform="translate(-7.26 0)" fill="#cdd1c7"/>
      <path id="Path_2-11" data-name="Path 2" d="M45.442,104.46s1.369,14.235-3.161,16.695-5.836-.533-5.836-.533-4.442,9.792,7.141,9.362c0,0-1.592,9.713,8.439,12.794,0,0,10.907-3.192,8.495-12.746,0,0,10.907,1.592,7.285-9.116,0,0-7.507,4.02-8.718-6.194a56.909,56.909,0,0,1-.175-5.852c.056-3.5,0-4.411,0-4.411H45.442Z" transform="translate(-7.26 -21.297)" fill="#cdd1c7"/>
      <path id="Path_3-11" data-name="Path 3" d="M63.55,44.552s14.235,1.369,16.695-3.161-.533-5.836-.533-5.836S89.5,31.113,89.074,42.7c0,0,9.713-1.592,12.794,8.439,0,0-3.192,10.907-12.746,8.495,0,0,1.592,10.907-9.116,7.285,0,0,4.02-7.507-6.194-8.718a56.909,56.909,0,0,0-5.852-.175c-3.5.056-4.411,0-4.411,0V44.552Z" transform="translate(-12.956 -7.078)" fill="#cdd1c7"/>
      <path id="Path_4-11" data-name="Path 4" d="M38.317,44.552s-14.235,1.369-16.695-3.161.533-5.836.533-5.836-9.792-4.442-9.362,7.141c0,0-9.713-1.592-12.794,8.439,0,0,3.192,10.907,12.746,8.495,0,0-1.592,10.907,9.116,7.285,0,0-4.02-7.507,6.194-8.718a56.909,56.909,0,0,1,5.852-.175c3.5.056,4.411,0,4.411,0Z" transform="translate(0 -7.078)" fill="#cdd1c7"/>
      <rect id="Rectangle_5-11" data-name="Rectangle 5" width="13.447" height="45.339" transform="translate(38.222 38.317)" fill="#cdd1c7"/>
    </g>
    <g id="Layer_1-2-12" data-name="Layer_1-2" transform="translate(613.242 3091.849)">
      <path id="Path_1-12" data-name="Path 1" d="M45.442,0s1.369,14.235-3.161,16.695-5.836-.533-5.836-.533S32,25.954,43.587,25.524c0,0-1.592,9.713,8.439,12.794,0,0,10.907-3.192,8.495-12.746,0,0,10.907,1.592,7.285-9.116,0,0-7.507,4.02-8.718-6.194a56.909,56.909,0,0,1-.175-5.852c.056-3.5,0-4.411,0-4.411Z" transform="translate(-7.26 83.163)" fill="#cdd1c7"/>
      <path id="Path_2-12" data-name="Path 2" d="M45.442,142.777s1.369-14.235-3.161-16.695-5.836.533-5.836.533-4.442-9.792,7.141-9.362c0,0-1.592-9.713,8.439-12.794,0,0,10.907,3.192,8.495,12.746,0,0,10.907-1.592,7.285,9.116,0,0-7.507-4.02-8.718,6.194a56.909,56.909,0,0,0-.175,5.852c.056,3.5,0,4.411,0,4.411Z" transform="translate(-7.26 -104.46)" fill="#cdd1c7"/>
      <path id="Path_3-12" data-name="Path 3" d="M63.55,57.819s14.235-1.369,16.695,3.161-.533,5.836-.533,5.836,9.792,4.442,9.362-7.141c0,0,9.713,1.592,12.794-8.439,0,0-3.192-10.907-12.746-8.495,0,0,1.592-10.907-9.116-7.285,0,0,4.02,7.507-6.194,8.718a56.909,56.909,0,0,1-5.852.175c-3.5-.056-4.411,0-4.411,0v13.47Z" transform="translate(-12.956 26.188)" fill="#cdd1c7"/>
      <path id="Path_4-12" data-name="Path 4" d="M38.317,57.819s-14.235-1.369-16.695,3.161.533,5.836.533,5.836-9.792,4.442-9.362-7.141c0,0-9.713,1.592-12.794-8.439,0,0,3.192-10.907,12.746-8.495,0,0-1.592-10.907,9.116-7.285,0,0-4.02,7.507,6.194,8.718a56.909,56.909,0,0,0,5.852.175c3.5-.056,4.411,0,4.411,0Z" transform="translate(0 26.188)" fill="#cdd1c7"/>
      <rect id="Rectangle_5-12" data-name="Rectangle 5" width="13.447" height="45.339" transform="translate(38.222 37.824)" fill="#cdd1c7"/>
    </g>
    <g id="Layer_1-2-13" data-name="Layer_1-2" transform="translate(725.769 2033.497)">
      <path id="Path_1-13" data-name="Path 1" d="M45.442,38.317s1.369-14.235-3.161-16.695-5.836.533-5.836.533S32,12.364,43.587,12.794c0,0-1.592-9.713,8.439-12.794,0,0,10.907,3.192,8.495,12.746,0,0,10.907-1.592,7.285,9.116,0,0-7.507-4.02-8.718,6.194a56.909,56.909,0,0,0-.175,5.852c.056,3.5,0,4.411,0,4.411Z" transform="translate(-7.26 0)" fill="#cdd1c7"/>
      <path id="Path_2-13" data-name="Path 2" d="M45.442,104.46s1.369,14.235-3.161,16.695-5.836-.533-5.836-.533-4.442,9.792,7.141,9.362c0,0-1.592,9.713,8.439,12.794,0,0,10.907-3.192,8.495-12.746,0,0,10.907,1.592,7.285-9.116,0,0-7.507,4.02-8.718-6.194a56.909,56.909,0,0,1-.175-5.852c.056-3.5,0-4.411,0-4.411H45.442Z" transform="translate(-7.26 -21.297)" fill="#cdd1c7"/>
      <path id="Path_3-13" data-name="Path 3" d="M63.55,44.552s14.235,1.369,16.695-3.161-.533-5.836-.533-5.836S89.5,31.113,89.074,42.7c0,0,9.713-1.592,12.794,8.439,0,0-3.192,10.907-12.746,8.495,0,0,1.592,10.907-9.116,7.285,0,0,4.02-7.507-6.194-8.718a56.909,56.909,0,0,0-5.852-.175c-3.5.056-4.411,0-4.411,0V44.552Z" transform="translate(-12.956 -7.078)" fill="#cdd1c7"/>
      <path id="Path_4-13" data-name="Path 4" d="M38.317,44.552s-14.235,1.369-16.695-3.161.533-5.836.533-5.836-9.792-4.442-9.362,7.141c0,0-9.713-1.592-12.794,8.439,0,0,3.192,10.907,12.746,8.495,0,0-1.592,10.907,9.116,7.285,0,0-4.02-7.507,6.194-8.718a56.909,56.909,0,0,1,5.852-.175c3.5.056,4.411,0,4.411,0Z" transform="translate(0 -7.078)" fill="#cdd1c7"/>
      <rect id="Rectangle_5-13" data-name="Rectangle 5" width="13.447" height="45.339" transform="translate(38.222 38.317)" fill="#cdd1c7"/>
    </g>
    <g id="Layer_1-2-14" data-name="Layer_1-2" transform="translate(728.242 3091.849)">
      <path id="Path_1-14" data-name="Path 1" d="M45.442,0s1.369,14.235-3.161,16.695-5.836-.533-5.836-.533S32,25.954,43.587,25.524c0,0-1.592,9.713,8.439,12.794,0,0,10.907-3.192,8.495-12.746,0,0,10.907,1.592,7.285-9.116,0,0-7.507,4.02-8.718-6.194a56.909,56.909,0,0,1-.175-5.852c.056-3.5,0-4.411,0-4.411Z" transform="translate(-7.26 83.163)" fill="#cdd1c7"/>
      <path id="Path_2-14" data-name="Path 2" d="M45.442,142.777s1.369-14.235-3.161-16.695-5.836.533-5.836.533-4.442-9.792,7.141-9.362c0,0-1.592-9.713,8.439-12.794,0,0,10.907,3.192,8.495,12.746,0,0,10.907-1.592,7.285,9.116,0,0-7.507-4.02-8.718,6.194a56.909,56.909,0,0,0-.175,5.852c.056,3.5,0,4.411,0,4.411Z" transform="translate(-7.26 -104.46)" fill="#cdd1c7"/>
      <path id="Path_3-14" data-name="Path 3" d="M63.55,57.819s14.235-1.369,16.695,3.161-.533,5.836-.533,5.836,9.792,4.442,9.362-7.141c0,0,9.713,1.592,12.794-8.439,0,0-3.192-10.907-12.746-8.495,0,0,1.592-10.907-9.116-7.285,0,0,4.02,7.507-6.194,8.718a56.909,56.909,0,0,1-5.852.175c-3.5-.056-4.411,0-4.411,0v13.47Z" transform="translate(-12.956 26.188)" fill="#cdd1c7"/>
      <path id="Path_4-14" data-name="Path 4" d="M38.317,57.819s-14.235-1.369-16.695,3.161.533,5.836.533,5.836-9.792,4.442-9.362-7.141c0,0-9.713,1.592-12.794-8.439,0,0,3.192-10.907,12.746-8.495,0,0-1.592-10.907,9.116-7.285,0,0-4.02,7.507,6.194,8.718a56.909,56.909,0,0,0,5.852.175c3.5-.056,4.411,0,4.411,0Z" transform="translate(0 26.188)" fill="#cdd1c7"/>
      <rect id="Rectangle_5-14" data-name="Rectangle 5" width="13.447" height="45.339" transform="translate(38.222 37.824)" fill="#cdd1c7"/>
    </g>
    <g id="Layer_1-2-15" data-name="Layer_1-2" transform="translate(840.769 2033.497)">
      <path id="Path_1-15" data-name="Path 1" d="M45.442,38.317s1.369-14.235-3.161-16.695-5.836.533-5.836.533S32,12.364,43.587,12.794c0,0-1.592-9.713,8.439-12.794,0,0,10.907,3.192,8.495,12.746,0,0,10.907-1.592,7.285,9.116,0,0-7.507-4.02-8.718,6.194a56.909,56.909,0,0,0-.175,5.852c.056,3.5,0,4.411,0,4.411Z" transform="translate(-7.26 0)" fill="#cdd1c7"/>
      <path id="Path_2-15" data-name="Path 2" d="M45.442,104.46s1.369,14.235-3.161,16.695-5.836-.533-5.836-.533-4.442,9.792,7.141,9.362c0,0-1.592,9.713,8.439,12.794,0,0,10.907-3.192,8.495-12.746,0,0,10.907,1.592,7.285-9.116,0,0-7.507,4.02-8.718-6.194a56.909,56.909,0,0,1-.175-5.852c.056-3.5,0-4.411,0-4.411H45.442Z" transform="translate(-7.26 -21.297)" fill="#cdd1c7"/>
      <path id="Path_3-15" data-name="Path 3" d="M63.55,44.552s14.235,1.369,16.695-3.161-.533-5.836-.533-5.836S89.5,31.113,89.074,42.7c0,0,9.713-1.592,12.794,8.439,0,0-3.192,10.907-12.746,8.495,0,0,1.592,10.907-9.116,7.285,0,0,4.02-7.507-6.194-8.718a56.909,56.909,0,0,0-5.852-.175c-3.5.056-4.411,0-4.411,0V44.552Z" transform="translate(-12.956 -7.078)" fill="#cdd1c7"/>
      <path id="Path_4-15" data-name="Path 4" d="M38.317,44.552s-14.235,1.369-16.695-3.161.533-5.836.533-5.836-9.792-4.442-9.362,7.141c0,0-9.713-1.592-12.794,8.439,0,0,3.192,10.907,12.746,8.495,0,0-1.592,10.907,9.116,7.285,0,0-4.02-7.507,6.194-8.718a56.909,56.909,0,0,1,5.852-.175c3.5.056,4.411,0,4.411,0Z" transform="translate(0 -7.078)" fill="#cdd1c7"/>
      <rect id="Rectangle_5-15" data-name="Rectangle 5" width="13.447" height="45.339" transform="translate(38.222 38.317)" fill="#cdd1c7"/>
    </g>
    <g id="Layer_1-2-16" data-name="Layer_1-2" transform="translate(843.242 3091.849)">
      <path id="Path_1-16" data-name="Path 1" d="M45.442,0s1.369,14.235-3.161,16.695-5.836-.533-5.836-.533S32,25.954,43.587,25.524c0,0-1.592,9.713,8.439,12.794,0,0,10.907-3.192,8.495-12.746,0,0,10.907,1.592,7.285-9.116,0,0-7.507,4.02-8.718-6.194a56.909,56.909,0,0,1-.175-5.852c.056-3.5,0-4.411,0-4.411Z" transform="translate(-7.26 83.163)" fill="#cdd1c7"/>
      <path id="Path_2-16" data-name="Path 2" d="M45.442,142.777s1.369-14.235-3.161-16.695-5.836.533-5.836.533-4.442-9.792,7.141-9.362c0,0-1.592-9.713,8.439-12.794,0,0,10.907,3.192,8.495,12.746,0,0,10.907-1.592,7.285,9.116,0,0-7.507-4.02-8.718,6.194a56.909,56.909,0,0,0-.175,5.852c.056,3.5,0,4.411,0,4.411Z" transform="translate(-7.26 -104.46)" fill="#cdd1c7"/>
      <path id="Path_3-16" data-name="Path 3" d="M63.55,57.819s14.235-1.369,16.695,3.161-.533,5.836-.533,5.836,9.792,4.442,9.362-7.141c0,0,9.713,1.592,12.794-8.439,0,0-3.192-10.907-12.746-8.495,0,0,1.592-10.907-9.116-7.285,0,0,4.02,7.507-6.194,8.718a56.909,56.909,0,0,1-5.852.175c-3.5-.056-4.411,0-4.411,0v13.47Z" transform="translate(-12.956 26.188)" fill="#cdd1c7"/>
      <path id="Path_4-16" data-name="Path 4" d="M38.317,57.819s-14.235-1.369-16.695,3.161.533,5.836.533,5.836-9.792,4.442-9.362-7.141c0,0-9.713,1.592-12.794-8.439,0,0,3.192-10.907,12.746-8.495,0,0-1.592-10.907,9.116-7.285,0,0-4.02,7.507,6.194,8.718a56.909,56.909,0,0,0,5.852.175c3.5-.056,4.411,0,4.411,0Z" transform="translate(0 26.188)" fill="#cdd1c7"/>
      <rect id="Rectangle_5-16" data-name="Rectangle 5" width="13.447" height="45.339" transform="translate(38.222 37.824)" fill="#cdd1c7"/>
    </g>
    <path id="Path_5" data-name="Path 5" d="M24.231,1703.673s5.446,33.268,47.785,35.421S19.4,1740.22,19.4,1740.22v-36.547Z" transform="translate(63 390.565)" fill="#cdd1c7"/>
    <path id="Path_48" data-name="Path 48" d="M24.231,1740.464s5.446-33.268,47.785-35.421-52.615-1.126-52.615-1.126v36.547Z" transform="translate(65.473 1412.124)" fill="#cdd1c7"/>
    <path id="Path_6" data-name="Path 6" d="M78.06,1703.673s-5.446,33.268-47.785,35.421,52.615,1.126,52.615,1.126v-36.547Z" transform="translate(-3.632 390.565)" fill="#cdd1c7"/>
    <path id="Path_49" data-name="Path 49" d="M78.06,1740.464s-5.446-33.268-47.785-35.421,52.615-1.126,52.615-1.126v36.547Z" transform="translate(-1.159 1412.124)" fill="#cdd1c7"/>
    <path id="Path_7" data-name="Path 7" d="M24.231,1703.673s5.446,33.268,47.785,35.421S19.4,1740.22,19.4,1740.22v-36.547Z" transform="translate(177.395 390.565)" fill="#cdd1c7"/>
    <path id="Path_50" data-name="Path 50" d="M24.231,1740.464s5.446-33.268,47.785-35.421-52.615-1.126-52.615-1.126v36.547Z" transform="translate(179.868 1412.124)" fill="#cdd1c7"/>
    <path id="Path_8" data-name="Path 8" d="M78.06,1703.673s-5.446,33.268-47.785,35.421,52.615,1.126,52.615,1.126v-36.547Z" transform="translate(110.763 390.565)" fill="#cdd1c7"/>
    <path id="Path_51" data-name="Path 51" d="M78.06,1740.464s-5.446-33.268-47.785-35.421,52.615-1.126,52.615-1.126v36.547Z" transform="translate(113.236 1412.124)" fill="#cdd1c7"/>
    <path id="Path_9" data-name="Path 9" d="M24.231,1703.673s5.446,33.268,47.785,35.421S19.4,1740.22,19.4,1740.22v-36.547Z" transform="translate(292.395 390.565)" fill="#cdd1c7"/>
    <path id="Path_52" data-name="Path 52" d="M24.231,1740.464s5.446-33.268,47.785-35.421-52.615-1.126-52.615-1.126v36.547Z" transform="translate(294.868 1412.124)" fill="#cdd1c7"/>
    <path id="Path_10" data-name="Path 10" d="M78.06,1703.673s-5.446,33.268-47.785,35.421,52.615,1.126,52.615,1.126v-36.547Z" transform="translate(225.763 390.565)" fill="#cdd1c7"/>
    <path id="Path_53" data-name="Path 53" d="M78.06,1740.464s-5.446-33.268-47.785-35.421,52.615-1.126,52.615-1.126v36.547Z" transform="translate(228.236 1412.124)" fill="#cdd1c7"/>
    <path id="Path_11" data-name="Path 11" d="M24.231,1703.673s5.446,33.268,47.785,35.421S19.4,1740.22,19.4,1740.22v-36.547Z" transform="translate(407.395 389.565)" fill="#cdd1c7"/>
    <path id="Path_54" data-name="Path 54" d="M24.231,1740.464s5.446-33.268,47.785-35.421-52.615-1.126-52.615-1.126v36.547Z" transform="translate(409.868 1413.124)" fill="#cdd1c7"/>
    <path id="Path_12" data-name="Path 12" d="M78.06,1703.673s-5.446,33.268-47.785,35.421,52.615,1.126,52.615,1.126v-36.547Z" transform="translate(340.763 389.565)" fill="#cdd1c7"/>
    <path id="Path_55" data-name="Path 55" d="M78.06,1740.464s-5.446-33.268-47.785-35.421,52.615-1.126,52.615-1.126v36.547Z" transform="translate(343.236 1413.124)" fill="#cdd1c7"/>
    <path id="Path_13" data-name="Path 13" d="M24.231,1703.673s5.446,33.268,47.785,35.421S19.4,1740.22,19.4,1740.22v-36.547Z" transform="translate(522.395 389.565)" fill="#cdd1c7"/>
    <path id="Path_57" data-name="Path 57" d="M24.231,1740.464s5.446-33.268,47.785-35.421-52.615-1.126-52.615-1.126v36.547Z" transform="translate(524.868 1413.124)" fill="#cdd1c7"/>
    <path id="Path_14" data-name="Path 14" d="M78.06,1703.673s-5.446,33.268-47.785,35.421,52.615,1.126,52.615,1.126v-36.547Z" transform="translate(455.763 389.565)" fill="#cdd1c7"/>
    <path id="Path_56" data-name="Path 56" d="M78.06,1740.464s-5.446-33.268-47.785-35.421,52.615-1.126,52.615-1.126v36.547Z" transform="translate(458.236 1413.124)" fill="#cdd1c7"/>
    <path id="Path_15" data-name="Path 15" d="M24.231,1703.673s5.446,33.268,47.785,35.421S19.4,1740.22,19.4,1740.22v-36.547Z" transform="translate(637.395 389.565)" fill="#cdd1c7"/>
    <path id="Path_59" data-name="Path 59" d="M24.231,1740.464s5.446-33.268,47.785-35.421-52.615-1.126-52.615-1.126v36.547Z" transform="translate(639.868 1413.124)" fill="#cdd1c7"/>
    <path id="Path_16" data-name="Path 16" d="M78.06,1703.673s-5.446,33.268-47.785,35.421,52.615,1.126,52.615,1.126v-36.547Z" transform="translate(570.763 389.565)" fill="#cdd1c7"/>
    <path id="Path_58" data-name="Path 58" d="M78.06,1740.464s-5.446-33.268-47.785-35.421,52.615-1.126,52.615-1.126v36.547Z" transform="translate(573.236 1413.124)" fill="#cdd1c7"/>
    <path id="Path_17" data-name="Path 17" d="M24.231,1703.673s5.446,33.268,47.785,35.421S19.4,1740.22,19.4,1740.22v-36.547Z" transform="translate(752.395 389.565)" fill="#cdd1c7"/>
    <path id="Path_61" data-name="Path 61" d="M24.231,1740.464s5.446-33.268,47.785-35.421-52.615-1.126-52.615-1.126v36.547Z" transform="translate(754.868 1413.124)" fill="#cdd1c7"/>
    <path id="Path_18" data-name="Path 18" d="M78.06,1703.673s-5.446,33.268-47.785,35.421,52.615,1.126,52.615,1.126v-36.547Z" transform="translate(685.763 389.565)" fill="#cdd1c7"/>
    <path id="Path_60" data-name="Path 60" d="M78.06,1740.464s-5.446-33.268-47.785-35.421,52.615-1.126,52.615-1.126v36.547Z" transform="translate(688.236 1413.124)" fill="#cdd1c7"/>
    <path id="Path_19" data-name="Path 19" d="M24.231,1703.673s5.446,33.268,47.785,35.421S19.4,1740.22,19.4,1740.22v-36.547Z" transform="translate(868.395 390.565)" fill="#cdd1c7"/>
    <path id="Path_63" data-name="Path 63" d="M24.231,1740.464s5.446-33.268,47.785-35.421-52.615-1.126-52.615-1.126v36.547Z" transform="translate(870.868 1412.124)" fill="#cdd1c7"/>
    <path id="Path_20" data-name="Path 20" d="M78.06,1703.673s-5.446,33.268-47.785,35.421,52.615,1.126,52.615,1.126v-36.547Z" transform="translate(801.763 390.565)" fill="#cdd1c7"/>
    <path id="Path_62" data-name="Path 62" d="M78.06,1740.464s-5.446-33.268-47.785-35.421,52.615-1.126,52.615-1.126v36.547Z" transform="translate(804.236 1412.124)" fill="#cdd1c7"/>
  </g>
</svg>
