<svg xmlns="http://www.w3.org/2000/svg" width="1516.026" height="193.585" viewBox="0 0 1516.026 193.585">
  <g id="Group_191" data-name="Group 191" transform="translate(-130.395 -2167.524)">
    <path id="Path_294" data-name="Path 294" d="M175.062,1.42a2,2,0,0,1,3.828,0l4.266,14.073a2,2,0,0,0,.386.71l9.572,11.331a2,2,0,0,1-1.973,3.24l-13.72-3.131a2,2,0,0,0-.89,0L1.787,116.215c-1.872.427-2.335-.594-1.1-2.061L170.409,16.2a2,2,0,0,0,.386-.71Z" transform="matrix(0.883, 0.469, -0.469, 0.883, 185, 2167.524)" fill="#342d22"/>
    <path id="Path_295" data-name="Path 295" d="M175.062,114.893a2,2,0,0,0,3.828,0l4.266-14.073a2,2,0,0,1,.386-.71l9.572-11.331a2,2,0,0,0-1.973-3.24l-13.72,3.131a2,2,0,0,1-.89,0L1.787.1C-.085-.329-.548.692.692,2.159l169.718,97.95a2,2,0,0,1,.386.71Z" transform="matrix(-0.883, 0.469, -0.469, -0.883, 1646.42, 2270.222)" fill="#342d22"/>
  </g>
</svg>
