<svg xmlns="http://www.w3.org/2000/svg" xmlns:xlink="http://www.w3.org/1999/xlink" width="172" height="172" viewBox="0 0 172 172">
  <defs>
    <clipPath id="clip-path">
      <rect id="Rectangle_60" data-name="Rectangle 60" width="172" height="172" transform="translate(0 -0.397)" fill="#342d22"/>
    </clipPath>
  </defs>
  <g id="Mask_Group_10" data-name="Mask Group 10" transform="translate(0 0.397)" clip-path="url(#clip-path)">
    <g id="castle-2" transform="translate(0)">
      <g id="Group_44" data-name="Group 44">
        <g id="Group_43" data-name="Group 43">
          <path id="Path_128" data-name="Path 128" d="M169.445,70.754h-9.129a2.555,2.555,0,0,0-2.554,2.554v7.122h-4.154V73.308a2.555,2.555,0,0,0-2.554-2.554H140.971a2.555,2.555,0,0,0-2.554,2.554V80.43h-4.154V73.308a2.555,2.555,0,0,0-2.554-2.554h-9.129a2.555,2.555,0,0,0-2.554,2.554v27.528h-6.916V62.01h6.247a2.621,2.621,0,0,0,2.141-1.052,2.557,2.557,0,0,0-.272-3.319L88.554,25.353V20.119h21.075a2.631,2.631,0,0,0,2-.872,2.557,2.557,0,0,0,.187-3.12l-4.13-6.067,4.13-6.067a2.557,2.557,0,0,0-.187-3.12,2.631,2.631,0,0,0-2-.872H86a2.555,2.555,0,0,0-2.554,2.554v22.8L50.828,57.587a2.623,2.623,0,0,0-.783,2.254,2.557,2.557,0,0,0,2.527,2.168H58.89V76.653a2.554,2.554,0,1,0,5.109,0V62.01h44v41.367s0,.009,0,.013v7.895h-4.151v-7.895a2.555,2.555,0,0,0-2.554-2.554H90.629a2.555,2.555,0,0,0-2.554,2.554v7.895H83.923v-7.895a2.555,2.555,0,0,0-2.554-2.554H70.708a2.555,2.555,0,0,0-2.554,2.554v7.895H64v-7.895h0V88.574a2.554,2.554,0,0,0-5.109,0v12.261H51.974V73.308a2.555,2.555,0,0,0-2.554-2.554H40.291a2.555,2.555,0,0,0-2.554,2.554V80.43H33.583V73.308a2.555,2.555,0,0,0-2.554-2.554H20.946a2.555,2.555,0,0,0-2.554,2.554V80.43H14.237V73.308a2.555,2.555,0,0,0-2.554-2.554H2.554A2.555,2.555,0,0,0,0,73.308V92.661a2.555,2.555,0,0,0,2.554,2.554h6v74.23A2.555,2.555,0,0,0,11.105,172H160.894a2.555,2.555,0,0,0,2.554-2.554V121.951a2.554,2.554,0,0,0-5.109,0v44.939H125.135v-63.5c0-.007,0-.013,0-.02V95.216H158.34V110.03a2.554,2.554,0,1,0,5.109,0V95.216h6A2.555,2.555,0,0,0,172,92.661V73.308A2.554,2.554,0,0,0,169.445,70.754ZM88.554,5.109h16.318l-2.391,3.513a2.553,2.553,0,0,0,0,2.875l2.391,3.513H88.554v-9.9ZM46.865,166.891H13.66V95.216H46.865Zm0-76.784H5.109V75.863h4.02v7.122a2.555,2.555,0,0,0,2.554,2.554h9.262A2.555,2.555,0,0,0,23.5,82.985V75.863h4.974v7.122a2.555,2.555,0,0,0,2.554,2.554h9.263a2.555,2.555,0,0,0,2.554-2.554V75.863h4.02ZM61.445,56.9H58.79L86,30.011,113.21,56.9H61.445Zm22,109.835H71.185V144.258a14.836,14.836,0,0,1,12.261-14.59Zm17.369,0H88.554V129.669a14.836,14.836,0,0,1,12.26,14.59Zm19.211.154h-14.1V144.258a19.924,19.924,0,1,0-39.847,0V166.89h-14.1V105.945H58.89v7.895a2.555,2.555,0,0,0,2.554,2.554h9.264a2.555,2.555,0,0,0,2.554-2.554v-7.895h5.552v7.895a2.555,2.555,0,0,0,2.554,2.554H90.63a2.554,2.554,0,0,0,2.554-2.554v-7.895H98.74v7.895a2.554,2.554,0,0,0,2.554,2.554h9.26a2.554,2.554,0,0,0,2.554-2.554v-7.895h6.917V166.89Zm46.865-76.784H125.134V75.863h4.02v7.122a2.554,2.554,0,0,0,2.554,2.554h9.263a2.554,2.554,0,0,0,2.554-2.554V75.863H148.5v7.122a2.554,2.554,0,0,0,2.554,2.554h9.263a2.554,2.554,0,0,0,2.554-2.554V75.863h4.019V90.107Z" fill="#342d22"/>
        </g>
      </g>
      <g id="Group_46" data-name="Group 46" transform="translate(19.789 102.878)">
        <g id="Group_45" data-name="Group 45">
          <path id="Path_129" data-name="Path 129" d="M29.5,102.878a9.718,9.718,0,0,0-9.707,9.707v15.326a2.555,2.555,0,0,0,2.554,2.554h14.3a2.555,2.555,0,0,0,2.554-2.554V112.585A9.718,9.718,0,0,0,29.5,102.878Zm4.6,22.478H24.9V112.585a4.6,4.6,0,1,1,9.2,0v12.772Z" transform="translate(-19.789 -102.878)" fill="#342d22"/>
        </g>
      </g>
      <g id="Group_48" data-name="Group 48" transform="translate(131.158 102.878)">
        <g id="Group_47" data-name="Group 47">
          <path id="Path_130" data-name="Path 130" d="M150.571,112.585a9.707,9.707,0,1,0-19.413,0v15.326a2.554,2.554,0,0,0,2.554,2.554h14.3a2.554,2.554,0,0,0,2.554-2.554V112.585Zm-5.109,12.772h-9.2V112.585a4.6,4.6,0,1,1,9.2,0Z" transform="translate(-131.158 -102.878)" fill="#342d22"/>
        </g>
      </g>
      <g id="Group_50" data-name="Group 50" transform="translate(76.293 66.267)">
        <g id="Group_49" data-name="Group 49">
          <path id="Path_131" data-name="Path 131" d="M86,66.267a9.718,9.718,0,0,0-9.707,9.707V91.3h0a2.555,2.555,0,0,0,2.554,2.554h14.3A2.554,2.554,0,0,0,95.707,91.3V75.973A9.717,9.717,0,0,0,86,66.267Zm4.6,22.478H81.4V75.973h0a4.6,4.6,0,0,1,9.2,0Z" transform="translate(-76.293 -66.267)" fill="#342d22"/>
        </g>
      </g>
      <g id="Group_52" data-name="Group 52" transform="translate(17.235 139.661)">
        <g id="Group_51" data-name="Group 51">
          <path id="Path_132" data-name="Path 132" d="M26.942,139.661H19.79a2.554,2.554,0,0,0,0,5.109h7.152a2.554,2.554,0,0,0,0-5.109Z" transform="translate(-17.235 -139.661)" fill="#342d22"/>
        </g>
      </g>
      <g id="Group_54" data-name="Group 54" transform="translate(25.409 147.835)">
        <g id="Group_53" data-name="Group 53">
          <path id="Path_133" data-name="Path 133" d="M35.115,147.835H27.964a2.554,2.554,0,0,0,0,5.109h7.152a2.554,2.554,0,1,0,0-5.109Z" transform="translate(-25.409 -147.835)" fill="#342d22"/>
        </g>
      </g>
      <g id="Group_56" data-name="Group 56" transform="translate(129.626 139.661)">
        <g id="Group_55" data-name="Group 55">
          <path id="Path_134" data-name="Path 134" d="M139.332,139.661H132.18a2.554,2.554,0,1,0,0,5.109h7.152a2.554,2.554,0,0,0,0-5.109Z" transform="translate(-129.626 -139.661)" fill="#342d22"/>
        </g>
      </g>
      <g id="Group_58" data-name="Group 58" transform="translate(137.799 147.835)">
        <g id="Group_57" data-name="Group 57">
          <path id="Path_135" data-name="Path 135" d="M147.506,147.835h-7.152a2.554,2.554,0,1,0,0,5.109h7.152a2.554,2.554,0,0,0,0-5.109Z" transform="translate(-137.799 -147.835)" fill="#342d22"/>
        </g>
      </g>
      <g id="Group_60" data-name="Group 60" transform="translate(104.593 124.335)">
        <g id="Group_59" data-name="Group 59">
          <path id="Path_136" data-name="Path 136" d="M114.3,124.335h-7.152a2.554,2.554,0,1,0,0,5.109H114.3a2.554,2.554,0,1,0,0-5.109Z" transform="translate(-104.593 -124.335)" fill="#342d22"/>
        </g>
      </g>
      <g id="Group_62" data-name="Group 62" transform="translate(65.603 64.053)">
        <g id="Group_61" data-name="Group 61">
          <path id="Path_137" data-name="Path 137" d="M75.31,64.053H68.158a2.554,2.554,0,0,0,0,5.109H75.31a2.554,2.554,0,1,0,0-5.109Z" transform="translate(-65.603 -64.053)" fill="#342d22"/>
        </g>
      </g>
      <g id="Group_64" data-name="Group 64" transform="translate(54.528 130.465)">
        <g id="Group_63" data-name="Group 63">
          <path id="Path_138" data-name="Path 138" d="M64.235,130.465H57.083a2.554,2.554,0,1,0,0,5.109h7.152a2.554,2.554,0,1,0,0-5.109Z" transform="translate(-54.528 -130.465)" fill="#342d22"/>
        </g>
      </g>
    </g>
  </g>
</svg>
