<svg xmlns="http://www.w3.org/2000/svg" width="179" height="50" viewBox="0 0 179 50">
  <g id="Group_192" data-name="Group 192" transform="translate(-87 -420)">
    <rect id="Rectangle_1" data-name="Rectangle 1" width="179" height="50" transform="translate(87 420)" fill="#342d22"/>
    <g id="Rectangle_2" data-name="Rectangle 2" transform="translate(93 426)" fill="#8d8679" stroke="#fff" stroke-width="3">
      <rect width="168" height="39" stroke="none"/>
      <rect x="1.5" y="1.5" width="165" height="36" fill="none"/>
    </g>
    <line id="Line_2" data-name="Line 2" x2="175.201" transform="translate(88.959 468.418)" fill="none" stroke="#fff" stroke-width="1"/>
    <g id="Group_1" data-name="Group 1" transform="translate(88.959 421.959)">
      <line id="Line_1" data-name="Line 1" x1="3.918" y1="3.918" fill="none" stroke="#fff" stroke-width="2"/>
      <line id="Line_2-2" data-name="Line 2" x1="3.918" y2="3.918" transform="translate(0 42.541)" fill="none" stroke="#fff" stroke-width="2"/>
      <line id="Line_3" data-name="Line 3" y1="3.918" x2="3.918" transform="translate(171.283)" fill="none" stroke="#fff" stroke-width="2"/>
      <line id="Line_4" data-name="Line 4" x2="3.918" y2="3.918" transform="translate(171.283 42.541)" fill="none" stroke="#fff" stroke-width="2"/>
      <line id="Line_5" data-name="Line 5" x2="175.201" fill="none" stroke="#fff" stroke-width="2"/>
      <line id="Line_6" data-name="Line 6" y1="46.459" transform="translate(175.201)" fill="none" stroke="#fff" stroke-width="2"/>
      <line id="Line_8" data-name="Line 8" y2="46.459" fill="none" stroke="#fff" stroke-width="2"/>
    </g>
    <path id="Path_412" data-name="Path 412" d="M8.25-15.719l.6-.281-.6,2.922a2.182,2.182,0,0,0-.258-.867,1.484,1.484,0,0,0-1.414-.875H3.539v5.984H6.883a2.548,2.548,0,0,0,1.594-.531L8.086-6.234a1.744,1.744,0,0,0-.273-.852A1.855,1.855,0,0,0,6.094-7.93H3.539v5.938a3.351,3.351,0,0,0,.734.672,3.544,3.544,0,0,0,2.07.672A2.822,2.822,0,0,0,8.43-1.7a4.61,4.61,0,0,0,.742-1.055L8.852,0H.32A2.646,2.646,0,0,0,1-.367a1.493,1.493,0,0,0,.688-1.211q0-1.109-.023-13.055A2.428,2.428,0,0,0,.039-15.719Zm9.391,7.281,3.281-6.172a1.678,1.678,0,0,1,.7-1.125A1.554,1.554,0,0,1,22.164-16H17.531a2.378,2.378,0,0,1,.656.352,1.51,1.51,0,0,1,.719,1.125L16.68-10.18l-.008.016-.008-.016-2.406-4.344a1.51,1.51,0,0,1,.719-1.125A2.378,2.378,0,0,1,15.633-16H11a1.643,1.643,0,0,1,.547.266,1.678,1.678,0,0,1,.7,1.125L15.6-8.3,11.313-1.391a1.678,1.678,0,0,1-.7,1.125A1.643,1.643,0,0,1,10.07,0H14.7a2.378,2.378,0,0,1-.656-.352,1.514,1.514,0,0,1-.719-1.133l2.219-3.344,1.031-1.781,1.031,1.781,2.227,3.344a1.67,1.67,0,0,1-1,1.484h4.258a1.554,1.554,0,0,1-.547-.266,1.678,1.678,0,0,1-.7-1.125Zm9.852.492q.062-5.023.063-6.266,0-.852.352-1a6.238,6.238,0,0,1,1.273-.062,2.77,2.77,0,0,1,2.047.961,4.536,4.536,0,0,1,1.117,3.25,3.123,3.123,0,0,1-1.086,2.7,2,2,0,0,1-1.094.422Zm4.3.531a7.27,7.27,0,0,0,2.2-3.2,3.669,3.669,0,0,0,.227-1.43q0-3.094-3.367-3.781a9.226,9.226,0,0,0-3.359-.07h-3.2a2.415,2.415,0,0,1,.648.352,1.514,1.514,0,0,1,.7,1.117V-1.469a1.518,1.518,0,0,1-.7,1.125A2.531,2.531,0,0,1,24.289,0h4.555A2.531,2.531,0,0,1,28.2-.344a1.518,1.518,0,0,1-.7-1.125V-6.828a16.435,16.435,0,0,0,3.594-.289A1.442,1.442,0,0,0,31.789-7.414Zm5.57-7.477a.182.182,0,0,0,.031-.047L37.336-1.6Q37.336-2.734,37.359-14.891ZM40.25-.664a3.6,3.6,0,0,1-2.109-.68,3.265,3.265,0,0,1-.75-.687V-14.937A2.7,2.7,0,0,1,39.016-16H33.828a2.446,2.446,0,0,1,1.648,1.109Q35.5-2.734,35.5-1.6a1.514,1.514,0,0,1-.7,1.227,2.46,2.46,0,0,1-.7.375H42.8l.328-2.8a4.777,4.777,0,0,1-.758,1.07A2.867,2.867,0,0,1,40.25-.664Zm11.8-14.219a6.08,6.08,0,0,1,2.953,1.93A7.97,7.97,0,0,1,56.633-7.68,7.339,7.339,0,0,1,55.008-2.57,5.378,5.378,0,0,1,52.055-.922ZM44.633-8a7.56,7.56,0,0,1,1.594-5.086,5.929,5.929,0,0,1,2.93-1.828V-1.047A5.93,5.93,0,0,1,46.227-2.9,7.623,7.623,0,0,1,44.633-8Zm6.313-7.125q.312.039.633.109V-.836q-.336.039-.633.047Zm-.789,14.3q-.25-.039-.523-.094V-15.031q.258-.055.523-.086Zm.734-15.164a8.352,8.352,0,0,0-4.125.852Q42.633-13.2,42.633-7.734A7.016,7.016,0,0,0,45.578-1.7,8.839,8.839,0,0,0,50.891,0a7.707,7.707,0,0,0,5.055-1.945,7.159,7.159,0,0,0,2.68-5.734,8.071,8.071,0,0,0-2.6-6.055A7.322,7.322,0,0,0,50.891-15.992ZM61.531-7.945q.063-5.023.063-6.266,0-.852.352-1a6.238,6.238,0,0,1,1.273-.062,2.77,2.77,0,0,1,2.047.961,4.536,4.536,0,0,1,1.117,3.25,3.123,3.123,0,0,1-1.086,2.7,2,2,0,0,1-1.094.422Zm6.141,2.8a13.412,13.412,0,0,0-1.844-2.273,7.27,7.27,0,0,0,2.2-3.2,3.669,3.669,0,0,0,.227-1.43q0-3.094-3.367-3.781a9.226,9.226,0,0,0-3.359-.07h-3.2a2.415,2.415,0,0,1,.648.352,1.514,1.514,0,0,1,.7,1.117V-1.469a1.518,1.518,0,0,1-.7,1.125A2.53,2.53,0,0,1,58.328,0h4.555a2.53,2.53,0,0,1-.648-.344,1.518,1.518,0,0,1-.7-1.125V-6.828a5.545,5.545,0,0,1,3.492,1.109,3.671,3.671,0,0,1,1.023,1.1A18.125,18.125,0,0,0,67.7-2.3Q69.617,0,70.961,0a4.585,4.585,0,0,0,2.016-.344.842.842,0,0,0,.414-.336q-1.516.313-3.344-1.469A19.991,19.991,0,0,1,67.672-5.141ZM81.68-15.719l.6-.281-.6,2.922a2.183,2.183,0,0,0-.258-.867,1.484,1.484,0,0,0-1.414-.875H76.969v5.984h3.344a2.548,2.548,0,0,0,1.594-.531l-.391,3.133a1.744,1.744,0,0,0-.273-.852,1.855,1.855,0,0,0-1.719-.844H76.969v5.938a3.351,3.351,0,0,0,.734.672,3.544,3.544,0,0,0,2.07.672A2.822,2.822,0,0,0,81.859-1.7,4.61,4.61,0,0,0,82.6-2.758L82.281,0H73.75a2.646,2.646,0,0,0,.68-.367,1.493,1.493,0,0,0,.688-1.211q0-1.109-.023-13.055a2.428,2.428,0,0,0-1.625-1.086Z" transform="translate(133 453)" fill="#fff"/>
    <line id="Line_3-2" data-name="Line 3" x2="24.629" transform="translate(227.777 445.469)" fill="none" stroke="#fff" stroke-linecap="round" stroke-width="2"/>
    <line id="Line_4-2" data-name="Line 4" x2="24.629" transform="translate(100.714 445.748)" fill="none" stroke="#fff" stroke-linecap="round" stroke-width="2"/>
  </g>
</svg>
