<svg xmlns="http://www.w3.org/2000/svg" width="182.338" height="182.355" viewBox="0 0 182.338 182.355">
  <g id="Trumpet" transform="translate(-3 -3)">
    <path id="Path_315" data-name="Path 315" d="M77.918,27.254l-20.768,8.9-20.768-8.9A3.144,3.144,0,0,0,32,30.144V77.3a3.144,3.144,0,0,0,1.572,2.729L55.578,92.6a3.144,3.144,0,0,0,3.119,0L80.7,80.029A3.144,3.144,0,0,0,82.3,77.3V30.144a3.144,3.144,0,0,0-4.382-2.889ZM76.013,75.476,57.15,86.256,38.288,75.476V34.922l17.624,7.545a3.144,3.144,0,0,0,2.477,0l17.624-7.554Z" transform="translate(62.169 51.45)" fill="#dfcc74"/>
    <path id="Path_316" data-name="Path 316" d="M182.194,37.581H166.475a3.144,3.144,0,0,0-3.144-3.144H141.325a3.144,3.144,0,0,0-3.144,3.144H100.456a3.144,3.144,0,0,0-3.144-3.144H75.306a3.109,3.109,0,0,0-3.071,2.789A82.926,82.926,0,0,1,21.863,14.2V12.431A9.431,9.431,0,1,0,3,12.431v75.45a9.431,9.431,0,0,0,18.863,0V86.115a82.973,82.973,0,0,1,50.3-23.022v119.1a3.144,3.144,0,0,0,4.549,2.829L119.319,163.7l42.607,21.321a3.144,3.144,0,0,0,4.549-2.829V62.731h15.719a3.144,3.144,0,0,0,3.144-3.144V40.725A3.144,3.144,0,0,0,182.194,37.581Zm-44.013,6.288V56.444H100.456V43.869ZM15.575,87.881a3.144,3.144,0,1,1-6.288,0V12.431a3.144,3.144,0,0,1,6.288,0Zm6.288-10.2V22.626a88.5,88.5,0,0,0,50.3,20.9V56.79a88.563,88.563,0,0,0-50.3,20.893Zm138.325,99.424-39.464-19.733a3.144,3.144,0,0,0-2.811,0L78.45,177.108V40.725H94.169V59.588a3.144,3.144,0,0,0,3.144,3.144h44.013a3.144,3.144,0,0,0,3.144-3.144V40.725h15.719ZM179.05,56.444H166.475V43.869H179.05Z" transform="translate(0 0)" fill="#dfcc74"/>
  </g>
</svg>
