<svg xmlns="http://www.w3.org/2000/svg" width="201.838" height="193" viewBox="0 0 201.838 193">
  <g id="old-map" transform="translate(-6.5 -13.659)">
    <path id="Path_297" data-name="Path 297" d="M89.545,210.864a7.754,7.754,0,0,0-7.745,7.745v2.577a7.754,7.754,0,0,0,5.584,7.432v4.623a2.16,2.16,0,1,0,4.321,0v-4.623a7.755,7.755,0,0,0,5.584-7.432v-2.577a7.754,7.754,0,0,0-7.745-7.745Zm3.424,10.322a3.424,3.424,0,0,1-6.848,0v-2.577a3.424,3.424,0,0,1,6.848,0Z" transform="translate(-28.822 -75.481)" fill="#dfcc74"/>
    <path id="Path_298" data-name="Path 298" d="M128.377,197.641a7.754,7.754,0,0,0-7.745,7.745v2.578a7.754,7.754,0,0,0,5.585,7.432v4.623a2.16,2.16,0,0,0,4.321,0v-4.626a7.755,7.755,0,0,0,5.584-7.432v-2.578A7.754,7.754,0,0,0,128.377,197.641Zm3.424,10.322a3.424,3.424,0,0,1-6.848,0v-2.578a3.426,3.426,0,0,1,6.851,0Z" transform="translate(-43.685 -70.42)" fill="#dfcc74"/>
    <path id="Path_299" data-name="Path 299" d="M159.465,213.845a7.754,7.754,0,0,0,5.584,7.432V226.2a2.16,2.16,0,1,0,4.321,0v-4.921a7.755,7.755,0,0,0,5.584-7.432v-2.578c-.364-10.25-15.127-10.246-15.489,0Zm4.321-2.578a3.424,3.424,0,0,1,6.848,0v2.578a3.424,3.424,0,0,1-6.848,0Z" transform="translate(-58.548 -72.694)" fill="#dfcc74"/>
    <path id="Path_300" data-name="Path 300" d="M140.517,136.184v4.623a2.16,2.16,0,1,0,4.321,0v-4.623a7.754,7.754,0,0,0,5.584-7.432v-2.578a7.744,7.744,0,1,0-15.489,0v2.578A7.754,7.754,0,0,0,140.517,136.184Zm-1.263-10.009a3.424,3.424,0,0,1,6.847,0v2.578a3.424,3.424,0,1,1-6.847,0Z" transform="translate(-49.159 -40.102)" fill="#dfcc74"/>
    <path id="Path_301" data-name="Path 301" d="M80.735,186.1a2.16,2.16,0,0,0,3.035-.349l9.444-11.9,9.444,11.9a2.16,2.16,0,1,0,3.384-2.686L94.906,169.029a2.16,2.16,0,0,0-3.384,0L80.387,183.063a2.16,2.16,0,0,0,.349,3.035Z" transform="translate(-28.101 -59.156)" fill="#dfcc74"/>
    <path id="Path_302" data-name="Path 302" d="M83.387,146.922a2.16,2.16,0,0,0,3.035-.349l6.746-8.5,11.151,14.051-2.552,3.216a2.16,2.16,0,0,0,3.384,2.686l6.348-8,9.444,11.9a2.16,2.16,0,0,0,3.384-2.686l-11.138-14.034a2.16,2.16,0,0,0-3.384,0l-2.729,3.439L94.859,133.253a2.174,2.174,0,0,0-3.384,0l-8.438,10.634A2.16,2.16,0,0,0,83.387,146.922Z" transform="translate(-29.116 -45.466)" fill="#dfcc74"/>
    <path id="Path_303" data-name="Path 303" d="M251.777,138.6a6.909,6.909,0,0,0-9.5-.325,2.495,2.495,0,0,1-3.68,0,6.825,6.825,0,0,0-9.077,0,2.175,2.175,0,1,0,2.354,3.645c.748-.578,1.241-1.115,2.184-1.073a2.479,2.479,0,0,1,1.839.8,6.824,6.824,0,0,0,9.08,0c1.494-1.4,2.881-.809,4.229.425a2.16,2.16,0,0,0,2.568-3.474Z" transform="translate(-84.935 -47.032)" fill="#dfcc74"/>
    <path id="Path_304" data-name="Path 304" d="M210.584,127.455c1.234-1.2,2.692-1.547,4.021-.27a6.824,6.824,0,0,0,9.08,0c1.494-1.4,2.881-.809,4.229.425a2.16,2.16,0,0,0,2.568-3.474,6.909,6.909,0,0,0-9.5-.325,2.511,2.511,0,0,1-3.68,0,6.616,6.616,0,0,0-4.539-1.75,6.871,6.871,0,0,0-4.826,1.975,2.161,2.161,0,0,0,2.644,3.42Z" transform="translate(-76.779 -41.491)" fill="#dfcc74"/>
    <path id="Path_305" data-name="Path 305" d="M229.7,174.769a6.875,6.875,0,0,0-4.826,1.975,2.16,2.16,0,0,0,2.643,3.418c.748-.578,1.241-1.115,2.183-1.073a2.483,2.483,0,0,1,1.839.8,6.764,6.764,0,0,0,9.079,0,2.484,2.484,0,0,1,1.841-.8c1.015-.057,1.584.642,2.388,1.227a2.157,2.157,0,0,0,3.021-.452,2.284,2.284,0,0,0-.864-3.345,6.767,6.767,0,0,0-9.082,0,2.512,2.512,0,0,1-3.681,0,6.614,6.614,0,0,0-4.541-1.749Z" transform="translate(-83.26 -61.665)" fill="#dfcc74"/>
    <path id="Path_306" data-name="Path 306" d="M219.337,165.439c1.5-1.4,2.881-.81,4.23.424a2.16,2.16,0,0,0,2.568-3.474c-1.275-.967-2.264-2.026-4.955-2.073a6.622,6.622,0,0,0-4.54,1.749,2.512,2.512,0,0,1-3.681,0,6.763,6.763,0,0,0-9.077,0,2.222,2.222,0,0,0-.673,3.257,2.16,2.16,0,0,0,3.03.388c.747-.578,1.24-1.114,2.183-1.073a2.481,2.481,0,0,1,1.839.8,6.824,6.824,0,0,0,9.078,0Z" transform="translate(-75.122 -56.133)" fill="#dfcc74"/>
    <path id="Path_307" data-name="Path 307" d="M239.645,229.232a6.91,6.91,0,0,0-9.5-.325,2.511,2.511,0,0,1-3.68,0,6.613,6.613,0,0,0-4.539-1.75,6.866,6.866,0,0,0-4.826,1.975,2.16,2.16,0,0,0,2.644,3.416c.747-.579,1.24-1.111,2.182-1.073a2.479,2.479,0,0,1,1.839.8,6.823,6.823,0,0,0,9.08,0,2.485,2.485,0,0,1,1.841-.8c1.016-.057,1.584.642,2.387,1.227a2.159,2.159,0,0,0,2.569-3.471Z" transform="translate(-80.287 -81.718)" fill="#dfcc74"/>
    <path id="Path_308" data-name="Path 308" d="M251.777,214.786a6.908,6.908,0,0,0-9.5-.324,2.5,2.5,0,0,1-3.68,0,6.825,6.825,0,0,0-9.077,0,2.175,2.175,0,1,0,2.354,3.646c1.234-1.2,2.693-1.549,4.023-.271a6.823,6.823,0,0,0,9.08,0,2.5,2.5,0,0,1,3.682,0C250.923,220.24,254.294,216.954,251.777,214.786Z" transform="translate(-84.935 -76.193)" fill="#dfcc74"/>
    <path id="Path_309" data-name="Path 309" d="M196.241,42.647V36.276a2.18,2.18,0,0,1,.679-1.641,11.975,11.975,0,0,0,4.023-9.758c-1.65-15.4-23.474-14.752-24.061.768a12.052,12.052,0,0,0,3.947,8.9,2.206,2.206,0,0,1,.779,1.624v6.476c-6.785,2.222-11.666,7.44-12.07,13.6H45.3c-.406-6.156-5.285-11.372-12.07-13.6V36.171a2.208,2.208,0,0,1,.779-1.623,12.049,12.049,0,0,0,3.947-8.9C37.371,10.126,15.546,9.478,13.9,24.878a11.975,11.975,0,0,0,4.023,9.757,2.177,2.177,0,0,1,.679,1.641v6.372C11.51,44.97,6.5,50.561,6.5,57.077V169.933c0,6.389,4.8,12.054,12.064,14.424a2.091,2.091,0,0,1-.645,1.27,11.975,11.975,0,0,0-4.023,9.758,12.16,12.16,0,0,0,12.028,11.274c11.12-.051,16.2-13.771,7.9-21.145H181.014c-8.307,7.322-3.188,21.138,7.9,21.145a12.16,12.16,0,0,0,12.028-11.274,11.975,11.975,0,0,0-4.023-9.758,2.094,2.094,0,0,1-.646-1.271c7.262-2.371,12.065-8.043,12.065-14.423V57.077c0-6.516-5.01-12.107-12.1-14.429ZM183.6,20.056c4.582-4.53,12.691-1.319,13.034,5.091a7.68,7.68,0,0,1-2.579,6.258,6.493,6.493,0,0,0-2.133,4.87v5.406a24.25,24.25,0,0,0-5.987,0V36.171a6.559,6.559,0,0,0-2.2-4.823,7.75,7.75,0,0,1-.141-11.292ZM45.33,60.564H169.509v7.751H55.139a2.16,2.16,0,0,0,0,4.321h68.637c-.178,3.161-1.178,5.843-4.359,7.053-4.41,1.647-10.2,5.069-12.756,12.018-.967,2.634-1.619,7.71,4.885,12.122a5.832,5.832,0,0,1,2.391,3.783l1.481,8.1c1.07,7.258,8.8,10.067,19.209,9.685a6.1,6.1,0,0,1-1.685,4.876c-12.136,12.171-9.269,28.64,7.15,38.848H45.33ZM25.535,17.932a7.735,7.735,0,0,1,5.571,13.415,6.561,6.561,0,0,0-2.2,4.824v5.511a24.251,24.251,0,0,0-5.987,0V36.276A6.491,6.491,0,0,0,20.79,31.4c-5.167-4.494-2.056-13.158,4.745-13.473ZM10.821,57.077c0-6.209,6.771-11.26,15.094-11.26s15.094,5.051,15.094,11.26V160.15c-7.291-7.649-22.9-7.646-30.188,0Zm20.422,143.13c-4.592,4.524-12.687,1.322-13.034-5.092a7.677,7.677,0,0,1,2.579-6.257,6.5,6.5,0,0,0,2.132-4.872v-8.9a3,3,0,1,1,5.987.177v8.827a6.562,6.562,0,0,0,2.2,4.823,7.749,7.749,0,0,1,.139,11.292Zm1.988-20.431a35.424,35.424,0,0,0-.408-5.629c-.87-5.384-7.245-8.086-11.53-4.711a7.037,7.037,0,0,0-2.693,5.656v4.682c-4.735-1.968-7.777-5.717-7.777-9.837.6-14.505,28.341-14.98,30.145-.812a10.5,10.5,0,0,1-.723,4.321,12.894,12.894,0,0,1-7.013,6.329Zm6.1,1.42a15.184,15.184,0,0,0,5.493-7.752H162.074a2.16,2.16,0,1,0,0-4.321H148.626c-15.51-7.577-26.308-21.295-12.631-35.79a10,10,0,0,0,2.954-7.135V123.19a2.16,2.16,0,0,0-2.238-2.16c-7.175.329-16.172-.192-17-5.767a2.058,2.058,0,0,0-.031-.247l-1.5-8.18a10.17,10.17,0,0,0-4.215-6.581c-4.2-2.846-3.866-5.39-3.255-7.056,1.987-5.41,6.65-8.131,10.212-9.461a10.685,10.685,0,0,0,6.906-8.714l.294-2.387h41.38v97.3a14.283,14.283,0,0,0,5.98,11.26Zm157.3,13.919c-.988,9.843-15.122,9.425-15.427-.5a7.722,7.722,0,0,1,2.531-5.7,6.562,6.562,0,0,0,2.2-4.823v-8.827a3,3,0,1,1,5.987-.177v8.9a6.5,6.5,0,0,0,2.133,4.872,7.678,7.678,0,0,1,2.581,6.258Zm-.391-15.343v-4.683a7.317,7.317,0,1,0-14.629.177v4.506c-14.065-6.127-7.383-21.215,7.316-21.1,14.7-.116,21.375,14.958,7.314,21.1Zm7.777-19.622c-7.291-7.649-22.9-7.646-30.188,0V57.077c0-6.209,6.771-11.26,15.094-11.26s15.1,5.051,15.1,11.26Z" transform="translate(0 0)" fill="#dfcc74"/>
  </g>
</svg>
