<svg xmlns="http://www.w3.org/2000/svg" width="165.727" height="178" viewBox="0 0 165.727 178">
  <g id="Potion" transform="translate(-5 -3)">
    <path id="Path_310" data-name="Path 310" d="M97.931,69.259V42.9H101a3.069,3.069,0,0,0,3.069-3.069V21.414A3.069,3.069,0,0,0,101,18.345H96.016l4.735-11.067A3.069,3.069,0,0,0,97.931,3h-49.1a3.069,3.069,0,0,0-2.82,4.278l4.735,11.067H45.759a3.069,3.069,0,0,0-3.069,3.069V39.828A3.069,3.069,0,0,0,45.759,42.9h3.069V69.259A57.951,57.951,0,0,0,12,122.69C12,154.843,39.535,181,73.379,181s61.379-26.157,61.379-58.31A57.951,57.951,0,0,0,97.931,69.259ZM93.278,9.138l-3.941,9.207H57.421L53.48,9.138ZM48.828,24.483h49.1V36.759h-49.1ZM73.379,174.862c-30.459,0-55.241-23.4-55.241-52.172A52.028,52.028,0,0,1,52.977,74.218a3.069,3.069,0,0,0,1.989-2.873V42.9H91.793V71.346a3.069,3.069,0,0,0,1.989,2.873,52.028,52.028,0,0,1,34.839,48.471C128.621,151.458,103.839,174.862,73.379,174.862Z" transform="translate(14.483 0)" fill="#dfcc74"/>
    <path id="Path_311" data-name="Path 311" d="M97.506,33.1c-12-1.921-14.277,17.9-32.654,27.958C42.774,73.132,22.037,58.469,17.5,68.636c-2.148,4.8,1.952,11.558,4.585,15.161,8.737,11.969,25.015,23.165,42.926,23.165,25.055,0,47.351-23.1,47.351-46.28C112.357,50.124,107.186,34.666,97.506,33.1ZM69.054,100.6c-17.217,1.958-33.841-9.225-42.014-20.421-3.631-4.972-4.232-8.2-3.953-8.992a25.92,25.92,0,0,1,8.461.239c8.961,1.007,22.508,2.541,36.254-4.981A60.692,60.692,0,0,0,87.953,46.991c3.809-5.276,6.1-8.237,8.593-7.832,4.867.792,9.673,11.453,9.673,21.523,0,18.7-17.708,37.727-37.165,39.915Z" transform="translate(24.608 62.008)" fill="#dfcc74"/>
    <path id="Path_312" data-name="Path 312" d="M35.02,63.725A21.434,21.434,0,0,0,54.842,52.281c3.855-8.262,1.611-19.163-4.6-22.428-6.12-3.21-15.112,1.163-21.5,6.319-6.193,5-12.2,12.534-10.493,18.7,1.565,5.7,9.253,8.854,16.778,8.854ZM32.565,40.948a24.362,24.362,0,0,1,12.89-6.061,4.112,4.112,0,0,1,1.915.4c2.962,1.556,4.444,8.958,1.906,14.4a14.651,14.651,0,0,1-10.327,7.5c-6.429,1.372-14.028-1.145-14.8-3.956-.608-2.2,2.378-7.4,8.434-12.285Z" transform="translate(26.786 53.293)" fill="#dfcc74"/>
    <path id="Path_313" data-name="Path 313" d="M86.262,23.64,74.907,17.962,69.229,6.607a3.2,3.2,0,0,0-5.493,0L58.058,17.962,46.7,23.64a3.069,3.069,0,0,0,0,5.493l11.355,5.678,5.678,11.355a3.069,3.069,0,0,0,5.493,0l5.678-11.355,11.355-5.678a3.069,3.069,0,0,0,0-5.493Zm-15.02,6.138a3.069,3.069,0,0,0-1.375,1.375l-3.391,6.785L63.1,31.152a3.069,3.069,0,0,0-1.375-1.375l-6.8-3.391L61.71,23.01a3.069,3.069,0,0,0,1.375-1.375l3.391-6.8,3.376,6.785A3.069,3.069,0,0,0,71.227,23l6.8,3.391Z" transform="translate(82.765 4.234)" fill="#dfcc74"/>
    <path id="Path_314" data-name="Path 314" d="M32.4,59.172l5.65-14.117L52.17,39.4a3.069,3.069,0,0,0,0-5.7l-14.117-5.65L32.4,13.935a3.069,3.069,0,0,0-5.7,0l-5.65,14.117L6.933,33.7a3.069,3.069,0,0,0,0,5.7l14.117,5.65L26.7,59.172a3.069,3.069,0,0,0,5.7,0Zm-7.85-19.334-8.222-3.29,8.222-3.287a3.069,3.069,0,0,0,1.712-1.709l3.287-8.225,3.287,8.225a3.069,3.069,0,0,0,1.712,1.709l8.222,3.287-8.222,3.287a3.069,3.069,0,0,0-1.712,1.709l-3.287,8.225-3.287-8.225a3.069,3.069,0,0,0-1.712-1.709Z" transform="translate(0 18.625)" fill="#dfcc74"/>
  </g>
</svg>
