<svg xmlns="http://www.w3.org/2000/svg" width="1514.492" height="140.73" viewBox="0 0 1514.492 140.73">
  <g id="Group_184" data-name="Group 184" transform="translate(-63 -214.13)">
    <path id="Path_139" data-name="Path 139" d="M128.443,1.024a1.475,1.475,0,0,1,2.809,0l3.13,10.147a1.435,1.435,0,0,0,.283.512l7.023,8.17a1.445,1.445,0,0,1-1.447,2.336l-10.067-2.257a1.493,1.493,0,0,0-.653,0L1.311,83.792c-1.374.308-1.713-.428-.8-1.486L125.029,11.683a1.434,1.434,0,0,0,.283-.512Z" transform="matrix(0.883, 0.469, -0.469, 0.883, 102.371, 214.13)" fill="#342d22"/>
    <path id="Path_140" data-name="Path 140" d="M128.443,82.839a1.475,1.475,0,0,0,2.809,0l3.13-10.147a1.435,1.435,0,0,1,.283-.512l7.023-8.17a1.445,1.445,0,0,0-1.447-2.336l-10.067,2.257a1.493,1.493,0,0,1-.653,0L1.311.071C-.062-.237-.4.5.507,1.557L125.029,72.18a1.435,1.435,0,0,1,.283.512Z" transform="matrix(-0.883, 0.469, -0.469, -0.883, 1577.492, 288.176)" fill="#342d22"/>
  </g>
</svg>
