<svg xmlns="http://www.w3.org/2000/svg" width="204.756" height="205.146" viewBox="0 0 204.756 205.146">
  <g id="manuscript-2" transform="translate(-0.487)">
    <g id="Group_86" data-name="Group 86" transform="translate(0.487)">
      <g id="Group_85" data-name="Group 85" transform="translate(0)">
        <path id="Path_321" data-name="Path 321" d="M161.181,8.165A22.337,22.337,0,0,0,143.886,0h-121A22.4,22.4,0,1,0,32.1,42.814a3.047,3.047,0,1,0-2.511-5.553,16.307,16.307,0,1,1,9.6-14.865v74.6a3.047,3.047,0,1,0,6.093,0V22.4a22.334,22.334,0,0,0-7.064-16.3H143.886a16.262,16.262,0,0,1,12.591,5.945,3.047,3.047,0,0,0,4.7-3.874Z" transform="translate(-0.487)" fill="#dfcc74"/>
      </g>
    </g>
    <g id="Group_88" data-name="Group 88" transform="translate(55.285 170.47)">
      <g id="Group_87" data-name="Group 87">
        <path id="Path_322" data-name="Path 322" d="M149.53,443.92a6.186,6.186,0,1,1,0-12.372,3.047,3.047,0,0,0,0-6.094,12.279,12.279,0,1,0,0,24.559,3.047,3.047,0,0,0,0-6.093Z" transform="translate(-137.25 -425.455)" fill="#dfcc74"/>
      </g>
    </g>
    <g id="Group_90" data-name="Group 90" transform="translate(14.663 10.118)">
      <g id="Group_89" data-name="Group 89">
        <path id="Path_323" data-name="Path 323" d="M48.147,43.717a6.186,6.186,0,1,1,0-12.372,3.047,3.047,0,0,0,0-6.093,12.279,12.279,0,1,0,0,24.559,3.047,3.047,0,0,0,0-6.093Z" transform="translate(-35.867 -25.252)" fill="#dfcc74"/>
      </g>
    </g>
    <g id="Group_92" data-name="Group 92" transform="translate(160.19 101.464)">
      <g id="Group_91" data-name="Group 91">
        <path id="Path_324" data-name="Path 324" d="M402.118,253.232a3.046,3.046,0,0,0-3.047,3.047v48.232a3.047,3.047,0,1,0,6.094,0V256.279A3.047,3.047,0,0,0,402.118,253.232Z" transform="translate(-399.071 -253.232)" fill="#dfcc74"/>
      </g>
    </g>
    <g id="Group_94" data-name="Group 94" transform="translate(39.188 106.136)">
      <g id="Group_93" data-name="Group 93">
        <path id="Path_325" data-name="Path 325" d="M240.476,319.108h-121a22.332,22.332,0,0,0-16.3,7.065V267.94a3.047,3.047,0,0,0-6.093,0v73.566a22.423,22.423,0,0,0,22.4,22.4h121a22.4,22.4,0,1,0,0-44.794Zm-121,38.7a16.293,16.293,0,0,1-16.283-15.466q-.022-.416-.021-.838a16.3,16.3,0,1,1,16.3,16.3Zm121,0H134.807a22.346,22.346,0,0,0,0-32.607H240.476a16.3,16.3,0,1,1,0,32.607Z" transform="translate(-97.077 -264.893)" fill="#dfcc74"/>
      </g>
    </g>
    <g id="Group_96" data-name="Group 96" transform="translate(77.633 12.68)">
      <g id="Group_95" data-name="Group 95">
        <path id="Path_326" data-name="Path 326" d="M320.171,49.746a21.453,21.453,0,0,0-17.634-17.633c-11.892-1.982-24.6,2.355-37.774,12.893C232,71.219,224.074,98.029,218.29,117.6c-2.831,9.581-5.067,17.148-9.392,21.473l-14.98,14.98a3.047,3.047,0,0,0,4.309,4.308l14.98-14.98c4.326-4.325,11.893-6.561,21.472-9.391,19.576-5.784,46.386-13.706,72.6-46.474a3.047,3.047,0,0,0-4.758-3.807c-25.018,31.273-50.766,38.882-69.567,44.437-2.261.668-4.413,1.307-6.461,1.951l71.873-71.873a3.047,3.047,0,0,0-4.309-4.308l-71.873,71.873c.644-2.049,1.283-4.2,1.951-6.461,5.556-18.8,13.164-44.55,44.437-69.568,11.76-9.409,22.852-13.326,32.966-11.64a15.358,15.358,0,0,1,12.624,12.624c1.168,7.011-.363,14.541-4.552,22.381A3.047,3.047,0,0,0,314.984,76C319.819,66.947,321.565,58.115,320.171,49.746Z" transform="translate(-193.025 -31.646)" fill="#dfcc74"/>
      </g>
    </g>
    <g id="Group_98" data-name="Group 98" transform="translate(63.501 32.301)">
      <g id="Group_97" data-name="Group 97">
        <path id="Path_327" data-name="Path 327" d="M221.939,80.616H160.8a3.047,3.047,0,1,0,0,6.093h61.135a3.047,3.047,0,0,0,0-6.093Z" transform="translate(-157.757 -80.616)" fill="#dfcc74"/>
      </g>
    </g>
    <g id="Group_100" data-name="Group 100" transform="translate(63.501 51.799)">
      <g id="Group_99" data-name="Group 99">
        <path id="Path_328" data-name="Path 328" d="M207.112,129.279H160.8a3.047,3.047,0,1,0,0,6.093h46.308a3.047,3.047,0,0,0,0-6.093Z" transform="translate(-157.757 -129.279)" fill="#dfcc74"/>
      </g>
    </g>
    <g id="Group_102" data-name="Group 102" transform="translate(63.501 71.645)">
      <g id="Group_101" data-name="Group 101">
        <path id="Path_329" data-name="Path 329" d="M196.753,178.811H160.8a3.047,3.047,0,1,0,0,6.093h35.949a3.047,3.047,0,1,0,0-6.093Z" transform="translate(-157.757 -178.811)" fill="#dfcc74"/>
      </g>
    </g>
    <g id="Group_104" data-name="Group 104" transform="translate(63.501 91.491)">
      <g id="Group_103" data-name="Group 103">
        <path id="Path_330" data-name="Path 330" d="M191.27,228.341H160.8a3.047,3.047,0,1,0,0,6.093H191.27a3.047,3.047,0,1,0,0-6.093Z" transform="translate(-157.757 -228.341)" fill="#dfcc74"/>
      </g>
    </g>
    <g id="Group_106" data-name="Group 106" transform="translate(63.502 110.989)">
      <g id="Group_105" data-name="Group 105">
        <path id="Path_331" data-name="Path 331" d="M180.3,277H160.8a3.047,3.047,0,0,0,0,6.093h19.5a3.047,3.047,0,1,0,0-6.093Z" transform="translate(-157.758 -277.004)" fill="#dfcc74"/>
      </g>
    </g>
  </g>
</svg>
