<svg xmlns="http://www.w3.org/2000/svg" xmlns:xlink="http://www.w3.org/1999/xlink" width="172" height="172" viewBox="0 0 172 172">
  <defs>
    <clipPath id="clip-path">
      <rect id="Rectangle_59" data-name="Rectangle 59" width="172" height="172" fill="#342d22"/>
    </clipPath>
  </defs>
  <g id="Mask_Group_9" data-name="Mask Group 9" clip-path="url(#clip-path)">
    <g id="knight" transform="translate(0 1.467)">
      <path id="Path_121" data-name="Path 121" d="M2.661,129.3a22.137,22.137,0,0,0,2.651.51c-.748,5.006,3.187,9.777,8.359,9.3a24.168,24.168,0,0,0,5.75-1.181c.968,11.727,7.024,24.237,20.133,25.391a1.8,1.8,0,1,0,.411-3.572c-11.8-1.021-16.415-12.987-17.062-23.411,4.39-2.592,8.194-7.447,8.531-16.476a34.869,34.869,0,0,0,6.285-4.756c-.708,10.432-.584,29.943,8.92,38.638a6.643,6.643,0,0,0-1.044,8.772c6,8.256,15.324,9.369,21.166,9.335A10.881,10.881,0,0,0,75.635,167C88.073,148.4,91.844,127.623,92.982,116.07a87.925,87.925,0,0,0,13.9,1.263,72.906,72.906,0,0,0,.77,16.817c-2.773-2.246-4.028-5.227-7.85-5.136-9.485.277-7.319,14.817-5.8,19.661,1.255,4.5,5.469,6.088,9.717,7.041a51.539,51.539,0,0,1,4.674,14.172,1.8,1.8,0,1,0,3.55-.565,53.236,53.236,0,0,0-3.936-12.914c.705.073,1.432.147,2.169.182a1.8,1.8,0,0,0,.11-3.592,28.742,28.742,0,0,1-10.247-2.269,4.879,4.879,0,0,1-2.588-3.071c-.806-2.734-1.938-8.059-.466-13.009a2.966,2.966,0,0,1,5.08-.992,23.215,23.215,0,0,0,6.661,5.524c3.529,15.764,15.98,27.443,23.963,31.318a5.444,5.444,0,0,0,3.672.39c14.705-3.6,25.912-15.87,31.654-31.535,5-13.618,5.444-27.924,5.262-35.239a7.182,7.182,0,0,0-4.5-6.493,51.653,51.653,0,0,0-2.4-16.713,5.341,5.341,0,0,0,.835-5.05,33.615,33.615,0,0,0-3.217-6.677c3.9-3.53.087-7.557-2.349-10.49-5.3-5.762-12.309-3.659-17.644.66h-.308L141.623,53.3a35.038,35.038,0,0,0,3.069-2.8,1.8,1.8,0,0,0,.354-1.967,46.312,46.312,0,0,1-1.315-27.522,1.9,1.9,0,0,0-.114-1.342,1.8,1.8,0,0,0-1.8-.976l-7.653.853c.39-1.275.74-2.565,1.031-3.859a11.113,11.113,0,0,1,7.467-8.169c6.934-2.457,16.441-1.122,19.045,6.782a17.633,17.633,0,0,1-2.465,15.193c-4.738,6.644-.828,14.139,7.245,11.681-4.017,7.755-18.445,7.369-15.408-5.416,1.243-5,4.394-8,1.913-14.124-.654-2.054-5.17-6.266-6.706-3.022a1.8,1.8,0,0,0,1.1,2.293,3.832,3.832,0,0,1,2.289,2.106c1.252,3.016.462,4.956-.626,7.64-2.671,5.68-2.585,12.137.3,15.422a10.174,10.174,0,0,0,7.786,3.859c9.861,0,13.527-7.544,14.086-11.533a1.813,1.813,0,0,0-2.7-1.8,12.686,12.686,0,0,1-5.2,1.422,2.1,2.1,0,0,1-2.15-1.072c-.616-1.124-.573-3.177.9-5.244a21.281,21.281,0,0,0,3.1-18.375c-3.19-10.105-14.785-12.313-23.581-9.246a14.721,14.721,0,0,0-9.9,10.813,48.979,48.979,0,0,1-1.443,5.085L118.655,21.27a7.851,7.851,0,0,0-6.858,5.815,50.245,50.245,0,0,0-1.618,11.662c-.038.212,1.7,18.961,1.689,19.178.668,5.715,6.234,7.846,11.215,5.6.063.641.118,1.345.154,2.078-4.511-.049-8.577,1.075-11.705,8.8-1.6,4.862.976,9.9,6.176,12.9q.028.487.069.976c-4.283.337-6.3,3.548-7.07,7.433l-5.255.405-8.1-81.453A11.174,11.174,0,0,0,94.812,8.6L90.5,3.416a1.811,1.811,0,0,0-2.963.294L84.325,9.645a11.172,11.172,0,0,0-1.3,6.447L91.1,97.227l-5.575.43a1.8,1.8,0,0,0-1.659,1.792v5.12a4.506,4.506,0,0,0-1.534,1.965,22.382,22.382,0,0,1-6.191-8.558c-3.92-9.82-8.394-16.567-14.477-21.65a39.114,39.114,0,0,0-12.851-7.276,1.8,1.8,0,1,0-1.032,3.444,34.813,34.813,0,0,1,10.877,6.029c-.756,5.361-5.537,9.468-7.775,11.12-1.713-1.708-4.115-3.973-6.088-5.855-5.381-7.28-.3-10.125-1.114-17.194a26.405,26.405,0,0,0-6.115-13.419,1.808,1.808,0,0,0-2.845.1,20.4,20.4,0,0,0-3.3,7.7,11.712,11.712,0,0,1-1.7,4.353,32.379,32.379,0,0,0-9.4-10.5,1.81,1.81,0,0,0-2.7.867A41.642,41.642,0,0,0,15.383,65.92c-.181,2.983.23,6.43-.12,9.4-5.628,5.85-9.142,11.891-8.948,17.826-.011,3.3.971,10.7-.257,13.783a112.3,112.3,0,0,0-4.736,20.433A1.8,1.8,0,0,0,2.662,129.3Zm10.708,6.225c-3.069.286-4.977-2.7-4.468-5.522,3.365-.15,7.426-.659,10.258-2.81-.1,2.071-.138,4.455-.021,6.993A19.325,19.325,0,0,1,13.369,135.521Zm59.278,29.484a7.287,7.287,0,0,1-5.941,3.244c-5.678.087-13.452-1.2-18.185-7.829a3.086,3.086,0,0,1,1.877-4.712c9.205-2.2,31.063-11.248,35.208-47.587a.931.931,0,0,1,.542-.753.968.968,0,0,1,.95.058c1.4.815,2.793,1.732,2.671,3.563C89.384,118.226,87.017,143.508,72.647,165.006Zm95.1-37.782c-7.07,2.051-14.866,2.027-22.17,1.059,1.695-13.128,2.608-24.554,2.852-27.806a90.8,90.8,0,0,0,17.325.21,3.641,3.641,0,0,1,3.934,3.518A104.381,104.381,0,0,1,167.744,127.223ZM143.9,88.43a1.8,1.8,0,0,0-2.536.188,38.332,38.332,0,0,1-6.131,5.674A76.771,76.771,0,0,1,121.466,89c-.586-5.264-.246-11.157,3.569-15.2a51.676,51.676,0,0,1,12.579-9.717,8.928,8.928,0,0,1,2.45-.924c-3.287,3.908-5.723,8.628-2.342,13.045l3.012,3.9c1.75,2.46,3.165,5.052,6.544,5.256a37.582,37.582,0,0,1,2.063,11.592,84.494,84.494,0,0,1-9.715-1.566,41.221,41.221,0,0,0,4.463-4.428,1.8,1.8,0,0,0-.187-2.53ZM160.433,70.3a30.178,30.178,0,0,1,3.384,6.746,1.779,1.779,0,0,1-1.324,2.311L148.17,81.765c-1.889.354-2.769-1.305-3.69-2.6,6.111-6.611,11.892-8.523,15.953-8.866Zm4.76,26.824a87.914,87.914,0,0,1-12.249.127,41.551,41.551,0,0,0-2.011-12.3c.172-.037,12.14-2.024,12.3-2.076a48.363,48.363,0,0,1,1.959,14.25ZM150.872,59.38c5.276-2.189,8.394,1.458,11.014,5.619a1.079,1.079,0,0,1,.057,1.1.994.994,0,0,1-.873.554c-4.67.183-11.6,2.038-18.784,9.585-1.579-2.027-3.524-3.936-2.162-6.677a22.149,22.149,0,0,1,10.749-10.188ZM115.276,28a4.257,4.257,0,0,1,3.743-3.147l20.662-2.3a49.866,49.866,0,0,0,1.613,26.26c-5.571,5.318-14,9.142-18.011,10.778l-.56-13.768,2.38-.752a6.243,6.243,0,0,0,4.381-5.976V35.336A1.8,1.8,0,0,0,127.3,33.58l-13.427,2.943a47.232,47.232,0,0,1,1.4-8.528Zm4.231,32.8a3.54,3.54,0,0,1-4.057-3.188L113.909,40.2l11.982-2.626c.067,1.727.067,3.415-1.867,4.068l-3.691,1.166a1.8,1.8,0,0,0-1.255,1.787l.657,16.167c-.078.008-.153.022-.228.034Zm19.088-5.232,1.356,3.965a12.532,12.532,0,0,0-4.092,1.419,60.388,60.388,0,0,0-8.977,6.145,48.977,48.977,0,0,0-.334-4.973,73.2,73.2,0,0,0,12.046-6.561ZM114.969,79.106c-1.674-3.775,3.241-8.925,4.129-9.166a8.523,8.523,0,0,1,4.143-.727c-.029.474-.073.939-.133,1.391a18.316,18.316,0,0,0-5.37,12.4,9.622,9.622,0,0,1-2.77-3.905Zm1.871,13.053a3.641,3.641,0,0,1,3.089.095,83.2,83.2,0,0,0,24.926,7.765c-.216,2.915-1.121,14.432-2.834,27.718a110.39,110.39,0,0,1-24.647-7.533,1.8,1.8,0,0,0-1.53,3.254c.971.457,19.589,9.082,38.758,9.082a52.514,52.514,0,0,0,12.23-1.357c-3.656,14.244-11.681,29-28.774,35.545,2.317-7.3,4.431-17.247,6.3-29.677a1.8,1.8,0,1,0-3.555-.534c-1.973,13.145-4.211,23.425-6.66,30.621-23.152-12.391-29.063-42-19.327-72.7a3.6,3.6,0,0,1,2.028-2.284ZM86.607,15.736c-.467-2.712,1.639-5.7,2.825-7.978,1.63,2.024,4.254,4.49,4.342,7.265L101.869,96.4l-7.184.554ZM109.74,99.4a106.047,106.047,0,0,0-2.544,14.35,84.858,84.858,0,0,1-13.919-1.28,11.618,11.618,0,0,0,0-2.678l9.334-.9a1.8,1.8,0,0,0-.344-3.578l-10.643,1.023a6.69,6.69,0,0,0-1.348-1.14,8.43,8.43,0,0,0-2.82-1.431v-2.65ZM81.655,110.6A69.733,69.733,0,0,1,77.7,125.945a20.36,20.36,0,0,1-10.529-8.874c2.845-1.2,8.45-4.133,11.057-9.474a28.6,28.6,0,0,0,3.426,3.006Zm-6.04-6.148c-1.592,5.375-7.525,8.347-10.067,9.392-1.621-3.98-3.165-7.615-4.546-10.341,2.339-1.137,7.214-3.9,10.035-8.306,1.375,2.965,2.619,6.7,4.577,9.255ZM34.91,61.841a21.053,21.053,0,0,1,1.438-4.314c2.6,4.029,4.772,9,3.394,13.7-1.87,5.739-1.168,10.318,2.274,14.846,2.354,2.339,5.4,5.109,7.358,7.153a1.9,1.9,0,0,0,1.278.542c1.2.008,8.538-4.849,11.072-12.511a43.091,43.091,0,0,1,7.31,9.964c-1.784,4.857-7.46,8.012-9.728,9.106A44.16,44.16,0,0,0,56.353,95.8a1.8,1.8,0,0,0-2.879,2.153c2.809,3.757,5.2,8.454,8.531,16.751,2.863,7.133,7.662,12.018,14.273,14.546-7.454,15.874-19.56,21.1-26.047,22.793-12.581-9.091-8.652-40.417-8.293-43.07a18.566,18.566,0,0,0,.5-10.571,1.8,1.8,0,0,0-3.5.828,14.764,14.764,0,0,1-.411,8.6c-1.84,5.127-9.637,9.344-9.707,9.374a1.8,1.8,0,0,0-.957,1.576c-.051,6.672-2.2,10.777-5.166,13.262.047-11.395,1.017-12.245,2.578-20.39a17,17,0,0,1,1.247-3.735,1.8,1.8,0,0,0-1.573-2.561,8.133,8.133,0,0,1-5.9-2.812,8.049,8.049,0,0,1-1.9-6.271c1.089-8.5,12.922-9.707,15.72-1.608a1.8,1.8,0,0,0,1.635,1.22c2.956.1,3-7.054,2.34-9.027l-.76-3C34.879,78.8,29.8,79.346,29.066,73.9a5.136,5.136,0,0,1,1.788-4.552c2.775-2.407,3.426-5,4.056-7.511ZM9.481,108.034c1.449-3.651.457-11.145.425-15.036a10.919,10.919,0,0,1,.776-4.593A31.359,31.359,0,0,1,21.895,74.5a1.8,1.8,0,0,0,.467-2.5c-.932-1.3-2.37-.751-3.362.154,0-1.958-.139-4.194-.03-6.02a33.92,33.92,0,0,1,1.277-6.847,31.237,31.237,0,0,1,6.9,8.793c-3.544,4.678-1.244,11.282,3.62,14.2A4.112,4.112,0,0,1,32.6,84.74a41.939,41.939,0,0,1,1,4.381c-6.629-7.015-18.963-2.959-20.017,6.737a11.742,11.742,0,0,0,8.8,12.756c-.574,1.489-2.069,9.416-2.465,11.115a7.624,7.624,0,0,1-5.484,5.84,21.729,21.729,0,0,1-9.31.577,118.753,118.753,0,0,1,4.361-18.113Z" transform="translate(-1.312 -2.779)" fill="#342d22"/>
      <path id="Path_122" data-name="Path 122" d="M23.722,94.659l-1.1,1.316a1.8,1.8,0,0,0,2.755,2.311l1.1-1.316a1.8,1.8,0,0,0-2.754-2.311Z" transform="translate(-1.312 -2.779)" fill="#342d22"/>
      <path id="Path_123" data-name="Path 123" d="M13.462,121.928a1.828,1.828,0,0,0,0-3.655A1.828,1.828,0,0,0,13.462,121.928Z" transform="translate(-1.312 -2.779)" fill="#342d22"/>
      <path id="Path_124" data-name="Path 124" d="M52.942,82.831a1.828,1.828,0,0,0-3.655,0A1.828,1.828,0,0,0,52.942,82.831Z" transform="translate(-1.312 -2.779)" fill="#342d22"/>
      <path id="Path_125" data-name="Path 125" d="M60.544,95.979a1.828,1.828,0,0,0,0-3.656A1.828,1.828,0,0,0,60.544,95.979Z" transform="translate(-1.312 -2.779)" fill="#342d22"/>
      <path id="Path_126" data-name="Path 126" d="M68.032,105.472a1.828,1.828,0,0,0,0,3.656A1.828,1.828,0,0,0,68.032,105.472Z" transform="translate(-1.312 -2.779)" fill="#342d22"/>
      <path id="Path_127" data-name="Path 127" d="M75.506,117.568a1.828,1.828,0,0,0,0,3.656A1.828,1.828,0,0,0,75.506,117.568Z" transform="translate(-1.312 -2.779)" fill="#342d22"/>
    </g>
  </g>
</svg>
