<svg xmlns="http://www.w3.org/2000/svg" xmlns:xlink="http://www.w3.org/1999/xlink" width="189" height="192" viewBox="0 0 189 192">
  <defs>
    <clipPath id="clip-path">
      <rect id="Banner" width="189" height="192" transform="translate(0 0.425)" fill="#ecb94b"/>
    </clipPath>
  </defs>
  <g id="Mask_Group_12" data-name="Mask Group 12" transform="translate(0 -0.425)" clip-path="url(#clip-path)">
    <g id="manuscript" transform="translate(0 1.427)">
      <path id="Path_166" data-name="Path 166" d="M162.422,29.531H26.578A11.824,11.824,0,0,1,14.766,17.719V11.813A11.824,11.824,0,0,1,26.578,0H162.422a11.824,11.824,0,0,1,11.813,11.813v5.906A11.824,11.824,0,0,1,162.422,29.531ZM26.578,5.906a5.912,5.912,0,0,0-5.906,5.906v5.906a5.912,5.912,0,0,0,5.906,5.906H162.422a5.912,5.912,0,0,0,5.906-5.906V11.813a5.912,5.912,0,0,0-5.906-5.906Z" fill="#ecb94b"/>
      <path id="Path_167" data-name="Path 167" d="M180.141,23.625h-8.859a2.954,2.954,0,0,1-2.953-2.953V8.859a2.954,2.954,0,0,1,2.953-2.953h8.859a8.859,8.859,0,0,1,0,17.719Zm-5.906-5.906h5.906a2.953,2.953,0,0,0,0-5.906h-5.906Z" fill="#ecb94b"/>
      <path id="Path_168" data-name="Path 168" d="M156.516,29.531a2.954,2.954,0,0,1-2.953-2.953V2.953a2.953,2.953,0,0,1,5.906,0V26.578A2.954,2.954,0,0,1,156.516,29.531Z" fill="#ecb94b"/>
      <path id="Path_169" data-name="Path 169" d="M17.719,23.625H8.859a8.859,8.859,0,0,1,0-17.719h8.859a2.954,2.954,0,0,1,2.953,2.953V20.672A2.954,2.954,0,0,1,17.719,23.625ZM8.859,11.813a2.953,2.953,0,0,0,0,5.906h5.906V11.813Z" fill="#ecb94b"/>
      <path id="Path_170" data-name="Path 170" d="M32.484,29.531a2.954,2.954,0,0,1-2.953-2.953V2.953a2.953,2.953,0,0,1,5.906,0V26.578A2.954,2.954,0,0,1,32.484,29.531Z" fill="#ecb94b"/>
      <path id="Path_171" data-name="Path 171" d="M162.422,189H26.578a11.824,11.824,0,0,1-11.812-11.812v-5.906a11.824,11.824,0,0,1,11.813-11.812H162.422a11.824,11.824,0,0,1,11.813,11.813v5.906A11.824,11.824,0,0,1,162.422,189ZM26.578,165.375a5.912,5.912,0,0,0-5.906,5.906v5.906a5.912,5.912,0,0,0,5.906,5.906H162.422a5.912,5.912,0,0,0,5.906-5.906v-5.906a5.912,5.912,0,0,0-5.906-5.906Z" fill="#ecb94b"/>
      <path id="Path_172" data-name="Path 172" d="M180.141,183.094h-8.859a2.954,2.954,0,0,1-2.953-2.953V168.328a2.954,2.954,0,0,1,2.953-2.953h8.859a8.859,8.859,0,0,1,0,17.719Zm-5.906-5.906h5.906a2.953,2.953,0,0,0,0-5.906h-5.906Z" fill="#ecb94b"/>
      <path id="Path_173" data-name="Path 173" d="M156.516,189a2.954,2.954,0,0,1-2.953-2.953V162.422a2.953,2.953,0,0,1,5.906,0v23.625A2.954,2.954,0,0,1,156.516,189Z" fill="#ecb94b"/>
      <path id="Path_174" data-name="Path 174" d="M17.719,183.094H8.859a8.859,8.859,0,0,1,0-17.719h8.859a2.954,2.954,0,0,1,2.953,2.953v11.813A2.954,2.954,0,0,1,17.719,183.094ZM8.859,171.281a2.953,2.953,0,0,0,0,5.906h5.906v-5.906Z" fill="#ecb94b"/>
      <path id="Path_175" data-name="Path 175" d="M32.484,189a2.954,2.954,0,0,1-2.953-2.953V162.422a2.953,2.953,0,0,1,5.906,0v23.625A2.954,2.954,0,0,1,32.484,189Z" fill="#ecb94b"/>
      <path id="Path_176" data-name="Path 176" d="M32.484,165.375a2.954,2.954,0,0,1-2.953-2.953V135.844a2.956,2.956,0,0,1,1.633-2.643l3.263-1.633L29.841,122.4a2.969,2.969,0,0,1-.31-1.32v-50.2a2.957,2.957,0,0,1,1.314-2.457l5.862-3.907L30.4,58.2a2.95,2.95,0,0,1-.865-2.088V26.578a2.953,2.953,0,1,1,5.906,0V54.887l7.994,7.994a2.953,2.953,0,0,1-.449,4.545l-7.545,5.029v47.926l5.6,11.189a2.954,2.954,0,0,1-1.32,3.963l-4.273,2.138v24.753a2.954,2.954,0,0,1-2.953,2.953Z" fill="#ecb94b"/>
      <path id="Path_177" data-name="Path 177" d="M156.516,165.375a2.954,2.954,0,0,1-2.953-2.953V137.669l-4.273-2.138a2.954,2.954,0,0,1-1.32-3.963l5.6-11.189V72.455l-7.545-5.029a2.953,2.953,0,0,1-.449-4.545l7.994-7.994V26.578a2.953,2.953,0,0,1,5.906,0V56.109a2.945,2.945,0,0,1-.865,2.088L152.3,64.511l5.862,3.907a2.957,2.957,0,0,1,1.314,2.457v50.2a2.96,2.96,0,0,1-.31,1.32l-4.586,9.169,3.263,1.633a2.953,2.953,0,0,1,1.633,2.643v26.578a2.954,2.954,0,0,1-2.953,2.953Z" fill="#ecb94b"/>
      <path id="Path_178" data-name="Path 178" d="M132.891,47.25H67.922a2.953,2.953,0,0,1,0-5.906h64.969a2.953,2.953,0,0,1,0,5.906Z" fill="#ecb94b"/>
      <path id="Path_179" data-name="Path 179" d="M132.891,59.063H56.109a2.953,2.953,0,0,1,0-5.906h76.781a2.953,2.953,0,0,1,0,5.906Z" fill="#ecb94b"/>
      <path id="Path_180" data-name="Path 180" d="M97.453,70.875H56.109a2.953,2.953,0,0,1,0-5.906H97.453a2.953,2.953,0,0,1,0,5.906Z" fill="#ecb94b"/>
      <path id="Path_181" data-name="Path 181" d="M132.891,85.641H67.922a2.953,2.953,0,0,1,0-5.906h64.969a2.953,2.953,0,0,1,0,5.906Z" fill="#ecb94b"/>
      <path id="Path_182" data-name="Path 182" d="M132.891,97.453H56.109a2.953,2.953,0,0,1,0-5.906h76.781a2.953,2.953,0,0,1,0,5.906Z" fill="#ecb94b"/>
      <path id="Path_183" data-name="Path 183" d="M97.453,109.266H56.109a2.953,2.953,0,0,1,0-5.906H97.453a2.953,2.953,0,0,1,0,5.906Z" fill="#ecb94b"/>
      <path id="Path_184" data-name="Path 184" d="M132.891,124.031H67.922a2.953,2.953,0,0,1,0-5.906h64.969a2.953,2.953,0,0,1,0,5.906Z" fill="#ecb94b"/>
      <path id="Path_185" data-name="Path 185" d="M132.891,135.844H56.109a2.953,2.953,0,0,1,0-5.906h76.781a2.953,2.953,0,0,1,0,5.906Z" fill="#ecb94b"/>
      <path id="Path_186" data-name="Path 186" d="M97.453,147.656H56.109a2.953,2.953,0,0,1,0-5.906H97.453a2.953,2.953,0,0,1,0,5.906Z" fill="#ecb94b"/>
    </g>
  </g>
</svg>
