<svg xmlns="http://www.w3.org/2000/svg" width="1673" height="148.831" viewBox="0 0 1673 148.831">
  <g id="Group_183" data-name="Group 183" transform="translate(-18.525 -179.793)">
    <path id="Path_139" data-name="Path 139" d="M132.272,1.054a1.519,1.519,0,0,1,2.892,0L138.388,11.5a1.478,1.478,0,0,0,.292.527l7.232,8.413a1.488,1.488,0,0,1-1.491,2.406l-10.367-2.324a1.537,1.537,0,0,0-.672,0L1.351,86.29c-1.415.317-1.764-.441-.828-1.53L128.757,12.031a1.477,1.477,0,0,0,.292-.527Z" transform="matrix(0.883, 0.469, -0.469, 0.883, 59.07, 179.793)" fill="#342d22"/>
    <path id="Path_140" data-name="Path 140" d="M132.272,85.308a1.519,1.519,0,0,0,2.892,0l3.224-10.449a1.478,1.478,0,0,1,.292-.527l7.232-8.413a1.488,1.488,0,0,0-1.491-2.406l-10.367,2.324a1.537,1.537,0,0,1-.672,0L1.351.073C-.064-.244-.414.514.523,1.6L128.757,74.332a1.477,1.477,0,0,1,.292.527Z" transform="matrix(-0.883, 0.469, -0.469, -0.883, 1691.525, 259.952)" fill="#342d22"/>
  </g>
</svg>
