<svg xmlns="http://www.w3.org/2000/svg" xmlns:xlink="http://www.w3.org/1999/xlink" width="189" height="192" viewBox="0 0 189 192">
  <defs>
    <clipPath id="clip-path">
      <rect id="Banner" width="189" height="192" transform="translate(0 0.073)" fill="#ecb94b"/>
    </clipPath>
  </defs>
  <g id="Mask_Group_11" data-name="Mask Group 11" transform="translate(0 -0.073)" clip-path="url(#clip-path)">
    <g id="king" transform="translate(0 2.982)">
      <path id="Path_157" data-name="Path 157" d="M5.831,62.7a19.026,19.026,0,0,0,2.643,4.344v5.066c-.255,1.767.454,6.77,4.214,7.783v5.166a1.988,1.988,0,0,0,1.988,1.988h1.514v50.546a8.247,8.247,0,0,0-7.221,8.169v16.2a8.247,8.247,0,0,0,7.221,8.17V187.45a1.988,1.988,0,1,0,3.977,0V170.2h5.914V187.45a1.988,1.988,0,1,0,3.977,0V170.2H52.652a25.925,25.925,0,0,0,19.3-8.124c.561,3.181,1.9,7.451,5.071,10.255-3.27,2.443-3.282,5.523-3.17,9.351a7.767,7.767,0,0,0,7.758,7.759h62.072c5.129-.189,10.155-5.393,13.494-9.711,3.507-4.464,11.527-15,15.093-19.567.645,7.872.729,16.8.729,27.289a1.988,1.988,0,0,0,1.988,1.988c7.694.018,14.039,1.153,15.229-9.046A119.25,119.25,0,0,0,190,149.8c-2.041-15.9-8.635-38.934-26.9-55.1a1.988,1.988,0,0,0-2.576,3.03c-8.006,19.339-24.9,33.079-33.774,37.936a30.771,30.771,0,0,1-33.542-1.946,74.174,74.174,0,0,0,5.3-17.074c7.168,3.644,15.869,4.278,22.972-.385A51.125,51.125,0,0,0,138.1,99.281a1.988,1.988,0,0,0-3.432-2.009,47.136,47.136,0,0,1-15.327,15.644c-6.413,4.244-14.062,2.941-20.129-.341q.7-4.559,1.1-9.579c16.314,7.185,31.114-11.58,36.2-21.551a4.311,4.311,0,0,1,4.673-2.159,28.9,28.9,0,0,1,11.335,5.046,4.381,4.381,0,0,1,1.35,5.311c-9.462,15.937-26.652,39.347-42.307,37.788a16.755,16.755,0,0,1-3.863-.778,1.988,1.988,0,1,0-1.26,3.772,23.333,23.333,0,0,0,20.119-3.143c10.634-7.13,21.875-20.177,30.842-35.8a8.385,8.385,0,0,0-2.525-10.36,33.26,33.26,0,0,0-9.9-4.982A84.771,84.771,0,0,0,129.508,70.7c1.154-3.15-.638-6.654-2.631-9.068a8.925,8.925,0,0,0,.881-3.869V38.135c.444-.2.852-.4,1.242-.594a33.368,33.368,0,0,0,5.068,9.244c1.346,1.278,8.282,12.735.129,18.377a2,2,0,0,0,1.073,3.664,1.978,1.978,0,0,0,1.069-.313,12.123,12.123,0,0,0,4.117-4.529c4.987-9.194-2.689-18.954-3.29-19.694a29.017,29.017,0,0,1-4.832-9.353,9.288,9.288,0,0,0,2.071-5.857V17.707c0-4.628-3.055-6.582-4.7-7.632-2.309-1.219-3.522,1.257-4.886,4.895a24.2,24.2,0,0,0-8.493-4.079c-2.012-3.409-7.139-7.035-7.08-6.914a1.988,1.988,0,0,0-2.121,0c.052-.093-5.068,3.489-7.081,6.915a24.2,24.2,0,0,0-8.493,4.079c-1.366-3.645-2.575-6.11-4.886-4.9-1.641,1.05-4.7,3-4.7,7.632V29.081a9.29,9.29,0,0,0,2.075,5.862,29.279,29.279,0,0,1-4.837,9.348c-.557.686-7.389,9.374-4.034,18.082a1.988,1.988,0,1,0,3.711-1.429c-2.562-6.793,3.341-14.038,3.465-14.211a33.859,33.859,0,0,0,5.021-9.193c.39.2.8.4,1.25.6V57.762a8.919,8.919,0,0,0,.878,3.871,20.745,20.745,0,0,0-1.988,3.038s-2.357,0-2.473,0c-.528.03-13.038.848-21.767,10.266a9.942,9.942,0,0,0-2.6,8c-3.281,3.59-6.96,9.191-6.96,16.266v19.627c.074,1.29.841,10.128-9.68,12.253-2.021-1.2-7.968-4.233-13.975-2.6V87.049h1.516a1.988,1.988,0,0,0,1.988-1.988V79.9c3.767-1.017,4.468-6.022,4.214-7.783V67.046A19.031,19.031,0,0,0,40.423,62.7a5.439,5.439,0,0,0,3.753-5.163V52.586a5.44,5.44,0,0,0-3.753-5.164,18.759,18.759,0,0,0-10.9-10.169V33a2.519,2.519,0,0,1,2.35-2.519A5.634,5.634,0,0,1,36.8,33.1a2,2,0,0,0,3.693-.739c.729-4.772-1.727-14.046-11.146-12.771.472-7.739-4.311-10.777-5.6-11.092-2.154-.73-7.354,3.385-6.838,11.092C7.494,18.305,5.022,27.618,5.76,32.362a2,2,0,0,0,3.686.751,5.648,5.648,0,0,1,4.937-2.634A2.52,2.52,0,0,1,16.732,33v4.254a18.766,18.766,0,0,0-10.9,10.169,5.44,5.44,0,0,0-3.753,5.164v4.952A5.439,5.439,0,0,0,5.831,62.7Zm17.3,7.3a14.834,14.834,0,0,1-12.674-7.032H35.8A14.849,14.849,0,0,1,23.127,70ZM38.744,51.129A1.457,1.457,0,0,1,40.2,52.584v4.952a1.457,1.457,0,0,1-1.455,1.455H7.51a1.457,1.457,0,0,1-1.455-1.455v-4.95A1.457,1.457,0,0,1,7.51,51.129ZM12.949,161.96v-16.2A4.267,4.267,0,0,1,17.21,141.5H30.276v5.738H19.344a1.988,1.988,0,0,0,0,3.977H30.28v5.294H19.344a1.988,1.988,0,0,0,0,3.977H30.28v3.5a2.24,2.24,0,0,1-2.238,2.238H17.213a4.266,4.266,0,0,1-4.264-4.264Zm22.5-20.462a2.752,2.752,0,0,1,2.749,2.749v6.925a2.752,2.752,0,0,1-2.749,2.749h-1.19V141.5Zm27.809,22.262a23.3,23.3,0,0,1-10.6,2.463H33.831c.739-1.457.323-6.693.424-8.325a6.944,6.944,0,0,0,7.916-7.63c9.745,5.331,19.415,6.826,29.365,3.863l.005,1.642a18.722,18.722,0,0,1-8.287,7.987Zm12.271-5.908-.016-5.221a31.34,31.34,0,0,0,7.36-4.735c.365,6.839-1.633,13.985,4.682,22.92H82.215c-6.649-2.213-6.692-12.841-6.691-12.966Zm2.308,23.831v-3.111a3.785,3.785,0,0,1,3.781-3.781H96.333a6.125,6.125,0,0,0-.407,2.185c.1,1.627-.313,7.037.407,8.487H81.614a3.785,3.785,0,0,1-3.781-3.784Zm36.391-6.89a2.187,2.187,0,0,1,2.184,2.185v6.3a2.187,2.187,0,0,1-2.184,2.185H102.088a2.188,2.188,0,0,1-2.185-2.185v-6.3a2.188,2.188,0,0,1,2.185-2.185ZM133.443,136.2a80.509,80.509,0,0,0,7.408-5.642l-.065,27.3a1.918,1.918,0,0,0,.015.249c.013.106,1.207,10.5-6.641,12.714h-5.4c4.536-5.628,4.678-13.826,4.682-14.276Zm14.705,23.008a19.9,19.9,0,0,1-3.369,2.562c.075-1.193-.016-32.023.057-34.274L160,139.947ZM134.7,174.79a3.786,3.786,0,0,1,3.782,3.781v3.108a3.786,3.786,0,0,1-3.782,3.782H119.977a6.125,6.125,0,0,0,.407-2.185c-.1-1.627.313-7.037-.407-8.487Zm19.336,2.51c-3.88,5.029-7.666,8-10.4,8.162h-2.17c1.2-1.818.994-4.768.99-6.891a7.74,7.74,0,0,0-2.934-6.064,13.082,13.082,0,0,0,4.106-5.716,23.759,23.759,0,0,0,6.042-3.631l8.911,8.245Zm17.435-22.606-10.453,13.549-8.77-8.114,12.044-19.577a1.988,1.988,0,0,0-.431-2.579L147.321,124.4c2.009-2.116,4.024-4.443,6.011-7,11.638,11.091,16.4,22.13,18.344,37.079a1.971,1.971,0,0,0-.209.223Zm-8.665-51.97c.341-.625.669-1.146,1-1.865,21.682,20.538,25.533,61.107,22.477,78.972-.539,5.125-2.479,5.67-5.127,5.631h-4.176c-.009-30.807-.458-51.627-21.257-71.282a104.831,104.831,0,0,0,7.082-11.455Zm-69.557,35.79a34.642,34.642,0,0,0,36.22.181v17.823c0,.109-.17,10.7-6.736,14.295H93.58c-9.26-5.88-6.2-20.025-6.736-26.942a40.909,40.909,0,0,0,4.545-6.57q.9.618,1.856,1.214ZM90.966,66.638c2.744-5.269,10.343-10.737,14.351-7.09,1.63,1.328,1.232,1.886,2.875,2.07,1.654-.011,2.155-2.031,3.97-2.792a1.955,1.955,0,0,0,.458-.188c3.647-1.851,13.316,4.882,13.232,10.283a9.62,9.62,0,0,0-5.886-2.309,7.511,7.511,0,0,0-1.861.236c-4.633,1.183-6.831.948-8.4-.9a2,2,0,0,0-3.032,0c-1.567,1.846-3.766,2.082-8.4.9a8.893,8.893,0,0,0-7.747,2.073,3.882,3.882,0,0,1,.439-2.283ZM133.01,79.553c-.2.374-.424.773-.658,1.186l-7.2-4.444V73.739a2.179,2.179,0,0,0,.852.348,52.867,52.867,0,0,1,9.626,2.552,8.232,8.232,0,0,0-2.621,2.911Zm-35.122-8.7c3.66.882,7.352,1.25,10.3-.906,3.11,2.272,7.047,1.741,10.9.757a3.786,3.786,0,0,1,2.087.089v6.316c-.02,7.783-10.178,18.276-20.493,10.482a14.865,14.865,0,0,1-5.2-8.47,22.489,22.489,0,0,0,2.408-8.27Zm16.759,28.206A16.174,16.174,0,0,1,100.58,98.8q.16-3.118.208-6.4c10.32,5.56,21.561-1.961,23.836-11.756l5.659,3.493c-3.415,5.227-8.681,11.58-15.635,14.917Zm9.475-79.336a4.139,4.139,0,0,1-8.195.117c-.341-1.669.909-2.99,1.115-4.554a17.243,17.243,0,0,1,7.08,4.437ZM99.336,15.282c.208,1.563,1.455,2.885,1.115,4.554a4.14,4.14,0,0,1-8.2-.119,17.265,17.265,0,0,1,7.08-4.436ZM85.954,17.707a3.852,3.852,0,0,1,1.22-3.047,10.754,10.754,0,0,1,1.079,4.573A8.164,8.164,0,0,0,97.3,27.29c5.484-.5,8.942-7.007,6.249-11.81a2.87,2.87,0,0,1,.292-3.147,26.674,26.674,0,0,1,4.35-4.23,26.677,26.677,0,0,1,4.346,4.23,2.87,2.87,0,0,1,.291,3.148c-2.693,4.8.765,11.305,6.249,11.809a8.166,8.166,0,0,0,9.051-8.058,10.758,10.758,0,0,1,1.079-4.573,3.854,3.854,0,0,1,1.22,3.047V29.08a5.344,5.344,0,0,1-2.883,4.741c-3.465,1.818-9.642,3.982-19.355,3.982s-15.887-2.166-19.356-3.982a5.344,5.344,0,0,1-2.882-4.741Zm22.238,24.074a52.3,52.3,0,0,0,15.592-2.151V57.762a4.969,4.969,0,0,1-.049.677c-3-2.259-5.336-3.595-8.5-4.061a1.988,1.988,0,1,0-3.913-.7,2.792,2.792,0,0,1-.668,1.467,9.173,9.173,0,0,0-2.458,1.634,9.278,9.278,0,0,0-2.3-1.563,2.727,2.727,0,0,1-.758-1.608,1.991,1.991,0,1,0-3.9.763c-3.205.443-5.567,1.8-8.583,4.068a5.037,5.037,0,0,1-.049-.675V39.63a52.294,52.294,0,0,0,15.589,2.151Zm-42,35.863c.518-.559,1.055-1.079,1.6-1.573C67.72,86.4,82.756,86.847,85.54,78.006a1.989,1.989,0,0,0-3.831-1.07,5.168,5.168,0,0,1-3.92,3.185,5.049,5.049,0,0,1-4.981-1.149c-2.418-2.674.057-6.3.215-6.564a33.3,33.3,0,0,1,12.2-3.759h1.307c-.131,2.473,2.443,7.315,5.127,4.7a9.6,9.6,0,0,1,2.174-1.911C92.736,80.044,84.265,88.586,75.208,88.5c-3.518.035-6.358-.724-8.432-2.272a5.836,5.836,0,0,1-.589-8.585Zm-23.7,57.166c.852.871,12.161,7.811,18.456,5.12,8.919-3.113,10.964-12.256,10.8-16.694V111.966a1.989,1.989,0,0,0-3.977,0v11.305c0,.23.344,9.876-8.135,12.9-3.186,1.112-7.7-.549-11.065-2.309a14.827,14.827,0,0,0,9.119-15.135V99.206a19.591,19.591,0,0,1,4.577-12,12.559,12.559,0,0,0,7.455,4.666,27.506,27.506,0,0,0-1.52,6.125,1.989,1.989,0,0,0,3.938.56,20.84,20.84,0,0,1,1.667-6.107,21.122,21.122,0,0,0,10.959-2.381c.3,6.1.419,19.734-3.378,31.018a1.989,1.989,0,1,0,3.769,1.269c4.648-13.816,3.789-30.331,3.447-34.783a25.243,25.243,0,0,0,4.112-4.132,18.93,18.93,0,0,0,4.115,6.025c.545,24.656-5.975,53.632-24.119,60.028-10.493,4.016-20.172,2.325-30.542-3.8.426-4.34-2.189-8.075-6.726-8.172H30.06v-4.84c5.642-2.3,12.187,1.966,12.433,2.13Zm-16.41,2.712H20.168V87.049h5.914Zm6.945-61.839a1.773,1.773,0,0,1-1.453.529A1.988,1.988,0,0,0,29.588,78.2v4.872H16.665V78.2a1.988,1.988,0,0,0-1.988-1.988c-2.234.153-2.276-2.787-2.235-3.826.02-.087,0-1.55.009-1.678A19.19,19.19,0,0,0,33.8,70.7c0,.122-.01,1.611.01,1.685A5.154,5.154,0,0,1,33.029,75.683Zm-18.4-49.172a8.91,8.91,0,0,0-4.51.874A5.465,5.465,0,0,1,17.9,24.051a2,2,0,0,0,2.985-1.721V18.046c.144-3.272,1.442-4.772,2.239-5.387.813.625,2.1,2.124,2.248,5.387V22.33a2,2,0,0,0,2.985,1.72,5.457,5.457,0,0,1,7.776,3.335C31.652,25.056,25.614,27.35,25.543,33v3.309a18.313,18.313,0,0,0-4.834,0V33a6.5,6.5,0,0,0-6.078-6.488Zm8.5,13.611A14.827,14.827,0,0,1,35.8,47.152H10.453a14.834,14.834,0,0,1,12.674-7.031Z" transform="translate(-2.076 -3.67)" fill="#ecb94b"/>
      <path id="Path_158" data-name="Path 158" d="M100.995,49.245c1.242.083,3.469,1.244,4.227-1.069a1.988,1.988,0,0,0-1.4-2.437,17.319,17.319,0,0,0-2.409-.45A1.989,1.989,0,0,0,100.995,49.245Z" transform="translate(-2.076 -3.67)" fill="#ecb94b"/>
      <path id="Path_159" data-name="Path 159" d="M113.076,49.649c.645-.067,2.316-.466,2.307-.4a1.988,1.988,0,0,0,1.77-2.184c-.572-2.321-2.132-1.887-4.593-1.321a1.992,1.992,0,0,0,.516,3.909Z" transform="translate(-2.076 -3.67)" fill="#ecb94b"/>
      <path id="Path_160" data-name="Path 160" d="M23.127,57.083a2.022,2.022,0,0,0,0-4.043A2.022,2.022,0,0,0,23.127,57.083Z" transform="translate(-2.076 -3.67)" fill="#ecb94b"/>
      <path id="Path_161" data-name="Path 161" d="M13.223,57.083a2.022,2.022,0,0,0,0-4.043A2.022,2.022,0,0,0,13.223,57.083Z" transform="translate(-2.076 -3.67)" fill="#ecb94b"/>
      <path id="Path_162" data-name="Path 162" d="M33.025,57.083a2.022,2.022,0,0,0,0-4.043A2.022,2.022,0,0,0,33.025,57.083Z" transform="translate(-2.076 -3.67)" fill="#ecb94b"/>
      <path id="Path_163" data-name="Path 163" d="M108.189,34.309a2.022,2.022,0,0,0,0-4.044A2.022,2.022,0,0,0,108.189,34.309Z" transform="translate(-2.076 -3.67)" fill="#ecb94b"/>
      <path id="Path_164" data-name="Path 164" d="M94.376,33.335a2.022,2.022,0,0,0,0-4.044A2.022,2.022,0,0,0,94.376,33.335Z" transform="translate(-2.076 -3.67)" fill="#ecb94b"/>
      <path id="Path_165" data-name="Path 165" d="M122,33.335a2.022,2.022,0,0,0,0-4.044A2.022,2.022,0,0,0,122,33.335Z" transform="translate(-2.076 -3.67)" fill="#ecb94b"/>
    </g>
  </g>
</svg>
