<svg xmlns="http://www.w3.org/2000/svg" xmlns:xlink="http://www.w3.org/1999/xlink" width="189" height="192" viewBox="0 0 189 192">
  <defs>
    <clipPath id="clip-path">
      <rect id="Banner" width="189" height="192" fill="#ecb94b"/>
    </clipPath>
  </defs>
  <g id="Mask_Group_14" data-name="Mask Group 14" clip-path="url(#clip-path)">
    <g id="armor" transform="translate(0 7.39)">
      <g id="Group_66" data-name="Group 66" transform="translate(31.973 79.099)">
        <g id="Group_65" data-name="Group 65">
          <path id="Path_188" data-name="Path 188" d="M156.5,86.128a2.769,2.769,0,0,0-3.868-.607c-7.423,5.41-17.455,8.389-28.249,8.389s-20.826-2.979-28.249-8.389a2.768,2.768,0,0,0-3.261,0c-7.423,5.409-17.456,8.389-28.249,8.389S43.8,90.931,36.373,85.521A2.769,2.769,0,0,0,33.111,90c8.363,6.095,19.554,9.452,31.511,9.452,11.2,0,21.72-2.943,29.88-8.321,8.16,5.378,18.684,8.321,29.88,8.321,11.957,0,23.148-3.357,31.511-9.452A2.77,2.77,0,0,0,156.5,86.128Z" transform="translate(-31.973 -84.99)" fill="#ecb94b"/>
        </g>
      </g>
      <g id="Group_68" data-name="Group 68" transform="translate(57.694 106.911)">
        <g id="Group_67" data-name="Group 67">
          <path id="Path_189" data-name="Path 189" d="M130.775,113.94a2.769,2.769,0,0,0-3.868-.607,28.3,28.3,0,0,1-30.776,0,2.769,2.769,0,0,0-3.261,0,26.612,26.612,0,0,1-15.388,4.549,26.611,26.611,0,0,1-15.388-4.549,2.769,2.769,0,0,0-3.261,4.475,31.794,31.794,0,0,0,18.649,5.612A32.57,32.57,0,0,0,94.5,118.9a32.572,32.572,0,0,0,17.019,4.518,31.8,31.8,0,0,0,18.649-5.612A2.769,2.769,0,0,0,130.775,113.94Z" transform="translate(-57.694 -112.802)" fill="#ecb94b"/>
        </g>
      </g>
      <g id="Group_70" data-name="Group 70" transform="translate(57.694 126.054)">
        <g id="Group_69" data-name="Group 69">
          <path id="Path_190" data-name="Path 190" d="M130.775,133.083a2.769,2.769,0,0,0-3.868-.607,28.3,28.3,0,0,1-30.776,0,2.769,2.769,0,0,0-3.261,0,26.612,26.612,0,0,1-15.388,4.549,26.61,26.61,0,0,1-15.388-4.549,2.769,2.769,0,0,0-3.261,4.475,31.791,31.791,0,0,0,18.649,5.612A32.57,32.57,0,0,0,94.5,138.045a32.572,32.572,0,0,0,17.019,4.518,31.793,31.793,0,0,0,18.649-5.612A2.769,2.769,0,0,0,130.775,133.083Z" transform="translate(-57.695 -131.945)" fill="#ecb94b"/>
        </g>
      </g>
      <g id="Group_72" data-name="Group 72" transform="translate(57.694 145.197)">
        <g id="Group_71" data-name="Group 71">
          <path id="Path_191" data-name="Path 191" d="M130.775,152.226a2.769,2.769,0,0,0-3.869-.607,28.3,28.3,0,0,1-30.776,0,2.769,2.769,0,0,0-3.261,0,26.612,26.612,0,0,1-15.388,4.549,26.608,26.608,0,0,1-15.388-4.55,2.769,2.769,0,0,0-3.261,4.475,31.794,31.794,0,0,0,18.649,5.612A32.57,32.57,0,0,0,94.5,157.188a32.572,32.572,0,0,0,17.019,4.518,31.793,31.793,0,0,0,18.649-5.612A2.769,2.769,0,0,0,130.775,152.226Z" transform="translate(-57.695 -151.088)" fill="#ecb94b"/>
        </g>
      </g>
      <g id="Group_74" data-name="Group 74">
        <g id="Group_73" data-name="Group 73">
          <path id="Path_192" data-name="Path 192" d="M183.223,71.384c-18.5-6.771-27.817-24.552-21.16-43.188a8.737,8.737,0,0,0-14.076-9.435,88.059,88.059,0,0,0-12.635-4.721,8.758,8.758,0,0,0-7.564-8.075,8.878,8.878,0,0,0-9.827,7.508,23.674,23.674,0,0,1-46.919,0,8.745,8.745,0,0,0-17.393.568,88.1,88.1,0,0,0-12.634,4.721,8.743,8.743,0,0,0-5.841-2.252A8.831,8.831,0,0,0,26.939,28.2c4.652,13.022,2.749,24.075-5.655,32.853A46.6,46.6,0,0,1,5.8,71.378a8.741,8.741,0,0,0-.411,16.3C5.138,97,5.8,114.427,11.511,138.461a2.768,2.768,0,1,0,5.387-1.28c-5.521-23.234-6.207-40.032-5.986-49.1l.019-.006a10.593,10.593,0,0,0,1.175-.388C15.026,86.57,31.02,79.912,40.3,64.938a45.5,45.5,0,0,0,6.66-24.044,55.949,55.949,0,0,0-2.951-16.817c-.054-.165-.106-.329-.161-.494l-.01-.031A82.14,82.14,0,0,1,54.4,19.595,41.039,41.039,0,0,0,66.438,40.353l.038.035A41.542,41.542,0,0,0,92.652,51.41H92.7A41.636,41.636,0,0,0,122.53,40.384l.028-.026A41.04,41.04,0,0,0,134.6,19.594c3.494,1.063,7.387,2.149,10.568,3.979a49.862,49.862,0,0,0-2.926,13.465,45.322,45.322,0,0,0,6.46,27.9c9.312,15.027,25.39,21.68,28.226,22.762.377.144.756.266,1.144.375l.021.007c.755,27.691-7.755,57.926-13.181,74.191-3.092,2.452-21.638,15.3-70.412,15.3-15.372,0-37.514-1.367-55.7-7.876-8.818-3.157-13.327-6.342-14.714-7.431-1.575-4.719-3.034-9.465-4.342-14.119a2.769,2.769,0,0,0-5.331,1.5c1.4,4.986,2.972,10.074,4.671,15.124a2.77,2.77,0,0,0,.723,1.13c.744.7,18.866,17.212,74.692,17.212S168.448,166.6,169.192,165.9a2.764,2.764,0,0,0,.723-1.13c12.517-37.2,14.075-63.559,13.7-77.09a8.741,8.741,0,0,0-.394-16.3ZM36.037,61.291c-8.2,13.916-23.053,20.129-25.8,21.184a3.31,3.31,0,0,1-4.514-1.793,3.215,3.215,0,0,1,1.951-4.095,51.189,51.189,0,0,0,17.611-11.71c9.974-10.416,12.285-23.384,6.869-38.545a3.21,3.21,0,0,1,1.941-4.1,3.268,3.268,0,0,1,4.1,1.941C42.558,36.4,42.767,49.864,36.037,61.291ZM129.71,15.66s0,.009,0,.013a35.845,35.845,0,0,1-33.575,30.2q-1.63.076-3.262,0a35.846,35.846,0,0,1-33.575-30.2s0-.009,0-.014a3.618,3.618,0,0,1,.545-2.968,3.222,3.222,0,0,1,5.716,1.515,29.212,29.212,0,0,0,57.9,0,3.219,3.219,0,0,1,3.6-2.753C129.174,11.737,130,13.752,129.71,15.66Zm53.57,65.022c-.78,2.2-3.093,2.368-4.967,1.616-3.627-1.456-17.362-7.659-25.206-20.77-6.869-11.48-6.7-25.033-2.3-37.354a3.207,3.207,0,1,1,6.039,2.159c-5.415,15.16-3.1,28.128,6.869,38.545a51.193,51.193,0,0,0,17.622,11.713A3.212,3.212,0,0,1,183.28,80.682Z" transform="translate(-0.001 -5.891)" fill="#ecb94b"/>
        </g>
      </g>
    </g>
  </g>
</svg>
