<svg xmlns="http://www.w3.org/2000/svg" xmlns:xlink="http://www.w3.org/1999/xlink" width="189" height="192" viewBox="0 0 189 192">
  <defs>
    <clipPath id="clip-path">
      <rect id="Banner" width="189" height="192" transform="translate(0 0.355)" fill="#ecb94b"/>
    </clipPath>
  </defs>
  <g id="Mask_Group_13" data-name="Mask Group 13" transform="translate(0 -0.355)" clip-path="url(#clip-path)">
    <g id="Bow" transform="translate(0 1.462)">
      <path id="Path_187" data-name="Path 187" d="M196.726,101.248,164.139,88.214a3.259,3.259,0,0,0-4.125,1.571l-2.868,5.742-6.664,4.441c2.043-17.271-.473-31.752-7.609-43.053-10.193-16.127-29.8-25.153-19.516-42.2a3.259,3.259,0,0,0-2.894-4.943c-13.256.42-28.415,5.308-26.274,18.395L25.225,91.241H13.034A3.259,3.259,0,0,0,9.942,95.52l2.916,8.756-2.916,8.756a3.259,3.259,0,0,0,3.092,4.279h12.19L94.19,180.377c-2.141,13.087,13.018,17.975,26.274,18.4a3.259,3.259,0,0,0,2.894-4.94c-10.252-17,9.31-26.069,19.519-42.2,7.136-11.3,9.649-25.789,7.606-43.053l6.664,4.441,2.868,5.742a3.259,3.259,0,0,0,2.916,1.8c.978,0,.111.225,33.8-13.266a3.259,3.259,0,0,0,0-6.055ZM96.4,173.56,34.313,116.785c1.349-.851,1.163-1.108,3.878-9.251h89.69c10.812,38.3-20.562,41.837-31.485,66.026Zm31.485-72.543H38.191c-2.75-8.251-2.561-8.42-3.878-9.251L96.4,34.991c10.812,23.948,42.294,27.744,31.485,66.026Zm8.472-19.552h7.922c.225,2.1.349,4.279.375,6.517h-8.075a45.1,45.1,0,0,0-.235-6.517ZM135.995,94.5h8.472q-.215,3.177-.671,6.517h-9.124a65.825,65.825,0,0,0,1.31-6.517Zm.593,26.069h8.062c-.026,2.239-.15,4.415-.375,6.517H136.34a45.1,45.1,0,0,0,.235-6.517Zm-.593-6.517a65.83,65.83,0,0,0-1.336-6.517h9.124q.456,3.34.671,6.517Zm-35.17-90.14c1.388-3.868,7.619-6.214,14.429-7.169-6.517,19.226,12.865,29.024,22.11,43.643a45.787,45.787,0,0,1,5.859,14.563H135c-6.068-20.34-29.3-28.855-34.1-46.474a7.472,7.472,0,0,1-.078-4.562ZM17.557,97.758H30.237l2.173,6.517-2.173,6.517H17.557C20.161,102.972,20.161,105.579,17.557,97.758Zm119.809,50.4c-9.307,14.7-28.617,24.365-22.116,43.643-6.807-.945-13.034-3.291-14.426-7.169a7.472,7.472,0,0,1,.078-4.562c4.725-17.375,28.089-26.33,34.1-46.474h8.221a45.858,45.858,0,0,1-5.856,14.563ZM164.5,113.168c-2.861-5.719-1.088-3.8-8.733-8.893,7.557-5.038,5.846-3.125,8.733-8.893l22.24,8.893Z" transform="translate(-9.778 -9.774)" fill="#ecb94b"/>
    </g>
  </g>
</svg>
