<svg xmlns="http://www.w3.org/2000/svg" xmlns:xlink="http://www.w3.org/1999/xlink" width="174.76" height="38" viewBox="0 0 174.76 38">
  <defs>
    <clipPath id="clip-path">
      <rect id="Rectangle_55" data-name="Rectangle 55" width="38" height="38" transform="translate(88.104 1216.104)" fill="#342d22"/>
    </clipPath>
  </defs>
  <g id="Group_179" data-name="Group 179" transform="translate(-25 -12)">
    <path id="Path_411" data-name="Path 411" d="M19.893,15.352,25.752,1.846a1.925,1.925,0,0,0-.9-1.406A3.167,3.167,0,0,0,24.033,0h5.781a1.958,1.958,0,0,0-.674.332,2.062,2.062,0,0,0-.859,1.406L19.971,20v-.176L19.893,20,14.932,9.287,9.971,20l-.078-.176V20L1.582,1.738A2.062,2.062,0,0,0,.723.332,1.958,1.958,0,0,0,.049,0H5.84a2.972,2.972,0,0,0-.82.439,1.887,1.887,0,0,0-.9,1.406l5.85,13.506,3.76-8.662,1.2-3.018,1.211,3.018Zm21.113-15L41.758,0l-.752,3.652a2.728,2.728,0,0,0-.322-1.084,1.854,1.854,0,0,0-1.768-1.094h-3.8v7.48H39.3a3.185,3.185,0,0,0,1.992-.664L40.8,12.207a2.179,2.179,0,0,0-.342-1.064,2.319,2.319,0,0,0-2.148-1.055H35.117V17.51a4.189,4.189,0,0,0,.918.84,4.429,4.429,0,0,0,2.588.84,3.528,3.528,0,0,0,2.607-1.318,5.762,5.762,0,0,0,.928-1.318L41.758,20H31.094a3.308,3.308,0,0,0,.85-.459,1.866,1.866,0,0,0,.859-1.514q0-1.387-.029-16.318A3.035,3.035,0,0,0,30.742.352ZM43.75,15.029a10.919,10.919,0,0,0-.3,3.535,2.731,2.731,0,0,0,.762.723A4.26,4.26,0,0,0,46.67,20a7.6,7.6,0,0,0,4.238-1.328,5.111,5.111,0,0,0,2.529-4.453,5.323,5.323,0,0,0-1.484-3.477,24.79,24.79,0,0,0-2.783-2.52Q45.752,5.41,45.752,3.457a2.2,2.2,0,0,1,.83-1.836,4.073,4.073,0,0,1,2.51-.664,2.837,2.837,0,0,1,2.4,1.24,3.446,3.446,0,0,1,.713,2.021L52.822.762a1.193,1.193,0,0,0-.645-.381A9.9,9.9,0,0,0,49.023,0a5.72,5.72,0,0,0-3.916,1.328,3.82,3.82,0,0,0-1.4,2.969,4.811,4.811,0,0,0,1.1,2.939A21.761,21.761,0,0,0,47.559,10a26.693,26.693,0,0,1,2.8,2.764,4.575,4.575,0,0,1,1.152,2.8,2.764,2.764,0,0,1-1.436,2.324,4.434,4.434,0,0,1-2.48.83,4.089,4.089,0,0,1-2.441-.762A3.376,3.376,0,0,1,43.75,15.029ZM69.141.352h-14.1L54.287,0l.752,3.652a2.819,2.819,0,0,1,.313-1.084,1.874,1.874,0,0,1,1.777-1.094H60.9l.01.234q.01,5.674.02,10.352v6.094a1.93,1.93,0,0,1-.889,1.406,3.167,3.167,0,0,1-.82.439h5.732a3.019,3.019,0,0,1-.811-.439,1.892,1.892,0,0,1-.889-1.406V12.061q.01-4.678.02-10.352V1.475h3.779a1.854,1.854,0,0,1,1.768,1.094,2.728,2.728,0,0,1,.322,1.084L69.893,0Zm12.568,0L82.461,0l-.752,3.652a2.728,2.728,0,0,0-.322-1.084,1.854,1.854,0,0,0-1.768-1.094h-3.8v7.48H80a3.185,3.185,0,0,0,1.992-.664L81.5,12.207a2.179,2.179,0,0,0-.342-1.064,2.319,2.319,0,0,0-2.148-1.055H75.82V17.51a4.189,4.189,0,0,0,.918.84,4.429,4.429,0,0,0,2.588.84,3.528,3.528,0,0,0,2.607-1.318,5.762,5.762,0,0,0,.928-1.318L82.461,20H71.8a3.308,3.308,0,0,0,.85-.459,1.866,1.866,0,0,0,.859-1.514q0-1.387-.029-16.318A3.035,3.035,0,0,0,71.445.352Zm6.279,9.717q.078-6.279.078-7.832,0-1.064.439-1.25A7.8,7.8,0,0,1,90.1.908a3.463,3.463,0,0,1,2.559,1.2,5.67,5.67,0,0,1,1.4,4.063A3.9,3.9,0,0,1,92.7,9.541a2.5,2.5,0,0,1-1.367.527Zm7.676,3.506a16.765,16.765,0,0,0-2.3-2.842,9.087,9.087,0,0,0,2.754-4A4.586,4.586,0,0,0,96.4,4.941q0-3.867-4.209-4.727a11.532,11.532,0,0,0-4.2-.088h-4a3.019,3.019,0,0,1,.811.439,1.892,1.892,0,0,1,.879,1.4v16.2a1.9,1.9,0,0,1-.879,1.406,3.163,3.163,0,0,1-.811.43h5.693a3.163,3.163,0,0,1-.811-.43,1.9,1.9,0,0,1-.879-1.406v-6.7a6.931,6.931,0,0,1,4.365,1.387,4.588,4.588,0,0,1,1.279,1.377,22.655,22.655,0,0,0,2.061,2.891Q98.1,20,99.775,20a5.731,5.731,0,0,0,2.52-.43,1.053,1.053,0,0,0,.518-.42q-1.895.391-4.18-1.836A24.988,24.988,0,0,1,95.664,13.574ZM110.459,1.4a7.6,7.6,0,0,1,3.691,2.412,9.962,9.962,0,0,1,2.031,6.592,9.174,9.174,0,0,1-2.031,6.387,6.722,6.722,0,0,1-3.691,2.061ZM101.182,10a9.45,9.45,0,0,1,1.992-6.357,7.411,7.411,0,0,1,3.662-2.285V18.691a7.412,7.412,0,0,1-3.662-2.314A9.528,9.528,0,0,1,101.182,10Zm7.891-8.906q.391.049.791.137V18.955q-.42.049-.791.059Zm-.986,17.871q-.313-.049-.654-.117V1.211q.322-.068.654-.107ZM109,.01a10.44,10.44,0,0,0-5.156,1.064q-5.166,2.432-5.166,9.258a8.77,8.77,0,0,0,3.682,7.549A11.049,11.049,0,0,0,109,20a9.634,9.634,0,0,0,6.318-2.432,8.948,8.948,0,0,0,3.35-7.168,10.089,10.089,0,0,0-3.252-7.568A9.153,9.153,0,0,0,109,.01Zm10.068,15.02a10.919,10.919,0,0,0-.3,3.535,2.731,2.731,0,0,0,.762.723,4.26,4.26,0,0,0,2.461.713,7.6,7.6,0,0,0,4.238-1.328,5.111,5.111,0,0,0,2.529-4.453,5.323,5.323,0,0,0-1.484-3.477,24.791,24.791,0,0,0-2.783-2.52q-3.418-2.812-3.418-4.766a2.2,2.2,0,0,1,.83-1.836,4.073,4.073,0,0,1,2.51-.664,2.837,2.837,0,0,1,2.4,1.24,3.446,3.446,0,0,1,.713,2.021l.615-3.457A1.193,1.193,0,0,0,127.5.381,9.9,9.9,0,0,0,124.346,0a5.72,5.72,0,0,0-3.916,1.328,3.82,3.82,0,0,0-1.4,2.969,4.811,4.811,0,0,0,1.1,2.939A21.761,21.761,0,0,0,122.881,10a26.693,26.693,0,0,1,2.8,2.764,4.575,4.575,0,0,1,1.152,2.8,2.764,2.764,0,0,1-1.436,2.324,4.434,4.434,0,0,1-2.48.83,4.089,4.089,0,0,1-2.441-.762A3.376,3.376,0,0,1,119.072,15.029Z" transform="translate(71 21)" fill="#342d22"/>
    <g id="Mask_Group_5" data-name="Mask Group 5" transform="translate(-63.104 -1204.104)" clip-path="url(#clip-path)">
      <path id="medieval" d="M37.581,32.529a1.789,1.789,0,0,0-2.033-.349l-4.373-4.373,2.1-2.1a1.786,1.786,0,0,0-2.526-2.526l-.842.842-4.936-4.936-.031-.028L37.087,6.911a.6.6,0,0,0,.168-.337L38.1.68a.6.6,0,0,0-.674-.674L31.53.848a.6.6,0,0,0-.337.168L19.052,13.158,6.911,1.017A.6.6,0,0,0,6.574.848L.68.006A.6.6,0,0,0,.006.68L.848,6.574a.6.6,0,0,0,.168.337L13.128,19.022l.031.028L8.193,24.018l-.842-.842A1.786,1.786,0,0,0,4.825,25.7l2.1,2.1L2.557,32.179A1.787,1.787,0,0,0,.524,35.055l2.526,2.526a1.787,1.787,0,0,0,2.876-2.033L10.3,31.175l2.1,2.1a1.786,1.786,0,0,0,2.526-2.526l-.842-.842,4.967-4.967c.009.011.018.021.028.031l4.936,4.936-.842.842A1.786,1.786,0,0,0,25.7,33.28l2.1-2.1,4.373,4.373a1.787,1.787,0,0,0,2.876,2.033l2.526-2.526a1.787,1.787,0,0,0,0-2.526Zm-13.447-12.6,4.936,4.936-1.684,1.684L22.45,21.608l-.031-.028,1.687-1.687C24.115,19.9,24.124,19.914,24.134,19.924ZM13.97,18.18,2,6.209,1.438,2.28,5.647,6.49a.6.6,0,1,0,.842-.842L2.28,1.438,6.209,2l12,12-1.685,1.685c-.009-.011-.018-.021-.028-.031L8.174,7.331a.6.6,0,0,0-.842.842L15.654,16.5l.031.028L14,18.211C13.99,18.2,13.981,18.19,13.97,18.18ZM4.733,36.738a.6.6,0,0,1-.842,0L1.366,34.212a.6.6,0,0,1,.842-.842L4.733,35.9a.6.6,0,0,1,0,.842Zm.421-2.105L3.471,32.95l4.3-4.3,1.684,1.684Zm8.932-2.2a.6.6,0,0,1-.842,0L5.667,24.86a.6.6,0,0,1,.842-.842l1.263,1.263L10.3,27.806h0l2.526,2.526L14.086,31.6A.6.6,0,0,1,14.086,32.437Zm-2.526-5.052L30.773,8.174a.6.6,0,0,0-.842-.842L10.718,26.543,9.035,24.86,31.9,2l3.928-.561L31.614,5.647a.6.6,0,0,0,.842.842L36.666,2.28,36.1,6.209,13.244,29.069Zm8.363-3.252-.031-.028,1.687-1.687c.009.011.018.021.028.031l4.936,4.936L24.86,29.069Zm4.936,8.3a.6.6,0,1,1-.842-.842l1.263-1.263,2.526-2.526h0l2.526-2.526L31.6,24.018a.6.6,0,0,1,.842.842Zm5.473-3.788,4.3,4.3L32.95,34.633l-4.3-4.3Zm6.406,5.564-2.526,2.526a.6.6,0,0,1-.842-.842L35.9,33.371a.6.6,0,0,1,.842.842Z" transform="translate(88 1216)" fill="#342d22"/>
    </g>
  </g>
</svg>
