<svg xmlns="http://www.w3.org/2000/svg" xmlns:xlink="http://www.w3.org/1999/xlink" width="218" height="38" viewBox="0 0 218 38">
  <defs>
    <clipPath id="clip-path">
      <rect id="Rectangle_55" data-name="Rectangle 55" width="38" height="38" transform="translate(88.104 1216.104)" fill="#342d22"/>
    </clipPath>
  </defs>
  <g id="Group_179" data-name="Group 179" transform="translate(-25 -12)">
    <text id="Westeros" transform="translate(71 21)" fill="#342d22" font-size="20" font-family="GameofThrones, Game of Thrones"><tspan x="0" y="20">Westeros</tspan></text>
    <g id="Mask_Group_5" data-name="Mask Group 5" transform="translate(-63.104 -1204.104)" clip-path="url(#clip-path)">
      <path id="medieval" d="M37.581,32.529a1.789,1.789,0,0,0-2.033-.349l-4.373-4.373,2.1-2.1a1.786,1.786,0,0,0-2.526-2.526l-.842.842-4.936-4.936-.031-.028L37.087,6.911a.6.6,0,0,0,.168-.337L38.1.68a.6.6,0,0,0-.674-.674L31.53.848a.6.6,0,0,0-.337.168L19.052,13.158,6.911,1.017A.6.6,0,0,0,6.574.848L.68.006A.6.6,0,0,0,.006.68L.848,6.574a.6.6,0,0,0,.168.337L13.128,19.022l.031.028L8.193,24.018l-.842-.842A1.786,1.786,0,0,0,4.825,25.7l2.1,2.1L2.557,32.179A1.787,1.787,0,0,0,.524,35.055l2.526,2.526a1.787,1.787,0,0,0,2.876-2.033L10.3,31.175l2.1,2.1a1.786,1.786,0,0,0,2.526-2.526l-.842-.842,4.967-4.967c.009.011.018.021.028.031l4.936,4.936-.842.842A1.786,1.786,0,0,0,25.7,33.28l2.1-2.1,4.373,4.373a1.787,1.787,0,0,0,2.876,2.033l2.526-2.526a1.787,1.787,0,0,0,0-2.526Zm-13.447-12.6,4.936,4.936-1.684,1.684L22.45,21.608l-.031-.028,1.687-1.687C24.115,19.9,24.124,19.914,24.134,19.924ZM13.97,18.18,2,6.209,1.438,2.28,5.647,6.49a.6.6,0,1,0,.842-.842L2.28,1.438,6.209,2l12,12-1.685,1.685c-.009-.011-.018-.021-.028-.031L8.174,7.331a.6.6,0,0,0-.842.842L15.654,16.5l.031.028L14,18.211C13.99,18.2,13.981,18.19,13.97,18.18ZM4.733,36.738a.6.6,0,0,1-.842,0L1.366,34.212a.6.6,0,0,1,.842-.842L4.733,35.9a.6.6,0,0,1,0,.842Zm.421-2.105L3.471,32.95l4.3-4.3,1.684,1.684Zm8.932-2.2a.6.6,0,0,1-.842,0L5.667,24.86a.6.6,0,0,1,.842-.842l1.263,1.263L10.3,27.806h0l2.526,2.526L14.086,31.6A.6.6,0,0,1,14.086,32.437Zm-2.526-5.052L30.773,8.174a.6.6,0,0,0-.842-.842L10.718,26.543,9.035,24.86,31.9,2l3.928-.561L31.614,5.647a.6.6,0,0,0,.842.842L36.666,2.28,36.1,6.209,13.244,29.069Zm8.363-3.252-.031-.028,1.687-1.687c.009.011.018.021.028.031l4.936,4.936L24.86,29.069Zm4.936,8.3a.6.6,0,1,1-.842-.842l1.263-1.263,2.526-2.526h0l2.526-2.526L31.6,24.018a.6.6,0,0,1,.842.842Zm5.473-3.788,4.3,4.3L32.95,34.633l-4.3-4.3Zm6.406,5.564-2.526,2.526a.6.6,0,0,1-.842-.842L35.9,33.371a.6.6,0,0,1,.842.842Z" transform="translate(88 1216)" fill="#342d22"/>
    </g>
  </g>
</svg>
