<svg xmlns="http://www.w3.org/2000/svg" width="708.374" height="193.585" viewBox="0 0 708.374 193.585">
  <g id="Group_174" data-name="Group 174" transform="translate(-130.395 -2167.524)">
    <path id="Path_294" data-name="Path 294" d="M18.086,6.314a2,2,0,0,1,3.828,0L26.18,20.387a2,2,0,0,0,.386.71l9.572,11.331a2,2,0,0,1-1.973,3.24l-13.72-3.131a2,2,0,0,0-.89,0l-174.743,88.57c-1.872.427-2.335-.594-1.1-2.061L13.434,21.1a2,2,0,0,0,.386-.71Z" transform="matrix(0.883, 0.469, -0.469, 0.883, 325.899, 2236.899)" fill="#fff"/>
    <path id="Path_295" data-name="Path 295" d="M175.062,114.893a2,2,0,0,0,3.828,0l4.266-14.073a2,2,0,0,1,.386-.71l9.572-11.331a2,2,0,0,0-1.973-3.24l-13.72,3.131a2,2,0,0,1-.89,0L1.787.1C-.085-.329-.548.692.691,2.159l169.718,97.95a2,2,0,0,1,.386.71Z" transform="matrix(-0.883, 0.469, -0.469, -0.883, 838.769, 2270.222)" fill="#fff"/>
  </g>
</svg>
