<svg xmlns="http://www.w3.org/2000/svg" width="960" height="606.399" viewBox="0 0 960 606.399">
  <g id="Group_158" data-name="Group 158" transform="translate(-0.126 -2059.412)">
    <rect id="Rectangle_64" data-name="Rectangle 64" width="960" height="415.223" transform="translate(0.126 2155.303)" fill="#342d22"/>
    <g id="Layer_1-2" transform="translate(34.895 2059.412)">
      <path id="Path_1" data-name="Path 1" d="M45.442,38.317s1.369-14.235-3.161-16.695-5.836.533-5.836.533S32,12.364,43.587,12.794c0,0-1.592-9.713,8.439-12.794,0,0,10.907,3.192,8.495,12.746,0,0,10.907-1.592,7.285,9.116,0,0-7.507-4.02-8.718,6.194a56.909,56.909,0,0,0-.175,5.852c.056,3.5,0,4.411,0,4.411Z" transform="translate(-7.26 0)" fill="#342d22"/>
      <path id="Path_2" data-name="Path 2" d="M45.442,104.46s1.369,14.235-3.161,16.695-5.836-.533-5.836-.533-4.442,9.792,7.141,9.362c0,0-1.592,9.713,8.439,12.794,0,0,10.907-3.192,8.495-12.746,0,0,10.907,1.592,7.285-9.116,0,0-7.507,4.02-8.718-6.194a56.909,56.909,0,0,1-.175-5.852c.056-3.5,0-4.411,0-4.411H45.442Z" transform="translate(-7.26 -21.297)" fill="#342d22"/>
      <path id="Path_3" data-name="Path 3" d="M63.55,44.552s14.235,1.369,16.695-3.161-.533-5.836-.533-5.836S89.5,31.113,89.074,42.7c0,0,9.713-1.592,12.794,8.439,0,0-3.192,10.907-12.746,8.495,0,0,1.592,10.907-9.116,7.285,0,0,4.02-7.507-6.194-8.718a56.909,56.909,0,0,0-5.852-.175c-3.5.056-4.411,0-4.411,0V44.552Z" transform="translate(-12.956 -7.078)" fill="#342d22"/>
      <path id="Path_4" data-name="Path 4" d="M38.317,44.552s-14.235,1.369-16.695-3.161.533-5.836.533-5.836-9.792-4.442-9.362,7.141c0,0-9.713-1.592-12.794,8.439,0,0,3.192,10.907,12.746,8.495,0,0-1.592,10.907,9.116,7.285,0,0-4.02-7.507,6.194-8.718a56.909,56.909,0,0,1,5.852-.175c3.5.056,4.411,0,4.411,0Z" transform="translate(0 -7.078)" fill="#342d22"/>
      <rect id="Rectangle_5" data-name="Rectangle 5" width="13.447" height="45.339" transform="translate(38.222 38.317)" fill="#342d22"/>
    </g>
    <g id="Layer_1-2-2" data-name="Layer_1-2" transform="translate(37.368 2544.331)">
      <path id="Path_1-2" data-name="Path 1" d="M45.442,0s1.369,14.235-3.161,16.695-5.836-.533-5.836-.533S32,25.954,43.587,25.524c0,0-1.592,9.713,8.439,12.794,0,0,10.907-3.192,8.495-12.746,0,0,10.907,1.592,7.285-9.116,0,0-7.507,4.02-8.718-6.194a56.909,56.909,0,0,1-.175-5.852c.056-3.5,0-4.411,0-4.411Z" transform="translate(-7.26 83.163)" fill="#342d22"/>
      <path id="Path_2-2" data-name="Path 2" d="M45.442,142.777s1.369-14.235-3.161-16.695-5.836.533-5.836.533-4.442-9.792,7.141-9.362c0,0-1.592-9.713,8.439-12.794,0,0,10.907,3.192,8.495,12.746,0,0,10.907-1.592,7.285,9.116,0,0-7.507-4.02-8.718,6.194a56.909,56.909,0,0,0-.175,5.852c.056,3.5,0,4.411,0,4.411Z" transform="translate(-7.26 -104.46)" fill="#342d22"/>
      <path id="Path_3-2" data-name="Path 3" d="M63.55,57.819s14.235-1.369,16.695,3.161-.533,5.836-.533,5.836,9.792,4.442,9.362-7.141c0,0,9.713,1.592,12.794-8.439,0,0-3.192-10.907-12.746-8.495,0,0,1.592-10.907-9.116-7.285,0,0,4.02,7.507-6.194,8.718a56.909,56.909,0,0,1-5.852.175c-3.5-.056-4.411,0-4.411,0v13.47Z" transform="translate(-12.956 26.188)" fill="#342d22"/>
      <path id="Path_4-2" data-name="Path 4" d="M38.317,57.819s-14.235-1.369-16.695,3.161.533,5.836.533,5.836-9.792,4.442-9.362-7.141c0,0-9.713,1.592-12.794-8.439,0,0,3.192-10.907,12.746-8.495,0,0-1.592-10.907,9.116-7.285,0,0-4.02,7.507,6.194,8.718a56.909,56.909,0,0,0,5.852.175c3.5-.056,4.411,0,4.411,0Z" transform="translate(0 26.188)" fill="#342d22"/>
      <rect id="Rectangle_5-2" data-name="Rectangle 5" width="13.447" height="45.339" transform="translate(38.222 37.824)" fill="#342d22"/>
    </g>
    <g id="Layer_1-2-3" data-name="Layer_1-2" transform="translate(149.895 2059.412)">
      <path id="Path_1-3" data-name="Path 1" d="M45.442,38.317s1.369-14.235-3.161-16.695-5.836.533-5.836.533S32,12.364,43.587,12.794c0,0-1.592-9.713,8.439-12.794,0,0,10.907,3.192,8.495,12.746,0,0,10.907-1.592,7.285,9.116,0,0-7.507-4.02-8.718,6.194a56.909,56.909,0,0,0-.175,5.852c.056,3.5,0,4.411,0,4.411Z" transform="translate(-7.26 0)" fill="#342d22"/>
      <path id="Path_2-3" data-name="Path 2" d="M45.442,104.46s1.369,14.235-3.161,16.695-5.836-.533-5.836-.533-4.442,9.792,7.141,9.362c0,0-1.592,9.713,8.439,12.794,0,0,10.907-3.192,8.495-12.746,0,0,10.907,1.592,7.285-9.116,0,0-7.507,4.02-8.718-6.194a56.909,56.909,0,0,1-.175-5.852c.056-3.5,0-4.411,0-4.411H45.442Z" transform="translate(-7.26 -21.297)" fill="#342d22"/>
      <path id="Path_3-3" data-name="Path 3" d="M63.55,44.552s14.235,1.369,16.695-3.161-.533-5.836-.533-5.836S89.5,31.113,89.074,42.7c0,0,9.713-1.592,12.794,8.439,0,0-3.192,10.907-12.746,8.495,0,0,1.592,10.907-9.116,7.285,0,0,4.02-7.507-6.194-8.718a56.909,56.909,0,0,0-5.852-.175c-3.5.056-4.411,0-4.411,0V44.552Z" transform="translate(-12.956 -7.078)" fill="#342d22"/>
      <path id="Path_4-3" data-name="Path 4" d="M38.317,44.552s-14.235,1.369-16.695-3.161.533-5.836.533-5.836-9.792-4.442-9.362,7.141c0,0-9.713-1.592-12.794,8.439,0,0,3.192,10.907,12.746,8.495,0,0-1.592,10.907,9.116,7.285,0,0-4.02-7.507,6.194-8.718a56.909,56.909,0,0,1,5.852-.175c3.5.056,4.411,0,4.411,0Z" transform="translate(0 -7.078)" fill="#342d22"/>
      <rect id="Rectangle_5-3" data-name="Rectangle 5" width="13.447" height="45.339" transform="translate(38.222 38.317)" fill="#342d22"/>
    </g>
    <g id="Layer_1-2-4" data-name="Layer_1-2" transform="translate(152.368 2544.331)">
      <path id="Path_1-4" data-name="Path 1" d="M45.442,0s1.369,14.235-3.161,16.695-5.836-.533-5.836-.533S32,25.954,43.587,25.524c0,0-1.592,9.713,8.439,12.794,0,0,10.907-3.192,8.495-12.746,0,0,10.907,1.592,7.285-9.116,0,0-7.507,4.02-8.718-6.194a56.909,56.909,0,0,1-.175-5.852c.056-3.5,0-4.411,0-4.411Z" transform="translate(-7.26 83.163)" fill="#342d22"/>
      <path id="Path_2-4" data-name="Path 2" d="M45.442,142.777s1.369-14.235-3.161-16.695-5.836.533-5.836.533-4.442-9.792,7.141-9.362c0,0-1.592-9.713,8.439-12.794,0,0,10.907,3.192,8.495,12.746,0,0,10.907-1.592,7.285,9.116,0,0-7.507-4.02-8.718,6.194a56.909,56.909,0,0,0-.175,5.852c.056,3.5,0,4.411,0,4.411Z" transform="translate(-7.26 -104.46)" fill="#342d22"/>
      <path id="Path_3-4" data-name="Path 3" d="M63.55,57.819s14.235-1.369,16.695,3.161-.533,5.836-.533,5.836,9.792,4.442,9.362-7.141c0,0,9.713,1.592,12.794-8.439,0,0-3.192-10.907-12.746-8.495,0,0,1.592-10.907-9.116-7.285,0,0,4.02,7.507-6.194,8.718a56.909,56.909,0,0,1-5.852.175c-3.5-.056-4.411,0-4.411,0v13.47Z" transform="translate(-12.956 26.188)" fill="#342d22"/>
      <path id="Path_4-4" data-name="Path 4" d="M38.317,57.819s-14.235-1.369-16.695,3.161.533,5.836.533,5.836-9.792,4.442-9.362-7.141c0,0-9.713,1.592-12.794-8.439,0,0,3.192-10.907,12.746-8.495,0,0-1.592-10.907,9.116-7.285,0,0-4.02,7.507,6.194,8.718a56.909,56.909,0,0,0,5.852.175c3.5-.056,4.411,0,4.411,0Z" transform="translate(0 26.188)" fill="#342d22"/>
      <rect id="Rectangle_5-4" data-name="Rectangle 5" width="13.447" height="45.339" transform="translate(38.222 37.824)" fill="#342d22"/>
    </g>
    <g id="Layer_1-2-5" data-name="Layer_1-2" transform="translate(264.895 2059.412)">
      <path id="Path_1-5" data-name="Path 1" d="M45.442,38.317s1.369-14.235-3.161-16.695-5.836.533-5.836.533S32,12.364,43.587,12.794c0,0-1.592-9.713,8.439-12.794,0,0,10.907,3.192,8.495,12.746,0,0,10.907-1.592,7.285,9.116,0,0-7.507-4.02-8.718,6.194a56.909,56.909,0,0,0-.175,5.852c.056,3.5,0,4.411,0,4.411Z" transform="translate(-7.26 0)" fill="#342d22"/>
      <path id="Path_2-5" data-name="Path 2" d="M45.442,104.46s1.369,14.235-3.161,16.695-5.836-.533-5.836-.533-4.442,9.792,7.141,9.362c0,0-1.592,9.713,8.439,12.794,0,0,10.907-3.192,8.495-12.746,0,0,10.907,1.592,7.285-9.116,0,0-7.507,4.02-8.718-6.194a56.909,56.909,0,0,1-.175-5.852c.056-3.5,0-4.411,0-4.411H45.442Z" transform="translate(-7.26 -21.297)" fill="#342d22"/>
      <path id="Path_3-5" data-name="Path 3" d="M63.55,44.552s14.235,1.369,16.695-3.161-.533-5.836-.533-5.836S89.5,31.113,89.074,42.7c0,0,9.713-1.592,12.794,8.439,0,0-3.192,10.907-12.746,8.495,0,0,1.592,10.907-9.116,7.285,0,0,4.02-7.507-6.194-8.718a56.909,56.909,0,0,0-5.852-.175c-3.5.056-4.411,0-4.411,0V44.552Z" transform="translate(-12.956 -7.078)" fill="#342d22"/>
      <path id="Path_4-5" data-name="Path 4" d="M38.317,44.552s-14.235,1.369-16.695-3.161.533-5.836.533-5.836-9.792-4.442-9.362,7.141c0,0-9.713-1.592-12.794,8.439,0,0,3.192,10.907,12.746,8.495,0,0-1.592,10.907,9.116,7.285,0,0-4.02-7.507,6.194-8.718a56.909,56.909,0,0,1,5.852-.175c3.5.056,4.411,0,4.411,0Z" transform="translate(0 -7.078)" fill="#342d22"/>
      <rect id="Rectangle_5-5" data-name="Rectangle 5" width="13.447" height="45.339" transform="translate(38.222 38.317)" fill="#342d22"/>
    </g>
    <g id="Layer_1-2-6" data-name="Layer_1-2" transform="translate(267.368 2544.331)">
      <path id="Path_1-6" data-name="Path 1" d="M45.442,0s1.369,14.235-3.161,16.695-5.836-.533-5.836-.533S32,25.954,43.587,25.524c0,0-1.592,9.713,8.439,12.794,0,0,10.907-3.192,8.495-12.746,0,0,10.907,1.592,7.285-9.116,0,0-7.507,4.02-8.718-6.194a56.909,56.909,0,0,1-.175-5.852c.056-3.5,0-4.411,0-4.411Z" transform="translate(-7.26 83.163)" fill="#342d22"/>
      <path id="Path_2-6" data-name="Path 2" d="M45.442,142.777s1.369-14.235-3.161-16.695-5.836.533-5.836.533-4.442-9.792,7.141-9.362c0,0-1.592-9.713,8.439-12.794,0,0,10.907,3.192,8.495,12.746,0,0,10.907-1.592,7.285,9.116,0,0-7.507-4.02-8.718,6.194a56.909,56.909,0,0,0-.175,5.852c.056,3.5,0,4.411,0,4.411Z" transform="translate(-7.26 -104.46)" fill="#342d22"/>
      <path id="Path_3-6" data-name="Path 3" d="M63.55,57.819s14.235-1.369,16.695,3.161-.533,5.836-.533,5.836,9.792,4.442,9.362-7.141c0,0,9.713,1.592,12.794-8.439,0,0-3.192-10.907-12.746-8.495,0,0,1.592-10.907-9.116-7.285,0,0,4.02,7.507-6.194,8.718a56.909,56.909,0,0,1-5.852.175c-3.5-.056-4.411,0-4.411,0v13.47Z" transform="translate(-12.956 26.188)" fill="#342d22"/>
      <path id="Path_4-6" data-name="Path 4" d="M38.317,57.819s-14.235-1.369-16.695,3.161.533,5.836.533,5.836-9.792,4.442-9.362-7.141c0,0-9.713,1.592-12.794-8.439,0,0,3.192-10.907,12.746-8.495,0,0-1.592-10.907,9.116-7.285,0,0-4.02,7.507,6.194,8.718a56.909,56.909,0,0,0,5.852.175c3.5-.056,4.411,0,4.411,0Z" transform="translate(0 26.188)" fill="#342d22"/>
      <rect id="Rectangle_5-6" data-name="Rectangle 5" width="13.447" height="45.339" transform="translate(38.222 37.824)" fill="#342d22"/>
    </g>
    <g id="Layer_1-2-7" data-name="Layer_1-2" transform="translate(379.895 2059.412)">
      <path id="Path_1-7" data-name="Path 1" d="M45.442,38.317s1.369-14.235-3.161-16.695-5.836.533-5.836.533S32,12.364,43.587,12.794c0,0-1.592-9.713,8.439-12.794,0,0,10.907,3.192,8.495,12.746,0,0,10.907-1.592,7.285,9.116,0,0-7.507-4.02-8.718,6.194a56.909,56.909,0,0,0-.175,5.852c.056,3.5,0,4.411,0,4.411Z" transform="translate(-7.26 0)" fill="#342d22"/>
      <path id="Path_2-7" data-name="Path 2" d="M45.442,104.46s1.369,14.235-3.161,16.695-5.836-.533-5.836-.533-4.442,9.792,7.141,9.362c0,0-1.592,9.713,8.439,12.794,0,0,10.907-3.192,8.495-12.746,0,0,10.907,1.592,7.285-9.116,0,0-7.507,4.02-8.718-6.194a56.909,56.909,0,0,1-.175-5.852c.056-3.5,0-4.411,0-4.411H45.442Z" transform="translate(-7.26 -21.297)" fill="#342d22"/>
      <path id="Path_3-7" data-name="Path 3" d="M63.55,44.552s14.235,1.369,16.695-3.161-.533-5.836-.533-5.836S89.5,31.113,89.074,42.7c0,0,9.713-1.592,12.794,8.439,0,0-3.192,10.907-12.746,8.495,0,0,1.592,10.907-9.116,7.285,0,0,4.02-7.507-6.194-8.718a56.909,56.909,0,0,0-5.852-.175c-3.5.056-4.411,0-4.411,0V44.552Z" transform="translate(-12.956 -7.078)" fill="#342d22"/>
      <path id="Path_4-7" data-name="Path 4" d="M38.317,44.552s-14.235,1.369-16.695-3.161.533-5.836.533-5.836-9.792-4.442-9.362,7.141c0,0-9.713-1.592-12.794,8.439,0,0,3.192,10.907,12.746,8.495,0,0-1.592,10.907,9.116,7.285,0,0-4.02-7.507,6.194-8.718a56.909,56.909,0,0,1,5.852-.175c3.5.056,4.411,0,4.411,0Z" transform="translate(0 -7.078)" fill="#342d22"/>
      <rect id="Rectangle_5-7" data-name="Rectangle 5" width="13.447" height="45.339" transform="translate(38.222 38.317)" fill="#342d22"/>
    </g>
    <g id="Layer_1-2-8" data-name="Layer_1-2" transform="translate(382.368 2544.331)">
      <path id="Path_1-8" data-name="Path 1" d="M45.442,0s1.369,14.235-3.161,16.695-5.836-.533-5.836-.533S32,25.954,43.587,25.524c0,0-1.592,9.713,8.439,12.794,0,0,10.907-3.192,8.495-12.746,0,0,10.907,1.592,7.285-9.116,0,0-7.507,4.02-8.718-6.194a56.909,56.909,0,0,1-.175-5.852c.056-3.5,0-4.411,0-4.411Z" transform="translate(-7.26 83.163)" fill="#342d22"/>
      <path id="Path_2-8" data-name="Path 2" d="M45.442,142.777s1.369-14.235-3.161-16.695-5.836.533-5.836.533-4.442-9.792,7.141-9.362c0,0-1.592-9.713,8.439-12.794,0,0,10.907,3.192,8.495,12.746,0,0,10.907-1.592,7.285,9.116,0,0-7.507-4.02-8.718,6.194a56.909,56.909,0,0,0-.175,5.852c.056,3.5,0,4.411,0,4.411Z" transform="translate(-7.26 -104.46)" fill="#342d22"/>
      <path id="Path_3-8" data-name="Path 3" d="M63.55,57.819s14.235-1.369,16.695,3.161-.533,5.836-.533,5.836,9.792,4.442,9.362-7.141c0,0,9.713,1.592,12.794-8.439,0,0-3.192-10.907-12.746-8.495,0,0,1.592-10.907-9.116-7.285,0,0,4.02,7.507-6.194,8.718a56.909,56.909,0,0,1-5.852.175c-3.5-.056-4.411,0-4.411,0v13.47Z" transform="translate(-12.956 26.188)" fill="#342d22"/>
      <path id="Path_4-8" data-name="Path 4" d="M38.317,57.819s-14.235-1.369-16.695,3.161.533,5.836.533,5.836-9.792,4.442-9.362-7.141c0,0-9.713,1.592-12.794-8.439,0,0,3.192-10.907,12.746-8.495,0,0-1.592-10.907,9.116-7.285,0,0-4.02,7.507,6.194,8.718a56.909,56.909,0,0,0,5.852.175c3.5-.056,4.411,0,4.411,0Z" transform="translate(0 26.188)" fill="#342d22"/>
      <rect id="Rectangle_5-8" data-name="Rectangle 5" width="13.447" height="45.339" transform="translate(38.222 37.824)" fill="#342d22"/>
    </g>
    <g id="Layer_1-2-9" data-name="Layer_1-2" transform="translate(494.895 2059.412)">
      <path id="Path_1-9" data-name="Path 1" d="M45.442,38.317s1.369-14.235-3.161-16.695-5.836.533-5.836.533S32,12.364,43.587,12.794c0,0-1.592-9.713,8.439-12.794,0,0,10.907,3.192,8.495,12.746,0,0,10.907-1.592,7.285,9.116,0,0-7.507-4.02-8.718,6.194a56.909,56.909,0,0,0-.175,5.852c.056,3.5,0,4.411,0,4.411Z" transform="translate(-7.26 0)" fill="#342d22"/>
      <path id="Path_2-9" data-name="Path 2" d="M45.442,104.46s1.369,14.235-3.161,16.695-5.836-.533-5.836-.533-4.442,9.792,7.141,9.362c0,0-1.592,9.713,8.439,12.794,0,0,10.907-3.192,8.495-12.746,0,0,10.907,1.592,7.285-9.116,0,0-7.507,4.02-8.718-6.194a56.909,56.909,0,0,1-.175-5.852c.056-3.5,0-4.411,0-4.411H45.442Z" transform="translate(-7.26 -21.297)" fill="#342d22"/>
      <path id="Path_3-9" data-name="Path 3" d="M63.55,44.552s14.235,1.369,16.695-3.161-.533-5.836-.533-5.836S89.5,31.113,89.074,42.7c0,0,9.713-1.592,12.794,8.439,0,0-3.192,10.907-12.746,8.495,0,0,1.592,10.907-9.116,7.285,0,0,4.02-7.507-6.194-8.718a56.909,56.909,0,0,0-5.852-.175c-3.5.056-4.411,0-4.411,0V44.552Z" transform="translate(-12.956 -7.078)" fill="#342d22"/>
      <path id="Path_4-9" data-name="Path 4" d="M38.317,44.552s-14.235,1.369-16.695-3.161.533-5.836.533-5.836-9.792-4.442-9.362,7.141c0,0-9.713-1.592-12.794,8.439,0,0,3.192,10.907,12.746,8.495,0,0-1.592,10.907,9.116,7.285,0,0-4.02-7.507,6.194-8.718a56.909,56.909,0,0,1,5.852-.175c3.5.056,4.411,0,4.411,0Z" transform="translate(0 -7.078)" fill="#342d22"/>
      <rect id="Rectangle_5-9" data-name="Rectangle 5" width="13.447" height="45.339" transform="translate(38.222 38.317)" fill="#342d22"/>
    </g>
    <g id="Layer_1-2-10" data-name="Layer_1-2" transform="translate(497.368 2544.331)">
      <path id="Path_1-10" data-name="Path 1" d="M45.442,0s1.369,14.235-3.161,16.695-5.836-.533-5.836-.533S32,25.954,43.587,25.524c0,0-1.592,9.713,8.439,12.794,0,0,10.907-3.192,8.495-12.746,0,0,10.907,1.592,7.285-9.116,0,0-7.507,4.02-8.718-6.194a56.909,56.909,0,0,1-.175-5.852c.056-3.5,0-4.411,0-4.411Z" transform="translate(-7.26 83.163)" fill="#342d22"/>
      <path id="Path_2-10" data-name="Path 2" d="M45.442,142.777s1.369-14.235-3.161-16.695-5.836.533-5.836.533-4.442-9.792,7.141-9.362c0,0-1.592-9.713,8.439-12.794,0,0,10.907,3.192,8.495,12.746,0,0,10.907-1.592,7.285,9.116,0,0-7.507-4.02-8.718,6.194a56.909,56.909,0,0,0-.175,5.852c.056,3.5,0,4.411,0,4.411Z" transform="translate(-7.26 -104.46)" fill="#342d22"/>
      <path id="Path_3-10" data-name="Path 3" d="M63.55,57.819s14.235-1.369,16.695,3.161-.533,5.836-.533,5.836,9.792,4.442,9.362-7.141c0,0,9.713,1.592,12.794-8.439,0,0-3.192-10.907-12.746-8.495,0,0,1.592-10.907-9.116-7.285,0,0,4.02,7.507-6.194,8.718a56.909,56.909,0,0,1-5.852.175c-3.5-.056-4.411,0-4.411,0v13.47Z" transform="translate(-12.956 26.188)" fill="#342d22"/>
      <path id="Path_4-10" data-name="Path 4" d="M38.317,57.819s-14.235-1.369-16.695,3.161.533,5.836.533,5.836-9.792,4.442-9.362-7.141c0,0-9.713,1.592-12.794-8.439,0,0,3.192-10.907,12.746-8.495,0,0-1.592-10.907,9.116-7.285,0,0-4.02,7.507,6.194,8.718a56.909,56.909,0,0,0,5.852.175c3.5-.056,4.411,0,4.411,0Z" transform="translate(0 26.188)" fill="#342d22"/>
      <rect id="Rectangle_5-10" data-name="Rectangle 5" width="13.447" height="45.339" transform="translate(38.222 37.824)" fill="#342d22"/>
    </g>
    <g id="Layer_1-2-11" data-name="Layer_1-2" transform="translate(609.895 2059.412)">
      <path id="Path_1-11" data-name="Path 1" d="M45.442,38.317s1.369-14.235-3.161-16.695-5.836.533-5.836.533S32,12.364,43.587,12.794c0,0-1.592-9.713,8.439-12.794,0,0,10.907,3.192,8.495,12.746,0,0,10.907-1.592,7.285,9.116,0,0-7.507-4.02-8.718,6.194a56.909,56.909,0,0,0-.175,5.852c.056,3.5,0,4.411,0,4.411Z" transform="translate(-7.26 0)" fill="#342d22"/>
      <path id="Path_2-11" data-name="Path 2" d="M45.442,104.46s1.369,14.235-3.161,16.695-5.836-.533-5.836-.533-4.442,9.792,7.141,9.362c0,0-1.592,9.713,8.439,12.794,0,0,10.907-3.192,8.495-12.746,0,0,10.907,1.592,7.285-9.116,0,0-7.507,4.02-8.718-6.194a56.909,56.909,0,0,1-.175-5.852c.056-3.5,0-4.411,0-4.411H45.442Z" transform="translate(-7.26 -21.297)" fill="#342d22"/>
      <path id="Path_3-11" data-name="Path 3" d="M63.55,44.552s14.235,1.369,16.695-3.161-.533-5.836-.533-5.836S89.5,31.113,89.074,42.7c0,0,9.713-1.592,12.794,8.439,0,0-3.192,10.907-12.746,8.495,0,0,1.592,10.907-9.116,7.285,0,0,4.02-7.507-6.194-8.718a56.909,56.909,0,0,0-5.852-.175c-3.5.056-4.411,0-4.411,0V44.552Z" transform="translate(-12.956 -7.078)" fill="#342d22"/>
      <path id="Path_4-11" data-name="Path 4" d="M38.317,44.552s-14.235,1.369-16.695-3.161.533-5.836.533-5.836-9.792-4.442-9.362,7.141c0,0-9.713-1.592-12.794,8.439,0,0,3.192,10.907,12.746,8.495,0,0-1.592,10.907,9.116,7.285,0,0-4.02-7.507,6.194-8.718a56.909,56.909,0,0,1,5.852-.175c3.5.056,4.411,0,4.411,0Z" transform="translate(0 -7.078)" fill="#342d22"/>
      <rect id="Rectangle_5-11" data-name="Rectangle 5" width="13.447" height="45.339" transform="translate(38.222 38.317)" fill="#342d22"/>
    </g>
    <g id="Layer_1-2-12" data-name="Layer_1-2" transform="translate(612.368 2544.331)">
      <path id="Path_1-12" data-name="Path 1" d="M45.442,0s1.369,14.235-3.161,16.695-5.836-.533-5.836-.533S32,25.954,43.587,25.524c0,0-1.592,9.713,8.439,12.794,0,0,10.907-3.192,8.495-12.746,0,0,10.907,1.592,7.285-9.116,0,0-7.507,4.02-8.718-6.194a56.909,56.909,0,0,1-.175-5.852c.056-3.5,0-4.411,0-4.411Z" transform="translate(-7.26 83.163)" fill="#342d22"/>
      <path id="Path_2-12" data-name="Path 2" d="M45.442,142.777s1.369-14.235-3.161-16.695-5.836.533-5.836.533-4.442-9.792,7.141-9.362c0,0-1.592-9.713,8.439-12.794,0,0,10.907,3.192,8.495,12.746,0,0,10.907-1.592,7.285,9.116,0,0-7.507-4.02-8.718,6.194a56.909,56.909,0,0,0-.175,5.852c.056,3.5,0,4.411,0,4.411Z" transform="translate(-7.26 -104.46)" fill="#342d22"/>
      <path id="Path_3-12" data-name="Path 3" d="M63.55,57.819s14.235-1.369,16.695,3.161-.533,5.836-.533,5.836,9.792,4.442,9.362-7.141c0,0,9.713,1.592,12.794-8.439,0,0-3.192-10.907-12.746-8.495,0,0,1.592-10.907-9.116-7.285,0,0,4.02,7.507-6.194,8.718a56.909,56.909,0,0,1-5.852.175c-3.5-.056-4.411,0-4.411,0v13.47Z" transform="translate(-12.956 26.188)" fill="#342d22"/>
      <path id="Path_4-12" data-name="Path 4" d="M38.317,57.819s-14.235-1.369-16.695,3.161.533,5.836.533,5.836-9.792,4.442-9.362-7.141c0,0-9.713,1.592-12.794-8.439,0,0,3.192-10.907,12.746-8.495,0,0-1.592-10.907,9.116-7.285,0,0-4.02,7.507,6.194,8.718a56.909,56.909,0,0,0,5.852.175c3.5-.056,4.411,0,4.411,0Z" transform="translate(0 26.188)" fill="#342d22"/>
      <rect id="Rectangle_5-12" data-name="Rectangle 5" width="13.447" height="45.339" transform="translate(38.222 37.824)" fill="#342d22"/>
    </g>
    <g id="Layer_1-2-13" data-name="Layer_1-2" transform="translate(724.895 2059.412)">
      <path id="Path_1-13" data-name="Path 1" d="M45.442,38.317s1.369-14.235-3.161-16.695-5.836.533-5.836.533S32,12.364,43.587,12.794c0,0-1.592-9.713,8.439-12.794,0,0,10.907,3.192,8.495,12.746,0,0,10.907-1.592,7.285,9.116,0,0-7.507-4.02-8.718,6.194a56.909,56.909,0,0,0-.175,5.852c.056,3.5,0,4.411,0,4.411Z" transform="translate(-7.26 0)" fill="#342d22"/>
      <path id="Path_2-13" data-name="Path 2" d="M45.442,104.46s1.369,14.235-3.161,16.695-5.836-.533-5.836-.533-4.442,9.792,7.141,9.362c0,0-1.592,9.713,8.439,12.794,0,0,10.907-3.192,8.495-12.746,0,0,10.907,1.592,7.285-9.116,0,0-7.507,4.02-8.718-6.194a56.909,56.909,0,0,1-.175-5.852c.056-3.5,0-4.411,0-4.411H45.442Z" transform="translate(-7.26 -21.297)" fill="#342d22"/>
      <path id="Path_3-13" data-name="Path 3" d="M63.55,44.552s14.235,1.369,16.695-3.161-.533-5.836-.533-5.836S89.5,31.113,89.074,42.7c0,0,9.713-1.592,12.794,8.439,0,0-3.192,10.907-12.746,8.495,0,0,1.592,10.907-9.116,7.285,0,0,4.02-7.507-6.194-8.718a56.909,56.909,0,0,0-5.852-.175c-3.5.056-4.411,0-4.411,0V44.552Z" transform="translate(-12.956 -7.078)" fill="#342d22"/>
      <path id="Path_4-13" data-name="Path 4" d="M38.317,44.552s-14.235,1.369-16.695-3.161.533-5.836.533-5.836-9.792-4.442-9.362,7.141c0,0-9.713-1.592-12.794,8.439,0,0,3.192,10.907,12.746,8.495,0,0-1.592,10.907,9.116,7.285,0,0-4.02-7.507,6.194-8.718a56.909,56.909,0,0,1,5.852-.175c3.5.056,4.411,0,4.411,0Z" transform="translate(0 -7.078)" fill="#342d22"/>
      <rect id="Rectangle_5-13" data-name="Rectangle 5" width="13.447" height="45.339" transform="translate(38.222 38.317)" fill="#342d22"/>
    </g>
    <g id="Layer_1-2-14" data-name="Layer_1-2" transform="translate(727.368 2544.331)">
      <path id="Path_1-14" data-name="Path 1" d="M45.442,0s1.369,14.235-3.161,16.695-5.836-.533-5.836-.533S32,25.954,43.587,25.524c0,0-1.592,9.713,8.439,12.794,0,0,10.907-3.192,8.495-12.746,0,0,10.907,1.592,7.285-9.116,0,0-7.507,4.02-8.718-6.194a56.909,56.909,0,0,1-.175-5.852c.056-3.5,0-4.411,0-4.411Z" transform="translate(-7.26 83.163)" fill="#342d22"/>
      <path id="Path_2-14" data-name="Path 2" d="M45.442,142.777s1.369-14.235-3.161-16.695-5.836.533-5.836.533-4.442-9.792,7.141-9.362c0,0-1.592-9.713,8.439-12.794,0,0,10.907,3.192,8.495,12.746,0,0,10.907-1.592,7.285,9.116,0,0-7.507-4.02-8.718,6.194a56.909,56.909,0,0,0-.175,5.852c.056,3.5,0,4.411,0,4.411Z" transform="translate(-7.26 -104.46)" fill="#342d22"/>
      <path id="Path_3-14" data-name="Path 3" d="M63.55,57.819s14.235-1.369,16.695,3.161-.533,5.836-.533,5.836,9.792,4.442,9.362-7.141c0,0,9.713,1.592,12.794-8.439,0,0-3.192-10.907-12.746-8.495,0,0,1.592-10.907-9.116-7.285,0,0,4.02,7.507-6.194,8.718a56.909,56.909,0,0,1-5.852.175c-3.5-.056-4.411,0-4.411,0v13.47Z" transform="translate(-12.956 26.188)" fill="#342d22"/>
      <path id="Path_4-14" data-name="Path 4" d="M38.317,57.819s-14.235-1.369-16.695,3.161.533,5.836.533,5.836-9.792,4.442-9.362-7.141c0,0-9.713,1.592-12.794-8.439,0,0,3.192-10.907,12.746-8.495,0,0-1.592-10.907,9.116-7.285,0,0-4.02,7.507,6.194,8.718a56.909,56.909,0,0,0,5.852.175c3.5-.056,4.411,0,4.411,0Z" transform="translate(0 26.188)" fill="#342d22"/>
      <rect id="Rectangle_5-14" data-name="Rectangle 5" width="13.447" height="45.339" transform="translate(38.222 37.824)" fill="#342d22"/>
    </g>
    <g id="Layer_1-2-15" data-name="Layer_1-2" transform="translate(839.895 2059.412)">
      <path id="Path_1-15" data-name="Path 1" d="M45.442,38.317s1.369-14.235-3.161-16.695-5.836.533-5.836.533S32,12.364,43.587,12.794c0,0-1.592-9.713,8.439-12.794,0,0,10.907,3.192,8.495,12.746,0,0,10.907-1.592,7.285,9.116,0,0-7.507-4.02-8.718,6.194a56.909,56.909,0,0,0-.175,5.852c.056,3.5,0,4.411,0,4.411Z" transform="translate(-7.26 0)" fill="#342d22"/>
      <path id="Path_2-15" data-name="Path 2" d="M45.442,104.46s1.369,14.235-3.161,16.695-5.836-.533-5.836-.533-4.442,9.792,7.141,9.362c0,0-1.592,9.713,8.439,12.794,0,0,10.907-3.192,8.495-12.746,0,0,10.907,1.592,7.285-9.116,0,0-7.507,4.02-8.718-6.194a56.909,56.909,0,0,1-.175-5.852c.056-3.5,0-4.411,0-4.411H45.442Z" transform="translate(-7.26 -21.297)" fill="#342d22"/>
      <path id="Path_3-15" data-name="Path 3" d="M63.55,44.552s14.235,1.369,16.695-3.161-.533-5.836-.533-5.836S89.5,31.113,89.074,42.7c0,0,9.713-1.592,12.794,8.439,0,0-3.192,10.907-12.746,8.495,0,0,1.592,10.907-9.116,7.285,0,0,4.02-7.507-6.194-8.718a56.909,56.909,0,0,0-5.852-.175c-3.5.056-4.411,0-4.411,0V44.552Z" transform="translate(-12.956 -7.078)" fill="#342d22"/>
      <path id="Path_4-15" data-name="Path 4" d="M38.317,44.552s-14.235,1.369-16.695-3.161.533-5.836.533-5.836-9.792-4.442-9.362,7.141c0,0-9.713-1.592-12.794,8.439,0,0,3.192,10.907,12.746,8.495,0,0-1.592,10.907,9.116,7.285,0,0-4.02-7.507,6.194-8.718a56.909,56.909,0,0,1,5.852-.175c3.5.056,4.411,0,4.411,0Z" transform="translate(0 -7.078)" fill="#342d22"/>
      <rect id="Rectangle_5-15" data-name="Rectangle 5" width="13.447" height="45.339" transform="translate(38.222 38.317)" fill="#342d22"/>
    </g>
    <g id="Layer_1-2-16" data-name="Layer_1-2" transform="translate(842.368 2544.331)">
      <path id="Path_1-16" data-name="Path 1" d="M45.442,0s1.369,14.235-3.161,16.695-5.836-.533-5.836-.533S32,25.954,43.587,25.524c0,0-1.592,9.713,8.439,12.794,0,0,10.907-3.192,8.495-12.746,0,0,10.907,1.592,7.285-9.116,0,0-7.507,4.02-8.718-6.194a56.909,56.909,0,0,1-.175-5.852c.056-3.5,0-4.411,0-4.411Z" transform="translate(-7.26 83.163)" fill="#342d22"/>
      <path id="Path_2-16" data-name="Path 2" d="M45.442,142.777s1.369-14.235-3.161-16.695-5.836.533-5.836.533-4.442-9.792,7.141-9.362c0,0-1.592-9.713,8.439-12.794,0,0,10.907,3.192,8.495,12.746,0,0,10.907-1.592,7.285,9.116,0,0-7.507-4.02-8.718,6.194a56.909,56.909,0,0,0-.175,5.852c.056,3.5,0,4.411,0,4.411Z" transform="translate(-7.26 -104.46)" fill="#342d22"/>
      <path id="Path_3-16" data-name="Path 3" d="M63.55,57.819s14.235-1.369,16.695,3.161-.533,5.836-.533,5.836,9.792,4.442,9.362-7.141c0,0,9.713,1.592,12.794-8.439,0,0-3.192-10.907-12.746-8.495,0,0,1.592-10.907-9.116-7.285,0,0,4.02,7.507-6.194,8.718a56.909,56.909,0,0,1-5.852.175c-3.5-.056-4.411,0-4.411,0v13.47Z" transform="translate(-12.956 26.188)" fill="#342d22"/>
      <path id="Path_4-16" data-name="Path 4" d="M38.317,57.819s-14.235-1.369-16.695,3.161.533,5.836.533,5.836-9.792,4.442-9.362-7.141c0,0-9.713,1.592-12.794-8.439,0,0,3.192-10.907,12.746-8.495,0,0-1.592-10.907,9.116-7.285,0,0-4.02,7.507,6.194,8.718a56.909,56.909,0,0,0,5.852.175c3.5-.056,4.411,0,4.411,0Z" transform="translate(0 26.188)" fill="#342d22"/>
      <rect id="Rectangle_5-16" data-name="Rectangle 5" width="13.447" height="45.339" transform="translate(38.222 37.824)" fill="#342d22"/>
    </g>
    <path id="Path_211" data-name="Path 211" d="M24.231,1703.673s5.446,33.268,47.785,35.421S19.4,1740.22,19.4,1740.22v-36.547Z" transform="translate(62.126 416.48)" fill="#342d22"/>
    <path id="Path_230" data-name="Path 230" d="M24.231,1740.464s5.446-33.268,47.785-35.421-52.615-1.126-52.615-1.126v36.547Z" transform="translate(64.599 864.606)" fill="#342d22"/>
    <path id="Path_212" data-name="Path 212" d="M78.06,1703.673s-5.446,33.268-47.785,35.421,52.615,1.126,52.615,1.126v-36.547Z" transform="translate(-4.505 416.48)" fill="#342d22"/>
    <path id="Path_231" data-name="Path 231" d="M78.06,1740.464s-5.446-33.268-47.785-35.421,52.615-1.126,52.615-1.126v36.547Z" transform="translate(-2.032 864.606)" fill="#342d22"/>
    <path id="Path_213" data-name="Path 213" d="M24.231,1703.673s5.446,33.268,47.785,35.421S19.4,1740.22,19.4,1740.22v-36.547Z" transform="translate(176.521 416.48)" fill="#342d22"/>
    <path id="Path_232" data-name="Path 232" d="M24.231,1740.464s5.446-33.268,47.785-35.421-52.615-1.126-52.615-1.126v36.547Z" transform="translate(178.994 864.606)" fill="#342d22"/>
    <path id="Path_214" data-name="Path 214" d="M78.06,1703.673s-5.446,33.268-47.785,35.421,52.615,1.126,52.615,1.126v-36.547Z" transform="translate(109.89 416.48)" fill="#342d22"/>
    <path id="Path_233" data-name="Path 233" d="M78.06,1740.464s-5.446-33.268-47.785-35.421,52.615-1.126,52.615-1.126v36.547Z" transform="translate(112.363 864.606)" fill="#342d22"/>
    <path id="Path_215" data-name="Path 215" d="M24.231,1703.673s5.446,33.268,47.785,35.421S19.4,1740.22,19.4,1740.22v-36.547Z" transform="translate(291.521 416.48)" fill="#342d22"/>
    <path id="Path_234" data-name="Path 234" d="M24.231,1740.464s5.446-33.268,47.785-35.421-52.615-1.126-52.615-1.126v36.547Z" transform="translate(293.994 864.606)" fill="#342d22"/>
    <path id="Path_216" data-name="Path 216" d="M78.06,1703.673s-5.446,33.268-47.785,35.421,52.615,1.126,52.615,1.126v-36.547Z" transform="translate(224.89 416.48)" fill="#342d22"/>
    <path id="Path_235" data-name="Path 235" d="M78.06,1740.464s-5.446-33.268-47.785-35.421,52.615-1.126,52.615-1.126v36.547Z" transform="translate(227.363 864.606)" fill="#342d22"/>
    <path id="Path_219" data-name="Path 219" d="M24.231,1703.673s5.446,33.268,47.785,35.421S19.4,1740.22,19.4,1740.22v-36.547Z" transform="translate(406.521 415.48)" fill="#342d22"/>
    <path id="Path_236" data-name="Path 236" d="M24.231,1740.464s5.446-33.268,47.785-35.421-52.615-1.126-52.615-1.126v36.547Z" transform="translate(408.994 865.606)" fill="#342d22"/>
    <path id="Path_218" data-name="Path 218" d="M78.06,1703.673s-5.446,33.268-47.785,35.421,52.615,1.126,52.615,1.126v-36.547Z" transform="translate(339.89 415.48)" fill="#342d22"/>
    <path id="Path_237" data-name="Path 237" d="M78.06,1740.464s-5.446-33.268-47.785-35.421,52.615-1.126,52.615-1.126v36.547Z" transform="translate(342.363 865.606)" fill="#342d22"/>
    <path id="Path_220" data-name="Path 220" d="M24.231,1703.673s5.446,33.268,47.785,35.421S19.4,1740.22,19.4,1740.22v-36.547Z" transform="translate(521.521 415.48)" fill="#342d22"/>
    <path id="Path_238" data-name="Path 238" d="M24.231,1740.464s5.446-33.268,47.785-35.421-52.615-1.126-52.615-1.126v36.547Z" transform="translate(523.994 865.606)" fill="#342d22"/>
    <path id="Path_221" data-name="Path 221" d="M78.06,1703.673s-5.446,33.268-47.785,35.421,52.615,1.126,52.615,1.126v-36.547Z" transform="translate(454.89 415.48)" fill="#342d22"/>
    <path id="Path_239" data-name="Path 239" d="M78.06,1740.464s-5.446-33.268-47.785-35.421,52.615-1.126,52.615-1.126v36.547Z" transform="translate(457.363 865.606)" fill="#342d22"/>
    <path id="Path_222" data-name="Path 222" d="M24.231,1703.673s5.446,33.268,47.785,35.421S19.4,1740.22,19.4,1740.22v-36.547Z" transform="translate(636.521 415.48)" fill="#342d22"/>
    <path id="Path_240" data-name="Path 240" d="M24.231,1740.464s5.446-33.268,47.785-35.421-52.615-1.126-52.615-1.126v36.547Z" transform="translate(638.994 865.606)" fill="#342d22"/>
    <path id="Path_223" data-name="Path 223" d="M78.06,1703.673s-5.446,33.268-47.785,35.421,52.615,1.126,52.615,1.126v-36.547Z" transform="translate(569.89 415.48)" fill="#342d22"/>
    <path id="Path_241" data-name="Path 241" d="M78.06,1740.464s-5.446-33.268-47.785-35.421,52.615-1.126,52.615-1.126v36.547Z" transform="translate(572.363 865.606)" fill="#342d22"/>
    <path id="Path_225" data-name="Path 225" d="M24.231,1703.673s5.446,33.268,47.785,35.421S19.4,1740.22,19.4,1740.22v-36.547Z" transform="translate(751.521 415.48)" fill="#342d22"/>
    <path id="Path_242" data-name="Path 242" d="M24.231,1740.464s5.446-33.268,47.785-35.421-52.615-1.126-52.615-1.126v36.547Z" transform="translate(753.994 865.606)" fill="#342d22"/>
    <path id="Path_226" data-name="Path 226" d="M78.06,1703.673s-5.446,33.268-47.785,35.421,52.615,1.126,52.615,1.126v-36.547Z" transform="translate(684.89 415.48)" fill="#342d22"/>
    <path id="Path_243" data-name="Path 243" d="M78.06,1740.464s-5.446-33.268-47.785-35.421,52.615-1.126,52.615-1.126v36.547Z" transform="translate(687.363 865.606)" fill="#342d22"/>
    <path id="Path_229" data-name="Path 229" d="M24.231,1703.673s5.446,33.268,47.785,35.421S19.4,1740.22,19.4,1740.22v-36.547Z" transform="translate(867.521 416.48)" fill="#342d22"/>
    <path id="Path_244" data-name="Path 244" d="M24.231,1740.464s5.446-33.268,47.785-35.421-52.615-1.126-52.615-1.126v36.547Z" transform="translate(869.994 864.606)" fill="#342d22"/>
    <path id="Path_228" data-name="Path 228" d="M78.06,1703.673s-5.446,33.268-47.785,35.421,52.615,1.126,52.615,1.126v-36.547Z" transform="translate(800.89 416.48)" fill="#342d22"/>
    <path id="Path_245" data-name="Path 245" d="M78.06,1740.464s-5.446-33.268-47.785-35.421,52.615-1.126,52.615-1.126v36.547Z" transform="translate(803.363 864.606)" fill="#342d22"/>
  </g>
</svg>
