<svg xmlns="http://www.w3.org/2000/svg" width="1436.749" height="147.374" viewBox="0 0 1436.749 147.374">
  <g id="Group_169" data-name="Group 169" transform="translate(-77.878 -214.13)">
    <path id="Path_139" data-name="Path 139" d="M134.507,1.072a1.545,1.545,0,0,1,2.941,0L140.726,11.7a1.5,1.5,0,0,0,.3.536l7.354,8.556a1.514,1.514,0,0,1-1.516,2.447L136.32,20.873a1.563,1.563,0,0,0-.684,0L1.373,87.748C-.065,88.07-.421,87.3.531,86.191l130.4-73.957a1.5,1.5,0,0,0,.3-.536Z" transform="matrix(0.883, 0.469, -0.469, 0.883, 119.108, 214.13)" fill="#342d22"/>
    <path id="Path_140" data-name="Path 140" d="M134.507,86.75a1.545,1.545,0,0,0,2.941,0l3.278-10.626a1.5,1.5,0,0,1,.3-.536l7.354-8.556a1.514,1.514,0,0,0-1.516-2.447L136.32,66.949a1.563,1.563,0,0,1-.684,0L1.373.074C-.065-.249-.421.523.531,1.63l130.4,73.957a1.5,1.5,0,0,1,.3.536Z" transform="matrix(-0.883, 0.469, -0.469, -0.883, 1514.627, 291.672)" fill="#342d22"/>
  </g>
</svg>
