<svg xmlns="http://www.w3.org/2000/svg" width="230.722" height="198.545" viewBox="0 0 230.722 198.545">
  <g id="castle-3" transform="translate(-255.996 -363.11)">
    <g id="Group_113" data-name="Group 113" transform="translate(424.939 379.184)">
      <g id="Group_108" data-name="Group 108" transform="translate(12.125 80.963)">
        <path id="Path_349" data-name="Path 349" d="M1495.356,1110.628h-30.321a3.606,3.606,0,0,1-3.605-3.6v-94.3a3.606,3.606,0,0,1,3.605-3.6h30.321a3.606,3.606,0,0,1,3.6,3.6v94.3A3.6,3.6,0,0,1,1495.356,1110.628Zm-26.715-7.21h23.111V1016.33h-23.111Z" transform="translate(-1461.43 -1009.12)" fill="#4b5360"/>
      </g>
      <g id="Group_109" data-name="Group 109" transform="translate(0.003 53.345)">
        <path id="Path_350" data-name="Path 350" d="M1438.9,846.279h-54.566a3.606,3.606,0,0,1-3.6-3.605V828.865a3.606,3.606,0,0,1,3.6-3.6H1438.9a3.606,3.606,0,0,1,3.6,3.6v13.809A3.605,3.605,0,0,1,1438.9,846.279Zm-50.961-7.21H1435.3v-6.6H1387.94Z" transform="translate(-1380.73 -825.26)" fill="#4b5360"/>
      </g>
      <g id="Group_110" data-name="Group 110" transform="translate(9.871 36.912)">
        <path id="Path_351" data-name="Path 351" d="M1484.865,739.5h-34.83a3.606,3.606,0,0,1-3.605-3.605V719.465a3.606,3.606,0,0,1,3.605-3.6h34.83a3.606,3.606,0,0,1,3.6,3.6V735.9A3.6,3.6,0,0,1,1484.865,739.5Zm-31.225-7.21h27.62V723.07h-27.62Z" transform="translate(-1446.43 -715.86)" fill="#4b5360"/>
      </g>
      <g id="Group_111" data-name="Group 111" transform="translate(0.002)">
        <path id="Path_352" data-name="Path 352" d="M1438.9,514.242h-54.566a3.6,3.6,0,0,1-2.9-5.747l27.282-36.914a3.606,3.606,0,0,1,5.8,0L1441.8,508.5a3.6,3.6,0,0,1-2.9,5.747Zm-47.419-7.21h40.271l-20.135-27.243Z" transform="translate(-1380.728 -470.12)" fill="#4b5360"/>
      </g>
      <g id="Group_112" data-name="Group 112" transform="translate(0 67.154)">
        <path id="Path_353" data-name="Path 353" d="M1426.763,938.209h-30.321a3.608,3.608,0,0,1-2.71-1.227l-12.123-13.809a3.6,3.6,0,0,1,2.708-5.983h54.569a3.6,3.6,0,0,1,2.708,5.983l-12.123,13.809A3.6,3.6,0,0,1,1426.763,938.209ZM1398.074,931h27.056l5.792-6.6h-38.641Z" transform="translate(-1380.712 -917.19)" fill="#4b5360"/>
      </g>
    </g>
    <g id="Group_119" data-name="Group 119" transform="translate(255.996 379.184)">
      <g id="Group_114" data-name="Group 114" transform="translate(12.122 80.963)">
        <path id="Path_354" data-name="Path 354" d="M370.626,1110.628H340.305a3.606,3.606,0,0,1-3.605-3.6v-94.3a3.606,3.606,0,0,1,3.605-3.6h30.321a3.606,3.606,0,0,1,3.6,3.6v94.3A3.6,3.6,0,0,1,370.626,1110.628Zm-26.716-7.21h23.111V1016.33H343.91Z" transform="translate(-336.7 -1009.12)" fill="#4b5360"/>
      </g>
      <g id="Group_115" data-name="Group 115" transform="translate(0.001 53.345)">
        <path id="Path_355" data-name="Path 355" d="M314.171,846.279H259.605A3.606,3.606,0,0,1,256,842.674V828.865a3.606,3.606,0,0,1,3.605-3.6h54.566a3.606,3.606,0,0,1,3.605,3.6v13.809A3.605,3.605,0,0,1,314.171,846.279Zm-50.961-7.21h47.356v-6.6H263.21Z" transform="translate(-256 -825.26)" fill="#4b5360"/>
      </g>
      <g id="Group_116" data-name="Group 116" transform="translate(9.868 36.912)">
        <path id="Path_356" data-name="Path 356" d="M360.125,739.5H325.3a3.606,3.606,0,0,1-3.605-3.605V719.465a3.606,3.606,0,0,1,3.605-3.6h34.83a3.606,3.606,0,0,1,3.605,3.6V735.9A3.6,3.6,0,0,1,360.125,739.5Zm-31.225-7.21h27.62V723.07H328.9Z" transform="translate(-321.69 -715.86)" fill="#4b5360"/>
      </g>
      <g id="Group_117" data-name="Group 117" transform="translate(0)">
        <path id="Path_357" data-name="Path 357" d="M314.17,514.242H259.6a3.6,3.6,0,0,1-2.9-5.747l27.282-36.914a3.606,3.606,0,0,1,5.8,0L317.069,508.5a3.6,3.6,0,0,1-2.9,5.747Zm-47.419-7.21h40.271l-20.136-27.243Z" transform="translate(-255.998 -470.12)" fill="#4b5360"/>
      </g>
      <g id="Group_118" data-name="Group 118" transform="translate(0 67.154)">
        <path id="Path_358" data-name="Path 358" d="M302.045,938.209h-30.32a3.607,3.607,0,0,1-2.71-1.227l-12.123-13.809a3.6,3.6,0,0,1,2.708-5.983h54.566a3.6,3.6,0,0,1,2.708,5.983l-12.123,13.809A3.6,3.6,0,0,1,302.045,938.209ZM273.356,931h27.057l5.792-6.6H267.564Z" transform="translate(-255.996 -917.19)" fill="#4b5360"/>
      </g>
    </g>
    <g id="Group_120" data-name="Group 120" transform="translate(298.44 474.281)">
      <path id="Path_359" data-name="Path 359" d="M680.79,1190.594H542.165a3.606,3.606,0,0,1-3.6-3.6v-80.164a3.606,3.606,0,0,1,3.6-3.6H680.79a3.606,3.606,0,0,1,3.605,3.6v80.164A3.606,3.606,0,0,1,680.79,1190.594Zm-135.02-7.21H677.185V1110.43H545.77Z" transform="translate(-538.56 -1103.22)" fill="#4b5360"/>
    </g>
    <g id="Group_121" data-name="Group 121" transform="translate(345.808 493.062)">
      <path id="Path_360" data-name="Path 360" d="M901.4,1296.843H857.515a3.606,3.606,0,0,1-3.605-3.6V1253.8a25.549,25.549,0,0,1,51.1,0v39.439A3.606,3.606,0,0,1,901.4,1296.843Zm-40.283-7.21H897.8V1253.8a18.339,18.339,0,0,0-36.678,0Z" transform="translate(-853.91 -1228.25)" fill="#4b5360"/>
    </g>
    <g id="Group_122" data-name="Group 122" transform="translate(344.23 416.092)">
      <path id="Path_361" data-name="Path 361" d="M894.05,781.228H847a3.606,3.606,0,0,1-3.605-3.6V719.435a3.606,3.606,0,0,1,3.605-3.6H894.05a3.606,3.606,0,0,1,3.6,3.6v58.188A3.6,3.6,0,0,1,894.05,781.228Zm-43.44-7.21h39.835V723.04H850.61Z" transform="translate(-843.4 -715.83)" fill="#4b5360"/>
    </g>
    <g id="Group_123" data-name="Group 123" transform="translate(332.34 363.11)">
      <path id="Path_362" data-name="Path 362" d="M838.676,423.3H767.853a3.606,3.606,0,0,1-3-5.609l35.412-52.982a3.6,3.6,0,0,1,5.993,0l35.412,52.982a3.606,3.606,0,0,1-3,5.609Zm-64.078-7.21h57.332L803.265,373.2Z" transform="translate(-764.247 -363.11)" fill="#4b5360"/>
    </g>
    <g id="Group_126" data-name="Group 126" transform="translate(312.887 486.14)">
      <g id="Group_124" data-name="Group 124" transform="translate(90.48)">
        <path id="Path_363" data-name="Path 363" d="M1259.956,1214.273H1240.7a3.606,3.606,0,0,1-3.605-3.605V1195.4a13.23,13.23,0,0,1,26.461,0v15.267A3.605,3.605,0,0,1,1259.956,1214.273Zm-15.646-7.21h12.041V1195.4a6.02,6.02,0,0,0-12.041,0Z" transform="translate(-1237.1 -1182.17)" fill="#4b5360"/>
      </g>
      <g id="Group_125" data-name="Group 125" transform="translate(0 1.502)">
        <path id="Path_364" data-name="Path 364" d="M657.6,1224.273H638.345a3.606,3.606,0,0,1-3.6-3.6V1205.4a13.23,13.23,0,0,1,26.461,0v15.267A3.605,3.605,0,0,1,657.6,1224.273Zm-15.646-7.21h12.041V1205.4a6.02,6.02,0,0,0-12.041,0Z" transform="translate(-634.74 -1192.17)" fill="#4b5360"/>
      </g>
    </g>
    <g id="Group_127" data-name="Group 127" transform="translate(358.127 432.739)">
      <path id="Path_365" data-name="Path 365" d="M958.776,858.763H939.525a3.606,3.606,0,0,1-3.6-3.605V839.89a13.23,13.23,0,1,1,26.461,0v15.267A3.606,3.606,0,0,1,958.776,858.763Zm-15.646-7.21h12.041V839.89a6.02,6.02,0,0,0-12.041,0Z" transform="translate(-935.92 -826.66)" fill="#4b5360"/>
    </g>
    <g id="Group_137" data-name="Group 137" transform="translate(279.387 474.28)">
      <g id="Group_130" data-name="Group 130" transform="translate(0 0)">
        <g id="Group_128" data-name="Group 128">
          <path id="Path_366" data-name="Path 366" d="M419.218,1110.42h-3.893a3.6,3.6,0,1,1,0-7.21h3.893a3.6,3.6,0,1,1,0,7.21Z" transform="translate(-411.72 -1103.21)" fill="#4b5360"/>
        </g>
        <g id="Group_129" data-name="Group 129" transform="translate(3.892 13.363)">
          <path id="Path_367" data-name="Path 367" d="M445.128,1199.38h-3.893a3.605,3.605,0,0,1,0-7.21h3.893a3.605,3.605,0,0,1,0,7.21Z" transform="translate(-437.63 -1192.17)" fill="#4b5360"/>
        </g>
      </g>
      <g id="Group_133" data-name="Group 133" transform="translate(0 26.721)">
        <g id="Group_131" data-name="Group 131">
          <path id="Path_368" data-name="Path 368" d="M419.218,1288.31h-3.893a3.605,3.605,0,0,1,0-7.21h3.893a3.605,3.605,0,0,1,0,7.21Z" transform="translate(-411.72 -1281.1)" fill="#4b5360"/>
        </g>
        <g id="Group_132" data-name="Group 132" transform="translate(3.892 13.361)">
          <path id="Path_369" data-name="Path 369" d="M445.128,1377.26h-3.893a3.6,3.6,0,0,1,0-7.21h3.893a3.6,3.6,0,1,1,0,7.21Z" transform="translate(-437.63 -1370.05)" fill="#4b5360"/>
        </g>
      </g>
      <g id="Group_136" data-name="Group 136" transform="translate(0 53.44)">
        <g id="Group_134" data-name="Group 134">
          <path id="Path_370" data-name="Path 370" d="M419.218,1466.19h-3.893a3.6,3.6,0,1,1,0-7.21h3.893a3.6,3.6,0,1,1,0,7.21Z" transform="translate(-411.72 -1458.98)" fill="#4b5360"/>
        </g>
        <g id="Group_135" data-name="Group 135" transform="translate(3.892 13.363)">
          <path id="Path_371" data-name="Path 371" d="M445.128,1555.15h-3.893a3.6,3.6,0,0,1,0-7.21h3.893a3.6,3.6,0,1,1,0,7.21Z" transform="translate(-437.63 -1547.94)" fill="#4b5360"/>
        </g>
      </g>
    </g>
    <g id="Group_147" data-name="Group 147" transform="translate(448.332 474.28)">
      <g id="Group_140" data-name="Group 140" transform="translate(0 0)">
        <g id="Group_138" data-name="Group 138">
          <path id="Path_372" data-name="Path 372" d="M1543.948,1110.42h-3.893a3.6,3.6,0,0,1,0-7.21h3.893a3.6,3.6,0,0,1,0,7.21Z" transform="translate(-1536.45 -1103.21)" fill="#4b5360"/>
        </g>
        <g id="Group_139" data-name="Group 139" transform="translate(3.892 13.363)">
          <path id="Path_373" data-name="Path 373" d="M1569.858,1199.38h-3.893a3.605,3.605,0,0,1,0-7.21h3.893a3.605,3.605,0,1,1,0,7.21Z" transform="translate(-1562.36 -1192.17)" fill="#4b5360"/>
        </g>
      </g>
      <g id="Group_143" data-name="Group 143" transform="translate(0 26.721)">
        <g id="Group_141" data-name="Group 141">
          <path id="Path_374" data-name="Path 374" d="M1543.948,1288.31h-3.893a3.605,3.605,0,0,1,0-7.21h3.893a3.605,3.605,0,0,1,0,7.21Z" transform="translate(-1536.45 -1281.1)" fill="#4b5360"/>
        </g>
        <g id="Group_142" data-name="Group 142" transform="translate(3.892 13.361)">
          <path id="Path_375" data-name="Path 375" d="M1569.858,1377.26h-3.893a3.6,3.6,0,0,1,0-7.21h3.893a3.6,3.6,0,1,1,0,7.21Z" transform="translate(-1562.36 -1370.05)" fill="#4b5360"/>
        </g>
      </g>
      <g id="Group_146" data-name="Group 146" transform="translate(0 53.44)">
        <g id="Group_144" data-name="Group 144">
          <path id="Path_376" data-name="Path 376" d="M1543.948,1466.19h-3.893a3.6,3.6,0,0,1,0-7.21h3.893a3.6,3.6,0,0,1,0,7.21Z" transform="translate(-1536.45 -1458.98)" fill="#4b5360"/>
        </g>
        <g id="Group_145" data-name="Group 145" transform="translate(3.892 13.363)">
          <path id="Path_377" data-name="Path 377" d="M1569.858,1555.15h-3.893a3.6,3.6,0,0,1,0-7.21h3.893a3.6,3.6,0,1,1,0,7.21Z" transform="translate(-1562.36 -1547.94)" fill="#4b5360"/>
        </g>
      </g>
    </g>
    <g id="Group_148" data-name="Group 148" transform="translate(313.916 525.363)">
      <path id="Path_378" data-name="Path 378" d="M649.089,1450.5H645.2a3.6,3.6,0,1,1,0-7.21h3.893a3.6,3.6,0,0,1,0,7.21Z" transform="translate(-641.59 -1443.29)" fill="#4b5360"/>
    </g>
    <g id="Group_149" data-name="Group 149" transform="translate(328.244 532.23)">
      <path id="Path_379" data-name="Path 379" d="M744.478,1496.22h-3.893a3.6,3.6,0,0,1,0-7.21h3.893a3.6,3.6,0,1,1,0,7.21Z" transform="translate(-736.98 -1489.01)" fill="#4b5360"/>
    </g>
    <g id="Group_150" data-name="Group 150" transform="translate(416.778 523.753)">
      <path id="Path_380" data-name="Path 380" d="M1333.878,1439.78h-3.893a3.605,3.605,0,0,1,0-7.21h3.893a3.605,3.605,0,0,1,0,7.21Z" transform="translate(-1326.38 -1432.57)" fill="#4b5360"/>
    </g>
    <g id="Group_151" data-name="Group 151" transform="translate(403.367 533.636)">
      <path id="Path_381" data-name="Path 381" d="M1244.6,1505.58H1240.7a3.605,3.605,0,1,1,0-7.21h3.893a3.605,3.605,0,0,1,0,7.21Z" transform="translate(-1237.1 -1498.37)" fill="#4b5360"/>
    </g>
    <g id="Group_152" data-name="Group 152" transform="translate(385.803 486.14)">
      <path id="Path_382" data-name="Path 382" d="M1127.668,1189.38h-3.893a3.605,3.605,0,0,1,0-7.21h3.893a3.605,3.605,0,0,1,0,7.21Z" transform="translate(-1120.17 -1182.17)" fill="#4b5360"/>
    </g>
    <g id="Group_153" data-name="Group 153" transform="translate(340.336 488.375)">
      <path id="Path_383" data-name="Path 383" d="M824.979,1204.26h-3.893a3.6,3.6,0,0,1,0-7.21h3.893a3.6,3.6,0,0,1,0,7.21Z" transform="translate(-817.48 -1197.05)" fill="#4b5360"/>
    </g>
    <g id="Group_154" data-name="Group 154" transform="translate(418.383 541.082)">
      <path id="Path_384" data-name="Path 384" d="M1344.568,1555.15h-3.893a3.6,3.6,0,0,1,0-7.21h3.893a3.6,3.6,0,0,1,0,7.21Z" transform="translate(-1337.07 -1547.94)" fill="#4b5360"/>
    </g>
    <g id="Group_155" data-name="Group 155" transform="translate(311.241 541.082)">
      <path id="Path_385" data-name="Path 385" d="M631.278,1555.15h-3.893a3.6,3.6,0,0,1,0-7.21h3.893a3.6,3.6,0,0,1,0,7.21Z" transform="translate(-623.78 -1547.94)" fill="#4b5360"/>
    </g>
  </g>
</svg>
