<svg xmlns="http://www.w3.org/2000/svg" width="224.851" height="221.657" viewBox="0 0 224.851 221.657">
  <g id="wizard" transform="translate(-2.438 -4.818)">
    <path id="Path_317" data-name="Path 317" d="M26.887,226.364a2.349,2.349,0,0,0,0-4.7H17.5c1.816-15.184,11.888-34.487,27.618-49.264-.007,4.791.015,9.415.067,13.791a20.285,20.285,0,0,1-1.891,8.915c-2.828,5.95-7.662,20.873,8.494,30.9,14.867,1,67.76.021,81.829.354,1.286-.168,4.437-1.056,7.448-6.911,1.721-3.61,2.582-8.214,2.582-13.769,5.193,8.828,14.189,18.657,28.381,20.665.039.1,25.216.057,26.13.057,11.044.259,28.406-4.9,28.966-21.925.187-1.946,2.662-32.2-20.065-59.932a55.058,55.058,0,0,1-5.937-8.81,9.542,9.542,0,0,0,2.436-6.365V111.053a9.606,9.606,0,0,0-9.715-9.595c.2-5.644.409-10.1.556-12.94.115-9.356,8.454-18.607,13.769-24.136a16.6,16.6,0,0,0,4.544-8.869l.853-5.009a13.743,13.743,0,0,0-4.179-12.341c-9.375-8.806-13.6-17.423-15.5-23.1a10.162,10.162,0,0,0-11.469-6.71L172.9,10.125a2.321,2.321,0,0,0-.7.248c-8.21,4.487-16.412,14.6-20.572,20.23A18.5,18.5,0,0,0,148,41.674c-.558,10.266,10.714,19.07,17.319,22.559a9.919,9.919,0,0,0,12.815-2.806A16.79,16.79,0,0,0,180.99,50.49a2.348,2.348,0,0,0-2.314-2.058,14.841,14.841,0,0,1-6.831-1.481,5.661,5.661,0,0,1-1.773-8.351c3.014-3.972,8.543-4.067,8.588-4.067,7.1,0,11.637,3.236,13.875,9.894a19.613,19.613,0,0,1-3.737,18.6,120.749,120.749,0,0,0-9.03,12.435c-3.881,5.871-3.422,12.01-3.216,18.7a2.349,2.349,0,0,0,4.7-.093c-.114-5.474-.774-11.339,2.492-16.1a115.763,115.763,0,0,1,8.67-11.943c11.312-12.918,5.311-36.815-13.75-36.192-4.078-.294-16.352,3.943-14.185,14.454,1.192,5.581,6.391,8.233,11.837,8.716-.213,4.193-3.4,9.777-8.743,7.1-5.026-2.678-15.388-10.147-14.872-18.436a13.83,13.83,0,0,1,2.716-8.28c3.872-5.241,11.406-14.572,18.725-18.72l9.136-1.7a5.448,5.448,0,0,1,6.156,3.578c2.067,6.19,6.648,15.559,16.74,25.037,4.15,3.935,2.751,8.26,1.912,13.139a11.933,11.933,0,0,1-3.268,6.374c-6.039,6.152-15.051,16.736-15.1,27.179-.15,2.885-.364,7.429-.566,13.184H169.972a8.785,8.785,0,0,0-8.775,8.774v9.383a7.79,7.79,0,0,0,7.783,7.783h3.178a12.464,12.464,0,0,0,.957,6.126c-4.206-.829-9.863-1.241-14.548.838a19.605,19.605,0,0,0-8.561,7.85,2.349,2.349,0,1,0,4.093,2.307,15.03,15.03,0,0,1,6.349-5.849,16.047,16.047,0,0,1,7.25-1.105c-7.174,5.218-18.353,17.78-17.993,45.268a2.349,2.349,0,1,0,4.7-.062c-.311-23.764,8.443-35.218,14.666-40.345-3.886,9.485-7.945,22.947-7.863,37.613-3.623,14.09-2.042,30.584,3.8,39.485-22.726-11.69-26.623-36.973-25.22-56.014,1.077-9.03-3.732-13.453-3.938-13.636a2.335,2.335,0,0,0-3.282.17,2.362,2.362,0,0,0,.125,3.307c.134.124,3.2,3.117,2.432,9.6-1.472,12.345,1.72,26.009,1.972,27.056,5.4,25.844-2.58,30.993-3.91,31.66H119.8c4.727-7.889,2.968-21.288,2.7-23.112a2.348,2.348,0,1,0-4.647.681c.738,5.076,1.351,18.72-4.3,22.431H88.884a13.335,13.335,0,0,1-1.179-5.77,2.35,2.35,0,0,0-4.7-.143,19.573,19.573,0,0,0,.811,5.911h-15.4c-2.538-2.737-2.713-8.6-2.55-10.759a2.348,2.348,0,0,0-4.682-.368c-.067.821-.419,6.473,1.7,11.128H53.709c-11.238-7.325-9.588-17.36-6.173-24.542a25.006,25.006,0,0,0,2.348-10.988c-.067-5.653-.087-11.72-.053-18.035A139.29,139.29,0,0,1,62.08,158.64c-.3,5.184-.805,14.64-.892,20.8a2.349,2.349,0,1,0,4.7.067c.116-8.2.987-22.384,1.094-24.111,1.35-.857,2.732-1.711,4.16-2.558,1.749,7.432,10.356,14.236,15.61,17.914,2.438,1.771,4.2,3.049,5.341,4.693,3.318,4.894,11.169,1.744,10.3-4.026a22.739,22.739,0,0,0-2.67-7.86,6.079,6.079,0,0,0,3.892-9.8,17.315,17.315,0,0,1-3.757-14.806c2.7-13.522,10.895-25.166,11-25.322.515-.757,11.446-17.163,4.336-33.878,4.64.732,9.238,1.312,13.715,1.723a8.355,8.355,0,0,1,6.789,5.006,12.407,12.407,0,0,0,5.926,5.47c4.378,1.683,13.524,7.856,10.624,14.846a8.647,8.647,0,0,1-4.672,4.946c-7.091,3.067-21.677,9.45-39.686,17.742a2.358,2.358,0,0,0,.984,4.482c2.007-.368,3.838-1.677,5.7-2.381a192.8,192.8,0,0,0-1.716,25.228,2.348,2.348,0,1,0,4.7,0,187.166,187.166,0,0,1,2.109-27.546c12.886-5.848,23.228-10.377,29.1-12.92.088,5.7,1.4,10.575,3.862,14.212a2.349,2.349,0,0,0,3.892-2.631c-2.38-3.422-3.319-8.687-3.019-14.632,9.723-10.5-.015-21.666-9.98-25.646-3.866-1.563-4.444-6.4-7.89-8.49,4.014-5.3,8.1-14.635,1.512-26.812a35.822,35.822,0,0,0-7.141-9.1A179.254,179.254,0,0,1,112.19,24.3a34.239,34.239,0,0,1-5.951-12.072c-.848-4.611-4.7-8.115-9.585-7.285a37.6,37.6,0,0,0-27.731,18.3C65.2,29.592,58.977,38.6,50.44,45.483,37.073,56.254,33.619,68.166,39.88,81.9c1.718,3.766,5.172,6.42,10.09,7.819-7.313,7.753-17.29,15.7-23.353,41.666-3.7,2.579-16.438,13.367-13.47,37.822-2.5,3.651-11.646,19.084-10.631,47.9a9.567,9.567,0,0,0,9.6,9.256Zm156.118-4.7c.209-20.453-.305-62.151-.872-82.7H188.6c.1,15.733.642,30.451,1.61,43.753l-.506,38.946Zm12.858,0h-1.458l.507-38.982c-.723-10.151-1.235-21.052-1.467-32.66C203.412,162.525,217.184,208.938,195.863,221.667Zm7.562-74.14c21.762,26.673,19.04,56.106,19.011,56.648-.321,10.855-9.444,15.969-18.565,17.109,15.588-17.932,4.724-56.646-4.32-70.542-2.483-3.543-4.33-6.848-6.24-9.9q-.008-.934-.015-1.872a10.259,10.259,0,0,0,3.919-.58,59.531,59.531,0,0,0,6.21,9.141Zm-9.46-41.37a4.9,4.9,0,0,1,4.9,4.9v18.323a4.9,4.9,0,0,1-4.9,4.9H181.753a4.9,4.9,0,0,1-4.9-4.9V127.4h11.1a2.348,2.348,0,1,0,0-4.7h-11.1V116.78h11.1a2.348,2.348,0,1,0,0-4.7h-11.1V106.16ZM168.979,122.7a3.086,3.086,0,0,1-3.086-3.086v-9.379a4.082,4.082,0,0,1,4.078-4.077h2.185V122.7Zm7.5,14.678a9.447,9.447,0,0,0,.939.542c.3,14.027,1.116,52.128.891,65.607-8.308,2.762-10.7-7.482-11.237-11.1-4.335-22.5,4.21-44.556,9.406-55.052Zm-12.458,61.787c2.056,6.334,7.6,10.751,14.291,9.259v13.242h-5.4c-1.744-1.4-7.909-7.4-8.888-22.5Zm-57.031-88.223c-.36.505-8.849,12.551-11.756,27.084a22.193,22.193,0,0,0,4.7,18.667,1.315,1.315,0,0,1,.129,1.488c-.5,1.437-3.785.248-4.012.139-13.635-13.29-8.047-29.08-.757-42.789,8.492-15.969.665-30.626.327-31.241A2.348,2.348,0,0,0,91.5,86.54c.286.529,6.922,13.111-.352,26.786-7.653,14.391-14.358,32.889,1.718,48.449a21.171,21.171,0,0,1,4.858,10.266.989.989,0,0,1-1.783.721c-1.595-2.3-3.733-3.849-6.441-5.813a71.846,71.846,0,0,1-8.968-7.427c-11.247-11.1-3.037-27.389-2.684-28.073,3.659-6.457,2.839-13.158,2.038-19.639-1.131-7.015-.943-14.1,2.575-16.794a2.349,2.349,0,0,0-2.6-3.91c-.225.147-5.509,3.716-5.315,13.578.089,8.1,3.343,16.945-.68,24.258-.888.852-3.3,2.68-4.474,1.49a1.547,1.547,0,0,1-.322-1.645c2.232-5.971.121-12.576.03-12.854C63.868,101.491,65.387,93,70.815,79.515c5.04-12.539,18.5-12.9,19.122-12.908,7.246-.13,14.027,3.784,18.631,10.735,10.337,15.627-1.487,33.468-1.581,33.6ZM76.258,42.178c3.66-5.095,7.473-10.846,14.472-10.622,8.173-.092,12.02,7.869,15.772,13.969-.309,8.534-.043,15.163-1.067,21.621-8.106-5.77-16.932-7.547-28.506-1.5C76.6,59.668,76.386,51.985,76.258,42.178Zm-32.1,37.775c-3.345-7.338-6.028-18.518,9.233-30.813C62.478,41.812,69.057,32.3,72.975,25.618A32.877,32.877,0,0,1,97.218,9.605c2.756-.509,4,1.476,4.491,3.865,2.885,12.92,17.928,26.207,25.077,33.216,10.247,9.3,11.791,22.4,4.438,30.446-6.192-.946-12.476-1.37-18.9-2.617a32.327,32.327,0,0,0-3.278-4.117,9.153,9.153,0,0,0,1.375-4.217c.291-4.273.5-9.024.648-14.37,5.914,6.467,6.928,14.974,6.763,15.445a7.988,7.988,0,0,1-.486,2.2,2.348,2.348,0,0,0,1.349,3.035c3.019.994,3.708-2.885,3.834-5.144,0-.375-.015-9.282-7.493-18.107a53.414,53.414,0,0,1-4.2-5.66c-4.692-7.9-9.724-16.831-20.07-16.727-10.1-.207-15.274,8.089-20.344,15.553a92.066,92.066,0,0,1-10.59,13.177,13.192,13.192,0,0,0-1.879,15.435c.841,1.449,2.371,3.545,4.319,3.729a2.359,2.359,0,0,0,1.369-4.259,4.885,4.885,0,0,1-1.528-1.651,8.494,8.494,0,0,1,1.039-9.93A102.03,102.03,0,0,0,71.67,48.84c.134,6.881.325,12.547.579,17.2a9.222,9.222,0,0,0,.537,2.591A24.881,24.881,0,0,0,66.1,78.669a73.733,73.733,0,0,0-11.54,7.214c-5.44-.729-8.944-2.719-10.408-5.931ZM7.211,216.943c-1.082-30.693,10.083-45.468,10.231-45.655.273-.335,10.1-12.407,21.847-18.69a2.348,2.348,0,1,0-2.214-4.142c-8.289,4.428-15.487,11.31-19.617,15.715-.464-25.857,14.338-31.492,27.837-36.9a2.348,2.348,0,1,0-1.349-4.5,67.337,67.337,0,0,0-11.75,5.321C39,104.33,51.667,92.985,63.67,85.387c-3.355,10.5-3.639,19.23.972,32.025.115.38,1.61,5.494.028,9.729-1.78,4.26,2.2,9.246,6.726,8.32a34.54,34.54,0,0,0-1.226,12.5c-37.257,22.661-52.817,46.233-57.409,73.707a4.978,4.978,0,0,1-5.55-4.725Z" transform="translate(0 0)" fill="#4b5360"/>
    <path id="Path_318" data-name="Path 318" d="M126.949,73.518c-1.624-1.006-4.252-1.932-5.149.53a2.348,2.348,0,0,0,1.5,2.966c.947.256,1.532.892,2.462.878a2.358,2.358,0,0,0,1.192-4.373Z" transform="translate(-39.237 -22.264)" fill="#4b5360"/>
    <path id="Path_319" data-name="Path 319" d="M141.1,77.892c.931.013,1.514-.622,2.462-.878a2.348,2.348,0,0,0,1.5-2.966c-.9-2.462-3.525-1.533-5.15-.53a2.358,2.358,0,0,0,1.192,4.373Z" transform="translate(-44.863 -22.264)" fill="#4b5360"/>
    <path id="Path_320" data-name="Path 320" d="M92.274,276.294a2.388,2.388,0,0,0,0,4.775A2.388,2.388,0,0,0,92.274,276.294Z" transform="translate(-28.786 -89.329)" fill="#4b5360"/>
  </g>
</svg>
