<svg xmlns="http://www.w3.org/2000/svg" width="208.753" height="202.481" viewBox="0 0 208.753 202.481">
  <g id="dragon" transform="translate(-1.623 -6.681)">
    <path id="Path_344" data-name="Path 344" d="M200.4,43.161a25.575,25.575,0,0,0,5.164-13.284c1.566-14.16-9.732-20.713-17.9-21.31a2.181,2.181,0,0,0-1.415,3.926,6.188,6.188,0,0,1,2.1,2.97,19.021,19.021,0,0,1,.542,2.818c-2.892-2.312-7.63-3.943-15.312-2.217A2.178,2.178,0,0,0,173.6,20.3c11.784,3.072,2.579,15.6-2.083,17.685-7.019,2.98-13.72,3.553-20.382,4.773a17.448,17.448,0,0,0-11.888,8.478c-1.658,2.852-3.6,6.471-1.48,9.636a6.526,6.526,0,0,0,5.153,3.116,32.778,32.778,0,0,1,11.931,3.633,38.98,38.98,0,0,0,15.99,3.889c6.149,2.4,8.121,10.441,5.609,16.452-4.233,12.006-18.891,17.543-30.2,11.882-5.914-2.9-12.209-3.5-18.559-3.676.83-5.616-.422-11.252-4.587-15.292a12.131,12.131,0,0,1-4.079-8.982,91.421,91.421,0,0,1,6.738-34.932,17.833,17.833,0,0,0,1.127-10.075,37.225,37.225,0,0,0-3.409-10.364,2.17,2.17,0,0,0-1.8-1.178c-2.746-.731-16.393,23.432-21.549,58.522-1.777-.62-4.036-2.19-5.2.182-1.078,3.018,3.017,3.482,5.005,4.362a6.424,6.424,0,0,1,4.294,6.842c-1.8,14.731-2.833,42.206,10.53,60.714a17.425,17.425,0,0,0,12.286,7.182,44.9,44.9,0,0,1-4.309,2.628,10.727,10.727,0,0,0-5.623,9.088,2.171,2.171,0,1,0,4.339.143,6.377,6.377,0,0,1,3.334-5.406c4.306-2.258,10.251-6.4,13.169-11.331a2.17,2.17,0,0,0-.734-2.979c-2.452-1.348-3.328,1.674-4.7,3.067a12.937,12.937,0,0,1-14.248-4.931c-12.962-17.954-11.13-46.295-9.74-57.647a10.786,10.786,0,0,0-4.292-9.94,150.976,150.976,0,0,1,16.979-53.559c1.415,4.085,2.436,8.817.535,13.005a95.863,95.863,0,0,0-7.074,36.636,16.4,16.4,0,0,0,5.362,12.036c3.514,3.477,3.9,7.612,3.285,12.283a64.108,64.108,0,0,0-9.907,1.244,2.17,2.17,0,1,0,.882,4.248,61.67,61.67,0,0,1,22.342-.434,28.464,28.464,0,0,1,7.734,2.461,26.687,26.687,0,0,0,25.394-1.209,81.244,81.244,0,0,1-5.619,7.906c-15.016,18.647-1.955,40.783-25.658,61.03a2.185,2.185,0,0,0,.243,3.626c.124.07,12.427,7.032,20.747,16.955a12.051,12.051,0,0,0,5.655,3.774c3.923,1.221,8.514,3.755,9.511,8.976H161.9a6.959,6.959,0,0,1-5.49-2.671c-5.045-6.391-15.016-15.891-33.883-24.878-22.649-13.559-37.357-35.214-43.72-64.356a2.17,2.17,0,0,0-4.239.925c6.658,30.463,22.119,53.138,46,67.307A116.28,116.28,0,0,1,140.5,192.968C118,188.116,73.208,170.549,65.987,107.562,58.878,45.577,69.9,20.25,74.468,12.741,75.792,15.974,77.4,22,76.339,30.926A212.079,212.079,0,0,0,71.008,83.09a2.17,2.17,0,0,0,4.339-.11,204.042,204.042,0,0,1,1.044-25.85A35.074,35.074,0,0,0,87.382,71.78c-3.27,28.211,3.726,68.041,23.042,86.018a2.17,2.17,0,1,0,3.1-3.038c-30.445-31-21.034-89.381-20.936-89.967a2.169,2.169,0,0,0-4.277-.722c-.024.14-.168,1.014-.36,2.493-7.578-7.1-9.532-16.161-9.994-21.393,1.344-8.473,2.61-13.118,2.679-13.586,1.941-16.028-3.9-23.942-4.147-24.272C72.065,2,52.808,29.682,61.677,108.056a128.672,128.672,0,0,0,4.295,21.576c-11.137,14.874-10.246,18.113-19.808,28.476-5.035,5.674-14.919,3.264-16.8-4.085-3.238-11.569-1.121-25.382,5.663-36.946A115.982,115.982,0,0,0,41.6,103.119c6.9-13.583,6.552-33.513-4.07-43.078.72-1.993,2.485-3.274,5.393-3.89a2.17,2.17,0,0,0,1.638-1.532c1.9-2.168-17.746-17.625-36.318-16.512A2.17,2.17,0,0,0,6.2,40.093c-.062.761-1.353,18.837,15.552,34.749a2.158,2.158,0,0,0,1.48.585,2.187,2.187,0,0,0,2.149-1.821,7.315,7.315,0,0,1,1.606-3.33,2.17,2.17,0,0,0-3.176-2.956,10.043,10.043,0,0,0-1.434,2A42.858,42.858,0,0,1,10.529,42.391c12.067.113,22.741,7.1,27.627,10.862a9.67,9.67,0,0,0-4.135,4,23.313,23.313,0,0,0-8.211-3.494,2.17,2.17,0,0,0-1.881,3.657,28,28,0,0,1,2.333,37.121C10,115.39-4.35,146.108,4.15,169.766c8.447,24.972,28.473,35.28,51.243,29.11a20.563,20.563,0,0,0,1.3,8.927,2.17,2.17,0,0,0,2.013,1.359h64.388a2.183,2.183,0,0,0,2.17-2.232c-.214-7.848-4.212-12.13-7.982-14.155a15.754,15.754,0,0,0,1.838-2.271,108.027,108.027,0,0,0,28.065,8.048,57.927,57.927,0,0,1,5.823,6.286,11.274,11.274,0,0,0,8.9,4.321h25.373a2.17,2.17,0,0,0,2.164-2.01c1.068-14.443-10.53-20.189-17.389-21.363-1.575-1.213-3.438-4.582-5.676-2.565a2.17,2.17,0,0,0-.033,3.069c1.09,1.116,2.194,2.175,3.281,3.155a2.2,2.2,0,0,0,1.162.538c.6.082,14.021,2.082,14.377,14.837h-6.132c-.846-6.137-5.324-10.854-12.6-13.12a7.7,7.7,0,0,1-3.62-2.418,68.549,68.549,0,0,0-6.933-7.071c38.175-9.686,33.378-52.311,45.91-78.035.713-1.832,1.488-3.591,2.238-5.291,9.336-18.074,8.587-45.6-3.628-55.724ZM63.514,191.919c7.358-5.56,13.308-7.038,13.362-7.051a.941.941,0,0,1,.132-.036l5.057-1.532a2.17,2.17,0,0,0-1.259-4.153l-5,1.516c-.78.2-7.118,1.908-14.907,7.793a13.412,13.412,0,0,0-4.366,5.608c-13.314,3.992-36.965,5.768-48.3-25.763-7.906-22,5.9-51.151,21.449-71.1a32.266,32.266,0,0,0,2.569-36c10.228,6.615,12.286,25,6.478,37.531-2.2,5.18-4.375,10.88-7.449,16.15-8.265,12.782-13.991,45.84,4.287,50.32a14.05,14.05,0,0,0,13.776-4.147,88.121,88.121,0,0,0,11.21-15.365,90.1,90.1,0,0,1,7.027-11,97.276,97.276,0,0,0,11,22.36,38.394,38.394,0,0,0-6.231-.7,2.17,2.17,0,0,0-.017,4.339,40.336,40.336,0,0,1,10.18,1.783,90.81,90.81,0,0,0,19.241,18.257c-.394,7.658-9,10.743-15.74,12.6a2.17,2.17,0,0,0,.532,4.277c.115,0,11.69-.1,18.42,2.225a6.371,6.371,0,0,1,4.243,4.992H60.28c-.762-2.774-1.785-9.109,3.234-12.9ZM110.6,193.84a2.177,2.177,0,0,0,1.829,1.792c.31.046,7.021,1.144,8.3,9.194h-7.139c-.925-8.689-9.277-10.215-16.721-11.014,4.224-2.159,7.9-5.65,8.885-10.406a99.282,99.282,0,0,0,9.373,5.241,10.073,10.073,0,0,1-3.385,2.909A2.17,2.17,0,0,0,110.6,193.84Zm81.25-167.528a12.274,12.274,0,0,1,8.121,8.741,23.2,23.2,0,0,1-3.936,6.627,20.738,20.738,0,0,0-7.425-10.57,19.97,19.97,0,0,0,3.241-4.8Zm-6.415,7.881c1.448.885,5.554,3.964,7.063,11.042a39.179,39.179,0,0,1-5.323,3.816,21.942,21.942,0,0,1-3.255-.687c-.233-5.579-1.741-8.777-3.227-10.591A53.974,53.974,0,0,0,185.434,34.193Zm12.807-15.988a14.123,14.123,0,0,1,3.076,9.727,17.363,17.363,0,0,0-8.2-5.765,19.112,19.112,0,0,0-.62-7.956,14.8,14.8,0,0,1,5.74,3.993Zm-10.1,5.772a18.507,18.507,0,0,1-5.207,6.65c1.385-3.753.984-8.106-1.736-10.856a8.62,8.62,0,0,1,6.939,4.205ZM156.819,63.758a37.2,37.2,0,0,0-13.622-4.1,2.134,2.134,0,0,1-1.855-2.944,34.976,34.976,0,0,1,1.668-3.323c2.728-4.9,7.53-6.462,12.864-7.036,5.947-.886,14.718-2.523,21.093-6.228.97.948,2.643,3.489,2.643,9.752a2.17,2.17,0,0,0,1.178,1.929c.4.205,3.64,1.765,10.348,1.894a14.377,14.377,0,0,1-5.869,5.432,2.193,2.193,0,0,0-.113,3.886A9.315,9.315,0,0,1,189.23,68.7c-.676-.235-5.718-2.976-6.35-2.808a2.2,2.2,0,0,0-.667.1c-1.948.916-15.834,2.925-25.393-2.24Zm10.716,49.418a81.072,81.072,0,0,0,9.284-14.283c2.453,3.158,10.174,8.826,19.254,8.046a169.418,169.418,0,0,0-6.3,19.805c-16.173,5.249-24.369-5.253-25.945-7.579a28.917,28.917,0,0,1,3.706-5.988Zm14.78,39.838c-6.978,5.7-19.126,1.789-19.326,1.723a2.17,2.17,0,0,0-1.379,4.115c2.224.959,12.018,2.636,17.463.652-6.517,11.24-15.559,17.435-27.538,19.093-3.152-2.466-6.021-4.394-7.991-5.641,17.948-17.558,13.6-33.964,18.515-49.107,4.752,5.782,15.432,10.947,26.571,7.741a109.046,109.046,0,0,1-6.317,21.425Zm23.5-76.347a53.622,53.622,0,0,1-3.9,16.132,60.014,60.014,0,0,0-2.63-15.132,2.17,2.17,0,1,0-4.124,1.35c1.995,6.094,2.845,14.181,2.473,23.425a19.414,19.414,0,0,1-18.787-8c3.5-8.574,4.8-16.169-1.041-23.184a36.98,36.98,0,0,0,4.875-.882c.407.114,8.945,4.51,9.107,4.13a2.184,2.184,0,0,0,2.17-2.108,14.74,14.74,0,0,0-4.008-11.03,21.715,21.715,0,0,0,6.807-9.169,2.2,2.2,0,0,0-2.37-2.887,37.482,37.482,0,0,0,3.175-2.863c4.245,3.969,9.882,12.657,8.255,30.219Z" fill="#4b5360"/>
    <path id="Path_345" data-name="Path 345" d="M105.312,267.192a4.849,4.849,0,0,1-4.843-4.843,5.041,5.041,0,0,1,.115-1.078,2.232,2.232,0,0,0-2.627-2.622,4.848,4.848,0,0,1-4.843-4.843,4.8,4.8,0,0,1,1.531-3.533,2.17,2.17,0,0,0,.1-3.067c-3.274-2.837-6.166,3.973-5.967,6.6a9.128,9.128,0,0,0,.588,3.227l-1.2,1.173a8.037,8.037,0,0,0,5.5,13.9,2.17,2.17,0,0,0,0-4.339,3.7,3.7,0,0,1-3.7-3.7,4.5,4.5,0,0,1,1.894-3.409,9.158,9.158,0,0,0,4.277,2.147,9.194,9.194,0,0,0,9.171,8.723,2.169,2.169,0,0,0,0-4.337Z" transform="translate(-31.93 -91.166)" fill="#4b5360"/>
    <path id="Path_346" data-name="Path 346" d="M202.17,181.686a9.156,9.156,0,0,0,4.28,2.147,9.2,9.2,0,0,0,9.171,8.724,2.17,2.17,0,1,0,0-4.339,4.849,4.849,0,0,1-4.843-4.843c.038-1.029.454-2.123-.361-2.966a2.374,2.374,0,0,0-2.152-.734,4.849,4.849,0,0,1-4.843-4.843,4.8,4.8,0,0,1,1.53-3.533,2.17,2.17,0,0,0,.1-3.067c-3.274-2.837-6.167,3.972-5.968,6.6a9.142,9.142,0,0,0,.588,3.227l-1.2,1.172a8.037,8.037,0,0,0,5.5,13.9,2.17,2.17,0,1,0,0-4.339,3.7,3.7,0,0,1-3.7-3.7,4.5,4.5,0,0,1,1.893-3.406Z" transform="translate(-73.859 -61.147)" fill="#4b5360"/>
    <path id="Path_347" data-name="Path 347" d="M264.371,72.319l-1.58.329a2.17,2.17,0,0,0,.441,4.294,19.145,19.145,0,0,0,2.025-.375A2.17,2.17,0,0,0,264.371,72.319Z" transform="translate(-98.613 -24.931)" fill="#4b5360"/>
    <path id="Path_348" data-name="Path 348" d="M116.778,153.27a2.207,2.207,0,0,0-.908,4.318A2.207,2.207,0,0,0,116.778,153.27Z" transform="translate(-42.769 -55.7)" fill="#4b5360"/>
  </g>
</svg>
