<svg xmlns="http://www.w3.org/2000/svg" width="192.772" height="233.406" viewBox="0 0 192.772 233.406">
  <g id="money-bag" transform="translate(-44.393)">
    <path id="Path_386" data-name="Path 386" d="M228.968,77.75a12.263,12.263,0,0,0,2.289-7.144v-.275a12.333,12.333,0,0,0-5.738-10.414A139.325,139.325,0,0,0,233.6,48.238c7.369-11.974,10.426-21.731,9.088-29a14.977,14.977,0,0,0-7.83-10.691c-10.593-5.8-17.044-.369-22.228,3.995-4.1,3.452-7.637,6.433-13.357,5.7-6.8-.87-9.671-4.291-13-8.253C182.345,5.307,177.888,0,167.271,0S152.2,5.307,148.263,9.989c-3.327,3.961-6.2,7.382-13,8.253-5.715.732-9.257-2.249-13.357-5.7-5.184-4.365-11.635-9.8-22.229-3.995a14.975,14.975,0,0,0-7.829,10.691c-1.338,7.27,1.719,17.027,9.088,29a140.333,140.333,0,0,0,9.413,13.377,12.3,12.3,0,0,0-3.616,8.716v.275a12.262,12.262,0,0,0,2.292,7.148,89.387,89.387,0,0,0-25.351,39.529,3.432,3.432,0,1,0,6.551,2.051A82.526,82.526,0,0,1,113.508,82.94H124.62a39.891,39.891,0,0,0-11.112,17.049,3.432,3.432,0,1,0,6.5,2.194,32.761,32.761,0,0,1,16.8-19.243h12.5a38.869,38.869,0,0,0-4.474,8.948,3.433,3.433,0,1,0,6.486,2.248A32.9,32.9,0,0,1,158,82.939h21.981a32.909,32.909,0,0,1,6.676,11.2,3.432,3.432,0,1,0,6.486-2.248,38.868,38.868,0,0,0-4.474-8.948h12.5a32.761,32.761,0,0,1,16.8,19.243,3.432,3.432,0,1,0,6.5-2.194A39.892,39.892,0,0,0,213.371,82.94h11.111a82.622,82.622,0,0,1,22.148,89.125,3.433,3.433,0,1,0,6.457,2.333,89.471,89.471,0,0,0-24.12-96.648ZM98.6,20.477a8.01,8.01,0,0,1,4.375-5.911c6.47-3.544,9.5-1,14.51,3.225,4.431,3.73,9.944,8.373,18.65,7.259,9.458-1.211,13.852-6.443,17.383-10.647s6.334-7.539,13.751-7.539,10.213,3.327,13.751,7.539,7.926,9.436,17.383,10.647c8.7,1.113,14.219-3.529,18.65-7.259,5.013-4.221,8.038-6.769,14.509-3.225a8.01,8.01,0,0,1,4.375,5.911C237.92,31.221,224.712,50.143,218.3,58H197.874a136.121,136.121,0,0,0,8.116-12.466,3.432,3.432,0,1,0-5.963-3.4A135.8,135.8,0,0,1,189.261,58H170.4c-1.027-3.791-1.86-7.461-2.464-10.911a3.433,3.433,0,1,0-6.762,1.184c.544,3.1,1.262,6.369,2.126,9.727H145.28a135.413,135.413,0,0,1-10.766-15.867,3.432,3.432,0,0,0-5.963,3.4A136.123,136.123,0,0,0,136.667,58H116.238C109.829,50.143,96.62,31.22,98.6,20.477Zm20.468,55.6a5.475,5.475,0,0,1-5.469-5.469v-.275a5.475,5.475,0,0,1,5.469-5.469h99.854a5.475,5.475,0,0,1,5.469,5.469v.275a5.475,5.475,0,0,1-5.469,5.469Z" transform="translate(-21.219)" fill="#4b5360"/>
    <path id="Path_387" data-name="Path 387" d="M224.13,334.675a3.432,3.432,0,0,0-4.684,1.273,83.02,83.02,0,0,1-29.332,29.911,82.049,82.049,0,0,1-20.908,8.841,34.736,34.736,0,0,0-41.416-55.148A34.62,34.62,0,0,0,94.7,318.7a3.417,3.417,0,0,0-.767-.5,34.735,34.735,0,0,0-25.795-1.5,83.237,83.237,0,0,1-1.919-34.337,3.432,3.432,0,0,0-6.785-1.044,90.064,90.064,0,0,0,2.374,38.237A34.744,34.744,0,0,0,93.929,381.1a3.422,3.422,0,0,0,.767-.5,34.62,34.62,0,0,0,33.136-.881,3.46,3.46,0,0,0,.465.316,34.782,34.782,0,0,0,16.865,4.361c.892,0,1.773-.045,2.649-.111a3.428,3.428,0,0,0,.836.107h.035A89.358,89.358,0,0,0,225.4,339.36,3.432,3.432,0,0,0,224.13,334.675ZM79.141,377.533a27.883,27.883,0,1,1,8.825-54.339,35.029,35.029,0,0,0-5.1,5.364,21.422,21.422,0,1,0,0,42.185,35.015,35.015,0,0,0,5.1,5.362A27.725,27.725,0,0,1,79.141,377.533ZM78.914,364.2a14.554,14.554,0,0,1,0-29.1,34.63,34.63,0,0,0,0,29.1Zm3.659-14.552a27.883,27.883,0,1,1,27.883,27.883A27.915,27.915,0,0,1,82.573,349.65Zm59.57-14.232a14.558,14.558,0,1,1,0,28.465,34.618,34.618,0,0,0,0-28.465Zm-8.165,39.78a35.036,35.036,0,0,0,4.593-5.163,21.423,21.423,0,1,0,0-40.768,35.025,35.025,0,0,0-4.591-5.161,27.881,27.881,0,1,1,0,51.092Z" transform="translate(0 -150.991)" fill="#4b5360"/>
    <path id="Path_388" data-name="Path 388" d="M163.357,387.265a21.423,21.423,0,1,0,21.423,21.423A21.447,21.447,0,0,0,163.357,387.265Zm0,35.981a14.558,14.558,0,1,1,14.558-14.558A14.575,14.575,0,0,1,163.357,423.246Z" transform="translate(-52.9 -210.03)" fill="#4b5360"/>
  </g>
</svg>
