<svg xmlns="http://www.w3.org/2000/svg" xmlns:xlink="http://www.w3.org/1999/xlink" width="181" height="172" viewBox="0 0 181 172">
  <defs>
    <clipPath id="clip-path">
      <rect id="Rectangle_58" data-name="Rectangle 58" width="181" height="172" transform="translate(0 -0.397)" fill="#342d22"/>
    </clipPath>
  </defs>
  <g id="Mask_Group_8" data-name="Mask Group 8" transform="translate(0 0.397)" clip-path="url(#clip-path)">
    <g id="castle" transform="translate(4.482 0)">
      <path id="Path_114" data-name="Path 114" d="M5.675,175.419H173.6a1.841,1.841,0,0,0,1.841-1.841V125.405a1.879,1.879,0,0,0-.166-.755c-.048-.151-11.835-20.856-11.91-21.01V83.567a1.849,1.849,0,0,0-.147-.73l-4.559-10.853a1.841,1.841,0,0,0-1.7-1.128h-5.6c-.06-.56.149-5.05-.147-5.442l-5.35-12.741a1.841,1.841,0,0,0-1.7-1.126H132.595a1.841,1.841,0,0,0,0,3.682h10.341l3.809,9.068H126.7V35.75a2.047,2.047,0,0,0-.105-.585c-.131-.448-10.343-20.749-10.5-21.133V5.26a1.841,1.841,0,1,0-3.682,0v8.772l-10.411,20.9a3.291,3.291,0,0,0-.14.4,3.229,3.229,0,0,0-.053.421V58.964c-.982-.024-2.2-.11-2.735.9l-4,6.764a1.98,1.98,0,0,1-1.7.969,1.841,1.841,0,0,0-1.841,1.841c.458,3.629,5.7,1.222,6.709-.937l3.463-5.859h21.308v37.872a1.841,1.841,0,0,0,3.682,0V67.977h20.972V96.47a1.841,1.841,0,0,0,3.682,0V85.4h8.323v16.884h-27.6a1.975,1.975,0,0,0-.741.158,2.14,2.14,0,0,0-.722.564l-12.98,16.963V98.356a1.807,1.807,0,0,0-.181-.783c.031-.04-11.234-22.294-11.225-22.335a1.841,1.841,0,0,0-3.29,0L91.733,97.529a1.957,1.957,0,0,0-.2.827v12.271a17.219,17.219,0,0,0-5.875,1.654v-6.9c-.356-10.013-14.777-10.011-15.131,0V123.1a13.263,13.263,0,0,0-.953,1.08,7.39,7.39,0,0,0-6.525-5.35V105.384c-.355-10.012-14.776-10.011-15.13,0v23.379c-2.411,2.833-3.281,5.26-6.407,6.752-3.677,1.493-6.709,3.707-8.229,7.483a17.2,17.2,0,0,0-9.12.511,12.6,12.6,0,0,0-9-2.209l1.271-10.121a8.458,8.458,0,0,1,3.027-5.5l6.552-5.4a13.02,13.02,0,0,0,4.662-8.824c.175-4.359,2.024-6.385,5.3-8.95V130.62a1.841,1.841,0,0,0,3.682,0V74.1h7.856V87.959A1.841,1.841,0,0,0,49.355,89.8H91.477a1.841,1.841,0,1,0,0-3.682h-3.7V47.552a1.841,1.841,0,0,0-1.841-1.841H58.008a1.841,1.841,0,0,0-1.542.835L47.813,59.8c-.053.105-.115.2-.162.312a2.21,2.21,0,0,0-.138.694v9.613H37.819a1.841,1.841,0,0,0-1.841,1.841V97.692c-4.861,4.082-8.639,6.476-8.967,13.438a9.317,9.317,0,0,1-3.336,6.312l-6.552,5.4a12.126,12.126,0,0,0-4.338,7.878l-1.462,11.64a1.831,1.831,0,0,0-.008.33c-6.929,3.81-6.727,11.422-4.084,15.78-1.9,2.083-5.015,6.968-3.361,15.461a1.841,1.841,0,0,0,1.807,1.492ZM114.258,18.594l7.627,15.315H106.628ZM105.5,58.964V37.591H123.02V58.964ZM51.2,86.118V62.646H84.1V86.12ZM59,49.393H84.1v9.57H52.757Zm7.641,115.333H80.013a1.841,1.841,0,0,0,1.841-1.841v-6.862h9.687v6.862a1.841,1.841,0,0,0,1.841,1.841h9.608v7.01H64.75a19.649,19.649,0,0,1-9.636-6.017v-9.7H64.8v6.862A1.841,1.841,0,0,0,66.643,164.727ZM115.8,153.643h10.789a1.841,1.841,0,0,0,1.841-1.841v-5.733h7.2v25.668h-7.284v-5.044a7.191,7.191,0,1,0-14.383,0v5.044h-7.289V146.068h7.286V151.8a1.841,1.841,0,0,0,1.843,1.841Zm8.86,18.094h-7.019v-5.044a3.509,3.509,0,1,1,7.019,0Zm47.1,0H139.309V156.023h5.708v6.862a1.841,1.841,0,0,0,1.841,1.841h13.369a1.841,1.841,0,0,0,1.841-1.841v-6.862h9.687Zm-20.4-97.2h4.378l3.016,7.179h-7.394Zm-19.5,32.915L141,123.564H119.527ZM104.59,80.161l8.223,16.353H96.366ZM74.218,105.384a3.884,3.884,0,0,1,7.767,0v9.4a16.451,16.451,0,0,0-3.352,4.212,17.446,17.446,0,0,0-4.415,1.461Zm5.922,17.082a1.859,1.859,0,0,0,1.429-1.119,12.593,12.593,0,0,1,9.972-7.013v31.492a1.841,1.841,0,1,0,3.682,0V100.2h18.738v36.983a1.841,1.841,0,0,0,3.682,0v-9.933h24.678v19.287a1.841,1.841,0,0,0,3.682,0V125.405a2.231,2.231,0,0,0-.048-.4,1.925,1.925,0,0,0-.192-.5l-10.516-18.529h25.2l9.987,17.6H151.415a1.841,1.841,0,0,0,0,3.682h20.34v25.1H160.227a1.841,1.841,0,0,0-1.841,1.841v6.862H148.7v-6.862a1.841,1.841,0,0,0-1.841-1.841h-7.549v-8.114a1.841,1.841,0,0,0-1.841-1.841H126.589a1.841,1.841,0,0,0-1.841,1.841v5.733h-7.107v-5.733a1.841,1.841,0,0,0-1.841-1.841h-10.97a1.841,1.841,0,0,0-1.841,1.841v16.815H95.221v-6.86a1.841,1.841,0,0,0-1.841-1.841H83.671l-1.694-8.675a10.933,10.933,0,0,0-4.867-7.116c-4.249-2.458-4.423-3.437-5.95-7.912,1.516-3.426,4.53-5.5,8.977-6.173ZM51.61,105.384a3.883,3.883,0,0,1,7.766,0v13.473c-3.422.251-5.649,3.124-7.766,5.489ZM41.118,139.769a15.054,15.054,0,0,0,6.808-4.928,103.459,103.459,0,0,1,9.229-11.056,4.369,4.369,0,0,1,3.088-1.3c2.37-.045,4.667-.241,5.688,2.413l2.818,7.962a10.941,10.941,0,0,0,4.445,5.57l1.946,1.231a7.235,7.235,0,0,1,3.221,4.71l1.558,7.978a1.837,1.837,0,0,0-1.751,1.832v6.862H68.484v-6.862a1.841,1.841,0,0,0-1.841-1.841H53.273a1.841,1.841,0,0,0-1.841,1.841V159.5c-3.407-8.032-8.39-9.341-11.157-9.375a10.243,10.243,0,0,0-3.663-5.545,8.876,8.876,0,0,1,4.506-4.811Zm-30.457,20.5a1.857,1.857,0,0,0,.421-2.585c-6.307-8.763,4.374-16.685,11.51-10.747a1.847,1.847,0,0,0,1.769.36c6.978-2.4,11.91-.549,12.584,4.923a1.835,1.835,0,0,0,2.363,1.651c.22-.062,5.365-1.384,8.931,7.539a22.964,22.964,0,0,0,8.073,10.325H7.242C6.22,163.672,10.483,160.4,10.661,160.27Z" transform="translate(-3.401 -3.419)" fill="#342d22"/>
      <path id="Path_115" data-name="Path 115" d="M100.662,123.035h7.857a1.841,1.841,0,0,0,1.841-1.841v-6.628c-.27-7.634-11.268-7.635-11.539,0v6.628a1.841,1.841,0,0,0,1.841,1.841Zm1.841-8.469a2.088,2.088,0,0,1,4.175,0v4.787H102.5Z" transform="translate(-3.401 -3.419)" fill="#342d22"/>
      <path id="Path_116" data-name="Path 116" d="M155.01,147.667h7.658a1.841,1.841,0,0,0,1.841-1.841V134.294a1.841,1.841,0,0,0-1.841-1.841H155.01a1.841,1.841,0,0,0-1.841,1.841v11.532A1.841,1.841,0,0,0,155.01,147.667Zm1.841-11.532h3.977v7.85h-3.977Z" transform="translate(-3.401 -3.419)" fill="#342d22"/>
      <path id="Path_117" data-name="Path 117" d="M63.739,67.6H56.763a1.841,1.841,0,0,0-1.841,1.841v9.468a1.841,1.841,0,0,0,1.841,1.841h6.977a1.841,1.841,0,0,0,1.841-1.841V69.441A1.841,1.841,0,0,0,63.739,67.6ZM61.9,77.068H58.6V71.282H61.9Z" transform="translate(-3.401 -3.419)" fill="#342d22"/>
      <path id="Path_118" data-name="Path 118" d="M78.531,67.6H71.553a1.841,1.841,0,0,0-1.841,1.841v9.468a1.841,1.841,0,0,0,1.841,1.841h6.978a1.841,1.841,0,0,0,1.841-1.841V69.441A1.841,1.841,0,0,0,78.531,67.6ZM76.69,77.068h-3.3V71.282h3.3Z" transform="translate(-3.401 -3.419)" fill="#342d22"/>
      <path id="Path_119" data-name="Path 119" d="M117.6,41.627h-6.692a1.841,1.841,0,0,0-1.841,1.841v9.468a1.841,1.841,0,0,0,1.841,1.841H117.6a1.841,1.841,0,0,0,1.841-1.841V43.468A1.841,1.841,0,0,0,117.6,41.627Zm-1.841,9.468h-3.01V45.309h3.01Z" transform="translate(-3.401 -3.419)" fill="#342d22"/>
      <path id="Path_120" data-name="Path 120" d="M133.421,92.309h8.093a1.841,1.841,0,0,0,1.841-1.841V78.908a1.841,1.841,0,0,0-1.841-1.841h-8.093a1.841,1.841,0,0,0-1.841,1.841v11.56a1.841,1.841,0,0,0,1.841,1.841Zm1.841-11.56h4.411v7.878h-4.411Z" transform="translate(-3.401 -3.419)" fill="#342d22"/>
    </g>
  </g>
</svg>
