<svg xmlns="http://www.w3.org/2000/svg" width="403" height="78" viewBox="0 0 403 78">
  <g id="Group_193" data-name="Group 193" transform="translate(-279 -3577.902)">
    <rect id="Rectangle_38" data-name="Rectangle 38" width="403" height="78" transform="translate(279 3577.902)" fill="#342d22"/>
    <g id="Rectangle_39" data-name="Rectangle 39" transform="translate(288 3586.902)" fill="#8d8679" stroke="#fff" stroke-width="3">
      <rect width="386" height="62" stroke="none"/>
      <rect x="1.5" y="1.5" width="383" height="59" fill="none"/>
    </g>
    <g id="Group_35" data-name="Group 35" transform="translate(282.071 3580.973)">
      <line id="Line_1" data-name="Line 1" x1="6.141" y1="6.141" transform="translate(0)" fill="none" stroke="#fff" stroke-width="2"/>
      <line id="Line_2" data-name="Line 2" x1="6.141" y2="6.141" transform="translate(0 66.678)" fill="none" stroke="#fff" stroke-width="2"/>
      <line id="Line_3" data-name="Line 3" y1="6.141" x2="6.141" transform="translate(390.467)" fill="none" stroke="#fff" stroke-width="2"/>
      <line id="Line_4" data-name="Line 4" x2="6.141" y2="6.141" transform="translate(390.467 66.678)" fill="none" stroke="#fff" stroke-width="2"/>
      <line id="Line_5" data-name="Line 5" x2="396.608" transform="translate(0)" fill="none" stroke="#fff" stroke-width="2"/>
      <line id="Line_6" data-name="Line 6" y1="72.819" transform="translate(396.608)" fill="none" stroke="#fff" stroke-width="2"/>
      <line id="Line_8" data-name="Line 8" y2="72.819" transform="translate(0)" fill="none" stroke="#fff" stroke-width="2"/>
    </g>
    <path id="Path_413" data-name="Path 413" d="M17.627-25a3.893,3.893,0,0,1,1.038.549,2.365,2.365,0,0,1,1.111,1.758L12.463-5.811,5.151-22.693a2.359,2.359,0,0,1,1.123-1.758A3.715,3.715,0,0,1,7.3-25H.061a2.448,2.448,0,0,1,.842.415,2.578,2.578,0,0,1,1.074,1.758L12.366,0V-.22l.1.22L22.925-22.827a2.622,2.622,0,0,1,1.086-1.758A2.568,2.568,0,0,1,24.866-25Zm14.307,2.307a2.372,2.372,0,0,1,1.1-1.758A3.959,3.959,0,0,1,34.058-25H26.892a3.774,3.774,0,0,1,1.013.549,2.365,2.365,0,0,1,1.111,1.758V-2.307A2.365,2.365,0,0,1,27.905-.549,3.774,3.774,0,0,1,26.892,0h7.166a3.959,3.959,0,0,1-1.025-.549,2.372,2.372,0,0,1-1.1-1.758Zm16.541-1.868.94-.439-.94,4.565a3.41,3.41,0,0,0-.4-1.355,2.318,2.318,0,0,0-2.209-1.367H41.113v9.351h5.225a3.982,3.982,0,0,0,2.49-.83l-.61,4.9a2.724,2.724,0,0,0-.427-1.331A2.9,2.9,0,0,0,45.1-12.39H41.113v9.277a5.237,5.237,0,0,0,1.147,1.05A5.537,5.537,0,0,0,45.5-1.013a4.41,4.41,0,0,0,3.259-1.648,7.2,7.2,0,0,0,1.16-1.648L49.414,0H36.084a4.135,4.135,0,0,0,1.062-.574A2.332,2.332,0,0,0,38.22-2.466q0-1.733-.037-20.4a3.794,3.794,0,0,0-2.539-1.7ZM76.123-5.811l7.324-16.882a2.406,2.406,0,0,0-1.123-1.758A3.959,3.959,0,0,0,81.3-25h7.227a2.448,2.448,0,0,0-.842.415,2.578,2.578,0,0,0-1.074,1.758L76.221,0V-.22l-.1.22-6.2-13.391L63.721,0l-.1-.22V0L53.235-22.827a2.578,2.578,0,0,0-1.074-1.758A2.448,2.448,0,0,0,51.318-25h7.239a3.715,3.715,0,0,0-1.025.549,2.359,2.359,0,0,0-1.123,1.758L63.721-5.811l4.7-10.828,1.5-3.772,1.514,3.772ZM109.912-.5l8.3-14.99,2.869,12.4v.806a2.365,2.365,0,0,1-1.1,1.746,4.029,4.029,0,0,1-1,.537h7.08a4.029,4.029,0,0,1-1-.537,2.365,2.365,0,0,1-1.1-1.746l-3.723-22.424L109.875-4.675,99.817-25,96.948-2.576A2.337,2.337,0,0,1,95.85-.83a3.6,3.6,0,0,1-1,.549h7.092a3.774,3.774,0,0,1-1.013-.549,2.385,2.385,0,0,1-1.1-1.746v-.793l1.721-12.7L109.79-.574l.085.085h.012v.012Zm26.355-10.51,3.113-8.423,3.015,8.447ZM151.965,0a4.45,4.45,0,0,1-1.086-.427,3.948,3.948,0,0,1-1.733-1.685Q148.279-3.784,139.563-25L130.994-2.295a2.987,2.987,0,0,1-.635,1.025A3.921,3.921,0,0,1,127.832,0h7.324a4.113,4.113,0,0,1-.952-.354q-.964-.513-.964-1.233l2.637-7.9h6.9l3.21,8.289A3.343,3.343,0,0,0,144.067,0ZM158.9-12.415q.1-7.849.1-9.79,0-1.331.549-1.562a9.748,9.748,0,0,1,1.99-.1,4.329,4.329,0,0,1,3.2,1.5,7.087,7.087,0,0,1,1.746,5.078q0,2.966-1.7,4.211a3.127,3.127,0,0,1-1.709.659Zm6.714.83a11.359,11.359,0,0,0,3.442-5,5.733,5.733,0,0,0,.354-2.234q0-4.834-5.261-5.908a14.415,14.415,0,0,0-5.249-.11h-5a3.774,3.774,0,0,1,1.013.549,2.365,2.365,0,0,1,1.1,1.746V-2.295a2.372,2.372,0,0,1-1.1,1.758A3.954,3.954,0,0,1,153.894,0h7.117A3.954,3.954,0,0,1,160-.537a2.372,2.372,0,0,1-1.1-1.758v-8.374a25.68,25.68,0,0,0,5.615-.452A2.253,2.253,0,0,0,165.613-11.584Z" transform="translate(395 3627.902)" fill="#fff"/>
    <line id="Line_39" data-name="Line 39" x2="38.603" transform="translate(621.652 3617.821)" fill="none" stroke="#fff" stroke-linecap="round" stroke-width="2"/>
    <line id="Line_37" data-name="Line 37" x2="38.603" transform="translate(300.495 3618.26)" fill="none" stroke="#fff" stroke-linecap="round" stroke-width="2"/>
  </g>
</svg>
