<svg xmlns="http://www.w3.org/2000/svg" width="773.949" height="75.362" viewBox="0 0 773.949 75.362">
  <g id="Group_170" data-name="Group 170" transform="translate(-93.526 -212.13)">
    <path id="Path_139" data-name="Path 139" d="M-88.193,5.442a.79.79,0,0,1,1.5,0l1.676,5.434a.768.768,0,0,0,.152.274l3.761,4.375a.774.774,0,0,1-.775,1.251l-5.391-1.209a.8.8,0,0,0-.35,0l-68.657,34.2c-.736.165-.918-.229-.431-.8L-90.021,11.15a.768.768,0,0,0,.152-.274Z" transform="matrix(0.883, 0.469, -0.469, 0.883, 255.508, 281.505)" fill="#cdd1c7"/>
    <path id="Path_140" data-name="Path 140" d="M68.782,44.361a.79.79,0,0,0,1.5,0l1.676-5.434a.768.768,0,0,1,.152-.274l3.761-4.375a.774.774,0,0,0-.775-1.251l-5.391,1.209a.8.8,0,0,1-.35,0L.7.038c-.736-.165-.918.229-.431.8L66.954,38.653a.768.768,0,0,1,.152.274Z" transform="matrix(-0.883, 0.469, -0.469, -0.883, 867.475, 251.783)" fill="#cdd1c7"/>
  </g>
</svg>
