<svg xmlns="http://www.w3.org/2000/svg" width="206" height="201.312" viewBox="0 0 206 201.312">
  <g id="swords" transform="translate(0 -4.119)">
    <path id="Path_389" data-name="Path 389" d="M157.248,186.151l-7.128,7.128a3.129,3.129,0,1,0,4.425,4.425l7.128-7.128a3.129,3.129,0,1,0-4.425-4.425Z" transform="translate(-64.318 -78.074)" fill="#2d312e"/>
    <path id="Path_390" data-name="Path 390" d="M228.339,83.635l-48.6,48.6a3.129,3.129,0,1,0,4.425,4.425l48.6-48.6a3.129,3.129,0,0,0-4.425-4.425Z" transform="translate(-77.085 -33.882)" fill="#2d312e"/>
    <path id="Path_391" data-name="Path 391" d="M297.648,40.35,283.391,54.607a3.129,3.129,0,1,0,4.425,4.425l14.257-14.257a3.129,3.129,0,1,0-4.425-4.425Z" transform="translate(-121.768 -15.223)" fill="#2d312e"/>
    <path id="Path_392" data-name="Path 392" d="M113.6,105.057,79.041,70.5a3.129,3.129,0,0,0-4.425,4.425l34.56,34.56a3.129,3.129,0,1,0,4.425-4.425Z" transform="translate(-31.77 -28.219)" fill="#2d312e"/>
    <path id="Path_393" data-name="Path 393" d="M48.895,40.35a3.129,3.129,0,0,0-4.425,4.425l8.191,8.191a3.129,3.129,0,0,0,4.425-4.425Z" transform="translate(-18.775 -15.223)" fill="#2d312e"/>
    <path id="Path_394" data-name="Path 394" d="M202.4,184.441a12.338,12.338,0,0,0-4.74-2.931,12.3,12.3,0,0,0-7.695-7.714,12.315,12.315,0,0,0-7.691-7.691,12.3,12.3,0,0,0-7.715-7.695,12.34,12.34,0,0,0-2.931-4.741c-.147-.147-.3-.288-.456-.428a74.6,74.6,0,0,1,21.412-10.591,3.129,3.129,0,0,0,2.071-3.911l-4.642-15.088a3.129,3.129,0,0,0-3.911-2.07,96.722,96.722,0,0,0-20.879,9.247l-25.545-27.156L197.9,49.114a3.131,3.131,0,0,0,.984-2.092L201.3,7.441a3.13,3.13,0,0,0-3.315-3.315L158.407,6.551a3.129,3.129,0,0,0-2.092.984l-53.417,57L53.421,11.274a3.129,3.129,0,0,0-1.852-.968L8.257,4.15A3.129,3.129,0,0,0,4.719,7.689L10.874,51a3.126,3.126,0,0,0,.968,1.852l54.527,50.666L40.777,130.828A96.73,96.73,0,0,0,19.9,121.582a3.13,3.13,0,0,0-3.911,2.07L11.348,138.74a3.129,3.129,0,0,0,2.071,3.911,74.582,74.582,0,0,1,21.412,10.59c-.155.139-.308.28-.456.428a12.34,12.34,0,0,0-2.931,4.741,12.3,12.3,0,0,0-7.715,7.695,12.315,12.315,0,0,0-7.691,7.691,12.3,12.3,0,0,0-7.695,7.715,12.294,12.294,0,1,0,15.578,15.577,12.3,12.3,0,0,0,7.714-7.7,12.315,12.315,0,0,0,7.691-7.691,12.285,12.285,0,0,0,7.692-7.712,12.327,12.327,0,0,0,4.743-2.933c.147-.147.288-.3.428-.456a74.6,74.6,0,0,1,10.59,21.412,3.125,3.125,0,0,0,3.911,2.07l15.088-4.642a3.129,3.129,0,0,0,2.071-3.911A96.729,96.729,0,0,0,74.6,164.653l28.452-26.663L131.4,164.651a96.718,96.718,0,0,0-9.247,20.878,3.129,3.129,0,0,0,2.071,3.911l15.088,4.642a3.125,3.125,0,0,0,3.911-2.07,74.6,74.6,0,0,1,10.59-21.412c.139.155.28.308.428.456a12.339,12.339,0,0,0,4.743,2.933,12.285,12.285,0,0,0,7.692,7.712,12.316,12.316,0,0,0,7.691,7.691,12.295,12.295,0,0,0,7.714,7.695A12.287,12.287,0,1,0,202.4,184.441ZM16.914,49.023,11.5,10.933l38.09,5.414L98.61,69.113,70.648,98.952ZM12.3,199.173a6.036,6.036,0,0,1-4.274-10.307A5.979,5.979,0,0,1,10,187.57l7.865,7.865a5.983,5.983,0,0,1-1.3,1.968A6.1,6.1,0,0,1,12.3,199.173Zm9.993-8.157-7.881-7.881a5.945,5.945,0,0,1,1.3-1.961,6.018,6.018,0,0,1,1.961-1.312l7.888,7.888a6.019,6.019,0,0,1-1.313,1.962A5.941,5.941,0,0,1,22.3,191.017Zm7.7-7.691-7.888-7.888a6.046,6.046,0,0,1,3.265-3.265l7.888,7.888a6.046,6.046,0,0,1-3.265,3.265Zm7.691-7.69L29.8,167.747a6.028,6.028,0,0,1,3.274-3.266l7.879,7.879a6.013,6.013,0,0,1-3.264,3.275Zm9.652-9a6,6,0,0,1-1.967,1.3L37.5,160.064a5.837,5.837,0,0,1,2.419-2.845,74.539,74.539,0,0,1,8.289,8.289A5.961,5.961,0,0,1,47.336,166.631ZM67.784,187.2a80.763,80.763,0,0,0-49.552-49.552l2.8-9.112a90.3,90.3,0,0,1,34.3,21.435c.02.022.035.047.056.068s.047.035.068.056A90.309,90.309,0,0,1,76.9,184.4ZM62,147.857,79.858,130a3.129,3.129,0,0,0-4.425-4.425L57.574,143.432a96.464,96.464,0,0,0-11.427-9.182L160.033,12.722l34.808-2.132L192.71,45.4,71.182,159.284A96.567,96.567,0,0,0,62,147.857ZM107.631,133.7l27.479-25.751,24.738,26.3a96.5,96.5,0,0,0-11.423,9.179l-17.858-17.858A3.129,3.129,0,1,0,126.142,130L144,147.856a96.46,96.46,0,0,0-9.18,11.423Zm30.585,53.5-9.112-2.8a90.3,90.3,0,0,1,21.436-34.3c.022-.02.047-.035.068-.056s.035-.047.056-.068a90.3,90.3,0,0,1,34.3-21.435l2.8,9.112A80.757,80.757,0,0,0,138.216,187.2Zm20.448-20.568a5.955,5.955,0,0,1-.875-1.123,74.538,74.538,0,0,1,8.289-8.289,5.835,5.835,0,0,1,2.42,2.844l-7.866,7.866A5.985,5.985,0,0,1,158.663,166.632Zm7.695,7.695a5.95,5.95,0,0,1-1.307-1.966l7.879-7.879a6.028,6.028,0,0,1,3.274,3.266l-7.888,7.888A6,6,0,0,1,166.358,174.327Zm7.691,7.69a6,6,0,0,1-1.309-1.957l7.888-7.888a6.045,6.045,0,0,1,3.265,3.265l-7.888,7.888A5.991,5.991,0,0,1,174.049,182.017Zm7.695,7.695a6.018,6.018,0,0,1-1.313-1.961l7.888-7.888a6.026,6.026,0,0,1,1.962,1.313,5.94,5.94,0,0,1,1.3,1.961l-7.881,7.881A5.938,5.938,0,0,1,181.744,189.711Zm16.227,7.691a6.029,6.029,0,0,1-8.537,0,5.993,5.993,0,0,1-1.3-1.968L196,187.569a5.985,5.985,0,0,1,1.968,1.3,6.031,6.031,0,0,1,0,8.537Z" fill="#2d312e"/>
  </g>
</svg>
