<svg xmlns="http://www.w3.org/2000/svg" width="231.541" height="235.578" viewBox="0 0 231.541 235.578">
  <path id="medieval-house" d="M193.475,238.8a2.51,2.51,0,0,0,2.51,2.51h41.623a2.519,2.519,0,0,0,1.118-4.756c-.051-.026-5.036-2.581-6.773-9.628.169-9.959-6.875-20.049-20.992-19.392-2.35-11.5-12.119-18.779-26.056-14.788v-18.6h3.276a7.23,7.23,0,0,0,7.222-7.222v-4.845a7.23,7.23,0,0,0-7.226-7.223v-25.6a7.307,7.307,0,0,0,4.792-6.848V111.946a123.563,123.563,0,0,0,11.5,5.557,2.51,2.51,0,0,0,3.336-1.616l2.136-7.185a10.957,10.957,0,0,0-5.4-12.812,188.341,188.341,0,0,1-36.228-24.816h4.355a2.51,2.51,0,0,0,0-5.02h-9.914q-3.494-3.273-6.689-6.558c.165-2.18.333-4.518.5-6.956h23.182c.534,7.923,1.137,15.776,1.707,22.762a2.51,2.51,0,0,0,5-.409c-1.326-16.229-3.514-45.858-3.283-61.955a7.09,7.09,0,0,0-7.06-7.159h-16.1a7.09,7.09,0,0,0-7.06,7.159c.187,12.961-.68,29.029-1.568,41.61a204.638,204.638,0,0,1-30.8-43.869c-3.139-5.958-8.638-4.825-14.246-4.9a8.906,8.906,0,0,0-7.983,4.9A198.982,198.982,0,0,1,76.178,44.49H57.354a9.508,9.508,0,0,0-9.5,9.5V73.439A187.5,187.5,0,0,1,14.4,95.889,10.958,10.958,0,0,0,9,108.7l2.136,7.185A2.51,2.51,0,0,0,14.48,117.5a125.552,125.552,0,0,0,11.5-5.58v10.492a7.308,7.308,0,0,0,4.792,6.852v25.6a7.229,7.229,0,0,0-7.225,7.222v4.845a7.23,7.23,0,0,0,7.222,7.223h3.275V238.8a2.526,2.526,0,0,0,2.51,2.51c23.128-.009,70.664.007,93.54,0h52.3a2.51,2.51,0,0,0,2.51-2.51V197.959c13.917-4.489,20.346,3.514,21.447,12.405a2.51,2.51,0,0,0,2.706,2.295c6.145-.5,10.787.725,13.81,3.649,4.328,4.189,4.063,10.684,4.06,10.74a19.879,19.879,0,0,0,4.084,9.245H195.985a2.51,2.51,0,0,0-2.51,2.51ZM170.708,47.516V35.624a2.51,2.51,0,1,0-5.02,0V47.516h-8.8c.368-5.952.694-12.321.9-18.6h20.659c.229,5.852.574,12.19.977,18.6ZM158.566,11.4a2.028,2.028,0,0,1,1.456-.608h16.1a2.047,2.047,0,0,1,2.041,2.066c-.047,3.232,0,6.97.116,11.037H157.923c.081-3.813.108-7.536.057-11.036a2.022,2.022,0,0,1,.585-1.457ZM86.356,211.214v25.078H59.288V216.357H77.16a2.51,2.51,0,0,0,0-5.02H71.208V193.115H95.115a23.09,23.09,0,0,0-8.761,18.1Zm-47.295-18.1H66.186v18.227H39.061Zm47.293-18.962V188.1H59.288V174.152Zm5.02,13.946V174.152H128.46V188.1Zm42.106,0V174.152h27.208V188.1Zm-5.9,23.12v25.076H117.83V195.167a18.116,18.116,0,0,1,9.744,16.048Zm5.02,5.146h27.086V236.3H132.594Zm0-5.02a23.09,23.09,0,0,0-8.761-18.227h22.952v12.177a2.51,2.51,0,0,0,5.02,0v-12.18h28.081v18.227ZM179.886,188.1H165.707V174.152h14.179ZM151.8,154.863v-25.15h31.354v25.15ZM33.28,124.693A2.285,2.285,0,0,1,31,122.411v-7.882H187.951v7.882a2.284,2.284,0,0,1-2.282,2.282ZM31,109.119A225.565,225.565,0,0,0,72.163,78.536H82.919v30.978H31ZM86.738,63.611H132.22c3.119,3.514,6.249,6.812,9.354,9.9H77.367c3.113-3.1,6.249-6.395,9.371-9.9Zm4.33-5.02A212.4,212.4,0,0,0,109.478,33,214.939,214.939,0,0,0,127.9,58.592Zm96.883,50.918H136.027V78.532h10.739a223.82,223.82,0,0,0,41.184,30.619ZM106.965,78.532V109.51H87.941V78.532Zm5.02,0h19.023V109.51H111.984ZM82.157,129.713v25.15H72.163v-25.15Zm5.02,0h44.594v25.15H87.177Zm49.614,0h9.995v25.15h-9.995ZM52.877,53.987a4.482,4.482,0,0,1,4.477-4.477H72.011A207.866,207.866,0,0,1,52.877,69.092ZM13.813,107.27a5.927,5.927,0,0,1,2.918-6.933c52.806-27.616,79.257-73.87,86.107-87.39a3.91,3.91,0,0,1,3.506-2.151h6.262a3.91,3.91,0,0,1,3.506,2.151c6.85,13.518,33.3,59.772,86.107,87.39a5.927,5.927,0,0,1,2.917,6.933l-1.325,4.459c-11.552-5.31-60.121-30.129-92.17-84.882a2.51,2.51,0,0,0-4.334,0c-31.729,54.4-80.569,79.5-92.17,84.873ZM35.79,129.715H67.143v25.148H35.79Zm-7.225,37.216v-4.845a2.2,2.2,0,0,1,2.2-2.2H188.182a2.205,2.205,0,0,1,2.2,2.2v4.845a2.205,2.205,0,0,1-2.2,2.2H30.767a2.2,2.2,0,0,1-2.2-2.206Zm25.7,7.221V188.1H39.061V174.152ZM39.061,216.361H54.268V236.3H39.061Zm52.312-5.146a18.1,18.1,0,0,1,8-15.016v21.415a2.51,2.51,0,0,0,5.02,0v-23.77a18.091,18.091,0,0,1,8.413-.416v42.865H104.4v-8.671a2.51,2.51,0,0,0-5.02,0v8.671h-8ZM164.7,236.294V216.359h15.186v19.935Z" transform="translate(-8.548 -5.738)" fill="#2d312e"/>
</svg>
