<svg xmlns="http://www.w3.org/2000/svg" width="210.784" height="252" viewBox="0 0 210.784 252">
  <g id="knight-2" transform="translate(-41.872 0)">
    <path id="Path_296" data-name="Path 296" d="M80.686,132.4a3.691,3.691,0,0,0-3.691,3.691v19.484a3.691,3.691,0,1,0,7.383,0V136.1A3.691,3.691,0,0,0,80.686,132.4Zm91.954,26.866a3.691,3.691,0,0,0,3.691-3.691V136.1a3.691,3.691,0,0,0-7.383,0v19.484A3.691,3.691,0,0,0,172.64,159.271ZM252.58,5.4a5.663,5.663,0,0,0-9.821-3.571c-18.351,19.9-34.412,28.759-47.741,26.31-6.432-1.181-11.6-4.792-17.073-8.616C170.4,14.254,162.6,8.807,151.148,9.465c-7.409.426-14.668,3.368-21.6,8.748a22.069,22.069,0,0,0-2.887-.2A21.543,21.543,0,0,0,105,39.393a21.14,21.14,0,0,0,.386,4.029,77.5,77.5,0,0,0-14.7,5.782,3.691,3.691,0,1,0,3.395,6.556,71.035,71.035,0,0,1,28.891-7.789v54.05l-66.334,17.5v-2.8a68.414,68.414,0,0,1,23.771-51.7,3.691,3.691,0,0,0-4.832-5.581,75.794,75.794,0,0,0-26.321,57.278v4.746a8.773,8.773,0,0,0-7.382,8.583v31.572a8.787,8.787,0,0,0,7.382,8.583v31.262a8.883,8.883,0,0,0,4.285,7.625l67.139,41.21a11.4,11.4,0,0,0,11.971,0L199.78,209.1a8.886,8.886,0,0,0,4.291-7.628V170.205c4.121-.9,7.412-4.164,7.382-8.582V130.051a8.783,8.783,0,0,0-7.382-8.583v-4.746a74.967,74.967,0,0,0-12.484-41.468c1.788-.119,3.574-.305,5.349-.576A64.949,64.949,0,0,0,237.7,50.918,67.437,67.437,0,0,0,252.58,5.4ZM112.592,41.757a13.8,13.8,0,0,1-.207-2.364,14.281,14.281,0,0,1,28.556,0,13.78,13.78,0,0,1-.206,2.358,78.659,78.659,0,0,0-28.142.006Zm91.478,88.295v31.572a1.231,1.231,0,0,1-.916,1.19l-27.765,7.325a3.691,3.691,0,0,0,1.883,7.138l19.416-5.122v29.315a1.557,1.557,0,0,1-.765,1.333l-67.135,41.208a4.1,4.1,0,0,1-4.251,0L57.4,202.8a1.555,1.555,0,0,1-.759-1.33V172.154l67.83,17.9a8.644,8.644,0,0,0,4.393,0l31.708-8.365a3.691,3.691,0,1,0-1.883-7.138l-31.706,8.365a1.238,1.238,0,0,1-.629,0l-76.178-20.1a1.231,1.231,0,0,1-.916-1.19V130.052a1.231,1.231,0,0,1,.916-1.19s76.378-20.075,76.491-20.075,76.491,20.075,76.491,20.075a1.231,1.231,0,0,1,.916,1.19Zm-7.382-13.329v2.8l-66.334-17.5V47.963c36.9,1.893,66.334,32.01,66.334,68.759Zm-.866-49.342a55.845,55.845,0,0,1-9.667.623,77.711,77.711,0,0,0-38.218-24.59,21.2,21.2,0,0,0-9.819-22.15,29.217,29.217,0,0,1,13.452-4.429c8.906-.5,15.336,3.982,22.146,8.739,5.878,4.107,11.957,8.354,19.967,9.826,7.286,1.338,15.1.093,23.226-3.7,8.862-4.137,18.386-11.451,28.348-21.762-.648,28.4-21.66,53.2-49.435,57.444Zm-72.851,59.765v41.384a3.691,3.691,0,1,0,7.383,0V127.145a3.691,3.691,0,1,0-7.383,0Zm26.679,40.3a3.691,3.691,0,0,0,3.691-3.691V131.571a3.691,3.691,0,0,0-7.383,0v32.184A3.691,3.691,0,0,0,149.651,167.447Zm-45.976-39.566a3.691,3.691,0,0,0-3.691,3.691v32.184a3.691,3.691,0,0,0,7.383,0V131.572A3.691,3.691,0,0,0,103.675,127.881Z" transform="translate(0 0)" fill="#2d312e"/>
  </g>
</svg>
