<svg xmlns="http://www.w3.org/2000/svg" width="223.636" height="190.131" viewBox="0 0 223.636 190.131">
  <g id="medieval-house-2" transform="translate(0 -38.354)">
    <g id="Group_107" data-name="Group 107" transform="translate(0 38.354)">
      <path id="Path_332" data-name="Path 332" d="M387.569,127.57h5.7a3.276,3.276,0,1,0,0-6.552h-5.7a3.276,3.276,0,0,0,0,6.552Z" transform="translate(-216.438 -84.911)" fill="#2d312e"/>
      <path id="Path_333" data-name="Path 333" d="M439.769,192.57a3.276,3.276,0,0,0-3.276-3.276h-5.241a3.276,3.276,0,0,0,0,6.552h5.241A3.275,3.275,0,0,0,439.769,192.57Z" transform="translate(-241.041 -123.365)" fill="#2d312e"/>
      <path id="Path_334" data-name="Path 334" d="M387.252,220.294a3.276,3.276,0,0,0,0,6.552h8.736a3.276,3.276,0,1,0,0-6.552Z" transform="translate(-216.259 -140.825)" fill="#2d312e"/>
      <path id="Path_335" data-name="Path 335" d="M440.752,248.846h5.678a3.276,3.276,0,0,0,0-6.552h-5.678a3.276,3.276,0,0,0,0,6.552Z" transform="translate(-246.391 -153.215)" fill="#2d312e"/>
      <path id="Path_336" data-name="Path 336" d="M286.252,422.513h4.368a3.276,3.276,0,1,0,0-6.552h-4.368a3.276,3.276,0,1,0,0,6.552Z" transform="translate(-159.375 -251.026)" fill="#2d312e"/>
      <path id="Path_337" data-name="Path 337" d="M318.252,442.513h4.368a3.276,3.276,0,1,0,0-6.552h-4.368a3.276,3.276,0,1,0,0,6.552Z" transform="translate(-177.398 -262.291)" fill="#2d312e"/>
      <path id="Path_338" data-name="Path 338" d="M80.252,422.513H84.62a3.276,3.276,0,1,0,0-6.552H80.252a3.276,3.276,0,1,0,0,6.552Z" transform="translate(-43.354 -251.026)" fill="#2d312e"/>
      <path id="Path_339" data-name="Path 339" d="M48.252,442.513H52.62a3.276,3.276,0,1,0,0-6.552H48.252a3.276,3.276,0,1,0,0,6.552Z" transform="translate(-25.331 -262.291)" fill="#2d312e"/>
      <path id="Path_340" data-name="Path 340" d="M223.369,140.626l-5.794-17.83a3.276,3.276,0,1,0-6.231,2.025l5.333,16.411H159.73V109.779l3.251,2.363a3.276,3.276,0,0,0,3.851-5.3L148.914,93.823h52.352l5.338,16.426a3.276,3.276,0,1,0,6.231-2.025L207.254,91.05a5.454,5.454,0,0,0-5.2-3.778H190.318V59.9a5.474,5.474,0,0,0,4.469-5.373v-10.7a5.474,5.474,0,0,0-5.469-5.468H156.87a5.475,5.475,0,0,0-5.469,5.468v10.7A5.474,5.474,0,0,0,155.87,59.9V87.271H139.9L86.017,48.125a3.277,3.277,0,0,0-3.851,0L1.35,106.841a3.276,3.276,0,0,0,3.851,5.3l3.251-2.362V220.825a7.669,7.669,0,0,0,7.66,7.66H216.322a3.276,3.276,0,0,0,3.276-3.276V147.586a5.454,5.454,0,0,0,3.771-6.96Zm-39.6-76.688h-2.424a3.276,3.276,0,0,0,0,6.552h2.424V87.271H162.422V70.49h2.424a3.276,3.276,0,0,0,0-6.552h-2.424V59.992h21.344ZM157.954,44.906h30.282V53.44H157.954Zm22.154,102.879h12.56v23.1h-12.56Zm-20.378,0h13.827v23.1H159.73Zm-25.9-56.821,12.539,9.11H133.833Zm0,23.685,16.67,26.333h-16.67Zm-22.372-39.94L127.281,86.2v13.87h-15.82Zm15.82,31.917v34.357h-15.82V106.626ZM87.367,57.2l16.31,11.85L87.367,92.8Zm17.541,21.629v21.24H90.316ZM80.815,57.2V92.8L64.5,69.055ZM63.274,78.833l14.592,21.24H63.274Zm0,27.792h41.635v34.357H63.274ZM40.9,86.2,56.722,74.71v25.364H40.9Zm-3.276,36.951a3.276,3.276,0,0,0,3.276-3.276V106.626h15.82v34.357H40.9v-5.816a3.276,3.276,0,0,0-6.552,0v5.816H17.68l16.67-26.334v5.23a3.276,3.276,0,0,0,3.276,3.276ZM34.35,90.964v9.11H21.811ZM15,106.626h16.67L15,132.959ZM49.268,221.932H16.113A1.11,1.11,0,0,1,15,220.824V200.052H49.269v21.881Zm52.133,0H66.781V211.669H101.4Zm0-37.155H96.53a3.276,3.276,0,1,0,0,6.552H101.4v13.789H66.781V191.329H81.243a3.276,3.276,0,0,0,0-6.552H66.781v-12.05H101.4Zm10.962,37.155h-4.409V170.761a4.591,4.591,0,0,0-4.586-4.586H64.816a4.591,4.591,0,0,0-4.586,4.586v51.172H55.821V161.765h56.542Zm40.815,0H118.914V200.052h34.263Zm0-28.432H118.914V159.8a4.591,4.591,0,0,0-4.586-4.586H53.855a4.591,4.591,0,0,0-4.586,4.586v33.7H15V147.534H153.178Zm0-60.541-16.67-26.333h16.67Zm6.552,59.393,20.645,13.411L159.73,219.174Zm7.781-2.759h37.756l-18.878,12.263Zm0,32.339,18.878-12.263,18.878,12.263Zm45.536-2.759L192.4,205.763l20.645-13.411Zm0-36.132H159.73v-5.6h53.317Zm0-12.154H199.22v-23.1h13.826Z" transform="translate(0 -38.354)" fill="#2d312e"/>
      <path id="Path_341" data-name="Path 341" d="M183.175,204.658H159.448a4.591,4.591,0,0,0-4.586,4.586v16.449a4.591,4.591,0,0,0,4.586,4.586h23.726a4.591,4.591,0,0,0,4.586-4.586V209.244A4.591,4.591,0,0,0,183.175,204.658Zm-1.966,19.069h-19.8V211.209h19.8Z" transform="translate(-87.22 -132.018)" fill="#2d312e"/>
      <path id="Path_342" data-name="Path 342" d="M53.186,339.332H65.853a4.591,4.591,0,0,0,4.586-4.586V310.482a4.591,4.591,0,0,0-4.586-4.586H53.186a4.591,4.591,0,0,0-4.586,4.586v24.263A4.592,4.592,0,0,0,53.186,339.332Zm1.966-26.884h8.736V332.78H55.152Z" transform="translate(-27.372 -189.037)" fill="#2d312e"/>
      <path id="Path_343" data-name="Path 343" d="M291.186,339.332h12.667a4.591,4.591,0,0,0,4.586-4.586V310.482a4.591,4.591,0,0,0-4.586-4.586H291.186a4.591,4.591,0,0,0-4.586,4.586v24.263A4.591,4.591,0,0,0,291.186,339.332Zm1.966-26.884h8.736V332.78h-8.736Z" transform="translate(-161.416 -189.037)" fill="#2d312e"/>
    </g>
  </g>
</svg>
