<svg xmlns="http://www.w3.org/2000/svg" width="1470.026" height="148.055" viewBox="0 0 1470.026 148.055">
  <g id="Group_170" data-name="Group 170" transform="translate(-93.526 -212.13)">
    <path id="Path_139" data-name="Path 139" d="M135.128,1.077a1.552,1.552,0,0,1,2.955,0l3.293,10.675a1.51,1.51,0,0,0,.3.539l7.388,8.6a1.521,1.521,0,0,1-1.523,2.458l-10.591-2.375a1.57,1.57,0,0,0-.687,0L1.38,88.153c-1.445.324-1.8-.451-.846-1.564l131-74.3a1.509,1.509,0,0,0,.3-.539Z" transform="matrix(0.883, 0.469, -0.469, 0.883, 134.946, 212.13)" fill="#cdd1c7"/>
    <path id="Path_140" data-name="Path 140" d="M135.128,87.15a1.552,1.552,0,0,0,2.955,0l3.293-10.675a1.51,1.51,0,0,1,.3-.539l7.388-8.6a1.521,1.521,0,0,0-1.523-2.458l-10.591,2.375a1.57,1.57,0,0,1-.687,0L1.38.074C-.065-.25-.423.525.534,1.638l131,74.3a1.509,1.509,0,0,1,.3.539Z" transform="matrix(-0.883, 0.469, -0.469, -0.883, 1563.551, 290.03)" fill="#cdd1c7"/>
  </g>
</svg>
